<svg xmlns="http://www.w3.org/2000/svg" version="1.1" xmlns:xlink="http://www.w3.org/1999/xlink" xmlns:svgjs="http://svgjs.dev/svgjs" width="1000" height="803" viewBox="0 0 1000 803"><g transform="matrix(1,0,0,1,0,0)"><svg viewBox="0 0 448 360" data-background-color="#ffffff" preserveAspectRatio="xMidYMid meet" height="803" width="1000" xmlns="http://www.w3.org/2000/svg" xmlns:xlink="http://www.w3.org/1999/xlink"><defs></defs><g id="tight-bounds" transform="matrix(1,0,0,1,0,0)"><svg viewBox="0 0 448 360" height="360" width="448"><g><svg></svg></g><g><svg viewBox="0 0 448 360" height="360" width="448"><g><path d="M193.855 44.683c1.378 0 2.494 1.116 2.495 2.494 0 1.378-1.116 2.494-2.495 2.495h-23.846l-17.167 17.167c-0.973 0.973-2.551 0.973-3.53 0-0.973-0.973-0.973-2.551 0-3.529l13.644-13.645h-40.378c-11.518 0-19.151 2.688-23.815 8.113-4.739 5.519-6.66 14.056-6.66 25.63 0 0.069 0 0.137-0.006 0.206l0.212 36.692 14.692-14.692c0.973-0.973 2.551-0.973 3.53 0 0.973 0.973 0.973 2.551 0 3.53l-18.178 18.178c0.206 35.832 0.193 71.358-0.013 107.19 25.486 25.2 50.617 50.312 75.811 75.791h25.38c1.378 0 2.494 1.116 2.495 2.495 0 1.378-1.116 2.494-2.495 2.494h-20.448l25.942 26.241 0.006-0.006c8.188 8.188 15.577 12.859 22.824 13.413 7.146 0.543 14.442-2.956 22.586-11.093l28.555-28.555h-20.722c-1.378 0-2.494-1.116-2.495-2.494 0-1.378 1.116-2.494 2.495-2.495h25.711l16.625-16.625c0.973-0.973 2.551-0.973 3.529 0 0.973 0.973 0.973 2.551 0 3.53l-13.101 13.102h40.377c11.518 0 19.151-2.688 23.815-8.113 4.739-5.519 6.66-14.056 6.66-25.63h0.013l-0.212-36.898-16.014 16.014c-0.973 0.973-2.551 0.973-3.53 0-0.973-0.973-0.973-2.551 0-3.53l19.5-19.5c-0.206-35.832-0.193-71.358 0.013-107.19-25.486-25.2-50.617-50.312-75.811-75.791h-26.147c-1.378 0-2.494-1.116-2.495-2.495 0-1.378 1.116-2.494 2.495-2.494h21.215l-25.824-26.123c-0.044-0.037-0.081-0.075-0.124-0.112-8.188-8.188-15.577-12.859-22.824-13.413-7.146-0.543-14.442 2.956-22.586 11.093l-28.555 28.555h18.858zM122.578 44.683h45.367l32.078-32.078c9.248-9.248 17.81-13.195 26.484-12.534 8.568 0.649 16.956 5.824 25.985 14.854 0.05 0.05 0.094 0.094 0.137 0.143l29.278 29.615h43.508c13.071 0 21.919 3.268 27.594 9.871 5.6 6.517 7.864 16.101 7.864 28.867 0 0.081-0.006 0.156-0.012 0.23l-0.225 39.742 28.43 28.112 0.006-0.006c9.03 9.03 14.206 17.411 14.854 25.985 0.661 8.674-3.293 17.236-12.534 26.484l-30.768 30.768 0.237 41.843h0.012c0 12.765-2.27 22.35-7.864 28.867-5.675 6.604-14.524 9.872-27.594 9.871h-45.366l-32.078 32.078c-9.248 9.248-17.81 13.195-26.484 12.534-8.568-0.649-16.956-5.824-25.985-14.854l0.006-0.006-29.421-29.758h-43.509c-13.071 0-21.919-3.268-27.594-9.872-5.6-6.517-7.864-16.101-7.863-28.866h0.012l0.231-39.972-28.293-27.969c-0.05-0.044-0.1-0.087-0.143-0.137-9.03-9.03-14.206-17.411-14.854-25.985-0.661-8.674 3.293-17.236 12.534-26.484l30.768-30.768-0.237-41.607c-0.006-0.075-0.012-0.156-0.012-0.23 0-12.765 2.27-22.35 7.864-28.867 5.675-6.604 14.524-9.872 27.594-9.871zM87.682 179.997l-0.274-47.724-27.276 27.276c-8.138 8.138-11.636 15.44-11.094 22.587 0.549 7.246 5.226 14.642 13.413 22.823 0.037 0.037 0.081 0.081 0.113 0.125l24.837 24.551 0.281-49.644zM92.303 241.483l-0.2 35.09h0.013c0 11.58 1.921 20.117 6.66 25.63 4.664 5.432 12.297 8.113 23.815 8.113h38.576l-33.55-33.936-35.308-34.903zM325.415 49.672h-38.575l33.549 33.936 35.308 34.902 0.2-34.884c-0.006-0.069-0.006-0.137-0.007-0.205 0-11.58-1.921-20.117-6.66-25.63-4.664-5.432-12.297-8.113-23.815-8.113zM360.599 130.352l-0.281 49.645 0.274 47.724 27.276-27.276c8.138-8.138 11.636-15.44 11.094-22.587-0.549-7.252-5.226-14.642-13.413-22.824l0.006-0.006-24.956-24.669z" fill="#c56e33" data-fill-palette-color="tertiary"></path></g><g transform="matrix(1,0,0,1,128.90285547180457,90)"><svg viewBox="0 0 190.19428905639086 180" height="180" width="190.19428905639086"><g><svg viewBox="0 0 224 211.99374702594508" height="180" width="190.19428905639086"><g transform="matrix(1,0,0,1,0,119.2152862474216)"><svg viewBox="0 0 224 92.7784607785235" height="92.7784607785235" width="224"><g><svg viewBox="0 0 224 92.7784607785235" height="92.7784607785235" width="224"><g><rect width="60.7961152783261" height="4.5126830509530205" y="75.05967630002685" fill="#c56e33" data-fill-palette-color="tertiary"></rect><rect width="60.7961152783261" height="4.5126830509530205" y="75.05967630002685" x="163.2038847216739" fill="#c56e33" data-fill-palette-color="tertiary"></rect></g><g><svg viewBox="0 0 224 50.04026845637584" height="50.04026845637584" width="224"><g transform="matrix(1,0,0,1,0,0)"><svg width="224" viewBox="0 -34.95000076293945 156.44000244140625 34.95000076293945" height="50.04026845637584" data-palette-color="#c56e33"><path d="M0-2.15L4.85-2.15 4.85-34.95 10.75-34.95 10.75-17.9 26.75-34.95 34.25-34.95 20.2-19.65 32.9-2.1 32.9-2.15 37.75-2.15 37.75 0 27.45 0 15.85-15.3 10.75-9.8 10.75 0 0 0 0-2.15ZM35.2-2.15L40.05-2.15 40.05-34.95 45.95-34.95 45.95-2.15 50.8-2.15 50.8 0 35.2 0 35.2-2.15ZM79.65-2.15L86.1-2.15 86.1 0 50.8 0 50.8-2.15 55.65-2.15 55.65-34.95 69.25-34.95Q72.8-34.95 75.37-34.1 77.95-33.25 79.2-31.8L79.2-31.8Q81.6-29.1 81.6-25.7L81.6-25.7Q81.6-21.6 79-19.6L79-19.6Q78.05-18.9 77.7-18.73 77.35-18.55 76.45-18.15L76.45-18.15Q79.7-17.45 81.62-15.23 83.55-13 83.55-9.7L83.55-9.7Q83.55-4.75 79.65-2.15L79.65-2.15ZM61.55-15L61.55-5.45 70.8-5.45Q74.05-5.45 75.77-6.48 77.5-7.5 77.5-10.35L77.5-10.35Q77.5-15 70.05-15L70.05-15 61.55-15ZM61.55-29.5L61.55-20.45 69.05-20.45Q75.45-20.45 75.45-24.8L75.45-24.8Q75.45-27.3 73.9-28.4 72.35-29.5 69.1-29.5L69.1-29.5 61.55-29.5ZM86.09-2.15L90.94-2.15 90.94-34.95 115.49-34.95 115.49-29.4 96.84-29.4 96.84-20.15 113.59-20.15 113.59-14.9 96.84-14.9 96.84-5.55 116.09-5.55 116.09-2.15 120.94-2.15 120.94 0 86.09 0 86.09-2.15ZM151.59-2.15L156.44-2.15 156.44 0 145.64 0 137.29-11.75 129.54-11.75 129.54 0 118.79 0 118.79-2.15 123.64-2.15 123.64-34.95 136.64-34.95Q144.64-34.95 148.09-32.25 151.54-29.55 151.54-23.6L151.54-23.6Q151.54-14.95 143.99-12.7L143.99-12.7 151.59-2.15ZM136.89-17.1Q141.89-17.1 143.69-18.65 145.49-20.2 145.49-23.63 145.49-27.05 143.64-28.33 141.79-29.6 137.04-29.6L137.04-29.6 129.54-29.6 129.54-17.1 136.89-17.1Z" opacity="1" transform="matrix(1,0,0,1,0,0)" fill="#c56e33" class="undefined-text-0" data-fill-palette-color="primary" id="text-0"></path></svg></g></svg></g><g transform="matrix(1,0,0,1,60.7961152783261,61.85357487248322)"><svg viewBox="0 0 102.4077694433478 30.92488590604027" height="30.92488590604027" width="102.4077694433478"><g transform="matrix(1,0,0,1,8,0)"><svg width="86.4077694433478" viewBox="1.2999999523162842 -36.5 132.989990234375 47.599998474121094" height="30.92488590604027" data-palette-color="#551e19"><path d="M17.3-26.05Q22.1-26.05 24.03-22.48 25.95-18.9 25.95-13.9L25.95-13.9Q25.95-7 23.18-3.18 20.4 0.65 15.4 0.65L15.4 0.65Q12.85 0.65 11.08-0.4 9.3-1.45 8.55-3.35L8.55-3.35 8.55 2.75Q8.55 4.7 8.7 6.8 8.85 8.9 9.2 10.2L9.2 10.2Q8.9 10.55 8.3 10.83 7.7 11.1 6.9 11.1L6.9 11.1Q5.85 11.1 5.2 10.53 4.55 9.95 4.55 8.9L4.55 8.9 4.6-20.2Q4.6-21.6 4.28-22.18 3.95-22.75 3.2-22.75L3.2-22.75Q2.25-22.75 1.9-22L1.9-22Q1.3-22.85 1.3-23.6L1.3-23.6Q1.3-24.6 2.15-25.23 3-25.85 4.3-25.85L4.3-25.85Q8.35-25.85 8.35-19.5L8.35-19.5 8.35-19.05Q9.55-22.35 11.78-24.2 14-26.05 17.3-26.05L17.3-26.05ZM14.5-1.7Q18.05-1.7 19.88-4.78 21.7-7.85 21.7-13.85L21.7-13.85Q21.7-18.15 20.58-20.88 19.45-23.6 16.3-23.6L16.3-23.6Q13.9-23.6 12.15-21.83 10.4-20.05 9.5-17.05 8.6-14.05 8.6-10.55L8.6-10.55Q8.6-6.45 9.9-4.08 11.2-1.7 14.5-1.7L14.5-1.7ZM41.8 0.65Q36.4 0.65 33.37-2.88 30.35-6.4 30.35-12.7L30.35-12.7Q30.35-19 33.37-22.53 36.4-26.05 41.8-26.05L41.8-26.05Q47.25-26.05 50.27-22.53 53.3-19 53.3-12.7L53.3-12.7Q53.3-6.4 50.27-2.88 47.25 0.65 41.8 0.65L41.8 0.65ZM41.8-1.15Q45.3-1.15 47.15-4.13 49-7.1 49-12.7L49-12.7Q49-18.3 47.15-21.25 45.3-24.2 41.8-24.2L41.8-24.2Q38.3-24.2 36.45-21.25 34.6-18.3 34.6-12.7L34.6-12.7Q34.6-7.1 36.45-4.13 38.3-1.15 41.8-1.15L41.8-1.15ZM70.3-26.05Q72.9-26.05 74.47-24.68 76.05-23.3 76.05-20.85L76.05-20.85Q76.05-19.2 75.09-18.13 74.15-17.05 72.84-17.05L72.84-17.05Q71.75-17.05 71.34-17.55L71.34-17.55Q71.9-18.4 72.09-19.13 72.3-19.85 72.3-20.75L72.3-20.75Q72.3-23.85 69.4-23.85L69.4-23.85Q67.15-23.85 65.62-20.98 64.09-18.1 64.09-12.05L64.09-12.05 64.09-9.35Q64.09-4.85 64.2-3.25 64.3-1.65 64.75-0.45L64.75-0.45Q63.7 0.45 62.4 0.45L62.4 0.45Q61.4 0.45 60.75-0.18 60.1-0.8 60.1-1.9L60.1-1.9 60.1-20.3Q60.1-21.7 59.77-22.3 59.45-22.9 58.7-22.9L58.7-22.9Q57.75-22.9 57.4-22.1L57.4-22.1Q56.8-22.95 56.8-23.7L56.8-23.7Q56.8-24.75 57.6-25.38 58.4-26 59.8-26L59.8-26Q61.75-26 62.72-24.63 63.7-23.25 63.65-20.55L63.65-20.55 63.65-20.3Q64.5-23.15 66.2-24.6 67.9-26.05 70.3-26.05L70.3-26.05ZM88.34-25.35Q89.14-25.35 90.47-25.4 91.79-25.45 92.59-25.5L92.59-25.5 92.54-24.4Q92.49-23.9 92.19-23.58 91.89-23.25 91.44-23.25L91.44-23.25 86.29-23.25 86.29-21.35 86.29-5.25Q86.29-3.95 86.89-3.25 87.49-2.55 88.69-2.55L88.69-2.55Q89.44-2.55 90.12-2.83 90.79-3.1 91.04-3.6L91.04-3.6Q91.59-2.85 91.59-2L91.59-2Q91.59-0.85 90.39-0.15 89.19 0.55 87.34 0.55L87.34 0.55Q84.99 0.55 83.64-0.93 82.29-2.4 82.29-5L82.29-5 82.29-23.25 81.59-23.25Q79.54-23.25 78.59-23.1L78.59-23.1 78.64-24.25Q78.69-25.35 79.74-25.35L79.74-25.35 82.29-25.35 82.29-29.8Q82.29-30.85 82.94-31.43 83.59-32 84.64-32L84.64-32Q85.89-32 86.94-31.1L86.94-31.1Q86.39-29.4 86.34-25.35L86.34-25.35 88.34-25.35ZM120.94-3.65Q121.49-2.9 121.49-2.1L121.49-2.1Q121.49-1 120.47-0.25 119.44 0.5 117.99 0.5L117.99 0.5Q115.84 0.5 114.74-1 113.64-2.5 113.64-5.7L113.64-5.7 113.64-7.15Q111.99-3.6 109.17-1.53 106.34 0.55 102.99 0.55L102.99 0.55Q100.09 0.55 98.42-1.03 96.74-2.6 96.74-5.25L96.74-5.25Q96.74-8.2 98.99-10.25 101.24-12.3 105.04-13.35L105.04-13.35Q108.39-14.25 111.99-14.25L111.99-14.25Q112.99-14.25 113.44-14.2L113.44-14.2 113.44-15.5Q113.44-19.95 111.97-22.1 110.49-24.25 107.09-24.25L107.09-24.25Q104.89-24.25 103.39-23.3 101.89-22.35 101.89-20.2L101.89-20.2Q101.89-19.05 102.42-18.05 102.94-17.05 104.04-16.65L104.04-16.65Q103.24-15.65 101.64-15.65L101.64-15.65Q99.99-15.65 98.94-16.98 97.89-18.3 97.89-20.05L97.89-20.05Q97.89-22.95 100.44-24.5 102.99-26.05 107.44-26.05L107.44-26.05Q112.59-26.05 115.04-23.4 117.49-20.75 117.49-15.25L117.49-15.25 117.49-5.25Q117.49-2.6 119.29-2.6L119.29-2.6Q119.69-2.6 120.19-2.88 120.69-3.15 120.94-3.65L120.94-3.65ZM104.59-2.25Q106.59-2.25 108.67-3.73 110.74-5.2 112.12-7.6 113.49-10 113.54-12.6L113.54-12.6 112.39-12.65Q110.64-12.65 108.84-12.38 107.04-12.1 105.79-11.6L105.79-11.6Q103.59-10.8 102.34-9.4 101.09-8 101.09-6.1L101.09-6.1Q101.09-4.45 101.94-3.35 102.79-2.25 104.59-2.25L104.59-2.25ZM130.74 0.5Q128.49 0.5 127.24-0.95 125.99-2.4 125.99-5.05L125.99-5.05 125.99-34.3Q125.99-35.35 126.64-35.93 127.29-36.5 128.34-36.5L128.34-36.5Q129.59-36.5 130.64-35.6L130.64-35.6Q130.24-34.3 130.11-32.25 129.99-30.2 129.99-25.85L129.99-25.85 129.99-5.25Q129.99-3.95 130.46-3.28 130.94-2.6 131.89-2.6L131.89-2.6Q132.44-2.6 132.96-2.88 133.49-3.15 133.74-3.65L133.74-3.65Q134.29-2.9 134.29-2.1L134.29-2.1Q134.29-0.95 133.26-0.23 132.24 0.5 130.74 0.5L130.74 0.5Z" opacity="1" transform="matrix(1,0,0,1,0,0)" fill="#551e19" class="undefined-text-1" data-fill-palette-color="secondary" id="text-1"></path></svg></g></svg></g></svg></g></svg></g><g transform="matrix(1,0,0,1,64.20566329239658,0)"><svg viewBox="0 0 95.58867341520684 95.58867341520684" height="95.58867341520684" width="95.58867341520684"><g><svg></svg></g><g id="icon-0"><svg viewBox="0 0 95.58867341520684 95.58867341520684" height="95.58867341520684" width="95.58867341520684"><g><path d="M0 47.794c0-26.396 21.398-47.794 47.794-47.794 26.396 0 47.794 21.398 47.795 47.794 0 26.396-21.398 47.794-47.795 47.795-26.396 0-47.794-21.398-47.794-47.795zM47.794 91.076c23.904 0 43.282-19.378 43.282-43.282 0-23.904-19.378-43.282-43.282-43.281-23.904 0-43.282 19.378-43.281 43.281 0 23.904 19.378 43.282 43.281 43.282z" data-fill-palette-color="tertiary" fill="#c56e33" stroke="transparent"></path></g><g transform="matrix(1,0,0,1,24.70821792053193,20.860318628514)"><svg viewBox="0 0 46.17223757414298 53.86803615817884" height="53.86803615817884" width="46.17223757414298"><g><svg xmlns="http://www.w3.org/2000/svg" xmlns:xlink="http://www.w3.org/1999/xlink" version="1.1" x="0" y="0" viewBox="14 8 72 84.00066375732422" enable-background="new 0 0 100 100" xml:space="preserve" height="53.86803615817884" width="46.17223757414298" class="icon-x-0" data-fill-palette-color="accent" id="x-0"><path d="M56 38v6H44v-6c0-3.309 2.692-6 6-6S56 34.691 56 38z" fill="#551e19" data-fill-palette-color="accent"></path><path d="M54.5 56c0 2.485-2.015 4.5-4.5 4.5-2.485 0-4.5-2.015-4.5-4.5 0-2.485 2.015-4.5 4.5-4.5C52.485 51.5 54.5 53.515 54.5 56z" fill="#551e19" data-fill-palette-color="accent"></path><path d="M84.242 23.27l-33-15c-0.791-0.36-1.693-0.36-2.484 0l-33 15C14.688 23.756 14 24.824 14 26v24c0 24.13 12.281 33.309 34.945 41.81 0.658 0.247 1.404 0.261 2.104 0.001C73.716 83.354 86 74.188 86 50V26C86 24.824 85.312 23.756 84.242 23.27zM68 68c0 1.657-1.342 3-3 3H35c-1.658 0-3-1.343-3-3V47c0-1.657 1.342-3 3-3h3v-6c0-6.617 5.382-12 12-12s12 5.383 12 12v6h3c1.658 0 3 1.343 3 3V68z" fill="#551e19" data-fill-palette-color="accent"></path></svg></g></svg></g></svg></g></svg></g><g></g></svg></g></svg></g></svg></g></svg><rect width="448" height="360" fill="none" stroke="none" visibility="hidden"></rect></g></svg></g></svg>