<svg xmlns="http://www.w3.org/2000/svg" version="1.1" xmlns:xlink="http://www.w3.org/1999/xlink" xmlns:svgjs="http://svgjs.dev/svgjs" width="2000" height="1479" viewBox="0 0 2000 1479"><g transform="matrix(1,0,0,1,1.4361931072990046,0.5987854251011413)"><svg viewBox="0 0 334 247" data-background-color="#ffffff" preserveAspectRatio="xMidYMid meet" height="1479" width="2000" xmlns="http://www.w3.org/2000/svg" xmlns:xlink="http://www.w3.org/1999/xlink"><defs></defs><g id="tight-bounds" transform="matrix(1,0,0,1,-0.2396267133169374,-0.09999999999999432)"><svg viewBox="0 0 334.47940330863486 247.2" height="247.2" width="334.47940330863486"><g><svg viewBox="0 0 334.47940330863486 247.2" height="247.2" width="334.47940330863486"><g><svg viewBox="0 0 395.52 292.31259991749664" height="247.2" width="334.47940330863486"><g transform="matrix(1,0,0,1,0,92.67249198759183)"><svg viewBox="0 0 395.52 199.6401079299048" height="199.6401079299048" width="395.52"><g><svg viewBox="0 0 395.52 199.6401079299048" height="199.6401079299048" width="395.52"><g><svg viewBox="0 0 395.52 124.58185698721088" height="124.58185698721088" width="395.52"><path d="M394.594 26.72C392.735 13.789 387.435 10.194 387.435 10.194 371.165-3.126 350.86-0.255 332.619 1.659 300.414 1.737 268.339 4.582 236.208 6.108 168.767 6.34 100.749 2.513 33.643 11.953 27.339 14.849-6.54 12.522 1.121 28.376 3.129 34.971 10.456 42.29 10.232 48.342 11.236 49.402 12.631 46.971 13.226 48.497 15.309 52.609 18.711 50.67 21.501 53.101 17.614 59.592 20.403 64.998 23.062 70.662 18.377 72.136 12.371 71.438 9.675 76.326 9.396 79.869 7.89 79.197 6.235 79.041 5.026 78.938 2.59 79.326 2.999 80.438 4.394 84.24-1.594 86.438 2.162 90.163-0.422 94.197 3.948 97.689 3.353 102.06 3.278 102.939 3.687 103.689 4.338 103.896 7.22 105.008 3.018 107.181 3.464 109.534 33.029 125.621 65.104 114.5 95.394 121.897 103.259 116.724 97.346 123.733 100.489 122.647 102.943 121.379 104.728 126.63 107.499 123.655 107.927 122.802 107.276 120.785 108.8 121.172 109.6 121.379 110.307 121.328 110.418 120.138 110.586 118.353 109.117 119.466 108.726 118.534 112.947 113.827 111.906 125.026 115.866 124.561 115.68 123.19 114.528 121.224 116.889 121.483 119.232 119.517 119.306 117.888 121.389 122.31 121.463 123.267 121.835 123.94 122.43 124.405 128.938 119.595 135.409 126.112 142.233 123.94 146.417 121.56 150.433 125.233 154.672 124.328 156.16 123.604 157.666 122.31 159.098 124.483 176.632 124.949 195.319 123.009 211.943 124.561 256.364 121.664 303.836 125.75 350.674 121.923 361.719 120.448 373.192 118.353 383.958 116.672 383.958 116.672 392.679 112.069 392.679 91.378S394.538 73.274 394.817 56.799C395.096 40.324 396.398 39.652 394.538 26.72Z" opacity="1" fill="#729343" data-fill-palette-color="tertiary"></path><g transform="matrix(1,0,0,1,55.76832,26.068561146666667)"><svg width="283.98335999999995" viewBox="4.5 -36.3 195.99 49.99999999999999" height="72.44473469387755" data-palette-color="#ffffff"><path d="M69.35 5.15Q70.25 6.2 70.25 7.4L70.25 7.4Q70.25 9.3 68.65 10.73 67.05 12.15 64.15 12.93 61.25 13.7 57.45 13.7L57.45 13.7Q48.75 13.7 40.48 9.6 32.2 5.5 25.33-1.23 18.45-7.95 13.45-16L13.45-16Q13.05-14.05 11.9-8.25L11.9-8.25Q11-3.55 10.5-1.25L10.5-1.25Q10.35-0.5 10.08-0.25 9.8 0 9.25 0L9.25 0Q6.9 0.05 6.2 0.15 5.5 0.25 5.05 0.6L5.05 0.6Q4.5 0.6 4.5 0.25L4.5 0.25Q6.3-3.7 8.78-14.23 11.25-24.75 12.2-30.45L12.2-30.45Q12.4-31.75 12.4-31.9L12.4-31.9Q12.4-32.45 12.15-32.58 11.9-32.7 11.25-32.7L11.25-32.7Q9.9-32.7 8.3-32.45L8.3-32.45Q6.6-32.25 5.75-32.25L5.75-32.25Q5.05-32.25 4.78-32.4 4.5-32.55 4.5-33L4.5-33Q4.5-33.9 4.95-35.1 5.4-36.3 5.9-36.3L5.9-36.3Q5.95-35.4 7.75-35.18 9.55-34.95 12.55-34.95L12.55-34.95Q15.4-34.95 20.45-35.4L20.45-35.4Q21.2-35.5 22.6-35.6L22.6-35.6Q22.6-35.2 22.45-34.25 22.3-33.3 22.25-33L22.25-33 18.2-32.9Q17.55-32.9 17.35-32.25L17.35-32.25Q15.6-26.15 13.75-17.4L13.75-17.4Q15.8-18.9 18.3-20.93 20.8-22.95 23.2-24.95L23.2-24.95Q27.8-28.8 30.9-31.25 34-33.7 37.35-35.9L37.35-35.9 38.15-35.9Q38.6-35.65 41-35.25L41-35.25Q42.5-35 42.9-34.85L42.9-34.85 42.9-34.45Q42.1-34.6 37.18-31.3 32.25-28 26.35-23.65 20.45-19.3 17.65-17.05L17.65-17.05Q22.5-9.6 29.2-3.63 35.9 2.35 43.35 5.78 50.8 9.2 57.8 9.2L57.8 9.2Q61.8 9.2 64.58 8.13 67.35 7.05 69.35 5.15L69.35 5.15ZM42.4 0.2L41.9-0.4Q42.75-0.75 43.2-1.13 43.65-1.5 43.8-2.05L43.8-2.05Q45.1-6.9 47.57-17.75 50.05-28.6 50.3-30.55L50.3-30.55Q50.35-30.75 50.35-31.05L50.35-31.05Q50.35-31.8 49.85-32.08 49.35-32.35 48.1-32.35L48.1-32.35Q45.45-32.35 43.7-32L43.7-32Q43.7-33.05 44-33.85 44.3-34.65 44.95-34.65L44.95-34.65Q50.8-34.7 52.72-34.8 54.65-34.9 57.45-35.2L57.45-35.2Q57.7-35.1 57.75-34.38 57.8-33.65 57.75-33.2L57.75-33.2Q56.1-33 55.55-32.73 55-32.45 54.8-31.65L54.8-31.65Q54.4-30.1 50.85-12.7L50.85-12.7Q48.85-2.85 48.65-2L48.65-2Q48.35-0.7 46.8-0.25 45.25 0.2 42.4 0.2L42.4 0.2ZM83.3-18.6Q86.7-18.05 89.07-16.07 91.45-14.1 91.45-10.4L91.45-10.4Q91.45-7.05 89.45-4.5 87.45-1.95 84-0.55 80.55 0.85 76.4 0.85L76.4 0.85Q74.05 0.85 71.92 0.4 69.8-0.05 68.25-0.75L68.25-0.75Q67.65 0.15 65.75 0.15L65.75 0.15Q64.95 0.15 64.02 0.05 63.1-0.05 62.6-0.25L62.6-0.25Q63.25-1.2 63.5-1.95 63.75-2.7 64.15-4.3L64.15-4.3Q65.65-10.55 67.72-20.48 69.8-30.4 69.8-31.95L69.8-31.95Q69.8-32.45 69.55-32.6 69.3-32.75 68.65-32.75L68.65-32.75Q67.35-32.75 65.05-32.4L65.05-32.4Q62.45-32.1 61.8-32.1L61.8-32.1Q61.05-32.1 60.7-32.3 60.35-32.5 60.35-33.05L60.35-33.05Q60.35-33.5 60.6-34.4 60.85-35.3 61.1-35.7L61.1-35.7Q61.2-35.65 61.57-35.43 61.95-35.2 62.72-35.1 63.5-35 64.8-35L64.8-35 76.35-35Q83.35-35 87.55-32.8 91.75-30.6 91.75-26.4L91.75-26.4Q91.75-20.6 83.3-18.6L83.3-18.6ZM76.2-1.8Q81.2-1.8 83.75-4.17 86.3-6.55 86.3-10.65L86.3-10.65Q86.3-13.8 84.7-15.3 83.1-16.8 79.6-16.8L79.6-16.8Q77.3-16.8 75.7-16.6L75.7-16.6Q75.3-17 75-17.65 74.7-18.3 74.7-19L74.7-19Q74.7-19.65 75-19.8L75-19.8Q75.4-19.75 76.57-19.68 77.75-19.6 78.45-19.6L78.45-19.6Q80.7-19.6 82.55-20.55 84.4-21.5 85.5-23.2 86.6-24.9 86.6-27.05L86.6-27.05Q86.6-29.95 84.5-31.38 82.4-32.8 78.4-32.8L78.4-32.8Q76.65-32.8 75.77-32.43 74.9-32.05 74.42-31 73.95-29.95 73.5-27.7L73.5-27.7Q70.05-10.4 69-3.9L69-3.9Q71.9-1.8 76.2-1.8L76.2-1.8ZM128.74-35.1Q129.04-35.1 129.32-34.88 129.59-34.65 129.74-34.35L129.74-34.35Q128.24-30.55 128.14-29.65L128.14-29.65 127.64-29.55Q127.44-30.35 127.14-30.78 126.84-31.2 126.04-31.3L126.04-31.3Q116.59-32.55 112.64-32.55L112.64-32.55Q111.54-32.55 111.24-32.4 110.94-32.25 110.69-31.7L110.69-31.7Q109.84-29.6 107.64-20.25L107.64-20.25 112.84-20.25Q118.14-20.25 120.44-20.43 122.74-20.6 124.54-21.15L124.54-21.15 124.79-20.9Q124.39-19.8 124.29-19.13 124.19-18.45 124.09-18.1L124.09-18.1Q123.94-17.5 123.72-17.35 123.49-17.2 122.94-17.2L122.94-17.2Q118.84-17.2 107.04-17.4L107.04-17.4Q105.04-8.05 105.04-5.3L105.04-5.3Q105.04-3.45 106.17-2.88 107.29-2.3 110.24-2.3L110.24-2.3Q114.99-2.3 119.62-3.33 124.24-4.35 126.94-6.9L126.94-6.9Q127.29-6.8 127.29-6.65L127.29-6.65Q126.99-6.15 126.87-5.8 126.74-5.45 126.59-4.6L126.59-4.6Q126.24-2.75 125.74-1.88 125.24-1 123.99-0.75L123.99-0.75Q120.14 0 117.07 0.33 113.99 0.65 110.34 0.65L110.34 0.65Q106.64 0.65 104.52 0.23 102.39-0.2 101.37-1.35 100.34-2.5 100.34-4.75L100.34-4.75Q100.34-8.05 102.59-17.45L102.59-17.45 101.89-17.45Q101.24-17.45 101.34-17.85L101.34-17.85Q101.39-18.3 101.99-19.28 102.59-20.25 102.99-20.25L102.99-20.25 103.24-20.25Q104.39-25.1 104.92-27.65 105.44-30.2 105.44-31.4L105.44-31.4Q105.44-32.1 105.14-32.27 104.84-32.45 103.84-32.45L103.84-32.45Q101.29-32.45 98.69-31.65L98.69-31.65 98.54-31.7Q98.59-32.4 98.87-33.7 99.14-35 99.39-35.4L99.39-35.4Q104.09-35.05 108.89-35.05L108.89-35.05 128.74-35.1ZM199.64 5.15Q200.09 5.45 200.29 5.73 200.49 6 200.49 6.55L200.49 6.55Q200.49 8 199.31 9.35 198.14 10.7 195.72 11.58 193.29 12.45 189.69 12.45L189.69 12.45Q181.79 12.45 174.02 8.22 166.24 4 159.62-2.73 152.99-9.45 147.79-17.25L147.79-17.25Q147.84-17.7 148.02-17.88 148.19-18.05 148.49-18.1L148.49-18.1Q152.89-18.55 155.59-19.23 158.29-19.9 159.97-21.43 161.64-22.95 161.64-25.7L161.64-25.7Q161.64-29.65 158.54-31.55 155.44-33.45 150.54-33.45L150.54-33.45Q149.44-33.45 148.89-33.25 148.34-33.05 148.19-32.4L148.19-32.4Q145.59-22.5 143.64-11.05L143.64-11.05 141.84-0.2Q140.59-0.3 138.87 0.33 137.14 0.95 136.74 1.65L136.74 1.65Q136.64 1.65 136.42 1.53 136.19 1.4 136.09 1.35L136.09 1.35Q137.84-5.45 140.54-18.1 143.24-30.75 143.24-32.55L143.24-32.55Q143.24-33 143.02-33.13 142.79-33.25 142.19-33.25L142.19-33.25Q140.04-33.25 138.27-32.13 136.49-31 135.49-29.15 134.49-27.3 134.49-25.15L134.49-25.15Q134.49-22.05 136.49-20.15L136.49-20.15Q135.84-20.15 134.52-20.38 133.19-20.6 132.49-20.85L132.49-20.85Q131.29-21.3 130.64-22.55 129.99-23.8 129.99-25.4L129.99-25.4Q129.99-28.65 132.57-30.98 135.14-33.3 139.44-34.48 143.74-35.65 148.79-35.65L148.79-35.65Q153.19-35.65 157.24-34.73 161.29-33.8 163.92-31.83 166.54-29.85 166.54-26.85L166.54-26.85Q166.54-24.3 164.67-22.15 162.79-20 159.77-18.55 156.74-17.1 153.44-16.5L153.44-16.5Q156.44-11.05 162.27-5.3 168.09 0.45 175.52 4.33 182.94 8.2 190.39 8.2L190.39 8.2Q193.79 8.2 196.17 7.38 198.54 6.55 199.64 5.15L199.64 5.15Z" opacity="1" transform="matrix(1,0,0,1,0,0)" fill="#ffffff" class="undefined-text-0" data-fill-palette-color="quaternary" id="text-0"></path></svg></g></svg></g><g transform="matrix(1,0,0,1,138.55963555724364,141.68432017480274)"><svg viewBox="0 0 118.40072888551269 57.955787755102044" height="57.955787755102044" width="118.40072888551269"><g transform="matrix(1,0,0,1,0,0)"><svg width="118.40072888551269" viewBox="-5.95 -47 142.69 69.85" height="57.955787755102044" data-palette-color="#096a2e"><path d="M29.1-11.15Q29.75-11.15 30.13-10.55 30.5-9.95 30.5-8.9L30.5-8.9Q30.5-6.9 29.55-5.8L29.55-5.8Q27.4-3.15 24.93-1.45 22.45 0.25 19.3 0.25L19.3 0.25Q16.65 0.25 15-1.65L15-1.65Q12.15 0.2 9.05 0.25L9.05 0.25Q8.4 9.9 6.1 16.38 3.8 22.85-0.65 22.85L-0.65 22.85Q-3.35 22.85-4.65 20.9-5.95 18.95-5.95 15.5L-5.95 15.5Q-5.95 10.6-3.7 4.08-1.45-2.45 3.25-10.3L3.25-10.3Q3.25-17.6 3.15-20.45L3.15-20.45Q3.1-21.9 4.3-22.75 5.5-23.6 7.3-23.6L7.3-23.6Q8.35-23.6 8.83-23.18 9.3-22.75 9.35-21.5L9.35-21.5Q9.35-20.25 9.4-19.65L9.4-19.65Q11-21.65 12.55-22.53 14.1-23.4 15.85-23.4L15.85-23.4Q18.65-23.4 20.43-21.15 22.2-18.9 22.2-15.25L22.2-15.25Q22.2-12.6 21.35-10.1 20.5-7.6 19-5.55L19-5.55Q20.05-5.25 20.75-5.25L20.75-5.25Q22.4-5.25 23.9-6.45 25.4-7.65 27.75-10.45L27.75-10.45Q28.35-11.15 29.1-11.15L29.1-11.15ZM9.3-4.55Q11.1-4.95 12.63-6.53 14.15-8.1 15.05-10.43 15.95-12.75 15.95-15.3L15.95-15.3Q15.95-16.8 15.35-17.57 14.75-18.35 13.75-18.35L13.75-18.35Q11.95-18.35 9.4-14.55L9.4-14.55Q9.35-12.35 9.35-8.1L9.35-8.1Q9.35-5.8 9.3-4.55L9.3-4.55ZM-0.25 17.95Q1.1 17.95 2 12.08 2.9 6.2 3.15-2.55L3.15-2.55Q1 2.45-0.25 7-1.5 11.55-1.5 14.65L-1.5 14.65Q-1.5 16.25-1.13 17.1-0.75 17.95-0.25 17.95L-0.25 17.95ZM51.95-15.35Q52.6-15.35 52.95-14.7 53.3-14.05 53.3-13.05L53.3-13.05Q53.3-10.65 51.85-10.2L51.85-10.2Q48.85-9.15 45.25-9L45.25-9Q44.3-4.8 41.5-2.27 38.7 0.25 35.15 0.25L35.15 0.25Q32.15 0.25 30.02-1.2 27.9-2.65 26.8-5.05 25.7-7.45 25.7-10.25L25.7-10.25Q25.7-14.05 27.15-17.03 28.6-20 31.15-21.68 33.7-23.35 36.8-23.35L36.8-23.35Q40.6-23.35 42.92-20.73 45.25-18.1 45.65-14.25L45.65-14.25Q48-14.4 51.25-15.25L51.25-15.25Q51.65-15.35 51.95-15.35L51.95-15.35ZM35.55-5.05Q37.15-5.05 38.32-6.35 39.5-7.65 39.9-10.1L39.9-10.1Q38.35-11.15 37.52-12.85 36.7-14.55 36.7-16.45L36.7-16.45Q36.7-17.25 36.85-18.05L36.85-18.05 36.6-18.05Q34.6-18.05 33.27-16.13 31.95-14.2 31.95-10.7L31.95-10.7Q31.95-7.95 33.02-6.5 34.1-5.05 35.55-5.05L35.55-5.05ZM52.55 0.25Q50.64 0.25 49.87-1.75 49.09-3.75 49.09-8.15L49.09-8.15Q49.09-14.65 50.95-20.5L50.95-20.5Q51.39-21.95 52.42-22.63 53.45-23.3 55.3-23.3L55.3-23.3Q56.3-23.3 56.7-23.05 57.09-22.8 57.09-22.1L57.09-22.1Q57.09-21.3 56.34-18.5L56.34-18.5Q55.84-16.5 55.55-15 55.24-13.5 55.05-11.3L55.05-11.3Q56.7-15.6 58.74-18.3 60.8-21 62.77-22.15 64.75-23.3 66.39-23.3L66.39-23.3Q69.64-23.3 69.64-20.05L69.64-20.05Q69.64-19.4 69.19-16.9L69.19-16.9Q68.8-14.9 68.8-14.4L68.8-14.4Q68.8-12.65 70.05-12.65L70.05-12.65Q71.44-12.65 73.64-14.85L73.64-14.85Q74.3-15.5 75-15.5L75-15.5Q75.64-15.5 76.02-14.93 76.39-14.35 76.39-13.4L76.39-13.4Q76.39-11.55 75.39-10.5L75.39-10.5Q74-9.05 72.12-8.03 70.25-7 68.14-7L68.14-7Q65.5-7 64.12-8.35 62.75-9.7 62.75-12L62.75-12Q62.75-12.75 62.89-13.5L62.89-13.5Q63-14.5 63-14.85L63-14.85Q63-15.65 62.45-15.65L62.45-15.65Q61.7-15.65 60.47-13.98 59.24-12.3 58.05-9.55 56.84-6.8 56.09-3.75L56.09-3.75Q55.55-1.4 54.82-0.58 54.09 0.25 52.55 0.25L52.55 0.25ZM95.54-11.15Q96.19-11.15 96.57-10.55 96.94-9.95 96.94-8.9L96.94-8.9Q96.94-6.9 95.99-5.8L95.99-5.8Q93.84-3.15 91.29-1.45 88.74 0.25 85.44 0.25L85.44 0.25Q75.24 0.25 75.24-14.1L75.24-14.1Q75.24-16.3 75.39-18.55L75.39-18.55 73.44-18.55Q71.94-18.55 71.42-19.1 70.89-19.65 70.89-20.85L70.89-20.85Q70.89-23.65 73.14-23.65L73.14-23.65 75.99-23.65Q76.84-29.15 78.59-33.7 80.34-38.25 82.82-40.95 85.29-43.65 88.14-43.65L88.14-43.65Q90.24-43.65 91.44-41.8 92.64-39.95 92.64-37.15L92.64-37.15Q92.64-29.4 86.14-23.65L86.14-23.65 91.74-23.65Q92.54-23.65 92.89-23.3 93.24-22.95 93.24-22L93.24-22Q93.24-18.55 87.59-18.55L87.59-18.55 81.49-18.55Q81.39-16.05 81.39-14.65L81.39-14.65Q81.39-9.45 82.62-7.35 83.84-5.25 86.49-5.25L86.49-5.25Q88.64-5.25 90.29-6.55 91.94-7.85 94.19-10.45L94.19-10.45Q94.79-11.15 95.54-11.15L95.54-11.15ZM86.79-38.85Q86.04-38.85 85.12-36.98 84.19-35.1 83.37-31.78 82.54-28.45 81.99-24.4L81.99-24.4Q84.94-26.95 86.42-30.13 87.89-33.3 87.89-35.9L87.89-35.9Q87.89-38.85 86.79-38.85L86.79-38.85ZM99.04 0.25Q95.94 0.25 94.09-2 92.24-4.25 92.24-7.9L92.24-7.9Q92.24-11.9 94.09-15.48 95.94-19.05 99.02-21.23 102.09-23.4 105.54-23.4L105.54-23.4Q106.64-23.4 107.02-22.98 107.39-22.55 107.64-21.45L107.64-21.45Q108.69-21.65 109.84-21.65L109.84-21.65Q112.29-21.65 112.29-19.9L112.29-19.9Q112.29-18.85 111.54-14.9L111.54-14.9Q110.39-9.15 110.39-6.9L110.39-6.9Q110.39-6.15 110.77-5.7 111.14-5.25 111.74-5.25L111.74-5.25Q112.69-5.25 114.04-6.48 115.39-7.7 117.69-10.45L117.69-10.45Q118.29-11.15 119.04-11.15L119.04-11.15Q119.69-11.15 120.07-10.55 120.44-9.95 120.44-8.9L120.44-8.9Q120.44-6.9 119.49-5.8L119.49-5.8Q117.44-3.25 115.14-1.5 112.84 0.25 110.69 0.25L110.69 0.25Q109.04 0.25 107.67-0.88 106.29-2 105.59-3.95L105.59-3.95Q102.99 0.25 99.04 0.25L99.04 0.25ZM100.84-4.8Q101.94-4.8 102.94-6.1 103.94-7.4 104.39-9.55L104.39-9.55 106.24-18.75Q104.14-18.7 102.37-17.18 100.59-15.65 99.54-13.15 98.49-10.65 98.49-7.85L98.49-7.85Q98.49-6.3 99.12-5.55 99.74-4.8 100.84-4.8L100.84-4.8ZM135.34-11.15Q135.99-11.15 136.36-10.55 136.74-9.95 136.74-8.9L136.74-8.9Q136.74-6.9 135.79-5.8L135.79-5.8Q133.64-3.15 131.11-1.45 128.59 0.25 125.39 0.25L125.39 0.25Q120.99 0.25 118.86-3.75 116.74-7.75 116.74-14.1L116.74-14.1Q116.74-20.2 118.31-28 119.89-35.8 122.96-41.4 126.04-47 130.29-47L130.29-47Q132.69-47 134.06-44.78 135.44-42.55 135.44-38.4L135.44-38.4Q135.44-32.45 132.14-24.6 128.84-16.75 123.19-9.05L123.19-9.05Q123.54-7 124.34-6.13 125.14-5.25 126.44-5.25L126.44-5.25Q128.49-5.25 130.04-6.43 131.59-7.6 133.99-10.45L133.99-10.45Q134.59-11.15 135.34-11.15L135.34-11.15ZM129.19-42.05Q128.04-42.05 126.59-37.9 125.14-33.75 124.04-27.6 122.94-21.45 122.84-15.8L122.84-15.8Q126.39-21.65 128.49-27.53 130.59-33.4 130.59-38.25L130.59-38.25Q130.59-42.05 129.19-42.05L129.19-42.05Z" opacity="1" transform="matrix(1,0,0,1,0,0)" fill="#096a2e" class="undefined-text-1" data-fill-palette-color="secondary" id="text-1"></path></svg></g></svg></g></svg></g></svg></g><g transform="matrix(1,0,0,1,106.09823999999999,0)"><svg viewBox="0 0 183.32352 75.57002879999999" height="75.57002879999999" width="183.32352"><g><svg xmlns="http://www.w3.org/2000/svg" xmlns:xlink="http://www.w3.org/1999/xlink" version="1.1" x="0" y="0" viewBox="0 26.400000000000002 90 37.099999999999994" enable-background="new 0 0 90 90" xml:space="preserve" height="75.57002879999999" width="183.32352" class="icon-icon-0" data-fill-palette-color="accent" id="icon-0"><path d="M26.7 42.3l6.4-2.1 1.3 4.1L28 46.4l4 5.5-3.5 2.5L24.5 49l-3.9 5.5-3.5-2.5 4-5.5-6.4-2.1 1.3-4.1 6.4 2.1v-6.7h4.3V42.3zM47.2 42.3l6.4-2.1 1.3 4.1-6.4 2.1 4 5.5-3.5 2.5L45 49l-3.9 5.5-3.5-2.5 4-5.5-6.4-2.1 1.3-4.1 6.4 2.1v-6.7h4.3V42.3zM67.6 42.3l6.4-2.1 1.3 4.1-6.4 2.1 4 5.5-3.5 2.5L65.5 49l-3.9 5.5L58 51.9l4-5.5-6.4-2.1 1.3-4.1 6.4 2.1v-6.7h4.3V42.3zM72.8 63.5H17.2C7.7 63.5 0 55.8 0 46.2v-2.5c0-9.5 7.7-17.3 17.2-17.3h55.6c9.5 0 17.2 7.7 17.2 17.3v2.5C90 55.8 82.3 63.5 72.8 63.5zM17.2 31.4c-6.8 0-12.3 5.5-12.3 12.3v2.5c0 6.8 5.5 12.3 12.3 12.3h55.6c6.8 0 12.3-5.5 12.3-12.3v-2.5c0-6.8-5.5-12.3-12.3-12.3H17.2z" fill="#096a2e" data-fill-palette-color="accent"></path></svg></g></svg></g><g></g></svg></g></svg></g></svg><rect width="334.47940330863486" height="247.2" fill="none" stroke="none" visibility="hidden"></rect></g></svg></g></svg>