<svg width="320" height="74" viewBox="0 0 320 74" fill="none" xmlns="http://www.w3.org/2000/svg">
<path d="M18.7044 57.4701C19.7244 57.4701 20.5514 56.6431 20.5514 55.6231C20.5514 54.603 19.7244 53.7761 18.7044 53.7761C17.6843 53.7761 16.8574 54.603 16.8574 55.6231C16.8574 56.6431 17.6843 57.4701 18.7044 57.4701Z" stroke="#27AE60" stroke-width="2" stroke-miterlimit="10"/>
<path d="M60.3821 57.4701C61.4022 57.4701 62.2291 56.6431 62.2291 55.6231C62.2291 54.603 61.4022 53.7761 60.3821 53.7761C59.3621 53.7761 58.5352 54.603 58.5352 55.6231C58.5352 56.6431 59.3621 57.4701 60.3821 57.4701Z" stroke="#27AE60" stroke-width="2" stroke-miterlimit="10"/>
<path d="M102.14 57.4701C103.16 57.4701 103.987 56.6431 103.987 55.6231C103.987 54.603 103.16 53.7761 102.14 53.7761C101.12 53.7761 100.293 54.603 100.293 55.6231C100.293 56.6431 101.12 57.4701 102.14 57.4701Z" stroke="#27AE60" stroke-width="2" stroke-miterlimit="10"/>
<path d="M143.897 57.4701C144.917 57.4701 145.744 56.6431 145.744 55.6231C145.744 54.603 144.917 53.7761 143.897 53.7761C142.877 53.7761 142.05 54.603 142.05 55.6231C142.05 56.6431 142.877 57.4701 143.897 57.4701Z" stroke="#27AE60" stroke-width="2" stroke-miterlimit="10"/>
<path d="M182.362 62.2075C185.999 62.2075 188.947 59.2594 188.947 55.6227C188.947 51.986 185.999 49.0378 182.362 49.0378C178.725 49.0378 175.777 51.986 175.777 55.6227C175.777 59.2594 178.725 62.2075 182.362 62.2075Z" stroke="#27AE60" stroke-width="2" stroke-miterlimit="10"/>
<path d="M266.118 59.5599C268.292 59.5599 270.053 57.7982 270.053 55.625C270.053 53.4519 268.292 51.6902 266.118 51.6902C263.945 51.6902 262.184 53.4519 262.184 55.625C262.184 57.7982 263.945 59.5599 266.118 59.5599Z" stroke="#27AE60" stroke-width="2" stroke-miterlimit="10"/>
<path d="M308.197 59.5599C310.37 59.5599 312.131 57.7982 312.131 55.625C312.131 53.4519 310.37 51.6902 308.197 51.6902C306.023 51.6902 304.262 53.4519 304.262 55.625C304.262 57.7982 306.023 59.5599 308.197 59.5599Z" stroke="#27AE60" stroke-width="2" stroke-miterlimit="10"/>
<path d="M224.843 62.2115C228.479 62.2115 231.428 59.2633 231.428 55.6266C231.428 51.9899 228.479 49.0417 224.843 49.0417C221.206 49.0417 218.258 51.9899 218.258 55.6266C218.258 59.2633 221.206 62.2115 224.843 62.2115Z" stroke="#27AE60" stroke-width="2" stroke-miterlimit="10"/>
<path d="M236.166 55.6277H213.279" stroke="#27AE60" stroke-width="2" stroke-miterlimit="10" stroke-linecap="round"/>
<path d="M105.834 60.6781C112.74 68.2265 122.617 72.9644 133.699 72.9644H168.952C197.058 72.9644 220.186 51.6038 222.996 24.2205" stroke="#27AE60" stroke-width="2" stroke-miterlimit="10" stroke-linecap="round"/>
<path d="M112.039 60.8207L105.396 60.361L105.401 67.059" stroke="#27AE60" stroke-width="2" stroke-miterlimit="10" stroke-linecap="round"/>
<path d="M232.527 1.77805L229.338 3.47827L233.645 11.5562L236.834 9.85603L232.527 1.77805Z" stroke="#27AE60" stroke-width="2" stroke-miterlimit="10" stroke-linejoin="round"/>
<path d="M230.545 17.2344L222.996 3.1814C226.048 3.58291 228.778 5.42988 230.304 8.32079C231.91 11.2117 231.829 14.5041 230.545 17.2344Z" stroke="#27AE60" stroke-width="2" stroke-miterlimit="10" stroke-linecap="round" stroke-linejoin="round"/>
<path d="M224.12 5.27124L217.134 14.747L229.42 15.1485" stroke="#27AE60" stroke-width="2" stroke-miterlimit="10" stroke-linecap="round" stroke-linejoin="round"/>
<path d="M217.134 14.7487L226.69 10.2517" stroke="#27AE60" stroke-width="2" stroke-miterlimit="10" stroke-linecap="round" stroke-linejoin="round"/>
<path d="M23.9243 47.2772V44.7878" stroke="#27AE60" stroke-miterlimit="10" stroke-linecap="round"/>
<path d="M22.5591 46.0729H20.0697" stroke="#27AE60" stroke-miterlimit="10" stroke-linecap="round"/>
<path d="M18.7852 47.2772V44.7878" stroke="#27AE60" stroke-miterlimit="10" stroke-linecap="round"/>
<path d="M17.4199 46.0729H14.8502" stroke="#27AE60" stroke-miterlimit="10" stroke-linecap="round"/>
<path d="M54.7607 66.463V63.8933" stroke="#27AE60" stroke-miterlimit="10" stroke-linecap="round"/>
<path d="M56.126 65.182H58.6957" stroke="#27AE60" stroke-miterlimit="10" stroke-linecap="round"/>
<path d="M63.835 66.463V63.8933" stroke="#27AE60" stroke-miterlimit="10" stroke-linecap="round"/>
<path d="M66.0029 66.463V63.8933" stroke="#27AE60" stroke-miterlimit="10" stroke-linecap="round"/>
<path d="M62.4699 65.1821H59.9805" stroke="#27AE60" stroke-miterlimit="10" stroke-linecap="round"/>
<path d="M137.473 66.463V63.8933" stroke="#27AE60" stroke-miterlimit="10" stroke-linecap="round"/>
<path d="M138.838 65.182H141.408" stroke="#27AE60" stroke-miterlimit="10" stroke-linecap="round"/>
<path d="M146.547 66.463V63.8933" stroke="#27AE60" stroke-miterlimit="10" stroke-linecap="round"/>
<path d="M148.716 66.463V63.8933" stroke="#27AE60" stroke-miterlimit="10" stroke-linecap="round"/>
<path d="M150.723 66.463V63.8933" stroke="#27AE60" stroke-miterlimit="10" stroke-linecap="round"/>
<path d="M145.182 65.1821H142.692" stroke="#27AE60" stroke-miterlimit="10" stroke-linecap="round"/>
<path d="M228.696 71.1991V68.7097" stroke="#27AE60" stroke-miterlimit="10" stroke-linecap="round"/>
<path d="M230.784 71.1991V68.7097" stroke="#27AE60" stroke-miterlimit="10" stroke-linecap="round"/>
<path d="M232.872 71.1991V68.7097" stroke="#27AE60" stroke-miterlimit="10" stroke-linecap="round"/>
<path d="M219.141 71.1991V68.7097" stroke="#27AE60" stroke-miterlimit="10" stroke-linecap="round"/>
<path d="M217.053 71.1997V68.7103" stroke="#27AE60" stroke-miterlimit="10" stroke-linecap="round"/>
<path d="M221.309 71.1991V68.7097" stroke="#27AE60" stroke-miterlimit="10" stroke-linecap="round"/>
<path d="M223.396 71.1991V68.7097" stroke="#27AE60" stroke-miterlimit="10" stroke-linecap="round"/>
<path d="M227.331 69.9985H224.842" stroke="#27AE60" stroke-miterlimit="10" stroke-linecap="round"/>
<path d="M269.25 45.186V42.6163" stroke="#27AE60" stroke-miterlimit="10" stroke-linecap="round"/>
<path d="M271.338 45.186V42.6163" stroke="#27AE60" stroke-miterlimit="10" stroke-linecap="round"/>
<path d="M273.426 45.186V42.6163" stroke="#27AE60" stroke-miterlimit="10" stroke-linecap="round"/>
<path d="M275.514 45.186V42.6163" stroke="#27AE60" stroke-miterlimit="10" stroke-linecap="round"/>
<path d="M259.693 45.186V42.6163" stroke="#27AE60" stroke-miterlimit="10" stroke-linecap="round"/>
<path d="M257.525 45.1857V42.616" stroke="#27AE60" stroke-miterlimit="10" stroke-linecap="round"/>
<path d="M261.781 45.186V42.6163" stroke="#27AE60" stroke-miterlimit="10" stroke-linecap="round"/>
<path d="M263.869 45.186V42.6163" stroke="#27AE60" stroke-miterlimit="10" stroke-linecap="round"/>
<path d="M267.884 43.9014H265.314" stroke="#27AE60" stroke-miterlimit="10" stroke-linecap="round"/>
<path d="M172.164 42.5378V39.9681" stroke="#27AE60" stroke-miterlimit="10" stroke-linecap="round"/>
<path d="M188.867 42.5372V39.9675" stroke="#27AE60" stroke-miterlimit="10" stroke-linecap="round"/>
<path d="M191.276 42.5372V39.9675" stroke="#27AE60" stroke-miterlimit="10" stroke-linecap="round"/>
<path d="M173.609 41.2488H176.099" stroke="#27AE60" stroke-miterlimit="10" stroke-linecap="round"/>
<path d="M192.883 41.2488H195.372" stroke="#27AE60" stroke-miterlimit="10" stroke-linecap="round"/>
<path d="M179.953 41.2488H177.384" stroke="#27AE60" stroke-miterlimit="10" stroke-linecap="round"/>
<path d="M183.568 41.2488H181.078" stroke="#27AE60" stroke-miterlimit="10" stroke-linecap="round"/>
<path d="M187.502 41.2488H185.013" stroke="#27AE60" stroke-miterlimit="10" stroke-linecap="round"/>
<path d="M295.91 68.5507V66.0613" stroke="#27AE60" stroke-miterlimit="10" stroke-linecap="round"/>
<path d="M293.662 68.5507V66.0613" stroke="#27AE60" stroke-miterlimit="10" stroke-linecap="round"/>
<path d="M297.275 67.3503H299.765" stroke="#27AE60" stroke-miterlimit="10" stroke-linecap="round"/>
<path d="M303.619 67.3503H301.13" stroke="#27AE60" stroke-miterlimit="10" stroke-linecap="round"/>
<path d="M314.782 68.5507V66.0613" stroke="#27AE60" stroke-miterlimit="10" stroke-linecap="round"/>
<path d="M312.533 68.5507V66.0613" stroke="#27AE60" stroke-miterlimit="10" stroke-linecap="round"/>
<path d="M316.146 67.3503H318.636" stroke="#27AE60" stroke-miterlimit="10" stroke-linecap="round"/>
<path d="M322.491 67.3503H320.002" stroke="#27AE60" stroke-miterlimit="10" stroke-linecap="round"/>
<path d="M307.314 67.3503H304.744" stroke="#27AE60" stroke-miterlimit="10" stroke-linecap="round"/>
<path d="M311.168 67.3503H308.679" stroke="#27AE60" stroke-miterlimit="10" stroke-linecap="round"/>
<path d="M99.0879 47.2772V44.7878" stroke="#27AE60" stroke-miterlimit="10" stroke-linecap="round"/>
<path d="M97 47.2772V44.7878" stroke="#27AE60" stroke-miterlimit="10" stroke-linecap="round"/>
<path d="M100.453 46.0729H102.943" stroke="#27AE60" stroke-miterlimit="10" stroke-linecap="round"/>
<path d="M104.308 47.2772V44.7878" stroke="#27AE60" stroke-miterlimit="10" stroke-linecap="round"/>
<path d="M105.673 46.0729H108.243" stroke="#27AE60" stroke-miterlimit="10" stroke-linecap="round"/>
</svg>
