<svg width="1044" height="178" viewBox="0 0 1044 178" fill="none" xmlns="http://www.w3.org/2000/svg">
<path d="M51.4304 162.792C78.7628 162.792 100.92 140.635 100.92 113.302C100.92 85.9698 78.7628 63.8125 51.4304 63.8125C24.0979 63.8125 1.94061 85.9698 1.94061 113.302C1.94061 140.635 24.0979 162.792 51.4304 162.792Z" stroke="#FBB03B" stroke-width="2" stroke-miterlimit="10"/>
<path d="M200.097 137.949C202.601 137.949 204.632 135.918 204.632 133.414C204.632 130.909 202.601 128.879 200.097 128.879C197.592 128.879 195.562 130.909 195.562 133.414C195.562 135.918 197.592 137.949 200.097 137.949Z" stroke="#FBB03B" stroke-width="2" stroke-miterlimit="10"/>
<path d="M302.428 137.949C304.933 137.949 306.963 135.918 306.963 133.414C306.963 130.909 304.933 128.879 302.428 128.879C299.924 128.879 297.893 130.909 297.893 133.414C297.893 135.918 299.924 137.949 302.428 137.949Z" stroke="#FBB03B" stroke-width="2" stroke-miterlimit="10"/>
<path d="M404.957 137.949C407.461 137.949 409.492 135.918 409.492 133.414C409.492 130.909 407.461 128.879 404.957 128.879C402.452 128.879 400.422 130.909 400.422 133.414C400.422 135.918 402.452 137.949 404.957 137.949Z" stroke="#FBB03B" stroke-width="2" stroke-miterlimit="10"/>
<path d="M507.485 137.949C509.99 137.949 512.02 135.918 512.02 133.414C512.02 130.909 509.99 128.879 507.485 128.879C504.981 128.879 502.95 130.909 502.95 133.414C502.95 135.918 504.981 137.949 507.485 137.949Z" stroke="#FBB03B" stroke-width="2" stroke-miterlimit="10"/>
<path d="M1012.24 137.949C1014.75 137.949 1016.78 135.918 1016.78 133.414C1016.78 130.909 1014.75 128.879 1012.24 128.879C1009.74 128.879 1007.71 130.909 1007.71 133.414C1007.71 135.918 1009.74 137.949 1012.24 137.949Z" stroke="#FBB03B" stroke-width="2" stroke-miterlimit="10"/>
<path d="M601.93 149.578C610.859 149.578 618.098 142.339 618.098 133.41C618.098 124.481 610.859 117.242 601.93 117.242C593.001 117.242 585.762 124.481 585.762 133.41C585.762 142.339 593.001 149.578 601.93 149.578Z" stroke="#FBB03B" stroke-width="2" stroke-miterlimit="10"/>
<path d="M807.579 143.073C812.914 143.073 817.24 138.747 817.24 133.411C817.24 128.076 812.914 123.75 807.579 123.75C802.243 123.75 797.917 128.076 797.917 133.411C797.917 138.747 802.243 143.073 807.579 143.073Z" stroke="#FBB03B" stroke-width="2" stroke-miterlimit="10"/>
<path d="M910.896 143.073C916.232 143.073 920.557 138.747 920.557 133.411C920.557 128.076 916.232 123.75 910.896 123.75C905.56 123.75 901.234 128.076 901.234 133.411C901.234 138.747 905.56 143.073 910.896 143.073Z" stroke="#FBB03B" stroke-width="2" stroke-miterlimit="10"/>
<path d="M706.233 149.578C715.163 149.578 722.401 142.339 722.401 133.41C722.401 124.481 715.163 117.242 706.233 117.242C697.304 117.242 690.065 124.481 690.065 133.41C690.065 142.339 697.304 149.578 706.233 149.578Z" stroke="#FBB03B" stroke-width="2" stroke-miterlimit="10"/>
<path d="M734.034 133.41H677.841" stroke="#FBB03B" stroke-width="2" stroke-miterlimit="10" stroke-linecap="round"/>
<path d="M414.027 145.836C430.983 164.37 455.235 176.003 482.445 176.003H569.003C638.012 176.003 694.797 123.555 701.698 56.3203" stroke="#FBB03B" stroke-width="2" stroke-miterlimit="10" stroke-linecap="round"/>
<path d="M429.263 146.169L412.951 145.04L412.964 161.486" stroke="#FBB03B" stroke-width="2" stroke-miterlimit="10" stroke-linecap="round"/>
<path d="M725.098 1.21215L717.269 5.38672L727.845 25.2208L735.674 21.0462L725.098 1.21215Z" stroke="#FBB03B" stroke-width="2" stroke-miterlimit="10" stroke-linejoin="round"/>
<path d="M720.232 39.165L701.698 4.66016C709.191 5.64601 715.895 10.1809 719.641 17.2791C723.584 24.3772 723.387 32.4612 720.232 39.165Z" stroke="#FBB03B" stroke-width="2" stroke-miterlimit="10" stroke-linecap="round" stroke-linejoin="round"/>
<path d="M704.459 9.78516L687.305 33.0513L717.472 34.0371" stroke="#FBB03B" stroke-width="2" stroke-miterlimit="10" stroke-linecap="round" stroke-linejoin="round"/>
<path d="M687.305 33.0572L710.768 22.0156" stroke="#FBB03B" stroke-width="2" stroke-miterlimit="10" stroke-linecap="round" stroke-linejoin="round"/>
<path d="M212.913 112.909V106.797" stroke="#FBB03B" stroke-miterlimit="10" stroke-linecap="round"/>
<path d="M209.561 109.953H203.449" stroke="#FBB03B" stroke-miterlimit="10" stroke-linecap="round"/>
<path d="M200.294 112.909V106.797" stroke="#FBB03B" stroke-miterlimit="10" stroke-linecap="round"/>
<path d="M196.942 109.953H190.633" stroke="#FBB03B" stroke-miterlimit="10" stroke-linecap="round"/>
<path d="M288.626 160.032V153.723" stroke="#FBB03B" stroke-miterlimit="10" stroke-linecap="round"/>
<path d="M291.978 156.879H298.288" stroke="#FBB03B" stroke-miterlimit="10" stroke-linecap="round"/>
<path d="M310.907 160.032V153.723" stroke="#FBB03B" stroke-miterlimit="10" stroke-linecap="round"/>
<path d="M316.23 160.032V153.723" stroke="#FBB03B" stroke-miterlimit="10" stroke-linecap="round"/>
<path d="M307.555 156.879H301.442" stroke="#FBB03B" stroke-miterlimit="10" stroke-linecap="round"/>
<path d="M491.712 160.032V153.723" stroke="#FBB03B" stroke-miterlimit="10" stroke-linecap="round"/>
<path d="M495.064 156.879H501.373" stroke="#FBB03B" stroke-miterlimit="10" stroke-linecap="round"/>
<path d="M513.992 160.032V153.723" stroke="#FBB03B" stroke-miterlimit="10" stroke-linecap="round"/>
<path d="M519.316 160.032V153.723" stroke="#FBB03B" stroke-miterlimit="10" stroke-linecap="round"/>
<path d="M524.245 160.032V153.723" stroke="#FBB03B" stroke-miterlimit="10" stroke-linecap="round"/>
<path d="M510.64 156.879H504.528" stroke="#FBB03B" stroke-miterlimit="10" stroke-linecap="round"/>
<path d="M715.697 171.659V165.547" stroke="#FBB03B" stroke-miterlimit="10" stroke-linecap="round"/>
<path d="M720.824 171.659V165.547" stroke="#FBB03B" stroke-miterlimit="10" stroke-linecap="round"/>
<path d="M725.95 171.659V165.547" stroke="#FBB03B" stroke-miterlimit="10" stroke-linecap="round"/>
<path d="M692.234 171.659V165.547" stroke="#FBB03B" stroke-miterlimit="10" stroke-linecap="round"/>
<path d="M687.108 171.659V165.547" stroke="#FBB03B" stroke-miterlimit="10" stroke-linecap="round"/>
<path d="M697.558 171.659V165.547" stroke="#FBB03B" stroke-miterlimit="10" stroke-linecap="round"/>
<path d="M702.684 171.659V165.547" stroke="#FBB03B" stroke-miterlimit="10" stroke-linecap="round"/>
<path d="M712.345 168.703H706.233" stroke="#FBB03B" stroke-miterlimit="10" stroke-linecap="round"/>
<path d="M815.268 107.778V101.469" stroke="#FBB03B" stroke-miterlimit="10" stroke-linecap="round"/>
<path d="M820.395 107.778V101.469" stroke="#FBB03B" stroke-miterlimit="10" stroke-linecap="round"/>
<path d="M825.521 107.778V101.469" stroke="#FBB03B" stroke-miterlimit="10" stroke-linecap="round"/>
<path d="M830.648 107.778V101.469" stroke="#FBB03B" stroke-miterlimit="10" stroke-linecap="round"/>
<path d="M791.805 107.778V101.469" stroke="#FBB03B" stroke-miterlimit="10" stroke-linecap="round"/>
<path d="M786.481 107.778V101.469" stroke="#FBB03B" stroke-miterlimit="10" stroke-linecap="round"/>
<path d="M796.932 107.778V101.469" stroke="#FBB03B" stroke-miterlimit="10" stroke-linecap="round"/>
<path d="M802.058 107.778V101.469" stroke="#FBB03B" stroke-miterlimit="10" stroke-linecap="round"/>
<path d="M811.916 104.625H805.607" stroke="#FBB03B" stroke-miterlimit="10" stroke-linecap="round"/>
<path d="M576.889 101.274V94.9648" stroke="#FBB03B" stroke-miterlimit="10" stroke-linecap="round"/>
<path d="M617.901 101.274V94.9648" stroke="#FBB03B" stroke-miterlimit="10" stroke-linecap="round"/>
<path d="M623.816 101.274V94.9648" stroke="#FBB03B" stroke-miterlimit="10" stroke-linecap="round"/>
<path d="M580.438 98.1172H586.551" stroke="#FBB03B" stroke-miterlimit="10" stroke-linecap="round"/>
<path d="M627.759 98.1172H633.872" stroke="#FBB03B" stroke-miterlimit="10" stroke-linecap="round"/>
<path d="M596.015 98.1172H589.705" stroke="#FBB03B" stroke-miterlimit="10" stroke-linecap="round"/>
<path d="M604.888 98.1172H598.775" stroke="#FBB03B" stroke-miterlimit="10" stroke-linecap="round"/>
<path d="M614.549 98.1172H608.437" stroke="#FBB03B" stroke-miterlimit="10" stroke-linecap="round"/>
<path d="M880.729 165.155V159.043" stroke="#FBB03B" stroke-miterlimit="10" stroke-linecap="round"/>
<path d="M875.208 165.155V159.043" stroke="#FBB03B" stroke-miterlimit="10" stroke-linecap="round"/>
<path d="M884.081 162.199H890.193" stroke="#FBB03B" stroke-miterlimit="10" stroke-linecap="round"/>
<path d="M899.657 162.199H893.545" stroke="#FBB03B" stroke-miterlimit="10" stroke-linecap="round"/>
<path d="M927.064 165.155V159.043" stroke="#FBB03B" stroke-miterlimit="10" stroke-linecap="round"/>
<path d="M921.543 165.155V159.043" stroke="#FBB03B" stroke-miterlimit="10" stroke-linecap="round"/>
<path d="M930.416 162.199H936.528" stroke="#FBB03B" stroke-miterlimit="10" stroke-linecap="round"/>
<path d="M945.992 162.199H939.88" stroke="#FBB03B" stroke-miterlimit="10" stroke-linecap="round"/>
<path d="M908.727 162.199H902.418" stroke="#FBB03B" stroke-miterlimit="10" stroke-linecap="round"/>
<path d="M918.191 162.199H912.079" stroke="#FBB03B" stroke-miterlimit="10" stroke-linecap="round"/>
<path d="M397.464 112.909V106.797" stroke="#FBB03B" stroke-miterlimit="10" stroke-linecap="round"/>
<path d="M392.338 112.909V106.797" stroke="#FBB03B" stroke-miterlimit="10" stroke-linecap="round"/>
<path d="M400.816 109.953H406.928" stroke="#FBB03B" stroke-miterlimit="10" stroke-linecap="round"/>
<path d="M410.28 112.909V106.797" stroke="#FBB03B" stroke-miterlimit="10" stroke-linecap="round"/>
<path d="M413.632 109.953H419.942" stroke="#FBB03B" stroke-miterlimit="10" stroke-linecap="round"/>
<path d="M1034.13 109.953H1028.02" stroke="#FBB03B" stroke-miterlimit="10" stroke-linecap="round"/>
<path d="M1043 109.953H1036.69" stroke="#FBB03B" stroke-miterlimit="10" stroke-linecap="round"/>
<path d="M988.975 112.909V106.797" stroke="#FBB03B" stroke-miterlimit="10" stroke-linecap="round"/>
<path d="M994.299 112.909V106.797" stroke="#FBB03B" stroke-miterlimit="10" stroke-linecap="round"/>
<path d="M999.228 112.909V106.797" stroke="#FBB03B" stroke-miterlimit="10" stroke-linecap="round"/>
<path d="M1004.55 112.909V106.797" stroke="#FBB03B" stroke-miterlimit="10" stroke-linecap="round"/>
<path d="M1009.48 112.909V106.797" stroke="#FBB03B" stroke-miterlimit="10" stroke-linecap="round"/>
<path d="M1014.8 112.909V106.797" stroke="#FBB03B" stroke-miterlimit="10" stroke-linecap="round"/>
<path d="M1019.93 112.909V106.797" stroke="#FBB03B" stroke-miterlimit="10" stroke-linecap="round"/>
<path d="M1025.06 112.909V106.797" stroke="#FBB03B" stroke-miterlimit="10" stroke-linecap="round"/>
</svg>
