<svg width="101" height="100" viewBox="0 0 101 100" fill="none" xmlns="http://www.w3.org/2000/svg">
<path d="M42.6875 17.1875H45.8125V20.3125H42.6875V17.1875Z" fill="#27AE60"/>
<path d="M83.3125 54.6875H86.4375V57.8125H83.3125V54.6875Z" fill="#27AE60"/>
<path d="M55.1875 79.6875H58.3125V82.8125H55.1875V79.6875Z" fill="#27AE60"/>
<path d="M42.6875 84.375H45.8125V87.5H42.6875V84.375Z" fill="#27AE60"/>
<path d="M17.6875 48.4375H20.8125V51.5625H17.6875V48.4375Z" fill="#27AE60"/>
<path d="M55.1875 17.1875H58.3125V20.3125H55.1875V17.1875Z" fill="#27AE60"/>
<path d="M80.1875 42.1875H83.3125V45.3125H80.1875V42.1875Z" fill="#27AE60"/>
<path d="M72.375 26.5625H75.5V29.6875H72.375V26.5625Z" fill="#27AE60"/>
<path d="M25.5 26.5625H28.625V29.6875H25.5V26.5625Z" fill="#27AE60"/>
<path d="M72.375 70.3125H75.5V73.4375H72.375V70.3125Z" fill="#27AE60"/>
<path d="M25.5 70.3125H28.625V73.4375H25.5V70.3125Z" fill="#27AE60"/>
<path d="M50.3158 48.4375C49.223 48.4728 48.1771 48.8897 47.3597 49.6158C46.5423 50.342 46.0051 51.3315 45.8414 52.4125C45.6776 53.4935 45.8976 54.5977 46.4633 55.5334C47.0289 56.469 47.9044 57.177 48.9377 57.5344V60.9375H52.0627V57.5235C53.1213 57.1527 54.0114 56.4138 54.5707 55.4415C55.1299 54.4692 55.3211 53.3283 55.1093 52.2268C54.8975 51.1253 54.2969 50.1366 53.417 49.441C52.5371 48.7455 51.4364 48.3893 50.3158 48.4375ZM52.0627 53.0641C52.0708 53.2692 52.0385 53.4739 51.9675 53.6665C51.8965 53.8591 51.7883 54.0358 51.649 54.1866C51.5097 54.3373 51.3421 54.4592 51.1557 54.5451C50.9693 54.6311 50.7678 54.6795 50.5627 54.6875C50.3573 54.6955 50.1523 54.663 49.9595 54.5916C49.7668 54.5203 49.5899 54.4117 49.4392 54.2719C49.2121 54.0622 49.0523 53.7899 48.98 53.4894C48.9076 53.1888 48.9261 52.8736 49.033 52.5835C49.1399 52.2935 49.3304 52.0417 49.5804 51.8599C49.8305 51.6782 50.1288 51.5747 50.4377 51.5625H50.5002C50.904 51.5622 51.2922 51.7182 51.5835 51.9979C51.8748 52.2775 52.0465 52.659 52.0627 53.0625V53.0641Z" fill="#27AE60"/>
<path d="M58.3125 44.0375V42.1875C58.3125 40.1155 57.4894 38.1284 56.0243 36.6632C54.5591 35.1981 52.572 34.375 50.5 34.375C48.428 34.375 46.4409 35.1981 44.9757 36.6632C43.5106 38.1284 42.6875 40.1155 42.6875 42.1875V44.0375C41.7767 44.3595 40.9876 44.955 40.4283 45.7427C39.8689 46.5303 39.5665 47.4715 39.5625 48.4375V60.9375C39.5625 62.1807 40.0564 63.373 40.9354 64.2521C41.8145 65.1311 43.0068 65.625 44.25 65.625H56.75C57.9932 65.625 59.1855 65.1311 60.0646 64.2521C60.9436 63.373 61.4375 62.1807 61.4375 60.9375V48.4375C61.4335 47.4715 61.1311 46.5303 60.5717 45.7427C60.0124 44.955 59.2233 44.3595 58.3125 44.0375ZM45.8125 42.1875C45.8125 40.9443 46.3064 39.752 47.1854 38.8729C48.0645 37.9939 49.2568 37.5 50.5 37.5C51.7432 37.5 52.9355 37.9939 53.8146 38.8729C54.6936 39.752 55.1875 40.9443 55.1875 42.1875V43.75H45.8125V42.1875ZM58.3125 60.9375C58.3125 61.3519 58.1479 61.7493 57.8549 62.0424C57.5618 62.3354 57.1644 62.5 56.75 62.5H44.25C43.8356 62.5 43.4382 62.3354 43.1451 62.0424C42.8521 61.7493 42.6875 61.3519 42.6875 60.9375V48.4375C42.6875 48.0231 42.8521 47.6257 43.1451 47.3326C43.4382 47.0396 43.8356 46.875 44.25 46.875H56.75C57.1644 46.875 57.5618 47.0396 57.8549 47.3326C58.1479 47.6257 58.3125 48.0231 58.3125 48.4375V60.9375Z" fill="#27AE60"/>
<path d="M92.6875 64.0625C91.9914 64.0652 91.305 64.2255 90.6797 64.5313L87.0859 60.9375H72.375V57.8125H80.1875V54.6875H72.375V51.5625H80.5563L89.4422 47.1188C90.221 47.8647 91.2336 48.3187 92.3086 48.4039C93.3836 48.489 94.4551 48.2002 95.3416 47.5862C96.2282 46.9722 96.8754 46.0708 97.1737 45.0345C97.472 43.9982 97.4031 42.8906 96.9787 41.8992C96.5543 40.9079 95.8004 40.0936 94.8446 39.5941C93.8889 39.0947 92.7899 38.9408 91.7337 39.1586C90.6775 39.3763 89.7289 39.9522 89.0486 40.7889C88.3682 41.6256 87.9978 42.6716 88 43.75C88.0074 43.9401 88.0267 44.1295 88.0578 44.3172L79.8188 48.4375H72.375V45.3125H77.0625V42.1875H72.375V39.0625H79.2719L84.4281 33.9063C85.0539 34.2123 85.7409 34.3725 86.4375 34.375C87.3646 34.375 88.2709 34.1001 89.0417 33.585C89.8126 33.07 90.4134 32.3379 90.7682 31.4813C91.123 30.6248 91.2158 29.6823 91.0349 28.773C90.8541 27.8637 90.4076 27.0285 89.7521 26.3729C89.0965 25.7174 88.2613 25.2709 87.352 25.0901C86.4427 24.9092 85.5002 25.002 84.6437 25.3568C83.7872 25.7116 83.0551 26.3124 82.54 27.0833C82.0249 27.8541 81.75 28.7604 81.75 29.6875C81.7527 30.3836 81.913 31.07 82.2188 31.6953L77.9781 35.9375H72.375C72.3725 33.8663 71.5486 31.8806 70.084 30.416C68.6194 28.9514 66.6337 28.1275 64.5625 28.125V24.0844L73.4922 15.1563C74.1175 15.4621 74.8039 15.6223 75.5 15.625C76.4271 15.625 77.3334 15.3501 78.1042 14.835C78.8751 14.3199 79.4759 13.5879 79.8307 12.7313C80.1855 11.8748 80.2783 10.9323 80.0974 10.023C79.9166 9.11373 79.4701 8.2785 78.8146 7.62294C78.159 6.96738 77.3238 6.52094 76.4145 6.34007C75.5052 6.1592 74.5627 6.25203 73.7062 6.60682C72.8496 6.9616 72.1176 7.56241 71.6025 8.33327C71.0874 9.10412 70.8125 10.0104 70.8125 10.9375C70.8152 11.6336 70.9755 12.32 71.2813 12.9453L61.4375 22.7891V28.125H58.3125V23.4375H55.1875V28.125H52.0625V16.9C53.105 16.5314 53.9837 15.8061 54.5432 14.8524C55.1027 13.8986 55.307 12.7778 55.12 11.6879C54.933 10.5981 54.3668 9.60944 53.5213 8.89671C52.6759 8.18399 51.6058 7.79309 50.5 7.79309C49.3942 7.79309 48.3241 8.18399 47.4787 8.89671C46.6332 9.60944 46.067 10.5981 45.88 11.6879C45.693 12.7778 45.8973 13.8986 46.4568 14.8524C47.0163 15.8061 47.895 16.5314 48.9375 16.9V28.125H45.8125V23.4375H42.6875V28.125H39.5625V16.5406L32.8438 9.82188C33.1498 9.19609 33.31 8.5091 33.3125 7.8125C33.3125 6.8854 33.0376 5.97912 32.5225 5.20827C32.0075 4.43741 31.2754 3.8366 30.4188 3.48182C29.5623 3.12703 28.6198 3.0342 27.7105 3.21507C26.8012 3.39594 25.966 3.84238 25.3104 4.49794C24.6549 5.1535 24.2084 5.98873 24.0276 6.89802C23.8467 7.8073 23.9395 8.7498 24.2943 9.60633C24.6491 10.4629 25.2499 11.1949 26.0208 11.71C26.7916 12.2251 27.6979 12.5 28.625 12.5C29.3211 12.4973 30.0075 12.3371 30.6328 12.0313L36.4375 17.8344V28.125C34.3663 28.1275 32.3806 28.9514 30.916 30.416C29.4514 31.8806 28.6275 33.8663 28.625 35.9375H23.0219L18.7813 31.6953C19.0871 31.07 19.2473 30.3836 19.25 29.6875C19.25 28.7604 18.9751 27.8541 18.46 27.0833C17.9449 26.3124 17.2129 25.7116 16.3563 25.3568C15.4998 25.002 14.5573 24.9092 13.648 25.0901C12.7387 25.2709 11.9035 25.7174 11.2479 26.3729C10.5924 27.0285 10.1459 27.8637 9.96507 28.773C9.7842 29.6823 9.87703 30.6248 10.2318 31.4813C10.5866 32.3379 11.1874 33.07 11.9583 33.585C12.7291 34.1001 13.6354 34.375 14.5625 34.375C15.2586 34.3723 15.945 34.2121 16.5703 33.9063L21.7266 39.0625H28.625V42.1875H18.6844L10.5 49.0063C9.82927 48.6382 9.07755 48.4428 8.3125 48.4375C7.3854 48.4375 6.47912 48.7124 5.70827 49.2275C4.93741 49.7426 4.3366 50.4747 3.98182 51.3312C3.62703 52.1877 3.5342 53.1302 3.71507 54.0395C3.89594 54.9488 4.34238 55.784 4.99794 56.4396C5.6535 57.0951 6.48873 57.5416 7.39802 57.7224C8.3073 57.9033 9.2498 57.8105 10.1063 57.4557C10.9629 57.1009 11.6949 56.5001 12.21 55.7292C12.7251 54.9584 13 54.0521 13 53.125C13.0011 52.4979 12.8751 51.8771 12.6297 51.3L19.8156 45.3125H28.625V48.4375H23.9375V51.5625H28.625V54.6875H14.5625V57.8125H28.625V60.9375H19.9766L13.6797 70.3813C13.4551 70.3417 13.2279 70.3187 13 70.3125C11.913 70.3025 10.8557 70.6672 10.0059 71.3451C9.15613 72.0231 8.56575 72.973 8.33405 74.0351C8.10235 75.0972 8.24346 76.2067 8.73364 77.177C9.22383 78.1473 10.0332 78.9192 11.0256 79.3628C12.018 79.8065 13.133 79.8949 14.1829 79.6131C15.2328 79.3314 16.1537 78.6966 16.7906 77.8157C17.4276 76.9348 17.7417 75.8614 17.6803 74.776C17.6188 73.6907 17.1855 72.6596 16.4531 71.8563L21.6484 64.0625H28.625C28.6275 66.1337 29.4514 68.1194 30.916 69.584C32.3806 71.0486 34.3663 71.8725 36.4375 71.875V82.1656L30.6328 87.9688C30.0075 87.663 29.3211 87.5027 28.625 87.5C27.6979 87.5 26.7916 87.7749 26.0208 88.29C25.2499 88.8051 24.6491 89.5372 24.2943 90.3937C23.9395 91.2502 23.8467 92.1927 24.0276 93.102C24.2084 94.0113 24.6549 94.8465 25.3104 95.5021C25.966 96.1576 26.8012 96.6041 27.7105 96.7849C28.6198 96.9658 29.5623 96.873 30.4188 96.5182C31.2754 96.1634 32.0075 95.5626 32.5225 94.7917C33.0376 94.0209 33.3125 93.1146 33.3125 92.1875C33.3098 91.4914 33.1496 90.805 32.8438 90.1797L39.5625 83.4609V71.875H42.6875V81.25H45.8125V71.875H48.9375V85.2406L58.4281 91.1781C58.1731 92.2728 58.314 93.4225 58.8258 94.4232C59.3376 95.424 60.1874 96.2111 61.2243 96.645C62.2612 97.0789 63.4182 97.1315 64.4902 96.7936C65.5623 96.4557 66.48 95.749 67.0806 94.7989C67.6812 93.8488 67.9259 92.7167 67.7714 91.6033C67.6168 90.49 67.0729 89.4674 66.2362 88.7168C65.3995 87.9663 64.324 87.5363 63.2004 87.5032C62.0769 87.4701 60.9779 87.836 60.0984 88.5359L52.0625 83.5094V71.875H55.1875V76.5625H58.3125V71.875H61.4375V84.375H72.6625C73.0311 85.4175 73.7564 86.2962 74.7101 86.8557C75.6639 87.4152 76.7848 87.6195 77.8746 87.4325C78.9644 87.2455 79.9531 86.6793 80.6658 85.8338C81.3785 84.9884 81.7694 83.9183 81.7694 82.8125C81.7694 81.7067 81.3785 80.6366 80.6658 79.7912C79.9531 78.9457 78.9644 78.3795 77.8746 78.1925C76.7848 78.0055 75.6639 78.2098 74.7101 78.7693C73.7564 79.3288 73.0311 80.2075 72.6625 81.25H64.5625V71.875C66.6337 71.8725 68.6194 71.0486 70.084 69.584C71.5486 68.1194 72.3725 66.1337 72.375 64.0625H85.7906L88.4688 66.7422C88.163 67.3675 88.0027 68.0539 88 68.75C88 69.6771 88.2749 70.5834 88.79 71.3542C89.3051 72.1251 90.0372 72.7259 90.8937 73.0807C91.7502 73.4355 92.6927 73.5283 93.602 73.3474C94.5113 73.1666 95.3465 72.7201 96.0021 72.0646C96.6576 71.409 97.1041 70.5738 97.2849 69.6645C97.4658 68.7552 97.373 67.8127 97.0182 66.9562C96.6634 66.0997 96.0626 65.3676 95.2917 64.8525C94.5209 64.3374 93.6146 64.0625 92.6875 64.0625ZM92.6875 42.1875C92.9965 42.1875 93.2986 42.2791 93.5556 42.4508C93.8125 42.6225 94.0128 42.8666 94.1311 43.1521C94.2493 43.4376 94.2803 43.7517 94.22 44.0548C94.1597 44.3579 94.0109 44.6363 93.7924 44.8549C93.5738 45.0734 93.2954 45.2222 92.9923 45.2825C92.6892 45.3428 92.3751 45.3118 92.0896 45.1936C91.8041 45.0753 91.56 44.875 91.3883 44.6181C91.2166 44.3611 91.125 44.059 91.125 43.75C91.125 43.3356 91.2896 42.9382 91.5826 42.6451C91.8757 42.3521 92.2731 42.1875 92.6875 42.1875ZM86.4375 28.125C86.7465 28.125 87.0486 28.2166 87.3056 28.3883C87.5625 28.56 87.7628 28.8041 87.8811 29.0896C87.9993 29.3751 88.0303 29.6892 87.97 29.9923C87.9097 30.2954 87.7609 30.5738 87.5424 30.7924C87.3238 31.0109 87.0454 31.1597 86.7423 31.22C86.4392 31.2803 86.1251 31.2493 85.8396 31.1311C85.5541 31.0128 85.31 30.8125 85.1383 30.5556C84.9666 30.2986 84.875 29.9965 84.875 29.6875C84.875 29.2731 85.0396 28.8757 85.3326 28.5826C85.6257 28.2896 86.0231 28.125 86.4375 28.125ZM75.5 9.375C75.809 9.375 76.1111 9.46664 76.3681 9.63833C76.625 9.81002 76.8253 10.0541 76.9436 10.3396C77.0618 10.6251 77.0928 10.9392 77.0325 11.2423C76.9722 11.5454 76.8234 11.8238 76.6049 12.0424C76.3863 12.2609 76.1079 12.4097 75.8048 12.47C75.5017 12.5303 75.1876 12.4993 74.9021 12.3811C74.6166 12.2628 74.3725 12.0625 74.2008 11.8056C74.0291 11.5486 73.9375 11.2465 73.9375 10.9375C73.9375 10.5231 74.1021 10.1257 74.3951 9.83265C74.6882 9.53962 75.0856 9.375 75.5 9.375ZM50.5 10.9375C50.809 10.9375 51.1111 11.0291 51.3681 11.2008C51.625 11.3725 51.8253 11.6166 51.9436 11.9021C52.0618 12.1876 52.0928 12.5017 52.0325 12.8048C51.9722 13.1079 51.8234 13.3863 51.6049 13.6049C51.3863 13.8234 51.1079 13.9722 50.8048 14.0325C50.5017 14.0928 50.1876 14.0618 49.9021 13.9436C49.6166 13.8253 49.3725 13.625 49.2008 13.3681C49.0291 13.1111 48.9375 12.809 48.9375 12.5C48.9375 12.0856 49.1021 11.6882 49.3951 11.3951C49.6882 11.1021 50.0856 10.9375 50.5 10.9375ZM27.0625 7.8125C27.0625 7.50347 27.1541 7.20138 27.3258 6.94442C27.4975 6.68747 27.7416 6.4872 28.0271 6.36894C28.3126 6.25068 28.6267 6.21974 28.9298 6.28003C29.2329 6.34031 29.5113 6.48913 29.7299 6.70765C29.9484 6.92617 30.0972 7.20458 30.1575 7.50767C30.2178 7.81077 30.1868 8.12494 30.0686 8.41045C29.9503 8.69595 29.75 8.93998 29.4931 9.11167C29.2361 9.28336 28.934 9.375 28.625 9.375C28.2106 9.375 27.8132 9.21038 27.5201 8.91736C27.2271 8.62433 27.0625 8.2269 27.0625 7.8125ZM13 29.6875C13 29.3785 13.0916 29.0764 13.2633 28.8194C13.435 28.5625 13.6791 28.3622 13.9646 28.2439C14.2501 28.1257 14.5642 28.0947 14.8673 28.155C15.1704 28.2153 15.4488 28.3641 15.6674 28.5826C15.8859 28.8012 16.0347 29.0796 16.095 29.3827C16.1553 29.6858 16.1243 29.9999 16.0061 30.2854C15.8878 30.571 15.6875 30.815 15.4306 30.9867C15.1736 31.1584 14.8715 31.25 14.5625 31.25C14.1481 31.25 13.7507 31.0854 13.4576 30.7924C13.1646 30.4993 13 30.1019 13 29.6875ZM8.3125 54.6875C8.00347 54.6875 7.70138 54.5959 7.44442 54.4242C7.18747 54.2525 6.9872 54.0085 6.86894 53.7229C6.75068 53.4374 6.71974 53.1233 6.78003 52.8202C6.84031 52.5171 6.98913 52.2387 7.20765 52.0202C7.42617 51.8016 7.70458 51.6528 8.00767 51.5925C8.31077 51.5322 8.62494 51.5632 8.91045 51.6814C9.19595 51.7997 9.43998 52 9.61167 52.2569C9.78336 52.5139 9.875 52.816 9.875 53.125C9.875 53.5394 9.71038 53.9368 9.41736 54.2299C9.12433 54.5229 8.7269 54.6875 8.3125 54.6875ZM13 76.5625C12.691 76.5625 12.3889 76.4709 12.1319 76.2992C11.875 76.1275 11.6747 75.8835 11.5564 75.5979C11.4382 75.3124 11.4072 74.9983 11.4675 74.6952C11.5278 74.3921 11.6766 74.1137 11.8951 73.8951C12.1137 73.6766 12.3921 73.5278 12.6952 73.4675C12.9983 73.4072 13.3124 73.4382 13.5979 73.5564C13.8835 73.6747 14.1275 73.875 14.2992 74.1319C14.4709 74.3889 14.5625 74.691 14.5625 75C14.5625 75.4144 14.3979 75.8118 14.1049 76.1049C13.8118 76.3979 13.4144 76.5625 13 76.5625ZM28.625 93.75C28.316 93.75 28.0139 93.6584 27.7569 93.4867C27.5 93.315 27.2997 93.071 27.1814 92.7854C27.0632 92.4999 27.0322 92.1858 27.0925 91.8827C27.1528 91.5796 27.3016 91.3012 27.5201 91.0826C27.7387 90.8641 28.0171 90.7153 28.3202 90.655C28.6233 90.5947 28.9374 90.6257 29.2229 90.7439C29.5085 90.8622 29.7525 91.0625 29.9242 91.3194C30.0959 91.5764 30.1875 91.8785 30.1875 92.1875C30.1875 92.6019 30.0229 92.9993 29.7299 93.2924C29.4368 93.5854 29.0394 93.75 28.625 93.75ZM63 90.625C63.309 90.625 63.6111 90.7166 63.8681 90.8883C64.125 91.06 64.3253 91.3041 64.4436 91.5896C64.5618 91.8751 64.5928 92.1892 64.5325 92.4923C64.4722 92.7954 64.3234 93.0738 64.1049 93.2924C63.8863 93.5109 63.6079 93.6597 63.3048 93.72C63.0017 93.7803 62.6876 93.7493 62.4021 93.6311C62.1166 93.5128 61.8725 93.3125 61.7008 93.0556C61.5291 92.7986 61.4375 92.4965 61.4375 92.1875C61.4375 91.7731 61.6021 91.3757 61.8951 91.0826C62.1882 90.7896 62.5856 90.625 63 90.625ZM77.0625 81.25C77.3715 81.25 77.6736 81.3416 77.9306 81.5133C78.1875 81.685 78.3878 81.9291 78.5061 82.2146C78.6243 82.5001 78.6553 82.8142 78.595 83.1173C78.5347 83.4204 78.3859 83.6988 78.1674 83.9174C77.9488 84.1359 77.6704 84.2847 77.3673 84.345C77.0642 84.4053 76.7501 84.3743 76.4646 84.2561C76.1791 84.1378 75.935 83.9375 75.7633 83.6806C75.5916 83.4236 75.5 83.1215 75.5 82.8125C75.5 82.3981 75.6646 82.0007 75.9576 81.7076C76.2507 81.4146 76.6481 81.25 77.0625 81.25ZM69.25 64.0625C69.25 65.3057 68.7561 66.498 67.8771 67.3771C66.998 68.2561 65.8057 68.75 64.5625 68.75H36.4375C35.1943 68.75 34.002 68.2561 33.1229 67.3771C32.2439 66.498 31.75 65.3057 31.75 64.0625V35.9375C31.75 34.6943 32.2439 33.502 33.1229 32.6229C34.002 31.7439 35.1943 31.25 36.4375 31.25H64.5625C65.8057 31.25 66.998 31.7439 67.8771 32.6229C68.7561 33.502 69.25 34.6943 69.25 35.9375V64.0625ZM92.6875 70.3125C92.3785 70.3125 92.0764 70.2209 91.8194 70.0492C91.5625 69.8775 91.3622 69.6335 91.2439 69.3479C91.1257 69.0624 91.0947 68.7483 91.155 68.4452C91.2153 68.1421 91.3641 67.8637 91.5826 67.6451C91.8012 67.4266 92.0796 67.2778 92.3827 67.2175C92.6858 67.1572 92.9999 67.1882 93.2854 67.3064C93.571 67.4247 93.815 67.625 93.9867 67.8819C94.1584 68.1389 94.25 68.441 94.25 68.75C94.25 69.1644 94.0854 69.5618 93.7924 69.8549C93.4993 70.1479 93.1019 70.3125 92.6875 70.3125Z" fill="#27AE60"/>
</svg>
