<svg width="100" height="100" viewBox="0 0 100 100" fill="none" xmlns="http://www.w3.org/2000/svg">
<path d="M84.375 32.8125C83.1389 32.8125 81.9305 32.4459 80.9027 31.7592C79.8749 31.0724 79.0738 30.0963 78.6008 28.9543C78.1277 27.8122 78.0039 26.5556 78.2451 25.3432C78.4863 24.1308 79.0815 23.0172 79.9556 22.1431C80.8297 21.269 81.9433 20.6738 83.1557 20.4326C84.3681 20.1914 85.6247 20.3152 86.7668 20.7883C87.9088 21.2613 88.8849 22.0624 89.5717 23.0902C90.2585 24.118 90.625 25.3264 90.625 26.5625C90.625 28.2201 89.9665 29.8098 88.7944 30.9819C87.6223 32.154 86.0326 32.8125 84.375 32.8125ZM84.375 23.4375C83.7569 23.4375 83.1528 23.6208 82.6388 23.9642C82.1249 24.3075 81.7244 24.7956 81.4879 25.3666C81.2514 25.9376 81.1895 26.566 81.3101 27.1722C81.4306 27.7784 81.7283 28.3352 82.1653 28.7722C82.6023 29.2093 83.1592 29.5069 83.7653 29.6275C84.3715 29.748 84.9999 29.6862 85.5709 29.4496C86.1419 29.2131 86.63 28.8126 86.9734 28.2987C87.3167 27.7848 87.5 27.1806 87.5 26.5625C87.5 25.7337 87.1708 24.9388 86.5847 24.3528C85.9987 23.7667 85.2038 23.4375 84.375 23.4375Z" fill="#27AE60"/>
<path d="M71.875 25H75V28.125H71.875V25Z" fill="#27AE60"/>
<path d="M73.4375 48.4375C72.2014 48.4375 70.993 48.071 69.9652 47.3842C68.9374 46.6974 68.1363 45.7213 67.6633 44.5793C67.1902 43.4372 67.0664 42.1806 67.3076 40.9682C67.5488 39.7558 68.144 38.6422 69.0181 37.7681C69.8922 36.894 71.0058 36.2988 72.2182 36.0576C73.4306 35.8164 74.6872 35.9402 75.8293 36.4133C76.9713 36.8863 77.9474 37.6874 78.6342 38.7152C79.321 39.743 79.6875 40.9514 79.6875 42.1875C79.6875 43.8451 79.029 45.4348 77.8569 46.6069C76.6848 47.779 75.0951 48.4375 73.4375 48.4375ZM73.4375 39.0625C72.8194 39.0625 72.2153 39.2458 71.7013 39.5892C71.1874 39.9325 70.7869 40.4206 70.5504 40.9916C70.3139 41.5626 70.252 42.191 70.3726 42.7972C70.4931 43.4034 70.7908 43.9602 71.2278 44.3972C71.6648 44.8343 72.2217 45.1319 72.8278 45.2525C73.434 45.373 74.0624 45.3112 74.6334 45.0746C75.2044 44.8381 75.6925 44.4376 76.0359 43.9237C76.3792 43.4098 76.5625 42.8056 76.5625 42.1875C76.5625 41.3587 76.2333 40.5638 75.6472 39.9778C75.0612 39.3917 74.2663 39.0625 73.4375 39.0625Z" fill="#27AE60"/>
<path d="M60.9375 40.625H64.0625V43.75H60.9375V40.625Z" fill="#27AE60"/>
<path d="M90.625 62.5C89.3889 62.5 88.1805 62.1335 87.1527 61.4467C86.1249 60.7599 85.3238 59.7838 84.8508 58.6418C84.3777 57.4997 84.2539 56.2431 84.4951 55.0307C84.7363 53.8183 85.3315 52.7047 86.2056 51.8306C87.0797 50.9565 88.1933 50.3613 89.4057 50.1201C90.6181 49.8789 91.8747 50.0027 93.0168 50.4758C94.1588 50.9488 95.1349 51.7499 95.8217 52.7777C96.5084 53.8055 96.875 55.0139 96.875 56.25C96.875 57.9076 96.2165 59.4973 95.0444 60.6694C93.8723 61.8415 92.2826 62.5 90.625 62.5ZM90.625 53.125C90.0069 53.125 89.4027 53.3083 88.8888 53.6517C88.3749 53.995 87.9744 54.4831 87.7379 55.0541C87.5014 55.6251 87.4395 56.2535 87.56 56.8597C87.6806 57.4659 87.9783 58.0227 88.4153 58.4597C88.8523 58.8968 89.4092 59.1944 90.0153 59.315C90.6215 59.4355 91.2499 59.3737 91.8209 59.1371C92.3919 58.9006 92.88 58.5001 93.2233 57.9862C93.5667 57.4723 93.75 56.8681 93.75 56.25C93.75 55.4212 93.4208 54.6263 92.8347 54.0403C92.2487 53.4542 91.4538 53.125 90.625 53.125Z" fill="#27AE60"/>
<path d="M78.125 54.6875H81.25V57.8125H78.125V54.6875Z" fill="#27AE60"/>
<path d="M78.125 7.8125H81.25V10.9375H78.125V7.8125Z" fill="#27AE60"/>
<path d="M90.625 96.875C89.3889 96.875 88.1805 96.5085 87.1527 95.8217C86.1249 95.1349 85.3238 94.1588 84.8508 93.0168C84.3777 91.8747 84.2539 90.6181 84.4951 89.4057C84.7363 88.1933 85.3315 87.0797 86.2056 86.2056C87.0797 85.3315 88.1933 84.7363 89.4057 84.4951C90.6181 84.2539 91.8747 84.3777 93.0168 84.8508C94.1588 85.3238 95.1349 86.1249 95.8217 87.1527C96.5084 88.1805 96.875 89.3889 96.875 90.625C96.875 92.2826 96.2165 93.8723 95.0444 95.0444C93.8723 96.2165 92.2826 96.875 90.625 96.875ZM90.625 87.5C90.0069 87.5 89.4027 87.6833 88.8888 88.0267C88.3749 88.37 87.9744 88.8581 87.7379 89.4291C87.5014 90.0001 87.4395 90.6285 87.56 91.2347C87.6806 91.8409 87.9783 92.3977 88.4153 92.8347C88.8523 93.2718 89.4092 93.5694 90.0153 93.69C90.6215 93.8105 91.2499 93.7487 91.8209 93.5121C92.3919 93.2756 92.88 92.8751 93.2233 92.3612C93.5667 91.8473 93.75 91.2431 93.75 90.625C93.75 89.7962 93.4208 89.0013 92.8347 88.4153C92.2487 87.8292 91.4538 87.5 90.625 87.5Z" fill="#27AE60"/>
<path d="M78.125 89.0625H81.25V92.1875H78.125V89.0625Z" fill="#27AE60"/>
<path d="M82.8125 81.25C81.5764 81.25 80.368 80.8835 79.3402 80.1967C78.3124 79.5099 77.5113 78.5338 77.0383 77.3918C76.5652 76.2497 76.4414 74.9931 76.6826 73.7807C76.9238 72.5683 77.519 71.4547 78.3931 70.5806C79.2672 69.7065 80.3808 69.1113 81.5932 68.8701C82.8056 68.6289 84.0622 68.7527 85.2043 69.2258C86.3463 69.6988 87.3224 70.4999 88.0092 71.5277C88.696 72.5555 89.0625 73.7639 89.0625 75C89.0625 76.6576 88.404 78.2473 87.2319 79.4194C86.0598 80.5915 84.4701 81.25 82.8125 81.25ZM82.8125 71.875C82.1944 71.875 81.5903 72.0583 81.0763 72.4017C80.5624 72.745 80.1619 73.2331 79.9254 73.8041C79.6889 74.3751 79.627 75.0035 79.7476 75.6097C79.8681 76.2159 80.1658 76.7727 80.6028 77.2097C81.0398 77.6468 81.5967 77.9444 82.2028 78.065C82.809 78.1855 83.4374 78.1237 84.0084 77.8871C84.5794 77.6506 85.0675 77.2501 85.4109 76.7362C85.7542 76.2223 85.9375 75.6181 85.9375 75C85.9375 74.1712 85.6083 73.3763 85.0222 72.7903C84.4362 72.2042 83.6413 71.875 82.8125 71.875Z" fill="#27AE60"/>
<path d="M70.3125 73.4375H73.4375V76.5625H70.3125V73.4375Z" fill="#27AE60"/>
<path d="M90.625 15.625C89.3889 15.625 88.1805 15.2584 87.1527 14.5717C86.1249 13.8849 85.3238 12.9088 84.8508 11.7668C84.3777 10.6247 84.2539 9.36807 84.4951 8.15569C84.7363 6.94331 85.3315 5.82966 86.2056 4.95559C87.0797 4.08151 88.1933 3.48625 89.4057 3.24509C90.6181 3.00394 91.8747 3.12771 93.0168 3.60076C94.1588 4.0738 95.1349 4.87488 95.8217 5.90269C96.5084 6.9305 96.875 8.13887 96.875 9.375C96.875 11.0326 96.2165 12.6223 95.0444 13.7944C93.8723 14.9665 92.2826 15.625 90.625 15.625ZM90.625 6.25C90.0069 6.25 89.4027 6.43328 88.8888 6.77666C88.3749 7.12004 87.9744 7.6081 87.7379 8.17912C87.5014 8.75014 87.4395 9.37847 87.56 9.98466C87.6806 10.5909 87.9783 11.1477 88.4153 11.5847C88.8523 12.0218 89.4092 12.3194 90.0153 12.44C90.6215 12.5605 91.2499 12.4987 91.8209 12.2621C92.3919 12.0256 92.88 11.6251 93.2233 11.1112C93.5667 10.5973 93.75 9.99307 93.75 9.375C93.75 8.5462 93.4208 7.75135 92.8347 7.16529C92.2487 6.57924 91.4538 6.25 90.625 6.25Z" fill="#27AE60"/>
<path d="M67.1875 73.4375H53.125C51.8818 73.4375 50.6896 73.9313 49.8105 74.8104C48.9314 75.6895 48.4375 76.8818 48.4375 78.125V84.375C48.4384 85.7381 48.1421 87.0849 47.5691 88.3218C46.9962 89.5586 46.1604 90.6556 45.12 91.5363C44.0797 92.4171 42.8598 93.0603 41.5454 93.4213C40.231 93.7823 38.8537 93.8524 37.5094 93.6265C36.2774 93.4287 35.0978 92.985 34.0408 92.322C32.9837 91.6589 32.0709 90.79 31.3565 89.7669C30.6422 88.7438 30.141 87.5874 29.8827 86.3667C29.6245 85.1459 29.6144 83.8857 29.8532 82.6609C32.4194 82.2503 34.7555 80.9394 36.443 78.9629C38.1305 76.9865 39.0592 74.4738 39.0625 71.875C39.0625 71.4606 39.2272 71.0631 39.5202 70.7701C39.8132 70.4771 40.2106 70.3125 40.625 70.3125C41.0394 70.3125 41.4369 70.4771 41.7299 70.7701C42.0229 71.0631 42.1875 71.4606 42.1875 71.875V73.4375H45.3125V71.875C45.3125 70.6318 44.8187 69.4395 43.9396 68.5604C43.0605 67.6813 41.8682 67.1875 40.625 67.1875C39.3818 67.1875 38.1896 67.6813 37.3105 68.5604C36.4314 69.4395 35.9375 70.6318 35.9375 71.875C35.9216 72.9009 35.7038 73.9137 35.2965 74.8555C34.8892 75.7972 34.3004 76.6496 33.5637 77.3638C32.827 78.078 31.9568 78.6401 31.0029 79.018C30.0489 79.396 29.0299 79.5823 28.004 79.5664C26.978 79.5505 25.9652 79.3327 25.0235 78.9254C24.0817 78.518 23.2294 77.9292 22.5151 77.1925C21.8009 76.4558 21.2388 75.5857 20.8609 74.6317C20.483 73.6778 20.2966 72.6587 20.3125 71.6328C20.4433 69.5576 21.3691 67.6128 22.8972 66.2028C24.4254 64.7928 26.4383 64.0262 28.5172 64.0625H31.25C33.3213 64.06 35.307 63.2361 36.7716 61.7715C38.2362 60.3069 39.0601 58.3212 39.0625 56.25V54.6875H35.9375V56.25C35.9375 57.4932 35.4437 58.6855 34.5646 59.5645C33.6855 60.4436 32.4932 60.9375 31.25 60.9375H28.5172C25.8435 60.9189 23.2499 61.8497 21.1981 63.5641C19.1463 65.2786 17.7694 67.6655 17.3125 70.3C17.2672 70.3 17.2329 70.3125 17.1875 70.3125C15.5299 70.3125 13.9402 69.654 12.7681 68.4819C11.596 67.3098 10.9375 65.7201 10.9375 64.0625C10.9375 62.4049 11.596 60.8152 12.7681 59.6431C13.9402 58.471 15.5299 57.8125 17.1875 57.8125V54.6875C15.7163 54.6889 14.2661 55.0372 12.9546 55.7039C11.6431 56.3707 10.5072 57.3371 9.6391 58.525C7.45618 56.2242 6.24259 53.1715 6.25004 50C6.25021 47.5657 6.96117 45.1844 8.29565 43.1484C9.63013 41.1125 11.53 39.5105 13.7622 38.5391C15.9943 37.5677 18.4615 37.2693 20.8608 37.6803C23.2602 38.0914 25.4873 39.1941 27.2688 40.8531L29.3985 38.5672C27.483 36.7708 25.1424 35.4906 22.5965 34.847C20.0506 34.2033 17.3829 34.2173 14.8438 34.8875C13.5748 33.2744 12.7853 31.3367 12.5655 29.2961C12.3458 27.2555 12.7046 25.1942 13.601 23.3479C14.4975 21.5016 15.8953 19.9447 17.6348 18.8553C19.3742 17.766 21.3851 17.188 23.4375 17.1875C24.5595 17.1858 25.6747 17.3609 26.7422 17.7062C27.2319 20.6194 28.7384 23.2647 30.9941 25.1722C33.2497 27.0797 36.1085 28.1259 39.0625 28.125H40.625C41.0394 28.125 41.4369 28.2896 41.7299 28.5826C42.0229 28.8757 42.1875 29.2731 42.1875 29.6875V34.375H45.3125V29.6875C45.3125 28.4443 44.8187 27.252 43.9396 26.3729C43.0605 25.4938 41.8682 25 40.625 25H39.0625C37.8201 25.0001 36.5901 24.7533 35.4439 24.2739C34.2978 23.7944 33.2583 23.092 32.386 22.2073C31.5137 21.3227 30.8259 20.2734 30.3627 19.1206C29.8994 17.9678 29.6699 16.7344 29.6875 15.4922C29.7657 13.0661 30.7643 10.7606 32.4805 9.04406C34.1968 7.3275 36.5021 6.32852 38.9282 6.24999C40.1728 6.21979 41.4105 6.44364 42.5657 6.90786C43.7209 7.37209 44.7693 8.06695 45.6469 8.94999C46.534 9.82006 47.2379 10.8589 47.7172 12.0053C48.1965 13.1517 48.4414 14.3824 48.4375 15.625V23.4375C48.4375 24.6807 48.9314 25.873 49.8105 26.752C50.6896 27.6311 51.8818 28.125 53.125 28.125H68.75V25H53.125C52.7106 25 52.3132 24.8354 52.0202 24.5423C51.7272 24.2493 51.5625 23.8519 51.5625 23.4375V15.625C51.5627 13.9684 51.2336 12.3282 50.5943 10.7999C49.955 9.27164 49.0183 7.88566 47.8386 6.72257C46.659 5.55948 45.2599 4.64248 43.7227 4.02488C42.1855 3.40727 40.5409 3.10138 38.8844 3.12499C35.8125 3.19053 32.8707 4.37723 30.6132 6.46151C28.3556 8.54579 26.9383 11.3837 26.6282 14.4406C23.8737 13.7929 20.9878 13.9927 18.3489 15.0136C15.7099 16.0346 13.4411 17.8292 11.8398 20.1621C10.2385 22.495 9.37956 25.2574 9.37553 28.0869C9.3715 30.9165 10.2226 33.6813 11.8172 36.0187C9.21069 37.3092 7.01608 39.3017 5.48043 41.7717C3.94478 44.2418 3.12904 47.0915 3.12504 50C3.12008 52.1587 3.56809 54.2944 4.44012 56.2691C5.31215 58.2438 6.58879 60.0136 8.18754 61.464C7.77986 62.8598 7.70328 64.3314 7.96388 65.7619C8.22447 67.1925 8.81507 68.5425 9.68875 69.7048C10.5624 70.8672 11.6951 71.8098 12.9969 72.4577C14.2986 73.1057 15.7335 73.4411 17.1875 73.4375H17.3079C17.6406 75.7963 18.7378 77.981 20.4312 79.6566C22.1245 81.3321 24.3206 82.4062 26.6829 82.714C26.6124 83.2179 26.5722 83.7256 26.5625 84.2344C26.5322 87.2198 27.5689 90.118 29.4859 92.4069C31.403 94.6957 34.0743 96.2248 37.0188 96.7187C37.6855 96.8241 38.3595 96.8764 39.0344 96.875C40.6789 96.8807 42.3083 96.5616 43.829 95.9358C45.3498 95.31 46.7319 94.3899 47.896 93.2284C49.0602 92.0669 49.9833 90.6868 50.6126 89.1675C51.2418 87.6481 51.5646 86.0194 51.5625 84.375V78.125C51.5625 77.7106 51.7272 77.3131 52.0202 77.0201C52.3132 76.7271 52.7106 76.5625 53.125 76.5625H67.1875V73.4375Z" fill="#27AE60"/>
<path d="M35.9375 48.4375H39.0625V51.5625H35.9375V48.4375Z" fill="#27AE60"/>
<path d="M48.4375 48.4375H51.5625V51.5625H48.4375V48.4375Z" fill="#27AE60"/>
<path d="M42.1875 37.5H45.3125V40.625H42.1875V37.5Z" fill="#27AE60"/>
<path d="M20.3125 54.6875V57.8125C21.5486 57.8125 22.757 57.446 23.7848 56.7592C24.8126 56.0724 25.6137 55.0963 26.0867 53.9543C26.5598 52.8122 26.6836 51.5556 26.4424 50.3432C26.2013 49.1308 25.606 48.0172 24.7319 47.1431C23.8578 46.269 22.7442 45.6738 21.5318 45.4326C20.3194 45.1914 19.0628 45.3152 17.9207 45.7883C16.7787 46.2613 15.8026 47.0624 15.1158 48.0902C14.4291 49.118 14.0625 50.3264 14.0625 51.5625H17.1875C17.1875 50.9444 17.3708 50.3403 17.7142 49.8263C18.0575 49.3124 18.5456 48.9119 19.1166 48.6754C19.6876 48.4389 20.316 48.377 20.9222 48.4976C21.5283 48.6181 22.0852 48.9158 22.5222 49.3528C22.9592 49.7898 23.2569 50.3467 23.3775 50.9528C23.498 51.559 23.4361 52.1874 23.1996 52.7584C22.9631 53.3294 22.5626 53.8175 22.0487 54.1609C21.5348 54.5042 20.9306 54.6875 20.3125 54.6875Z" fill="#27AE60"/>
<path d="M18.75 28.125C18.75 26.8818 19.2439 25.6895 20.1229 24.8104C21.002 23.9314 22.1943 23.4375 23.4375 23.4375V20.3125C21.3663 20.315 19.3806 21.1389 17.916 22.6035C16.4514 24.0681 15.6275 26.0538 15.625 28.125H18.75Z" fill="#27AE60"/>
<path d="M39.0625 12.5C39.8913 12.5 40.6862 12.8292 41.2722 13.4153C41.8583 14.0013 42.1875 14.7962 42.1875 15.625H45.3125C45.3125 13.9674 44.654 12.3777 43.4819 11.2056C42.3098 10.0335 40.7201 9.375 39.0625 9.375V12.5Z" fill="#27AE60"/>
<path d="M40.625 85.9375C40.625 86.3519 40.4604 86.7493 40.1674 87.0424C39.8743 87.3354 39.4769 87.5 39.0625 87.5H37.5V90.625H39.0625C40.3057 90.625 41.498 90.1311 42.3771 89.2521C43.2561 88.373 43.75 87.1807 43.75 85.9375V84.375H40.625V85.9375Z" fill="#27AE60"/>
<path d="M68.75 7.8125C67.5068 7.8125 66.3145 8.30636 65.4354 9.18544C64.5564 10.0645 64.0625 11.2568 64.0625 12.5C64.0625 12.9144 63.8979 13.3118 63.6049 13.6049C63.3118 13.8979 62.9144 14.0625 62.5 14.0625H54.6875V17.1875H62.5C63.7432 17.1875 64.9355 16.6936 65.8146 15.8146C66.6936 14.9355 67.1875 13.7432 67.1875 12.5C67.1875 12.0856 67.3521 11.6882 67.6451 11.3951C67.9382 11.1021 68.3356 10.9375 68.75 10.9375H75V7.8125H68.75Z" fill="#27AE60"/>
<path d="M67.1875 87.5C67.1875 86.2568 66.6936 85.0645 65.8146 84.1854C64.9355 83.3064 63.7432 82.8125 62.5 82.8125H54.6875V85.9375H62.5C62.9144 85.9375 63.3118 86.1021 63.6049 86.3951C63.8979 86.6882 64.0625 87.0856 64.0625 87.5C64.0625 88.7432 64.5564 89.9355 65.4354 90.8146C66.3145 91.6936 67.5068 92.1875 68.75 92.1875H75V89.0625H68.75C68.3356 89.0625 67.9382 88.8979 67.6451 88.6049C67.3521 88.3118 67.1875 87.9144 67.1875 87.5Z" fill="#27AE60"/>
<path d="M48.4375 59.375V70.3125H51.5625V59.375C51.5625 58.9606 51.7271 58.5632 52.0201 58.2701C52.3132 57.9771 52.7106 57.8125 53.125 57.8125H75V54.6875H53.125C51.8818 54.6875 50.6895 55.1814 49.8104 56.0604C48.9314 56.9395 48.4375 58.1318 48.4375 59.375Z" fill="#27AE60"/>
<path d="M57.8125 43.75V40.625H53.125C52.7106 40.625 52.3132 40.4604 52.0201 40.1674C51.7271 39.8743 51.5625 39.4769 51.5625 39.0625V31.25H48.4375V39.0625C48.4375 40.3057 48.9314 41.498 49.8104 42.3771C50.6895 43.2561 51.8818 43.75 53.125 43.75H57.8125Z" fill="#27AE60"/>
</svg>
