<svg width="100" height="100" viewBox="0 0 100 100" fill="none" xmlns="http://www.w3.org/2000/svg">
<path d="M20.3125 46.3517H17.1875V22.6013L18.5234 22.406C23.7595 21.637 28.8841 20.2423 33.7875 18.2518L34.9625 21.1487C30.246 23.0614 25.3326 24.45 20.3125 25.2892V46.3517Z" fill="#27AE60"/>
<path d="M50.0002 90.8012L35.9766 81.4575L37.7107 78.8582L50.0002 87.0453L62.2896 78.8582L64.0237 81.4575L50.0002 90.8012Z" fill="#27AE60"/>
<path d="M79.6875 23.9563H82.8125V46.3516H79.6875V23.9563Z" fill="#27AE60"/>
<path d="M67.611 12.0796C61.5425 9.50699 55.9449 5.94101 51.0483 1.52817L50 0.585938L48.9548 1.52359C39.0763 10.3867 26.5351 15.7196 13.2988 16.6878L10.9375 16.8549V46.3516C10.9192 62.5504 19.014 77.681 32.4997 86.6547L50 98.3139L67.5003 86.6516C80.9845 77.6787 89.0801 62.5488 89.0625 46.3516V16.8549L86.705 16.6985C80.1277 16.2323 73.674 14.6713 67.611 12.0796ZM85.9375 46.3516C85.9536 61.5067 78.3776 75.6615 65.7593 84.0546L50 94.5641L34.2408 84.0546C21.6225 75.6615 14.0465 61.5067 14.0625 46.3516V19.7685C27.3232 18.6821 39.9018 13.4315 50 4.76837C54.9004 8.99353 60.4286 12.4306 66.3857 14.9544C72.5998 17.6071 79.2023 19.2329 85.9375 19.7685V46.3516Z" fill="#27AE60"/>
<path d="M25 49.5643C25 63.3712 36.1931 74.5643 50 74.5643C63.8069 74.5643 75 63.3712 75 49.5643C75 35.7567 63.8069 24.5643 50 24.5643C36.2 24.5804 25.016 35.7635 25 49.5643ZM65.625 64.8437C61.5196 69.0605 55.8846 71.4393 50 71.4393C44.1154 71.4393 38.4804 69.0605 34.375 64.8437V62.9425C34.3742 62.2245 34.8633 61.5989 35.5591 61.425L44.2406 59.2514C45.1172 60.778 46.6843 61.7798 48.4375 61.9346V68.3143H51.5625V61.9346C53.3157 61.7798 54.8828 60.778 55.7594 59.2514L64.4409 61.4219C65.1367 61.5959 65.6258 62.2215 65.625 62.9387V64.8437ZM51.5625 51.1268H48.4375L45.3125 48.7404V41.7518H51.5625V38.6268H42.9688C44.1933 36.6798 46.3318 35.4995 48.6313 35.5018H53.125C53.9879 35.5018 54.6875 36.2014 54.6875 37.0643V48.7404L51.5625 51.1268ZM53.125 53.8597V57.3372C53.1059 57.6141 52.8625 58.9393 50 58.9393C47.1375 58.9393 46.8925 57.5996 46.875 57.3768V53.8597L47.3892 54.2518H52.6108L53.125 53.8597ZM71.875 49.5643C71.8735 53.7185 70.6802 57.7858 68.4372 61.2831C67.8978 59.8465 66.687 58.7661 65.1985 58.3938L56.25 56.1561V51.4778L57.8125 50.2876V37.0643C57.8125 34.4749 55.7137 32.3768 53.125 32.3768H48.6298C44.1254 32.3715 40.1978 35.4385 39.109 39.8094L38.6238 41.7518H42.1875V50.2876L43.75 51.4778V56.1561L34.8 58.3938C33.3122 58.7669 32.1022 59.8465 31.5628 61.2831C26.5671 53.4286 27.092 43.2731 32.8705 35.9756C38.649 28.6781 48.4138 25.8392 57.2037 28.9016C65.9943 31.9641 71.8819 40.2557 71.875 49.5643Z" fill="#27AE60"/>
<path d="M96.875 80.8143H100V99.5643H96.875V80.8143Z" fill="#27AE60"/>
<path d="M90.625 87.0643H93.75V99.5643H90.625V87.0643Z" fill="#27AE60"/>
<path d="M84.375 93.3143H87.5V99.5643H84.375V93.3143Z" fill="#27AE60"/>
<path d="M0 80.8143H3.125V99.5643H0V80.8143Z" fill="#27AE60"/>
<path d="M6.25 87.0643H9.375V99.5643H6.25V87.0643Z" fill="#27AE60"/>
<path d="M12.5 93.3143H15.625V99.5643H12.5V93.3143Z" fill="#27AE60"/>
</svg>
