<svg width="1920" height="435" viewBox="0 0 1920 435" fill="none" xmlns="http://www.w3.org/2000/svg">
<path d="M1920 242C1919.33 241.849 1808.4 236.828 1807.73 236.676C1786.64 233.802 1768.02 233.65 1746.94 232.289C1728.1 231.078 1709.71 227.749 1690.86 227.598C1669.33 227.447 1654.75 234.255 1634.34 234.255C1615.72 234.255 1598.23 234.104 1580.06 233.045C1560.77 231.835 1546.86 238.492 1528.69 239.551C1515.91 240.156 1508.96 235.163 1497.96 232.137C1484.28 228.355 1474.86 230.776 1460.96 234.104C1432.35 240.964 1408.95 235.27 1380.36 232.577L1335.91 227.422C1322.38 225.582 1308.8 223.817 1295.03 223.064L1250.22 224.997C1233.21 226.815 1216.18 229.149 1199.42 229.565C1161.51 230.624 1123.6 233.65 1085.7 231.229C1066.41 229.868 1046 223.967 1027.15 224.118C1016.57 224.207 1007.71 226.349 998.347 227.936L963.067 229.077C951.79 228.86 940.977 229.084 930.001 229.872L894.902 234.073C879.513 236.263 864.138 238.066 848.161 236.828C821.47 234.861 803.301 231.381 776.385 235.163C745.655 239.551 716.72 233.953 685.991 233.196C677.898 232.986 669.823 232.707 661.755 232.451L633.131 231.797C621.683 231.701 610.228 231.876 598.737 232.591C592.773 232.957 586.793 233.27 580.801 233.539L551.688 234.527C535.073 234.928 518.427 235.086 501.839 235.163C469.54 235.163 441.053 228.052 409.427 224.875C347.519 218.823 284.49 227.598 222.359 227.749C190.059 227.598 158.208 222 125.46 222C107.292 222 89.5717 224.118 71.8519 225.631C66.02 226.085 6.05616 231.041 0 231.797" stroke="#56CCF2" stroke-width="2" stroke-miterlimit="10"/>
<path d="M972.478 1H1001V434H972.478L919 413.252V44.3L972.478 1Z" fill="#0C0F23"/>
<path d="M972.478 1H1001V434H972.478M972.478 1L919 44.3V413.252L972.478 434M972.478 1V434" stroke="#56CCF2" stroke-width="2"/>
<path d="M800.08 269.588C790.149 269.588 788.411 263.825 788.411 257.812C788.411 255.306 789.156 254.304 791.142 251.297C793.128 248.291 792.632 247.288 793.873 245.535C795.115 243.781 796.108 242.277 801.073 242.277C802.066 244.482 800.163 248.04 799.087 249.543C800.08 250.128 801.967 251.648 801.57 253.051C804.053 254.053 805.79 257.812 805.79 259.566C805.79 261.319 805.79 269.588 800.08 269.588Z" fill="#0C0F23" stroke="#56CCF2" stroke-width="2"/>
<path fill-rule="evenodd" clip-rule="evenodd" d="M676.719 382.107C668.505 389.037 662.088 399.048 660.548 407.775C658.666 408.717 655.158 411.472 656.185 414.963C661.994 416.854 665.6 419.813 668.497 422.191C671.105 424.33 673.14 426 675.693 426C681.083 426 683.65 423.947 681.853 422.406C674.05 419.532 670.901 411.455 670.302 407.775C677.66 403.583 694.071 393.452 700.848 386.471C704.064 383.157 706.867 376.244 709.099 368.759C710.114 369.701 713.579 372.045 719.329 373.893C725.079 375.741 734.042 379.283 735.243 382.107C736.445 384.93 735.5 388.781 733.19 397.508C731.281 404.72 731.65 412.634 731.836 416.612C731.875 417.448 731.906 418.111 731.906 418.556C731.906 419.873 731.366 420.515 730.839 421.139C730.34 421.731 729.853 422.308 729.853 423.433C729.853 425.281 731.222 425.743 731.906 425.743H756.291C760.655 425.743 761.938 423.947 761.938 422.406C761.938 420.866 759.628 420.353 754.751 420.353C750.85 420.353 747.136 417.444 745.767 415.989C749.96 404.61 758.088 380.002 757.062 372.61C756.035 365.217 741.364 344.717 734.156 335.39C740.932 331.212 748.789 325.837 757.062 319.219C758.03 318.445 758.965 317.674 759.868 316.909C760.045 321.358 760.912 332.721 762.965 342.578C764.934 352.027 770.225 366.762 773.047 374.622C773.904 377.009 774.533 378.763 774.773 379.54C775.473 381.816 775.576 385.884 775.653 388.892C775.688 390.293 775.718 391.465 775.799 392.118C776.056 394.171 778.11 395.968 782.73 395.968C787.35 395.968 790.43 390.834 790.43 388.524C790.43 386.676 787.008 380.225 785.297 377.23C785.382 374.321 785.502 367.579 785.297 363.882C785.04 359.262 782.229 346.941 779.65 337.444C780.882 330.667 781.883 301.594 782.229 287.904C784.279 282.481 784.783 278.007 784.783 274.813C794.435 275.84 800.441 271.818 802.238 269.679L802.183 269.547C801.606 269.795 800.944 269.936 800.185 269.936C789.917 269.936 788.121 264.032 788.121 257.871C788.121 255.425 788.82 254.377 790.664 251.617C790.755 251.481 790.848 251.342 790.944 251.198C792.075 249.501 792.427 248.428 792.73 247.505C792.977 246.753 793.191 246.101 793.768 245.294L793.821 245.219C795.08 243.455 796.149 241.957 801.211 241.957C799.243 239.305 792.74 234 782.473 234C769.639 234 763.222 244.011 763.222 257.102C710.602 272.503 691.094 291.754 683.906 306.898C676.719 322.043 674.922 367.989 676.719 382.107Z" fill="#0C0F23"/>
<path d="M660.548 407.775L660.995 408.67L661.445 408.445L661.533 407.949L660.548 407.775ZM676.719 382.107L677.364 382.871L677.78 382.52L677.711 381.981L676.719 382.107ZM656.185 414.963L655.225 415.245L655.374 415.75L655.875 415.913L656.185 414.963ZM668.497 422.191L669.132 421.418H669.132L668.497 422.191ZM681.853 422.406L682.504 421.647L682.367 421.53L682.199 421.468L681.853 422.406ZM670.302 407.775L669.807 406.907L669.204 407.25L669.315 407.936L670.302 407.775ZM700.848 386.471L700.13 385.774H700.13L700.848 386.471ZM709.099 368.759L709.78 368.026L708.601 366.932L708.141 368.474L709.099 368.759ZM719.329 373.893L719.635 372.941H719.635L719.329 373.893ZM735.243 382.107L734.323 382.499L735.243 382.107ZM733.19 397.508L732.223 397.252L733.19 397.508ZM731.836 416.612L732.835 416.566L731.836 416.612ZM730.839 421.139L730.075 420.494L730.075 420.494L730.839 421.139ZM745.767 415.989L744.829 415.644L744.615 416.224L745.039 416.675L745.767 415.989ZM734.156 335.39L733.631 334.539L732.685 335.123L733.365 336.002L734.156 335.39ZM757.062 319.219L756.437 318.438L757.062 319.219ZM759.868 316.909L760.867 316.869L760.786 314.82L759.221 316.146L759.868 316.909ZM762.965 342.578L761.986 342.781L762.965 342.578ZM773.047 374.622L773.988 374.284L773.047 374.622ZM774.773 379.54L775.729 379.246L774.773 379.54ZM775.653 388.892L774.653 388.917L775.653 388.892ZM775.799 392.118L776.792 391.994L775.799 392.118ZM785.297 377.23L784.297 377.201L784.289 377.482L784.429 377.726L785.297 377.23ZM785.297 363.882L784.298 363.938L785.297 363.882ZM779.65 337.444L778.666 337.265L778.625 337.488L778.685 337.706L779.65 337.444ZM782.229 287.904L781.294 287.55L781.234 287.709L781.229 287.878L782.229 287.904ZM784.783 274.813L784.889 273.818L783.783 273.701V274.813H784.783ZM802.238 269.679L803.004 270.322L803.395 269.856L803.161 269.295L802.238 269.679ZM802.183 269.547L803.106 269.163L802.717 268.229L801.788 268.629L802.183 269.547ZM790.664 251.617L789.833 251.061L789.833 251.061L790.664 251.617ZM790.944 251.198L791.776 251.752L791.776 251.752L790.944 251.198ZM792.73 247.505L791.78 247.193V247.194L792.73 247.505ZM793.768 245.294L794.581 245.875L794.582 245.875L793.768 245.294ZM793.821 245.219L794.635 245.8L794.635 245.8L793.821 245.219ZM801.211 241.957L801.211 242.957L803.198 242.957L802.014 241.361L801.211 241.957ZM763.222 257.102L763.503 258.061L764.222 257.851V257.102H763.222ZM683.906 306.898L683.003 306.47L683.906 306.898ZM661.533 407.949C663.023 399.508 669.281 389.691 677.364 382.871L676.074 381.343C667.73 388.383 661.154 398.588 659.563 407.602L661.533 407.949ZM657.144 414.68C656.754 413.354 657.196 412.125 658.059 411.034C658.932 409.931 660.152 409.092 660.995 408.67L660.101 406.881C659.062 407.4 657.587 408.409 656.491 409.792C655.387 411.187 654.588 413.08 655.225 415.245L657.144 414.68ZM669.132 421.418C666.222 419.03 662.494 415.965 656.494 414.012L655.875 415.913C661.494 417.743 664.977 420.595 667.863 422.964L669.132 421.418ZM675.693 425C674.651 425 673.681 424.664 672.626 424.038C671.55 423.399 670.452 422.501 669.132 421.418L667.863 422.964C669.15 424.02 670.373 425.026 671.605 425.758C672.857 426.501 674.181 427 675.693 427V425ZM681.202 423.166C681.343 423.287 681.396 423.374 681.413 423.412C681.421 423.43 681.422 423.439 681.422 423.439C681.422 423.44 681.422 423.44 681.422 423.444C681.419 423.461 681.361 423.659 680.925 423.941C680.065 424.497 678.3 425 675.693 425V427C678.476 427 680.689 426.476 682.011 425.62C682.665 425.197 683.25 424.592 683.391 423.791C683.544 422.925 683.125 422.179 682.504 421.647L681.202 423.166ZM669.315 407.936C669.636 409.905 670.62 412.976 672.536 415.936C674.458 418.905 677.352 421.814 681.507 423.345L682.199 421.468C678.551 420.124 675.969 417.557 674.215 414.849C672.457 412.132 671.568 409.324 671.289 407.615L669.315 407.936ZM700.13 385.774C696.822 389.183 691.103 393.411 685.237 397.338C679.39 401.252 673.468 404.821 669.807 406.907L670.797 408.644C674.494 406.538 680.457 402.944 686.349 399C692.222 395.068 698.097 390.74 701.565 387.167L700.13 385.774ZM708.141 368.474C707.033 372.191 705.788 375.745 704.43 378.769C703.065 381.81 701.617 384.242 700.13 385.774L701.565 387.167C703.294 385.386 704.856 382.704 706.255 379.589C707.661 376.457 708.934 372.812 710.058 369.045L708.141 368.474ZM719.635 372.941C713.983 371.124 710.659 368.842 709.78 368.026L708.419 369.492C709.568 370.559 713.175 372.965 719.023 374.845L719.635 372.941ZM736.163 381.715C735.743 380.728 734.745 379.841 733.626 379.069C732.464 378.268 730.998 377.476 729.419 376.73C726.257 375.236 722.535 373.873 719.635 372.941L719.023 374.845C721.873 375.761 725.507 377.094 728.564 378.538C730.095 379.262 731.454 380.001 732.491 380.715C733.57 381.46 734.142 382.074 734.323 382.499L736.163 381.715ZM734.157 397.764C735.307 393.418 736.137 390.217 736.522 387.747C736.907 385.272 736.873 383.382 736.163 381.715L734.323 382.499C734.816 383.656 734.909 385.103 734.545 387.44C734.18 389.783 733.383 392.871 732.223 397.252L734.157 397.764ZM732.835 416.566C732.649 412.574 732.292 404.807 734.157 397.764L732.223 397.252C730.269 404.633 730.652 412.693 730.838 416.659L732.835 416.566ZM732.906 418.556C732.906 418.081 732.874 417.39 732.835 416.566L730.838 416.659C730.877 417.507 730.906 418.14 730.906 418.556H732.906ZM731.604 421.784C731.859 421.481 732.203 421.079 732.465 420.554C732.738 420.007 732.906 419.364 732.906 418.556H730.906C730.906 419.066 730.805 419.402 730.675 419.661C730.535 419.942 730.346 420.172 730.075 420.494L731.604 421.784ZM730.853 423.433C730.853 422.69 731.124 422.352 731.604 421.784L730.075 420.494C729.555 421.11 728.853 421.927 728.853 423.433H730.853ZM731.906 424.743C731.75 424.743 731.471 424.681 731.252 424.504C731.076 424.361 730.853 424.078 730.853 423.433H728.853C728.853 424.636 729.314 425.508 729.994 426.058C730.63 426.574 731.378 426.743 731.906 426.743V424.743ZM756.291 424.743H731.906V426.743H756.291V424.743ZM760.938 422.406C760.938 422.877 760.754 423.406 760.156 423.849C759.526 424.316 758.355 424.743 756.291 424.743V426.743C758.592 426.743 760.244 426.272 761.347 425.456C762.481 424.616 762.938 423.476 762.938 422.406H760.938ZM754.751 421.353C757.186 421.353 758.865 421.484 759.913 421.768C760.435 421.909 760.705 422.064 760.831 422.178C760.919 422.258 760.938 422.312 760.938 422.406H762.938C762.938 421.731 762.669 421.143 762.172 420.694C761.713 420.279 761.099 420.016 760.435 419.837C759.108 419.478 757.194 419.353 754.751 419.353V421.353ZM745.039 416.675C745.789 417.471 747.137 418.624 748.813 419.584C750.484 420.542 752.562 421.353 754.751 421.353V419.353C753.039 419.353 751.31 418.71 749.807 417.849C748.308 416.991 747.115 415.962 746.496 415.304L745.039 416.675ZM756.071 372.747C756.303 374.415 756.021 377.192 755.338 380.716C754.662 384.2 753.62 388.294 752.41 392.53C749.991 400.998 746.919 409.971 744.829 415.644L746.706 416.335C748.808 410.628 751.897 401.607 754.333 393.079C755.551 388.816 756.61 384.66 757.301 381.096C757.985 377.571 758.334 374.501 758.052 372.472L756.071 372.747ZM733.365 336.002C736.957 340.65 742.41 348.084 747.089 355.271C749.428 358.865 751.565 362.383 753.178 365.452C754.808 368.556 755.841 371.088 756.071 372.747L758.052 372.472C757.769 370.435 756.582 367.632 754.948 364.522C753.296 361.376 751.122 357.8 748.765 354.18C744.049 346.936 738.563 339.457 734.948 334.779L733.365 336.002ZM756.437 318.438C748.199 325.029 740.376 330.38 733.631 334.539L734.681 336.242C741.489 332.044 749.379 326.646 757.686 320L756.437 318.438ZM759.221 316.146C758.326 316.905 757.398 317.67 756.437 318.438L757.686 320C758.662 319.22 759.604 318.444 760.514 317.672L759.221 316.146ZM763.944 342.374C761.906 332.59 761.043 321.287 760.867 316.869L758.869 316.949C759.047 321.43 759.918 332.852 761.986 342.781L763.944 342.374ZM773.988 374.284C771.157 366.398 765.895 351.739 763.944 342.374L761.986 342.781C763.973 352.315 769.293 367.126 772.105 374.959L773.988 374.284ZM775.729 379.246C775.48 378.44 774.839 376.655 773.988 374.284L772.105 374.959C772.969 377.364 773.587 379.085 773.817 379.834L775.729 379.246ZM776.652 388.866C776.614 387.366 776.569 385.574 776.444 383.869C776.32 382.18 776.114 380.499 775.729 379.246L773.817 379.834C774.132 380.858 774.327 382.348 774.449 384.015C774.57 385.664 774.615 387.409 774.653 388.917L776.652 388.866ZM776.792 391.994C776.718 391.403 776.689 390.298 776.652 388.866L774.653 388.917C774.688 390.289 774.718 391.526 774.807 392.242L776.792 391.994ZM782.73 394.968C780.536 394.968 779.073 394.539 778.161 393.966C777.273 393.408 776.88 392.701 776.792 391.994L774.807 392.242C774.975 393.588 775.738 394.806 777.096 395.659C778.43 396.498 780.303 396.968 782.73 396.968V394.968ZM789.43 388.524C789.43 388.909 789.293 389.518 788.964 390.253C788.642 390.972 788.164 391.749 787.554 392.462C786.321 393.899 784.65 394.968 782.73 394.968V396.968C785.43 396.968 787.609 395.47 789.072 393.763C789.809 392.903 790.39 391.963 790.79 391.07C791.183 390.193 791.43 389.294 791.43 388.524H789.43ZM784.429 377.726C785.276 379.209 786.548 381.55 787.605 383.741C788.134 384.838 788.601 385.883 788.935 386.757C789.287 387.681 789.43 388.27 789.43 388.524H791.43C791.43 387.854 791.146 386.944 790.803 386.044C790.441 385.096 789.947 383.994 789.406 382.873C788.324 380.628 787.029 378.245 786.165 376.734L784.429 377.726ZM784.298 363.938C784.501 367.586 784.383 374.289 784.297 377.201L786.296 377.259C786.382 374.353 786.503 367.571 786.295 363.827L784.298 363.938ZM778.685 337.706C779.97 342.44 781.314 347.878 782.367 352.705C783.426 357.558 784.175 361.719 784.298 363.938L786.295 363.827C786.162 361.426 785.377 357.116 784.321 352.279C783.26 347.416 781.908 341.945 780.615 337.182L778.685 337.706ZM781.229 287.878C781.056 294.719 780.72 305.403 780.273 315.221C779.824 325.078 779.267 333.959 778.666 337.265L780.634 337.623C781.265 334.152 781.824 325.108 782.27 315.312C782.718 305.477 783.055 294.779 783.229 287.929L781.229 287.878ZM783.783 274.813C783.783 277.897 783.297 282.25 781.294 287.55L783.164 288.257C785.261 282.711 785.783 278.116 785.783 274.813H783.783ZM801.472 269.036C799.9 270.908 794.226 274.812 784.889 273.818L784.678 275.807C794.643 276.867 800.982 272.729 803.004 270.322L801.472 269.036ZM801.26 269.932L801.315 270.064L803.161 269.295L803.106 269.163L801.26 269.932ZM801.788 268.629C801.344 268.819 800.818 268.936 800.185 268.936V270.936C801.071 270.936 801.868 270.771 802.578 270.466L801.788 268.629ZM800.185 268.936C795.243 268.936 792.576 267.523 791.094 265.603C789.57 263.628 789.121 260.894 789.121 257.871H787.121C787.121 261.01 787.569 264.308 789.511 266.825C791.494 269.396 794.859 270.936 800.185 270.936V268.936ZM789.121 257.871C789.121 256.764 789.275 256.032 789.615 255.268C789.978 254.451 790.556 253.579 791.496 252.172L789.833 251.061C788.928 252.415 788.235 253.447 787.787 254.456C787.316 255.517 787.121 256.532 787.121 257.871H789.121ZM791.496 252.172C791.586 252.037 791.68 251.897 791.776 251.752L790.112 250.643C790.016 250.787 789.923 250.926 789.833 251.061L791.496 252.172ZM791.776 251.752C792.978 249.95 793.364 248.782 793.68 247.817L791.78 247.194C791.491 248.074 791.172 249.052 790.112 250.643L791.776 251.752ZM793.68 247.817C793.924 247.075 794.1 246.549 794.581 245.875L792.954 244.713C792.282 245.653 792.03 246.431 791.78 247.193L793.68 247.817ZM794.582 245.875L794.635 245.8L793.007 244.638L792.954 244.713L794.582 245.875ZM794.635 245.8C795.273 244.906 795.741 244.27 796.581 243.798C797.427 243.322 798.765 242.957 801.211 242.957L801.211 240.957C798.595 240.957 796.868 241.341 795.6 242.055C794.325 242.772 793.629 243.767 793.007 244.638L794.635 245.8ZM782.473 235C792.398 235 798.613 240.133 800.408 242.553L802.014 241.361C799.873 238.476 793.083 233 782.473 233V235ZM764.222 257.102C764.222 250.704 765.792 245.168 768.825 241.254C771.833 237.374 776.347 235 782.473 235V233C775.765 233 770.653 235.631 767.244 240.029C763.861 244.394 762.222 250.408 762.222 257.102H764.222ZM684.81 307.327C691.821 292.554 711.007 273.426 763.503 258.061L762.941 256.142C710.196 271.579 690.366 290.954 683.003 306.47L684.81 307.327ZM677.711 381.981C676.826 375.023 676.82 360.086 677.941 344.962C678.501 337.411 679.34 329.84 680.484 323.224C681.632 316.586 683.074 310.986 684.81 307.327L683.003 306.47C681.146 310.383 679.668 316.205 678.513 322.883C677.355 329.582 676.51 337.22 675.947 344.814C674.822 359.978 674.816 375.074 675.727 382.233L677.711 381.981Z" fill="#56CCF2"/>
<path d="M760.941 385.664C762.308 383.368 754.15 376.999 753.028 373.27C755.545 359.231 753.893 345.07 752.041 331.049C763.931 303.576 765.205 278.71 762.677 275.052C760.149 271.394 748.684 269.858 740.389 277.28C732.093 284.702 732.449 302.698 732.527 322.238C732.59 337.869 737.985 362.834 740.674 373.362C737.968 376.245 738.655 380.999 738.031 383.592C737.25 386.834 745.002 394.652 747.313 395.082C749.624 395.512 759.233 388.534 760.941 385.664Z" fill="#0C0F23" stroke="#56CCF2" stroke-width="2"/>
</svg>
