<svg width="174" height="173" viewBox="0 0 174 173" fill="none" xmlns="http://www.w3.org/2000/svg">
<path d="M165.391 8.10938H138.359V2.70312H132.953V8.10938H105.922C102.94 8.10938 100.516 10.5341 100.516 13.5156H95.1094C89.4707 13.5156 84.5023 16.4107 81.5938 20.787C78.6852 16.4107 73.7168 13.5156 68.0781 13.5156H57.2656C57.2656 10.5341 54.8409 8.10938 51.8594 8.10938H41.0469C38.0653 8.10938 35.6406 10.5341 35.6406 13.5156H19.4219C16.4403 13.5156 14.0156 15.9403 14.0156 18.9219H11.3125C6.84153 18.9219 3.20312 22.5603 3.20312 27.0312V97.3125C3.20312 101.783 6.84153 105.422 11.3125 105.422H32.9375V154.078C32.9375 163.023 40.2116 170.297 49.1562 170.297H114.031C122.976 170.297 130.25 163.023 130.25 154.078V140.487C131.504 142.195 133.469 143.266 135.656 143.266C138.392 143.266 140.841 141.633 141.895 139.108L154.578 108.666V40.5469C157.56 40.5469 159.984 38.1222 159.984 35.1406V24.3281H165.391C168.372 24.3281 170.797 21.9034 170.797 18.9219V13.5156C170.797 10.5341 168.372 8.10938 165.391 8.10938ZM95.1094 18.9219H100.516C100.516 21.9034 102.94 24.3281 105.922 24.3281H89.7031V29.7344H111.328V35.1406H89.7031V40.5469H116.734V45.9531H89.7031V51.3594H116.734V56.7656H89.7031V62.1719H116.734V67.5781H89.7031V72.9844H116.734V89.2031H84.2969V29.7344C84.2969 23.7713 89.1463 18.9219 95.1094 18.9219ZM127.998 121.641L123.492 110.828H147.82L143.314 121.641H127.998ZM122.141 105.422V40.5469H132.953V105.422H122.141ZM57.2656 48.3021V29.7344H68.0781V56.7656H30.2344V29.7344H35.6406V48.3021L46.4531 41.0929L57.2656 48.3021ZM41.0469 13.5156H51.8594V38.1979L46.4531 34.5946L41.0469 38.1979L41.0442 13.5156H41.0469ZM19.4219 18.9219H35.6406V24.3281H30.2344C27.2528 24.3281 24.8281 26.7528 24.8281 29.7344V56.7656C24.8281 59.7472 27.2528 62.1719 30.2344 62.1719H68.0781C71.0597 62.1719 73.4844 59.7472 73.4844 56.7656V29.7344C73.4844 26.7528 71.0597 24.3281 68.0781 24.3281H57.2656V18.9219H68.0781C74.0412 18.9219 78.8906 23.7713 78.8906 29.7344V89.2031H19.4219V18.9219ZM8.60938 97.3125V27.0312C8.60938 25.5418 9.82308 24.3281 11.3125 24.3281H14.0156V89.2031C14.0156 92.1847 16.4403 94.6094 19.4219 94.6094H116.734V100.016H90.2951L89.0463 105.008C88.1894 108.436 85.1267 110.828 81.5938 110.828C78.0608 110.828 74.9981 108.436 74.1412 105.008L72.8924 100.016H11.3125C9.82308 100.016 8.60938 98.8019 8.60938 97.3125ZM68.6701 105.422L68.8945 106.319C70.3542 112.158 75.5766 116.234 81.5938 116.234C87.6109 116.234 92.8334 112.158 94.293 106.319L94.5174 105.422H116.734V108.666L124.844 128.128V132.453H38.3438V105.422H68.6701ZM114.031 164.891H49.1562C43.1932 164.891 38.3438 160.041 38.3438 154.078V137.859H124.844V154.078C124.844 160.041 119.994 164.891 114.031 164.891ZM136.905 137.027C136.483 138.038 134.829 138.038 134.407 137.027L130.25 127.05V127.047H141.062L136.905 137.027ZM149.172 105.422H138.359V40.5469H149.172V105.422ZM154.578 35.1406H116.734V24.3281H154.578V35.1406ZM105.922 18.9219V13.5156H165.391L165.393 18.9219H105.922Z" fill="#56CCF2"/>
<path d="M24.8281 67.5781H35.6406V72.9844H24.8281V67.5781Z" fill="white"/>
<path d="M41.0469 67.5781H73.4844V72.9844H41.0469V67.5781Z" fill="white"/>
<path d="M24.8281 78.3906H73.4844V83.7969H24.8281V78.3906Z" fill="white"/>
<path d="M89.7031 78.3906H95.1094V83.7969H89.7031V78.3906Z" fill="white"/>
<path d="M100.516 78.3906H105.922V83.7969H100.516V78.3906Z" fill="white"/>
<path d="M92.4062 143.266H70.7812C67.7997 143.266 65.375 145.69 65.375 148.672V154.078C65.375 157.06 67.7997 159.484 70.7812 159.484H92.4062C95.3878 159.484 97.8125 157.06 97.8125 154.078V148.672C97.8125 145.69 95.3878 143.266 92.4062 143.266ZM70.7812 154.078V148.672H92.4062L92.409 154.078H70.7812Z" fill="white"/>
<path d="M54.5625 143.266H49.1562C46.1747 143.266 43.75 145.69 43.75 148.672V154.078C43.75 157.06 46.1747 159.484 49.1562 159.484H54.5625C57.544 159.484 59.9688 157.06 59.9688 154.078V148.672C59.9688 145.69 57.544 143.266 54.5625 143.266ZM54.5625 154.078H49.1562V148.672H54.5625V154.078Z" fill="white"/>
<path d="M114.031 143.266H108.625C105.643 143.266 103.219 145.69 103.219 148.672V154.078C103.219 157.06 105.643 159.484 108.625 159.484H114.031C117.013 159.484 119.438 157.06 119.438 154.078V148.672C119.438 145.69 117.013 143.266 114.031 143.266ZM114.031 154.078H108.625V148.672H114.031V154.078Z" fill="white"/>
<path d="M114.031 121.641H119.438V127.047H114.031V121.641Z" fill="#56CCF2"/>
<path d="M103.219 121.641H108.625V127.047H103.219V121.641Z" fill="#56CCF2"/>
<path d="M92.4062 121.641H97.8125V127.047H92.4062V121.641Z" fill="#56CCF2"/>
</svg>
