<svg width="168" height="169" viewBox="0 0 168 169" fill="none" xmlns="http://www.w3.org/2000/svg">
<path d="M154.281 0.703125H78.5938C71.1412 0.703125 65.0781 6.76623 65.0781 14.2188V60.1719H13.7188C6.26623 60.1719 0.203125 66.235 0.203125 73.6875C0.203125 81.14 6.26623 87.2031 13.7188 87.2031H65.0781V154.781C65.0781 162.234 71.1412 168.297 78.5938 168.297H154.281C161.734 168.297 167.797 162.234 167.797 154.781V14.2188C167.797 6.76623 161.734 0.703125 154.281 0.703125ZM162.391 81.2995C159.252 80.1804 156.984 77.207 156.984 73.6875C156.984 70.168 159.252 67.1946 162.391 66.0755V81.2995ZM162.391 49.5189C150.245 50.8704 140.766 61.1882 140.766 73.6875C140.766 79.1424 142.547 84.3081 145.918 88.625L150.178 85.3001C147.559 81.9401 146.172 77.9233 146.172 73.6875C146.172 64.1752 153.238 56.301 162.391 54.9819V60.4449C156.23 61.7018 151.578 67.1595 151.578 73.6875C151.578 80.2155 156.23 85.6732 162.391 86.9301V92.3877C159.16 91.9228 156.117 90.6577 153.481 88.6033L150.156 92.8662C153.754 95.672 157.944 97.3588 162.391 97.8507V108.828H159.085L157.468 102.465L156.041 102.008C154.535 101.527 153.003 100.886 151.484 100.105L150.151 99.4212L144.491 102.787L135.995 94.2907L139.363 88.625L138.671 87.2923C137.892 85.784 137.252 84.254 136.768 82.743L136.314 81.3157L129.953 79.6965V67.6812L136.316 66.062L136.77 64.6347C137.254 63.1264 137.895 61.5937 138.676 60.0854L139.365 58.7527L135.997 53.0897L144.493 44.5938L150.156 47.9619L151.486 47.2753C153 46.4941 154.53 45.8561 156.044 45.3723L157.471 44.9154L159.085 38.5469H162.391V49.5189ZM78.5938 6.10938H154.281C158.752 6.10938 162.391 9.74778 162.391 14.2188V22.3281H70.4844V14.2188C70.4844 9.74778 74.1228 6.10938 78.5938 6.10938ZM5.60938 73.6875C5.60938 69.2165 9.24778 65.5781 13.7188 65.5781H73.3875C77.2314 65.5781 80.8779 63.9535 83.3891 61.1234C86.9815 57.0822 92.131 54.7656 97.5156 54.7656C102.592 54.7656 107.398 56.7605 110.923 60.1719H105.625C101.395 60.1719 97.3507 62.1938 94.8125 65.5781C91.2336 70.3545 91.2336 77.0205 94.8125 81.7969C97.3507 85.1812 101.395 87.2031 105.625 87.2031H110.923C107.398 90.6145 102.592 92.6094 97.5156 92.6094C92.131 92.6094 86.9815 90.2928 83.3918 86.2516C80.8779 83.4215 77.2314 81.7969 73.3875 81.7969H13.7188C9.24778 81.7969 5.60938 78.1585 5.60938 73.6875ZM154.281 162.891H78.5938C74.1228 162.891 70.4844 159.252 70.4844 154.781V149.305C72.7496 151.021 75.5392 152.078 78.5938 152.078H154.281C157.336 152.078 160.125 151.021 162.391 149.305V154.781C162.391 159.252 158.752 162.891 154.281 162.891ZM154.281 146.672H78.5938C74.1228 146.672 70.4844 143.033 70.4844 138.562V87.2031H73.3875C75.6879 87.2031 77.8585 88.1654 79.3506 89.8441C83.9649 95.0368 90.5875 98.0156 97.5156 98.0156C106.285 98.0156 114.432 93.3554 118.776 85.8543L121.127 81.7969H105.625C103.087 81.7969 100.662 80.5832 99.1375 78.5531C96.9912 75.6878 96.9912 71.6872 99.1375 68.8219C100.662 66.7918 103.087 65.5781 105.625 65.5781H121.127L118.776 61.5207C114.432 54.0196 106.285 49.3594 97.5156 49.3594C90.5875 49.3594 83.9649 52.3382 79.3479 57.5309C77.8612 59.2096 75.6879 60.1719 73.3875 60.1719H70.4844V27.7344H162.391V33.1406H154.884L152.957 40.7148C152.097 41.0365 151.229 41.396 150.373 41.796L143.644 37.7954L129.204 52.2355L133.202 58.9636C132.805 59.8232 132.443 60.6855 132.121 61.5505L124.547 63.4778V83.8999L132.121 85.8272C132.443 86.6895 132.805 87.5545 133.202 88.4114L129.204 95.1395L143.644 109.58L150.373 105.579C151.232 105.979 152.097 106.341 152.957 106.66L154.884 114.234H162.391V138.562C162.391 143.033 158.752 146.672 154.281 146.672Z" fill="#56CCF2"/>
<path d="M113.734 11.5156H129.953V16.9219H113.734V11.5156Z" fill="#56CCF2"/>
<path d="M102.922 11.5156H108.328V16.9219H102.922V11.5156Z" fill="#56CCF2"/>
<path d="M88.2872 125.047H86.7031C83.7216 125.047 81.2969 127.472 81.2969 130.453V135.859C81.2969 138.841 83.7216 141.266 86.7031 141.266H88.2872C89.709 141.266 91.1038 140.69 92.1094 139.682L98.6347 133.156L92.1094 126.631C91.1038 125.623 89.709 125.047 88.2872 125.047ZM88.2872 135.859H86.7031V130.453H88.2872L90.9903 133.156L88.2872 135.859Z" fill="white"/>
<path d="M119.141 125.047H113.734C110.753 125.047 108.328 127.472 108.328 130.453V135.859C108.328 138.841 110.753 141.266 113.734 141.266H119.141C122.122 141.266 124.547 138.841 124.547 135.859V130.453C124.547 127.472 122.122 125.047 119.141 125.047ZM113.734 135.859V130.453H119.141L119.143 135.859H113.734Z" fill="white"/>
<path d="M146.172 125.047H144.588C143.166 125.047 141.772 125.623 140.766 126.631L134.241 133.156L140.766 139.682C141.772 140.69 143.166 141.266 144.588 141.266H146.172C149.154 141.266 151.579 138.841 151.579 135.859V130.453C151.579 127.472 149.154 125.047 146.172 125.047ZM144.588 135.859L141.885 133.156L144.588 130.453H146.172L146.175 135.859H144.588Z" fill="white"/>
<path d="M13.7188 76.3906C15.2116 76.3906 16.4219 75.1804 16.4219 73.6875C16.4219 72.1946 15.2116 70.9844 13.7188 70.9844C12.2259 70.9844 11.0156 72.1946 11.0156 73.6875C11.0156 75.1804 12.2259 76.3906 13.7188 76.3906Z" fill="#56CCF2"/>
<path d="M75.8906 103.422H81.2969V108.828H75.8906V103.422Z" fill="white"/>
<path d="M86.7031 103.422H132.656V108.828H86.7031V103.422Z" fill="white"/>
<path d="M75.8906 114.234H132.656V119.641H75.8906V114.234Z" fill="white"/>
<path d="M86.7031 33.1406H92.1094V38.5469H86.7031V33.1406Z" fill="white"/>
<path d="M97.5156 33.1406H102.922V38.5469H97.5156V33.1406Z" fill="white"/>
<path d="M75.8906 33.1406H81.2969V38.5469H75.8906V33.1406Z" fill="white"/>
</svg>
