<svg width="173" height="173" viewBox="0 0 173 173" fill="none" xmlns="http://www.w3.org/2000/svg">
<path d="M55.9019 89.9262C57.2778 90.1735 58.597 89.26 58.8453 87.8828L60.0344 81.2944L62.021 88.028C62.4048 89.3289 63.5098 90.0282 64.81 90.0914C65.9542 90.0853 67.2531 89.1364 67.5753 88.002L69.4927 81.2762L70.7602 87.9081C71.0227 89.2823 72.3496 90.1843 73.7242 89.9211C75.0984 89.6586 75.9997 88.3314 75.7368 86.9572L72.7472 71.3138C72.1716 68.4877 67.9148 68.3475 67.1284 71.0851L64.7583 79.3993L62.298 71.0601C61.4802 68.2434 57.2177 68.5674 56.6755 71.3739L53.8585 86.9828C53.6102 88.3601 54.525 89.6779 55.9019 89.9262Z" fill="white"/>
<path d="M24.695 90.0912C27.3793 90.0912 29.9531 88.9889 31.6857 86.9226C32.5843 85.85 32.4434 84.2522 31.3705 83.3536C30.2983 82.455 28.7005 82.5955 27.8015 83.6684C24.6683 86.9736 19.0688 83.8066 19.214 79.5438C19.157 75.2208 24.2113 72.5342 27.7569 74.9975C28.9177 75.7816 30.4915 75.4758 31.2749 74.3165C32.058 73.1571 31.7532 71.5822 30.5939 70.7989C23.7184 66.0638 14.0749 71.1887 14.1469 79.5438C14.1472 85.3595 18.8789 90.0912 24.695 90.0912Z" fill="white"/>
<path d="M38.7147 90.0917C40.1143 90.0917 41.2483 88.9574 41.2483 87.5581V84.4253L45.4787 89.232C46.6394 90.2964 47.8312 90.3724 49.0544 89.46C50.1047 88.5358 50.2067 86.9345 49.2825 85.8843L45.728 81.8458C52.5694 78.8845 50.4986 69.1018 42.9792 68.9961H38.7201C37.3189 68.9931 36.1812 70.1284 36.1812 71.5297V87.5581C36.1812 88.9574 37.3155 90.0917 38.7147 90.0917ZM42.9792 74.0629C45.4497 74.2001 45.448 77.1904 42.9792 77.3272C42.5664 77.3272 41.9276 77.3292 41.2696 77.3323C41.2652 76.2425 41.2625 75.1527 41.2615 74.0629H42.9792Z" fill="white"/>
<path d="M112.067 67.3615V55.8979C111.951 52.5431 107.115 52.5458 107 55.8979V67.3615C107.116 70.716 111.952 70.7136 112.067 67.3615Z" fill="#56CCF2"/>
<path d="M141.521 67.3615V55.8979C141.405 52.5431 136.568 52.5458 136.454 55.8979V67.3615C136.569 70.716 141.406 70.7136 141.521 67.3615Z" fill="#56CCF2"/>
<path d="M130.109 64.28V58.9784C129.786 51.2179 118.731 51.2236 118.412 58.9784V64.28C118.734 72.0412 129.789 72.0348 130.109 64.28ZM125.041 64.28C125.014 65.3107 123.505 65.3103 123.479 64.28V58.9784C123.506 57.9477 125.014 57.9488 125.041 58.9784V64.28Z" fill="#56CCF2"/>
<path d="M126.794 47.8889V36.4252C126.678 33.0704 121.841 33.0731 121.727 36.4252V47.8889C121.843 51.2433 126.679 51.2409 126.794 47.8889Z" fill="#56CCF2"/>
<path d="M115.383 39.5079C115.061 31.7471 104.005 31.7528 103.686 39.5079V44.8096C104.008 52.5704 115.063 52.564 115.383 44.8096V39.5079ZM110.315 44.8096C110.288 45.8399 108.779 45.8395 108.753 44.8096V39.5079C108.78 38.477 110.289 38.478 110.315 39.5079V44.8096Z" fill="#56CCF2"/>
<path d="M144.835 39.5079C144.513 31.7471 133.457 31.7528 133.138 39.5079V44.8096C133.46 52.5704 144.516 52.564 144.835 44.8096V39.5079ZM139.768 44.8096C139.741 45.8399 138.232 45.8395 138.205 44.8096V39.5079C138.232 38.477 139.741 38.478 139.768 39.5079V44.8096Z" fill="#56CCF2"/>
<path d="M121.727 75.3706V86.8342C121.843 90.189 126.679 90.1863 126.794 86.8342V75.3706C126.678 72.0158 121.841 72.0185 121.727 75.3706Z" fill="#56CCF2"/>
<path d="M103.686 78.4533V83.7549C104.008 91.5157 115.063 91.5093 115.383 83.7549V78.4533C115.06 70.6924 104.005 70.6981 103.686 78.4533ZM108.753 78.4533C108.78 77.4223 110.289 77.4233 110.315 78.4533V83.7549C110.288 84.7852 108.779 84.7848 108.753 83.7549V78.4533Z" fill="#56CCF2"/>
<path d="M133.138 78.4533V83.7549C133.46 91.5157 144.516 91.5093 144.835 83.7549V78.4533C144.513 70.6924 133.457 70.6981 133.138 78.4533ZM138.205 78.4533C138.232 77.4223 139.741 77.4233 139.768 78.4533V83.7549C139.741 84.7852 138.232 84.7848 138.205 83.7549V78.4533Z" fill="#56CCF2"/>
<path d="M170.045 134.033C170.044 134.03 170.043 134.028 170.041 134.025C164.222 122.142 149.479 116.376 137.151 120.971V100.305H147.857C154.226 100.305 159.408 95.1234 159.408 88.754V68.9282C159.408 65.6525 154.341 65.6525 154.341 68.9282V88.754C154.341 92.3294 151.432 95.2379 147.857 95.2379H126.14C125.595 95.2379 125.064 95.4139 124.626 95.7393L113.883 103.737V97.7715C113.883 96.3723 112.749 95.2379 111.349 95.2379H100.663C97.0878 95.2379 94.1789 92.3294 94.1789 88.754V57.4876C94.1793 57.47 94.1793 57.4528 94.1789 57.4352V33.5003C94.1789 29.9249 97.0878 27.0164 100.663 27.0164H147.857C151.432 27.0164 154.341 29.9249 154.341 33.5003V55.4259C154.341 58.7017 159.408 58.7017 159.408 55.4259V33.5003C159.408 27.1309 154.226 21.9492 147.857 21.9492H100.664C94.2941 21.9492 89.1121 27.1309 89.1121 33.5003V54.9277H14.638C6.56637 54.9277 0 61.494 0 69.5657V135.566C0 142.552 5.68265 148.234 12.6679 148.234H18.5796C21.8553 148.234 21.8553 143.167 18.5796 143.167H12.6679C8.47702 143.167 5.06716 139.758 5.06716 135.566V126.941H127.569C123.211 131.155 120.274 136.83 119.559 143.167H32.8491C29.5733 143.167 29.5733 148.234 32.8491 148.234H53.8136L49.1592 167.91H40.1995C38.7999 167.91 37.6659 169.045 37.6659 170.444C37.6659 171.843 38.7999 172.977 40.1995 172.977H96.9517C98.3512 172.977 99.4853 171.843 99.4853 170.444C99.4853 169.045 98.3512 167.91 96.9517 167.91H87.9919L83.3376 148.234H119.464C119.728 151.775 120.679 155.17 122.302 158.352C126.906 167.373 136.053 172.977 146.174 172.977C165.879 173.223 179.211 151.452 170.045 134.033ZM136.701 151.015C136.7 151.013 136.698 151.01 136.697 151.008C133.063 144.093 138.36 135.464 146.174 135.561C150.189 135.561 153.819 137.787 155.648 141.37C159.289 148.286 153.992 156.921 146.174 156.824C142.159 156.824 138.529 154.598 136.701 151.015ZM164.25 134.144L158.831 136.904C156.398 133.576 152.773 131.354 148.708 130.696V124.62C155.051 125.354 160.711 128.822 164.25 134.144ZM5.06716 69.5657C5.06716 64.2881 9.36074 59.9948 14.638 59.9948H89.1121V88.754C89.1121 95.1234 94.2941 100.305 100.664 100.305H108.816V108.781C108.816 110.82 111.207 112.045 112.863 110.813L126.979 100.305H132.084V121.874H5.06716V69.5657ZM143.641 124.622V130.698C134.478 132.005 128.19 142.023 131.216 150.967L125.819 153.716L125.796 153.727C120.788 140.798 130.044 125.978 143.641 124.622ZM82.7846 167.91H54.3662L59.0203 148.234H78.1302L82.7846 167.91ZM146.174 167.91C138.821 167.91 132.103 164.262 128.099 158.241L133.517 155.481C144.256 169.583 166.194 158.451 161.133 141.418L165.406 139.242L166.552 138.658C171.891 152.511 161.048 168.121 146.174 167.91Z" fill="#56CCF2"/>
<path d="M13.9667 47.1201C15.3662 47.1201 16.5003 45.9857 16.5003 44.5865V31.448H26.4312V44.5865C26.4312 47.8622 31.4984 47.8622 31.4984 44.5865V28.9144C31.4984 27.5152 30.3644 26.3809 28.9648 26.3809H13.9667C12.5671 26.3809 11.4331 27.5152 11.4331 28.9144V44.5865C11.4331 45.9857 12.5671 47.1201 13.9667 47.1201Z" fill="#56CCF2"/>
<path d="M59.8266 47.1209C61.2261 47.1209 62.3601 45.9865 62.3601 44.5873V21.8621H72.2911V44.587C72.2911 47.8627 77.3583 47.8627 77.3583 44.587V19.3285C77.3583 17.9293 76.2242 16.7949 74.8247 16.7949H59.8266C58.427 16.7949 57.293 17.9293 57.293 19.3285V44.587C57.293 45.9865 58.427 47.1209 59.8266 47.1209Z" fill="#56CCF2"/>
<path d="M36.8969 47.1205C38.2964 47.1205 39.4304 45.9861 39.4304 44.5869V5.08669H49.3614V44.5866C49.3614 47.8623 54.4286 47.8623 54.4286 44.5866V2.55311C54.4286 1.1539 53.2945 0.0195312 51.895 0.0195312H36.8969C35.4973 0.0195312 34.3633 1.1539 34.3633 2.55311V44.5866C34.3633 45.9861 35.4973 47.1205 36.8969 47.1205Z" fill="#56CCF2"/>
<path d="M76.0495 96.3477H16.7607C13.4059 96.4639 13.4086 101.3 16.7607 101.415H76.0495C79.4043 101.299 79.4016 96.4628 76.0495 96.3477Z" fill="white"/>
<path d="M48.9378 107.328H16.7607C13.4059 107.444 13.4086 112.28 16.7607 112.395H48.9378C52.2926 112.279 52.2903 107.443 48.9378 107.328Z" fill="white"/>
</svg>
