<svg width="168" height="169" viewBox="0 0 168 169" fill="none" xmlns="http://www.w3.org/2000/svg">
<path d="M159.688 38.5469H124.547V19.625H94.4287C93.2204 14.9729 89.0251 11.5156 84 11.5156C78.9749 11.5156 74.7796 14.9729 73.5713 19.625H54.2656V0.703125H11.0156V43.9531H29.9375V54.7656H8.3125C3.84153 54.7656 0.203125 58.404 0.203125 62.875V106.125C0.203125 110.596 3.84153 114.234 8.3125 114.234H29.9375V125.047H11.0156V168.297H54.2656V149.375H73.5713C74.7796 154.027 78.9749 157.484 84 157.484C89.0251 157.484 93.2204 154.027 94.4287 149.375H124.547V130.453H159.688C164.158 130.453 167.797 126.815 167.797 122.344V46.6562C167.797 42.1853 164.158 38.5469 159.688 38.5469ZM162.391 46.6562V60.1719H81.2969V46.6562C81.2969 45.1641 82.5079 43.9531 84 43.9531H159.688C161.18 43.9531 162.391 45.1641 162.391 46.6562ZM84 16.9219C86.9815 16.9219 89.4062 19.3466 89.4062 22.3281C89.4062 25.3097 86.9815 27.7344 84 27.7344C81.0185 27.7344 78.5938 25.3097 78.5938 22.3281C78.5938 19.3466 81.0185 16.9219 84 16.9219ZM16.4219 6.10938H48.8594V38.5469H16.4219V6.10938ZM8.3125 60.1719H59.6719C61.164 60.1719 62.375 61.3829 62.375 62.875V70.9844H5.60938V62.875C5.60938 61.3829 6.82037 60.1719 8.3125 60.1719ZM5.60938 106.125V76.3906H62.375V106.125C62.375 107.617 61.164 108.828 59.6719 108.828H8.3125C6.82037 108.828 5.60938 107.617 5.60938 106.125ZM48.8594 162.891H16.4219V130.453H48.8594V162.891ZM84 152.078C81.0185 152.078 78.5938 149.653 78.5938 146.672C78.5938 143.69 81.0185 141.266 84 141.266C86.9815 141.266 89.4062 143.69 89.4062 146.672C89.4062 149.653 86.9815 152.078 84 152.078ZM119.141 143.969H94.4287C93.2204 139.317 89.0251 135.859 84 135.859C78.9749 135.859 74.7796 139.317 73.5713 143.969H54.2656V125.047H35.3438V114.234H59.6719C64.1428 114.234 67.7812 110.596 67.7812 106.125V62.875C67.7812 58.404 64.1428 54.7656 59.6719 54.7656H35.3438V43.9531H54.2656V25.0312H73.5713C74.7796 29.6833 78.9749 33.1406 84 33.1406C89.0251 33.1406 93.2204 29.6833 94.4287 25.0312H119.141V38.5469H84C79.529 38.5469 75.8906 42.1853 75.8906 46.6562V122.344C75.8906 126.815 79.529 130.453 84 130.453H119.141V143.969ZM159.688 125.047H84C82.5079 125.047 81.2969 123.836 81.2969 122.344V65.5781H162.391V122.344C162.391 123.836 161.18 125.047 159.688 125.047Z" fill="#56CCF2"/>
<path d="M108.328 49.3594H113.734V54.7656H108.328V49.3594Z" fill="#56CCF2"/>
<path d="M86.7031 49.3594H92.1094V54.7656H86.7031V49.3594Z" fill="#56CCF2"/>
<path d="M97.5156 49.3594H102.922V54.7656H97.5156V49.3594Z" fill="#56CCF2"/>
<path d="M86.7031 92.6094H113.734V70.9844H86.7031V92.6094ZM92.1094 76.3906H108.328V87.2031H92.1094V76.3906Z" fill="white"/>
<path d="M86.7031 119.641H113.734V98.0156H86.7031V119.641ZM92.1094 103.422H108.328V114.234H92.1094V103.422Z" fill="white"/>
<path d="M119.141 70.9844H124.547V76.3906H119.141V70.9844Z" fill="white"/>
<path d="M129.953 70.9844H156.984V76.3906H129.953V70.9844Z" fill="white"/>
<path d="M119.141 81.7969H156.984V87.2031H119.141V81.7969Z" fill="white"/>
<path d="M119.141 98.0156H156.984V103.422H119.141V98.0156Z" fill="white"/>
<path d="M119.141 108.828H156.984V114.234H119.141V108.828Z" fill="white"/>
<path d="M21.8281 11.5156H43.4531V16.9219H21.8281V11.5156Z" fill="white"/>
<path d="M21.8281 22.3281H43.4531V27.7344H21.8281V22.3281Z" fill="white"/>
<path d="M21.8281 135.859H43.4531V141.266H21.8281V135.859Z" fill="white"/>
<path d="M21.8281 146.672H43.4531V152.078H21.8281V146.672Z" fill="white"/>
</svg>
