<svg width="1920" height="416" viewBox="0 0 1920 416" fill="none" xmlns="http://www.w3.org/2000/svg">
<path d="M1920 249C1919.33 248.849 1808.4 243.828 1807.73 243.676C1786.64 240.802 1768.02 240.65 1746.94 239.289C1728.1 238.078 1709.71 234.749 1690.86 234.598C1669.33 234.447 1654.75 241.255 1634.34 241.255C1615.72 241.255 1598.23 241.104 1580.06 240.045C1560.77 238.835 1546.86 245.492 1528.69 246.551C1515.91 247.156 1508.96 242.163 1497.96 239.137C1484.28 235.355 1474.86 237.776 1460.96 241.104C1432.35 247.964 1408.95 242.27 1380.36 239.577L1335.91 234.422C1322.38 232.582 1308.8 230.817 1295.03 230.064L1250.22 231.997C1233.21 233.815 1216.18 236.149 1199.42 236.565C1161.51 237.624 1123.6 240.65 1085.7 238.229C1066.41 236.868 1046 230.967 1027.15 231.118C1016.57 231.207 1007.71 233.349 998.347 234.936L963.067 236.077C951.79 235.86 940.977 236.084 930.001 236.872L894.902 241.073C879.513 243.263 864.138 245.066 848.161 243.828C821.47 241.861 803.301 238.381 776.385 242.163C745.655 246.551 716.72 240.953 685.991 240.196C677.898 239.986 669.823 239.707 661.755 239.451L633.131 238.797C621.683 238.701 610.228 238.876 598.737 239.591C592.773 239.957 586.793 240.27 580.801 240.539L551.688 241.527C535.073 241.928 518.427 242.086 501.839 242.163C469.54 242.163 441.053 235.052 409.427 231.875C347.519 225.823 284.49 234.598 222.359 234.749C190.059 234.598 158.208 229 125.46 229C107.292 229 89.5717 231.118 71.8519 232.631C66.02 233.085 6.05616 238.041 0 238.797" stroke="#27AE60" stroke-width="2" stroke-miterlimit="10"/>
<path d="M394.134 145.26L392.785 168.478V174.573L391.706 174.698L390.627 174.823L384.775 175.501L383.613 175.635L379.566 176.104L377.138 176.385L373.901 176.76L368.505 177.384L364.324 177.868L360.142 178.353L357.174 178.696L354.207 179.04L347.732 179.789L344.764 180.133L332.624 181.539L329.657 151.355L342.606 146.131L344.764 145.935L358.254 144.712L360.142 144.541L364.189 144.174L365.538 144.052L371.419 143.519L379.566 142.78L382.534 142.511L383.613 142.413L385.501 142.242L390.627 141.777L391.504 142.648L392.381 143.519L394.134 145.26Z" fill="#0C0F23"/>
<path d="M342.606 146.131L329.657 151.355L332.624 181.539L344.764 180.133M342.606 146.131L344.764 145.935M342.606 146.131L344.764 180.133M392.381 143.519L394.134 145.26L392.785 168.478V174.573L391.706 174.698M392.381 143.519L391.706 174.698M392.381 143.519L391.504 142.648M391.706 174.698L390.627 174.823M391.504 142.648L390.627 141.777L385.501 142.242M391.504 142.648L391.29 150.484M390.627 174.823L384.775 175.501M390.627 174.823L391.196 153.967M385.501 142.242L383.613 142.413M385.501 142.242L385.449 144.622M384.775 175.501L383.613 175.635M384.775 175.501L385.397 147.001M383.613 142.413V175.635M383.613 142.413L382.534 142.511M383.613 175.635L379.566 176.104M382.534 142.511L379.566 176.104M382.534 142.511L379.566 142.78M379.566 176.104L377.138 176.385M379.566 142.78L377.138 176.385M379.566 142.78L371.419 143.519M377.138 176.385L373.901 176.76M365.538 144.052L368.505 177.384M365.538 144.052L364.189 144.174M365.538 144.052L364.324 177.868M365.538 144.052L371.419 143.519M368.505 177.384L364.324 177.868M368.505 177.384L373.901 176.76M364.189 144.174L360.142 178.353M364.189 144.174L360.142 144.541M360.142 178.353L364.324 177.868M360.142 178.353L357.174 178.696M373.901 176.76C374.117 176.735 372.336 154.589 371.419 143.519M391.196 153.967L385.397 147.001M391.196 153.967L391.29 150.484M385.397 147.001L385.449 144.622M391.29 150.484L385.449 144.622M358.254 144.712L354.207 179.04M358.254 144.712L360.142 144.541M358.254 144.712L344.764 145.935M354.207 179.04L357.174 178.696M354.207 179.04L347.732 179.789M360.142 144.541L357.174 178.696M344.764 145.935L347.732 179.789M347.732 179.789L344.764 180.133" stroke="#27AE60"/>
<path d="M367.806 382.493C361.788 381.633 359.209 379.448 358.672 378.463L359.478 372.284L360.284 366.105L380.97 364.762C383.875 366.725 390.567 370.863 396.518 373.447C396.53 373.452 396.541 373.457 396.552 373.462C397.377 373.819 398.187 374.146 398.97 374.433C399.524 374.636 400.061 374.837 400.582 375.035C407.636 377.722 411.597 379.991 411.597 382.493C411.597 385.18 408.642 387.329 396.552 386.792C384.463 386.254 375.328 383.568 367.806 382.493Z" fill="#0C0F23"/>
<path d="M411.597 382.493C411.597 385.18 408.642 387.329 396.552 386.792C384.463 386.254 375.328 383.568 367.806 382.493C361.788 381.633 359.209 379.448 358.672 378.463L359.478 372.284M411.597 382.493C410.522 383.389 406.815 385.18 400.582 385.18C397.653 385.18 394.268 384.572 390.642 383.685M411.597 382.493C411.597 379.991 407.636 377.722 400.582 375.035M359.478 372.284L360.284 366.105L380.97 364.762C383.881 366.728 390.593 370.879 396.552 373.462M359.478 372.284C360.104 373.538 363.4 376.529 371.567 378.463C376.093 379.535 380.777 380.977 385.269 382.249M385.269 382.249C385.716 380.252 387.418 375.893 390.642 374.433C393.866 372.973 395.925 373.177 396.552 373.462M385.269 382.249C387.1 382.768 388.899 383.259 390.642 383.685M396.552 373.462C397.377 373.819 398.187 374.146 398.97 374.433C399.524 374.636 400.061 374.837 400.582 375.035M390.642 383.685C390.642 381.765 391.394 377.657 394.403 376.583C397.412 375.508 399.776 375.103 400.582 375.035" stroke="#27AE60"/>
<path d="M361.358 345.686C362.433 337.089 359.209 332.79 358.94 320.701C358.925 319.989 358.925 319.295 358.94 318.621C359.132 310.142 361.643 304.712 362.97 302.97L375.866 300.662L380.803 299.778L381.239 299.7L382.313 299.508L388.492 298.402C388.357 300.889 387.947 305.522 387.16 311.298C387.053 312.084 386.939 312.89 386.817 313.716C386.064 318.841 385.031 324.684 383.657 330.641C379.627 348.104 380.97 360.731 381.239 363.955C381.387 365.739 380.631 367.277 378.513 368.522C376.805 369.526 374.211 370.34 370.492 370.94C362.164 372.283 360.552 364.223 359.746 361.805C358.94 359.387 360.284 354.283 361.358 345.686Z" fill="#0C0F23"/>
<path d="M358.94 320.701C359.209 332.79 362.433 337.089 361.358 345.686C360.284 354.283 358.94 359.387 359.746 361.805C360.552 364.223 362.164 372.283 370.492 370.94C374.211 370.34 376.805 369.526 378.513 368.522M358.94 320.701L369.418 321.507C369.776 320.253 370.761 316.456 371.836 311.298C372.91 306.14 378.552 301.417 381.239 299.7M358.94 320.701C358.925 319.989 358.925 319.295 358.94 318.621M381.239 299.7L380.803 299.778M381.239 299.7L382.313 299.508M375.866 300.662L362.97 302.97C361.643 304.712 359.132 310.142 358.94 318.621M375.866 300.662C374.522 301.521 371.352 304.581 369.418 309.955C367.484 315.328 367 318.104 367 318.82L358.94 318.621M375.866 300.662L380.803 299.778M380.803 299.778L379.358 315.596C380.057 315.718 381.63 315.699 383.657 315.074M386.817 313.716C386.064 318.841 385.031 324.684 383.657 330.641C379.627 348.104 380.97 360.731 381.239 363.955C381.387 365.739 380.631 367.277 378.513 368.522M386.817 313.716C386.939 312.89 387.053 312.084 387.16 311.298M386.817 313.716C385.691 314.34 384.622 314.776 383.657 315.074M382.313 299.508L388.492 298.402C388.357 300.889 387.947 305.522 387.16 311.298M382.313 299.508L381.239 313.716C382.41 313.716 385.234 313.232 387.16 311.298M383.657 315.074C381.239 326.611 378.821 334.671 378.015 342.462C377.37 348.695 378.078 362.432 378.513 368.522" stroke="#27AE60"/>
<path d="M371.298 305.927C364.851 307.539 358.94 300.554 356.253 293.031C353.567 285.509 356.239 278.293 359.745 276.643C364.414 274.447 368.033 272.991 374.254 272.344C375.427 272.222 376.703 272.128 378.015 272.066C383.357 271.816 389.28 272.096 391.178 273.151C396.014 275.837 399.238 286.852 397.089 291.957C395.961 294.636 390.688 297.907 385 300.644C383.663 301.287 382.304 301.901 380.97 302.47C377.165 304.095 373.567 305.36 371.298 305.927Z" fill="#0C0F23"/>
<path d="M371.298 305.927C364.851 307.539 358.94 300.554 356.253 293.031C353.567 285.509 356.239 278.293 359.745 276.643M371.298 305.927C373.985 305.134 378.559 297.074 373.448 286.851C369.149 278.254 364.851 275.836 359.745 276.643M371.298 305.927C373.567 305.36 377.165 304.095 380.97 302.47M359.745 276.643C364.414 274.447 368.033 272.991 374.254 272.344M380.97 302.47C382.403 301.115 385 297.335 385 293.031C385 280.405 379.089 275.409 374.254 272.344M380.97 302.47C382.304 301.901 383.663 301.287 385 300.644M374.254 272.344C375.427 272.222 376.703 272.128 378.015 272.066M385 300.644C390.688 297.907 395.961 294.636 397.089 291.957C399.238 286.852 396.014 275.837 391.178 273.151C389.28 272.096 383.357 271.816 378.015 272.066M385 300.644C386.522 299.629 389.245 294.105 387.955 287.657C386.343 279.597 383.925 276.088 378.015 272.066" stroke="#27AE60"/>
<path d="M367.106 292.348C367.836 293.988 368.296 295.541 368.459 296.718C368.54 297.31 368.542 297.778 368.482 298.104C368.419 298.449 368.313 298.511 368.3 298.516C368.287 298.522 368.17 298.559 367.872 298.376C367.59 298.202 367.243 297.888 366.858 297.431C366.091 296.523 365.245 295.141 364.515 293.501C363.785 291.862 363.325 290.308 363.163 289.131C363.081 288.539 363.079 288.071 363.139 287.745C363.203 287.4 363.308 287.339 363.321 287.333C363.334 287.327 363.451 287.29 363.75 287.474C364.032 287.647 364.378 287.962 364.764 288.418C365.53 289.327 366.376 290.708 367.106 292.348Z" stroke="#27AE60"/>
<path d="M369.174 291.427C370.238 293.817 370.772 296.147 370.791 297.969C370.8 298.881 370.681 299.641 370.454 300.212C370.229 300.779 369.912 301.128 369.537 301.295C369.163 301.462 368.692 301.464 368.119 301.251C367.543 301.038 366.898 300.618 366.227 300.001C364.886 298.767 363.512 296.812 362.448 294.421C361.384 292.031 360.85 289.701 360.831 287.879C360.821 286.967 360.941 286.207 361.167 285.637C361.393 285.069 361.71 284.72 362.084 284.553C362.459 284.386 362.93 284.385 363.502 284.597C364.078 284.811 364.723 285.23 365.394 285.848C366.735 287.081 368.109 289.036 369.174 291.427Z" stroke="#27AE60"/>
<path d="M354.911 292.493C352.761 301.896 350.612 303.507 348.194 304.582C347.931 304.699 347.372 304.758 346.582 304.769L344.433 310.493L319.716 309.687V301.896C317.836 300.821 317.191 291.472 317.836 284.164C318.481 276.857 321.687 272.343 323.209 271L329.657 272.427L334.224 273.437L337.279 274.113L341.209 274.982L344.433 275.696L353.567 277.716C354.731 279.507 356.63 284.97 354.911 292.493Z" fill="#0C0F23"/>
<path d="M319.716 301.896C317.836 300.821 317.191 291.472 317.836 284.164C318.481 276.857 321.687 272.343 323.209 271M319.716 301.896C321.866 300.015 323.491 295.203 324.284 288.463C325.358 279.328 324.015 274.045 323.209 271M319.716 301.896C321.264 302.119 323.102 302.375 325.09 302.641M319.716 301.896V309.687L344.433 310.493L346.582 304.769M323.209 271L329.657 272.427M325.09 302.641C326.254 300.959 328.797 296.254 329.657 290.881C330.517 285.507 330.015 276.339 329.657 272.427M325.09 302.641C326.55 302.836 328.091 303.036 329.657 303.232M329.657 272.427L334.224 273.437M329.657 303.232C330.731 302.07 333.149 298.188 334.224 291.955C335.299 285.722 334.672 277.013 334.224 273.437M329.657 303.232C331.174 303.422 332.713 303.607 334.224 303.78M334.224 273.437L337.279 274.113M334.224 303.78C335.12 302.525 337.125 298.081 337.985 290.343C338.845 282.606 337.872 276.299 337.279 274.113M334.224 303.78C335.261 303.899 336.285 304.011 337.279 304.115M337.279 274.113L341.209 274.982M337.279 304.115C338.499 301.226 340.994 294.534 341.209 290.881C341.424 287.227 341.299 278.759 341.209 274.982M337.279 304.115C338.363 304.229 339.412 304.332 340.403 304.421M341.209 274.982L344.433 275.696M340.403 304.421C341.478 302.057 343.788 295.931 344.433 290.343C345.078 284.755 344.702 278.25 344.433 275.696M340.403 304.421C342.97 304.651 345.155 304.788 346.582 304.769M344.433 275.696L353.567 277.716C354.731 279.507 356.63 284.97 354.911 292.493C352.761 301.896 350.612 303.507 348.194 304.582C347.931 304.699 347.372 304.758 346.582 304.769" stroke="#27AE60"/>
<path d="M321.939 286.519C321.752 288.726 321.426 290.699 321.054 292.101C320.868 292.806 320.676 293.343 320.496 293.689C320.455 293.767 320.418 293.829 320.385 293.879C320.361 293.825 320.335 293.757 320.309 293.673C320.19 293.302 320.09 292.741 320.025 292.014C319.895 290.57 319.905 288.57 320.092 286.362C320.278 284.155 320.605 282.182 320.976 280.78C321.163 280.075 321.355 279.538 321.534 279.192C321.575 279.114 321.612 279.052 321.645 279.002C321.669 279.056 321.695 279.124 321.722 279.208C321.841 279.579 321.94 280.14 322.005 280.867C322.136 282.311 322.126 284.311 321.939 286.519ZM320.26 294.03C320.26 294.03 320.26 294.029 320.262 294.028C320.26 294.03 320.26 294.03 320.26 294.03ZM320.482 294.047C320.483 294.048 320.484 294.049 320.484 294.049C320.484 294.049 320.483 294.049 320.482 294.047ZM321.771 278.851C321.771 278.851 321.77 278.852 321.768 278.853C321.77 278.851 321.771 278.851 321.771 278.851ZM321.548 278.834C321.547 278.833 321.546 278.832 321.546 278.832C321.546 278.832 321.547 278.832 321.548 278.834Z" stroke="#27AE60"/>
<path d="M507.507 138.282L508.851 149.834H505.627L501.597 139.894L500.433 138.282L494.612 130.223L493.806 125.387L497.298 126.193L506.146 136.67L507.507 138.282Z" fill="#0C0F23"/>
<path d="M507.507 138.282L508.851 149.834H505.627L501.597 139.894M507.507 138.282L501.597 139.894M507.507 138.282L506.146 136.67M501.597 139.894L500.433 138.282M506.146 136.67L497.298 126.193L493.806 125.387L494.612 130.223L500.433 138.282M506.146 136.67L500.433 138.282" stroke="#27AE60"/>
<path d="M502.94 137.208L504.552 151.447H501.06L497.836 139.626L497.03 138.562L491.119 130.76L491.925 126.73L495.418 128.074L502.055 136.133L502.94 137.208Z" fill="#0C0F23"/>
<path d="M502.94 137.208L504.552 151.447H501.06L497.836 139.626M502.94 137.208L497.836 139.626M502.94 137.208L502.055 136.133M497.836 139.626L497.03 138.562M502.055 136.133L495.418 128.074L491.925 126.73L491.119 130.76L497.03 138.562M502.055 136.133L497.03 138.562" stroke="#27AE60"/>
<path d="M493.806 142.58L491.119 145.804L483.328 141.237L482.31 140.163L478.492 136.133L479.836 131.297L484.672 133.177L486.759 135.327L487.542 136.133L493.806 142.58Z" fill="#0C0F23"/>
<path d="M483.328 141.237L491.119 145.804L493.806 142.58L487.542 136.133M483.328 141.237L487.542 136.133M483.328 141.237L482.31 140.163M487.542 136.133L486.759 135.327M482.31 140.163L478.492 136.133L479.836 131.297L484.672 133.177L486.759 135.327M482.31 140.163L486.759 135.327" stroke="#27AE60"/>
<path d="M500.791 148.763L497.567 149.569L494.343 139.897L493.441 138.823L488.701 134.256L491.388 129.957L498.373 135.33L499.179 136.673L500.791 148.763Z" fill="#0C0F23"/>
<path d="M494.343 139.897L497.567 149.569L500.791 148.763L499.179 136.673M494.343 139.897L499.179 136.673M494.343 139.897L493.441 138.823M499.179 136.673L498.373 135.33M498.373 135.33L491.388 129.957L488.701 134.256L493.441 138.823M498.373 135.33L493.441 138.823" stroke="#27AE60"/>
<path d="M407.299 91.2695L433.627 113.837C435.092 114.019 436.72 114.221 438.463 114.438C453.021 116.254 475.575 119.095 477.687 119.478C480.642 120.016 481.985 123.777 481.448 128.344C480.911 132.911 479.03 137.747 476.343 137.747C474.194 137.747 448.403 136.852 435.776 136.404C435.06 136.673 433.09 137.049 430.94 136.404C428.254 135.598 425.299 136.135 423.687 134.523C422.397 133.234 422.612 131.837 422.881 131.299L391.179 106.314L394.94 102.804L401.119 97.0367L407.299 91.2695Z" fill="#0C0F23"/>
<path d="M433.627 113.837L407.299 91.2695L401.119 97.0367M433.627 113.837C433.319 115.53 433.456 118.704 430.94 122.654M433.627 113.837C435.092 114.019 436.72 114.221 438.463 114.438M422.881 131.299L391.179 106.314L394.94 102.804M422.881 131.299C423.325 131.102 424.277 130.452 425.619 129.15M422.881 131.299C422.612 131.837 422.397 133.234 423.687 134.523C425.299 136.135 428.254 135.598 430.94 136.404C433.09 137.049 435.06 136.673 435.776 136.404M425.619 129.15C426.709 128.093 428.056 126.606 429.597 124.583C430.081 123.948 430.528 123.301 430.94 122.654M425.619 129.15L394.94 102.804M425.619 129.15C426.318 129.598 427.931 130.977 428.791 132.911C429.651 134.846 433.806 136.046 435.776 136.404M425.619 129.15C426.945 129.15 430.296 129.365 433.09 130.225M394.94 102.804L401.119 97.0367M401.119 97.0367L430.94 122.654M477.687 119.478C480.642 120.016 481.985 123.777 481.448 128.344C480.911 132.911 479.03 137.747 476.343 137.747M477.687 119.478C475.985 120.643 472.582 124.207 472.582 129.15M477.687 119.478C475.575 119.095 453.021 116.254 438.463 114.438M476.343 137.747C474.194 137.747 448.403 136.852 435.776 136.404M476.343 137.747C475.769 137.378 474.933 136.581 474.194 135.351M435.776 136.404V134.523L474.194 135.351M472.582 129.15C472.582 129.917 472.643 130.633 472.749 131.299M472.582 129.15L441.418 126.732L432.532 121.628M474.194 135.351C473.907 134.872 473.634 134.328 473.397 133.717M473.397 133.717C461.126 132.911 435.884 131.084 433.09 130.225M473.397 133.717C473.12 133.002 472.893 132.196 472.749 131.299M433.09 130.225C432.71 129.161 432.239 127.053 432.26 124.583M438.463 114.438C437.299 114.294 434.594 115.099 433.09 119.478C432.844 120.193 432.662 120.914 432.532 121.628M472.749 131.299L440.343 129.15L432.26 124.583M432.26 124.583C432.268 123.638 432.347 122.64 432.532 121.628" stroke="#27AE60"/>
<path d="M489.776 123.776L500.254 126.463L497.03 127.269L493.806 128.075L493.269 129.042L492.732 130.009L489.776 135.328C488.164 134.612 484.511 133.179 482.791 133.179C481.629 133.179 480.545 134.122 479.965 135.328C479.472 136.352 479.343 137.565 479.836 138.552C480.696 140.272 476.433 136.761 474.194 135.328C473.433 133.729 472.219 131.224 472.532 128.075C472.587 127.519 472.69 126.978 472.851 126.463C472.973 126.072 473.094 125.715 473.213 125.388C473.564 124.425 473.898 123.73 474.194 123.237C474.683 122.426 475.071 122.164 475.269 122.164L482.523 122.97L489.776 123.776Z" fill="#0C0F23"/>
<path d="M492.732 130.009L489.776 135.328C488.164 134.612 484.511 133.179 482.791 133.179C481.629 133.179 480.545 134.122 479.965 135.328M492.732 130.009L473.213 125.388M492.732 130.009L493.269 129.042M473.213 125.388C473.094 125.715 472.973 126.072 472.851 126.463C472.69 126.978 472.587 127.519 472.532 128.075M473.213 125.388C473.564 124.425 473.898 123.73 474.194 123.237M493.269 129.042L493.806 128.075L497.03 127.269M493.269 129.042L474.194 123.237M474.194 123.237C474.683 122.426 475.071 122.164 475.269 122.164L482.523 122.97M479.965 135.328C479.472 136.352 479.343 137.565 479.836 138.552C480.696 140.272 476.433 136.761 474.194 135.328C473.433 133.729 472.219 131.224 472.532 128.075M479.965 135.328L472.532 128.075M497.03 127.269L500.254 126.463L489.776 123.776L482.523 122.97M497.03 127.269L482.523 122.97" stroke="#27AE60"/>
<path fill-rule="evenodd" clip-rule="evenodd" d="M416.249 107.139C416.534 106.296 417.449 105.843 418.292 106.128L426.642 108.951L429.597 109.95L432.284 110.858L435.635 111.991L438.704 113.028L456.441 119.024C457.285 119.309 457.737 120.224 457.452 121.067C457.167 121.91 456.252 122.363 455.409 122.078L437.388 115.986L434.701 115.078L431.478 113.988L428.636 113.028L425.567 111.991L417.26 109.182C416.416 108.897 415.964 107.983 416.249 107.139Z" fill="#0C0F23"/>
<path d="M425.567 111.991L417.26 109.182C416.416 108.897 415.964 107.983 416.249 107.139C416.534 106.296 417.449 105.843 418.292 106.128L426.642 108.951M425.567 111.991L426.642 108.951M425.567 111.991L428.636 113.028M426.642 108.951L429.597 109.95M428.636 113.028L429.597 109.95M428.636 113.028L431.478 113.988M429.597 109.95L432.284 110.858M431.478 113.988L432.284 110.858M431.478 113.988L434.701 115.078M432.284 110.858L435.635 111.991M434.701 115.078L435.635 111.991M434.701 115.078L437.388 115.986M435.635 111.991L438.704 113.028M437.388 115.986L455.409 122.078C456.252 122.363 457.167 121.91 457.452 121.067C457.737 120.224 457.285 119.309 456.441 119.024L438.704 113.028M437.388 115.986L438.704 113.028" stroke="#27AE60" stroke-linecap="round"/>
<path d="M355.448 148.225C351.794 148.225 338.164 152.524 331.806 154.673L326.701 147.42L321.597 140.166L318.024 135.062L306.552 118.673C302.522 117.867 293.657 115.073 290.433 110.345C288.58 107.627 287.408 105.193 287.467 102.285C287.537 98.8704 289.303 94.8021 293.657 88.8526C297.426 83.7006 301.563 80.9914 304.94 79.6833C306.125 79.2246 307.216 78.9382 308.164 78.7792C309.137 78.6161 309.961 78.5871 310.582 78.6436L331.806 71.6583V65.7481L335.03 63.8675V58.763L360.284 57.957L362.701 63.8675L366.194 65.7481L367.532 71.6335C367.491 71.434 367.601 71.369 367.971 71.6038C370.92 71.2489 376.873 70.8318 382.851 71.2217C384.296 71.3159 385.743 71.4574 387.149 71.6583C394.672 72.7331 404.97 82.4943 409.179 87.2406C409.142 88.5505 408.863 90.605 408.175 92.8824C407.217 96.0542 405.465 99.6583 402.463 102.285C397.304 106.799 394.94 107.748 394.403 107.659L389.03 110.345L392.522 128.882H394.403V140.166V144.464H387.149C382.313 144.464 382.851 152.524 373.448 152.524C364.045 152.524 360.015 148.225 355.448 148.225Z" fill="#0C0F23"/>
<path d="M392.522 128.882H394.403V140.166M392.522 128.882L389.03 110.345M392.522 128.882C390.015 122.614 381.507 110.506 367.537 112.226C350.075 114.375 348.463 125.659 345.507 135.062C333.149 135.062 325.466 136.405 318.024 135.062M389.03 110.345C387.955 104.076 383.925 89.3359 376.403 80.524C368.881 71.712 367.358 70.9419 367.537 71.6583M389.03 110.345C387.239 107.479 380.433 102.608 367.537 106.047C360.284 93.6884 361.627 89.3899 364.582 87.2406C366.946 85.5212 372.194 84.0167 374.522 83.4794M389.03 110.345L394.403 107.659M389.03 110.345C389.657 107.121 392.685 98.191 391.179 88.8526C389.836 80.524 385.716 73.1583 382.851 71.2217M367.537 71.6583L366.194 65.7481L362.701 63.8675M367.537 71.6583C370.304 71.2942 376.564 70.8116 382.851 71.2217M367.537 71.6583C364.851 72.5539 353.836 74.8824 347.388 74.8824C340.94 74.8824 335.657 72.5539 331.806 71.6583M362.701 63.8675C361.448 65.0317 356.898 67.36 348.731 67.36C340.564 67.36 336.194 65.0317 335.03 63.8675M362.701 63.8675L360.284 57.957L335.03 58.763V63.8675M335.03 63.8675L331.806 65.7481V71.6583M331.806 71.6583L310.582 78.6436M310.582 78.6436C314.075 79.36 320.791 84.3929 319.716 98.7928C319.527 101.329 319.118 103.569 318.552 105.542M310.582 78.6436C309.961 78.5871 309.137 78.6161 308.164 78.7792M306.552 118.673L318.024 135.062M306.552 118.673C308.591 118.349 311.756 116.893 314.486 113.569M306.552 118.673C302.522 117.867 293.657 115.073 290.433 110.345C288.58 107.627 287.408 105.193 287.467 102.285M318.024 135.062L321.597 140.166L326.701 147.42M326.701 147.42L331.806 154.673C338.164 152.524 351.794 148.225 355.448 148.225C360.015 148.225 364.045 152.524 373.448 152.524C382.851 152.524 382.313 144.464 387.149 144.464C391.018 144.464 393.597 144.464 394.403 144.464V140.166M326.701 147.42C333.597 145.897 348.194 142.853 351.418 142.853C356.791 142.853 362.701 149.569 372.373 149.569C380.872 149.569 383.925 139.629 389.836 139.629C392.829 139.629 393.776 139.718 394.403 140.166M314.486 113.569C318.647 115.987 328.582 120.393 335.03 118.673C343.09 116.524 342.015 108.464 362.701 106.047C362.701 97.4496 355.179 88.8526 347.388 87.2406C341.155 85.9511 329.746 84.1958 324.821 83.4794M314.486 113.569C315.245 112.644 315.971 111.575 316.629 110.345M314.486 113.569C314.486 108.322 308.766 103.85 301.448 100.482M387.149 71.6583C394.672 72.7331 404.97 82.4943 409.179 87.2406C409.142 88.5505 408.863 90.605 408.175 92.8824M387.149 71.6583C389.836 72.9121 395.424 78.1063 396.284 88.8526M387.149 71.6583C385.743 71.4574 384.296 71.3159 382.851 71.2217M394.403 107.659C394.94 107.748 397.304 106.799 402.463 102.285C405.465 99.6583 407.217 96.0542 408.175 92.8824M394.403 107.659C395.388 105.867 397.143 99.5988 396.284 88.8526M396.284 88.8526C396.227 88.3152 396.954 87.2406 400.313 87.2406C403.672 87.2406 406.954 91.0018 408.175 92.8824M287.467 102.285C287.537 98.8704 289.303 94.8021 293.657 88.8526C297.426 83.7006 301.563 80.9914 304.94 79.6833M287.467 102.285C287.739 99.957 290.111 95.9988 297.418 98.7928C298.143 99.0701 298.861 99.3575 299.567 99.6548M316.629 110.345C317.372 108.956 318.029 107.363 318.552 105.542M316.629 110.345C316.815 106.022 316.56 97.0577 314.486 90.7033M304.94 79.6833C306.194 79.695 309.561 81.2227 313 87.2406C313.285 87.7399 313.55 88.2796 313.795 88.8526M304.94 79.6833C306.125 79.2246 307.216 78.9382 308.164 78.7792M318.552 105.542C318.583 101.949 318.242 93.5809 316.629 88.8526C314.612 82.9421 311.388 79.9894 308.164 78.7792M313.795 88.8526C311.112 90.1958 305.102 93.3123 302.522 95.0317C299.943 96.7511 299.478 98.8302 299.567 99.6548M313.795 88.8526C314.045 89.4374 314.275 90.0568 314.486 90.7033M299.567 99.6548C300.204 99.9226 300.831 100.198 301.448 100.482M301.448 100.482C301.358 99.74 301.717 97.9331 303.866 96.6436C306.015 95.354 311.841 92.1461 314.486 90.7033" stroke="#27AE60"/>
<path d="M399.508 195.24C398.218 206.846 396.463 209.389 395.747 209.21C394.493 216.195 371.568 230.971 371.568 230.971H358.672V225.867V222.912L326.702 200.076C326.207 197.69 325.517 193.588 325.062 189.061C324.613 184.583 324.394 179.689 324.821 175.628C324.893 174.947 324.974 174.272 325.062 173.604C325.41 170.982 325.877 168.476 326.376 166.225C327.273 162.17 328.271 158.943 328.851 157.359C336.642 164.882 356.093 179.497 371.568 177.777C382.73 176.537 389.262 170.504 392.791 165.15L393.597 157.359C396.284 159.24 396.457 162.458 396.85 164.344C397.189 165.975 397.537 167.787 397.871 169.718C398.836 175.316 399.674 181.913 399.789 187.986C399.837 190.534 399.758 192.989 399.508 195.24Z" fill="#0C0F23"/>
<path d="M325.062 189.061C325.517 193.588 326.207 197.69 326.702 200.076L358.672 222.912V225.867V230.971H371.568C371.568 230.971 394.493 216.195 395.747 209.21C396.463 209.389 398.218 206.846 399.508 195.24C399.758 192.989 399.837 190.534 399.789 187.986M325.062 189.061C324.613 184.583 324.394 179.689 324.821 175.628C324.893 174.947 324.974 174.272 325.062 173.604M325.062 189.061C324.982 187.091 325.627 183.15 328.851 183.15C332.881 183.15 343.627 192.016 350.075 200.076C356.523 208.135 360.015 221.568 365.12 221.568C370.224 221.568 375.329 219.419 380.702 210.822C386.075 202.225 388.249 195.509 399.789 187.986M399.789 187.986C399.674 181.913 398.836 175.316 397.871 169.718M397.871 169.718C389.836 180.195 379.627 197.121 374.522 197.121C361.358 197.121 360.507 182.128 338.522 172.135C332.611 169.449 326.702 170.792 325.062 173.604M397.871 169.718C397.538 167.787 397.189 165.975 396.85 164.344M325.062 173.604C325.41 170.982 325.877 168.476 326.376 166.225M396.85 164.344C396.457 162.458 396.284 159.24 393.597 157.359L392.791 165.15C389.262 170.504 382.73 176.537 371.568 177.777C356.093 179.497 336.642 164.882 328.851 157.359C328.271 158.943 327.273 162.17 326.376 166.225M396.85 164.344C391.736 172.941 378.833 187.986 373.179 187.986C365.657 187.986 356.791 180.733 349 174.822C341.342 169.013 330.463 163.001 326.376 166.225" stroke="#27AE60"/>
<path d="M393.06 193.36L391.717 196.046L381.508 193.36L379.842 192.554L373.179 189.33L374.791 185.031L382.314 187.986L383.925 188.792L393.06 193.36Z" fill="#0C0F23"/>
<path d="M381.508 193.36L391.717 196.046L393.06 193.36L383.925 188.792M381.508 193.36L383.925 188.792M381.508 193.36L379.842 192.554M383.925 188.792L382.314 187.986M382.314 187.986L374.791 185.031L373.179 189.33L379.842 192.554M382.314 187.986L379.842 192.554" stroke="#27AE60"/>
<path d="M379.896 169.45L367.537 167.301L366.731 168.375L371.836 172.674L386.881 178.047L379.896 169.45Z" fill="#0C0F23" stroke="#27AE60"/>
<path d="M392.522 178.314L399.776 180.732L398.701 183.956L391.179 182.075L389.298 181.69L379.358 179.657V175.09H382.313L390.536 177.686L392.522 178.314Z" fill="#0C0F23"/>
<path d="M392.522 178.314L399.776 180.732L398.701 183.956L391.179 182.075M392.522 178.314L391.179 182.075M392.522 178.314L390.536 177.686M391.179 182.075L389.298 181.69M389.298 181.69L379.358 179.657V175.09H382.313L390.536 177.686M389.298 181.69L390.536 177.686" stroke="#27AE60"/>
<path d="M398.97 187.987L397.896 191.211L385.269 187.987L383.925 187.603L375.866 185.301L377.209 181.002L379.358 180.465L387.418 183.151L389.03 183.689L398.97 187.987Z" fill="#0C0F23"/>
<path d="M385.269 187.987L397.896 191.211L398.97 187.987L389.03 183.689M385.269 187.987L389.03 183.689M385.269 187.987L383.925 187.603M389.03 183.689L387.418 183.151M387.418 183.151L379.358 180.465L377.209 181.002L375.866 185.301L383.925 187.603M387.418 183.151L383.925 187.603" stroke="#27AE60"/>
<path d="M279.419 160.852C279.419 160.852 277 160.852 277 158.434L279.836 147.688L281.031 143.663L281.91 140.703L282.788 137.747L283.682 134.734L284.702 131.3L289.09 116.523L290.702 121.628L288.016 127.807L286.828 132.374L285.989 135.598L285.15 138.822L284.451 141.509L283.682 144.464L282.634 148.494L281.516 152.792L285.989 156.822C284.922 157.807 282.612 159.992 281.91 160.852C281.208 161.711 279.957 161.21 279.419 160.852Z" fill="#0C0F23"/>
<path d="M279.419 160.852C279.419 160.852 277 160.852 277 158.434L279.836 147.688M279.419 160.852C279.957 161.21 281.208 161.711 281.91 160.852C282.612 159.992 284.922 157.807 285.989 156.822L281.516 152.792M279.419 160.852L281.516 152.792M279.836 147.688L282.634 148.494M279.836 147.688L281.031 143.663M282.634 148.494L283.682 144.464M282.634 148.494L281.516 152.792M281.031 143.663L283.682 144.464M281.031 143.663L281.91 140.703M283.682 144.464L284.451 141.509M281.91 140.703L284.451 141.509M281.91 140.703L282.788 137.747M284.451 141.509L285.15 138.822M282.788 137.747L285.15 138.822M282.788 137.747L283.682 134.734M285.15 138.822L285.989 135.598M283.682 134.734L285.989 135.598M283.682 134.734L284.702 131.3M285.989 135.598L286.828 132.374M284.702 131.3L289.09 116.523L290.702 121.628L288.016 127.807L286.828 132.374M284.702 131.3L286.828 132.374" stroke="#27AE60"/>
<path d="M385.806 197.121L384.731 199.27L378.284 197.837L376.672 197.121L369.418 192.285L372.373 189.867L378.821 193.109L380.433 194.076L385.806 197.121Z" fill="#0C0F23"/>
<path d="M378.284 197.837L384.731 199.27L385.806 197.121L380.433 194.076M378.284 197.837L380.433 194.076M378.284 197.837L376.672 197.121M380.433 194.076L378.821 193.109M378.821 193.109L372.373 189.867L369.418 192.285L376.672 197.121M378.821 193.109L376.672 197.121" stroke="#27AE60"/>
<path d="M356.522 162.195L382.851 174.285L380.702 178.583L377.881 184.225L375.06 189.867L370.224 193.359L350.075 178.583L348.731 174.285L349.742 171.33L350.753 168.374L352.224 164.076L356.522 162.195Z" fill="#0C0F23"/>
<path d="M375.06 189.867L370.224 193.359L350.075 178.583L348.731 174.285L349.742 171.33M375.06 189.867L377.881 184.225M375.06 189.867L349.742 171.33M352.224 164.076L356.522 162.195L382.851 174.285L380.702 178.583M352.224 164.076L380.702 178.583M352.224 164.076L350.753 168.374M380.702 178.583L377.881 184.225M377.881 184.225L350.753 168.374M350.753 168.374L349.742 171.33" stroke="#27AE60"/>
<path d="M313 109.539L310.045 141.509L313 142.765L353.03 159.777C353.298 159.419 354.212 158.918 355.716 159.777C357.221 160.637 356.88 161.16 356.791 161.518C355.537 162.145 352.647 164.778 351.418 169.449C350.075 174.553 349.985 178.941 350.075 180.464L347.119 178.852L346.313 177.777L305.478 164.61L280.492 156.553L281.298 149.3L286.001 148.908L286.672 143.121C287.657 130.763 289.949 105.401 291.239 102.822C292.7 99.9 296.81 99.1852 299.567 99.8774C299.852 99.9488 300.122 100.035 300.373 100.136C300.938 100.362 301.778 100.731 302.76 101.21C306.446 103.008 312.151 106.357 313 109.539Z" fill="#0C0F23"/>
<path d="M310.045 141.509L313 109.539C312.151 106.357 306.446 103.008 302.76 101.21M310.045 141.509L313 142.765M310.045 141.509C309.322 141.258 308.194 140.925 306.821 140.608M286.672 143.121C287.657 130.763 289.949 105.401 291.239 102.822C292.7 99.9 296.81 99.1852 299.567 99.8774M286.672 143.121C287.762 142.394 290.155 141.151 293.119 140.356M286.672 143.121L286.001 148.908M296.075 139.767C296.604 139.7 297.142 139.652 297.686 139.628C298.309 139.601 298.939 139.599 299.567 139.618M296.075 139.767L296.88 127.27H293.925L296.075 109.539H298.761L299.567 99.8774M296.075 139.767C295.048 139.899 294.055 140.105 293.119 140.356M299.567 99.8774C299.852 99.9488 300.122 100.035 300.373 100.136C300.938 100.362 301.778 100.731 302.76 101.21M302.76 101.21L302.254 110.076H304.403L302.76 128.076H300.373L299.567 139.618M299.567 139.618C302.177 139.697 304.772 140.135 306.821 140.608M297.438 113.837L297.686 111.688H302.76L302.558 113.837M297.438 113.837H302.558M297.438 113.837L297.097 116.792M302.558 113.837L302.254 117.079M297.097 116.792L302.254 117.079M297.097 116.792L296.787 119.479M302.254 117.079L302.028 119.479M296.787 119.479H302.028M296.787 119.479L296.431 122.568M302.028 119.479L301.738 122.568M296.431 122.568L296.075 125.658H301.448L301.738 122.568M296.431 122.568H301.738M353.03 159.777C353.298 159.419 354.212 158.918 355.716 159.777C357.221 160.637 356.88 161.16 356.791 161.518C355.537 162.145 352.647 164.778 351.418 169.449C350.075 174.553 349.985 178.941 350.075 180.464L347.119 178.852M353.03 159.777L313 142.765M353.03 159.777C352.614 160.134 352.036 160.727 351.418 161.518M347.119 178.852L346.313 177.777L305.478 164.61M347.119 178.852C347.119 175.729 347.119 174.273 347.735 170.792M293.119 140.356C291.183 141.341 289.4 144.684 288.365 147.15M286.001 148.908L281.298 149.3L280.492 156.553L305.478 164.61M286.001 148.908L287.746 148.762C287.901 148.31 288.11 147.757 288.365 147.15M313 142.765C312.338 142.933 311.398 143.379 310.391 144.195M305.478 153.061C305.207 154.338 305.013 155.5 304.881 156.553M305.478 153.061L348.194 168.374M305.478 153.061L296.921 150.106M305.478 153.061C305.656 152.221 305.871 151.443 306.114 150.722M305.478 164.61C304.964 163.876 304.281 161.35 304.881 156.553M348.194 168.374C348.012 169.286 347.86 170.081 347.735 170.792M348.194 168.374C348.344 167.623 348.551 166.905 348.797 166.225M347.735 170.792L304.881 156.553M288.365 147.15L296.921 150.106M296.921 150.106C297.176 148.612 298.063 145.339 299.567 144.195C301.448 142.765 303.49 140.86 306.821 140.608M348.797 166.225L306.114 150.722M348.797 166.225C349.003 165.659 349.235 165.119 349.484 164.61M306.114 150.722C306.354 150.014 306.621 149.362 306.908 148.762M349.484 164.61L306.908 148.762M349.484 164.61C350.079 163.393 350.77 162.347 351.418 161.518M306.908 148.762C307.93 146.628 309.206 145.155 310.391 144.195M351.418 161.518L310.391 144.195" stroke="#27AE60"/>
<path d="M369.687 229.896C377.478 228.553 386.343 217.001 390.911 209.478C392.83 206.317 395.575 203.462 398.164 201.217C400.503 199.189 402.715 197.659 404.075 196.852C399.508 217.001 401.657 214.852 400.582 231.508C399.508 248.165 395.478 260.792 393.06 266.971C391.125 271.914 392.254 278.881 393.06 281.747C391.428 283.019 389.343 284.539 387.149 285.984C381.156 289.93 374.346 293.314 373.717 289.538C373.074 285.685 369.195 281.693 365.929 279.061C364.823 278.168 363.786 277.433 362.97 276.911L361.527 251.658L361.174 245.478L360.284 229.896C360.616 230.173 361.751 230.519 364.045 230.488C365.458 230.468 367.311 230.306 369.687 229.896Z" fill="#0C0F23"/>
<path d="M361.174 245.478L360.284 229.896C360.616 230.173 361.751 230.519 364.045 230.488M361.174 245.478L361.527 251.658M361.174 245.478C361.96 245.79 363.322 246.214 365.12 246.605M394.672 245.478C391.627 246.105 383.711 247.413 376.403 247.628C371.921 247.76 367.972 247.224 365.12 246.605M394.672 245.478C395.961 237.096 397.537 212.478 398.164 201.217M394.672 245.478C394.205 247.241 393.559 249.683 392.824 252.464M398.164 201.217C400.503 199.189 402.715 197.659 404.075 196.852C399.508 217.001 401.657 214.852 400.582 231.508C399.508 248.165 395.478 260.792 393.06 266.971C391.125 271.914 392.254 278.881 393.06 281.747C391.428 283.019 389.343 284.539 387.149 285.984M398.164 201.217C395.575 203.462 392.83 206.317 390.911 209.478C386.343 217.001 377.478 228.553 369.687 229.896C367.311 230.306 365.458 230.468 364.045 230.488M387.149 285.984C381.156 289.93 374.346 293.314 373.717 289.538C373.074 285.685 369.195 281.693 365.929 279.061M387.149 285.984C386.254 285.378 385 282.123 387.149 273.956C388.677 268.152 391.018 259.291 392.824 252.464M361.527 251.658L362.97 276.911C363.786 277.433 364.823 278.168 365.929 279.061M361.527 251.658C362.278 251.947 363.519 252.332 365.12 252.699M392.824 252.464C390.216 252.822 383.281 253.592 376.403 253.807C371.992 253.945 367.981 253.353 365.12 252.699M364.045 230.488L365.12 246.605M365.12 252.699L365.929 279.061" stroke="#27AE60"/>
<path d="M336.373 399.15C324.821 399.15 320.522 399.15 320.522 394.315C320.522 393.37 320.676 392.169 320.956 390.822C322.107 385.273 325.392 377.244 328.851 374.434C332.29 371.64 339.239 370.941 342.284 370.941L345.776 377.121V388.941V391.628V394.315C345.687 395.926 343.681 399.15 336.373 399.15Z" fill="#0C0F23"/>
<path d="M320.522 394.315C320.522 399.15 324.821 399.15 336.373 399.15C343.681 399.15 345.687 395.926 345.776 394.315V391.628M320.522 394.315C322.403 392.165 328.045 387.813 335.567 387.598C343.09 387.383 345.508 390.195 345.776 391.628M320.522 394.315C320.522 393.37 320.676 392.169 320.956 390.822M345.776 391.628V388.941M320.956 390.822C322.107 385.273 325.392 377.244 328.851 374.434C332.29 371.64 339.239 370.941 342.284 370.941L345.776 377.121V388.941M320.956 390.822C323.14 389.031 329.119 385.449 335.567 385.449C342.015 385.449 345.06 387.777 345.776 388.941" stroke="#27AE60"/>
<path d="M337.716 372.016C333.848 372.016 328.224 376.315 325.895 378.464C323.547 364.698 319.829 339.704 318.981 323.658C318.665 317.68 318.748 312.944 319.448 310.494C320.621 306.386 323.471 304.162 326.701 303.068C328.098 302.595 329.566 302.334 331 302.222C331.544 302.18 332.083 302.159 332.612 302.156C334.549 302.148 336.344 302.384 337.716 302.703C338.512 302.887 339.225 303.095 339.866 303.319C340.575 303.568 341.196 303.837 341.746 304.121C343.818 305.189 344.87 306.452 345.761 307.521L345.776 307.539C345.393 311.747 344.847 318.068 344.347 324.464C343.677 333.039 343.09 341.749 343.09 345.688C343.09 352.566 344.881 369.509 345.776 377.121C344.909 375.748 342.713 373.268 339.866 372.361C339.183 372.144 338.464 372.016 337.716 372.016Z" fill="#0C0F23"/>
<path d="M337.716 302.703C336.344 302.384 334.549 302.148 332.612 302.156M337.716 302.703V315.599H332.612V302.156M337.716 302.703C338.512 302.887 339.225 303.095 339.866 303.319M337.716 372.016C333.848 372.016 328.224 376.315 325.895 378.464C323.547 364.698 319.829 339.704 318.981 323.658M337.716 372.016L333.687 318.285H331V302.222M337.716 372.016C338.464 372.016 339.183 372.144 339.866 372.361M331 302.222C331.544 302.18 332.083 302.159 332.612 302.156M331 302.222C329.566 302.334 328.098 302.595 326.701 303.068M339.866 303.319V318.285H336.373L339.866 372.361M339.866 303.319C340.575 303.568 341.196 303.837 341.746 304.121M339.866 372.361C342.713 373.268 344.909 375.748 345.776 377.121C344.881 369.509 343.09 352.566 343.09 345.688C343.09 341.749 343.677 333.039 344.347 324.464M344.347 324.464C344.847 318.068 345.393 311.747 345.776 307.539C344.882 306.466 343.829 305.194 341.746 304.121M344.347 324.464C343.48 323.35 341.746 317.721 341.746 304.121M326.701 303.068C323.471 304.162 320.621 306.386 319.448 310.494C318.748 312.944 318.665 317.68 318.981 323.658M326.701 303.068C325.895 304.559 324.122 309.151 323.478 315.599C322.833 322.046 320.211 323.658 318.981 323.658" stroke="#27AE60"/>
<path d="M339.328 286.045C321.06 286.045 321.597 266.97 321.597 252.462V228.015V189.328C324.213 190.2 330.658 192.992 339.328 198.132C342.233 199.854 345.387 201.839 348.731 204.104C356.782 209.558 359.686 217.271 360.265 225.059C360.586 229.369 360.194 233.701 359.569 237.686C358.986 241.401 358.2 244.814 357.597 247.627C355.663 256.653 355.179 270.373 355.179 276.104C355.985 279.418 353.943 286.045 339.328 286.045Z" fill="#0C0F23"/>
<path d="M339.328 286.045C321.06 286.045 321.597 266.97 321.597 252.462C321.597 247.516 321.597 238.261 321.597 228.015M339.328 286.045C353.943 286.045 355.985 279.418 355.179 276.104C355.179 270.373 355.663 256.653 357.597 247.627C358.2 244.814 358.986 241.401 359.569 237.686M339.328 286.045V268.851M321.597 228.015C321.597 214.221 321.597 198.629 321.597 189.328C324.213 190.2 330.658 192.992 339.328 198.132M321.597 228.015C322.94 233.477 326.54 246.391 330.194 254.343C333.848 262.295 337.806 267.328 339.328 268.851M339.328 268.851V240.91M339.328 198.132C342.233 199.854 345.387 201.839 348.731 204.104C356.782 209.558 359.686 217.271 360.265 225.059M339.328 198.132V230.701M360.265 225.059C359.197 226.94 353.514 230.701 339.328 230.701M360.265 225.059C360.586 229.369 360.194 233.701 359.569 237.686M339.328 230.701V240.91M339.328 240.91C344.136 241.448 354.914 241.555 359.569 237.686" stroke="#27AE60"/>
<path d="M384.315 129.014C385.897 137.402 380.794 145.35 372.994 146.821C365.194 148.292 357.547 142.748 355.965 134.36C354.383 125.973 359.486 118.025 367.286 116.554C375.086 115.083 382.733 120.626 384.315 129.014Z" stroke="#27AE60"/>
<path d="M382.829 129.445C384.268 137.075 379.797 144.241 372.955 145.531C366.113 146.821 359.339 141.776 357.9 134.146C356.461 126.516 360.933 119.35 367.774 118.06C374.616 116.77 381.39 121.814 382.829 129.445Z" stroke="#27AE60"/>
<path d="M381.74 129.958C382.979 136.526 379.117 142.687 373.226 143.798C367.334 144.909 361.494 140.578 360.255 134.01C359.016 127.442 362.878 121.281 368.77 120.17C374.661 119.059 380.501 123.39 381.74 129.958Z" stroke="#27AE60"/>
<path d="M377.726 130.361C378.444 134.166 376.205 137.702 372.835 138.337C369.466 138.972 366.093 136.495 365.376 132.69C364.658 128.886 366.897 125.35 370.266 124.715C373.636 124.079 377.008 126.556 377.726 130.361Z" stroke="#27AE60"/>
<path d="M373.172 131.3C373.321 132.088 372.853 132.757 372.237 132.873C371.622 132.989 370.942 132.537 370.794 131.748C370.645 130.96 371.113 130.291 371.728 130.174C372.344 130.058 373.023 130.511 373.172 131.3Z" stroke="#27AE60"/>
<path d="M368.074 132.262C367.628 129.897 369.017 127.65 371.176 127.243M372.536 127.243C374.16 127.549 375.541 128.928 375.892 130.788C376.006 131.393 376 131.99 375.892 132.55M369.149 134.481C370.068 135.519 371.42 136.065 372.79 135.807C373.682 135.638 374.443 135.156 374.997 134.481" stroke="#27AE60"/>
<path d="M329.029 53.9929C327.686 50.657 324.785 42.4269 323.925 36.194C322.85 28.403 319.895 14.1642 343.806 1C372.283 10.1343 369.061 22.4925 366.91 50.9702H365.417L366.91 61.7164H364.759L363.684 58.4925H359.344C357.144 61.3769 353.208 64.0311 348.373 64.403C343.728 64.7603 339.077 62.673 336.552 60.1045H332.253V63.0597H330.329V53.2882L329.029 53.9929Z" fill="#0C0F23"/>
<path d="M327.237 35.3881C326.488 30.7495 326.122 26.2821 326.342 22.7611C326.813 15.2388 333.058 6.64074 344.878 5.83577C356.699 5.0308 363.899 12.4446 364.759 22.761C365.012 25.7994 365.108 29.1144 365.093 32.4328M327.237 35.3881L330.104 34.3134C330.373 32.4328 332.146 28.6179 337.089 28.403C342.032 28.1881 344.342 31 344.878 32.4328L345.955 39.4179M327.237 35.3881C328.206 41.3938 329.817 47.6864 331.629 52.5835M345.955 39.4179L341.925 43.1791L336.82 42.6418M345.955 39.4179L346.492 44.791M345.955 39.4179L352.761 43.1791L359.344 38.6119M346.492 44.791L344.102 48.2836M346.492 44.791L349.249 48.2836M343 53.0584L343.09 51.2388L350.522 50.9702V52.7177M343 53.0584C345.516 52.8953 348.046 52.7881 350.522 52.7177M343 53.0584C339.797 53.266 336.616 53.5643 333.597 53.9929M365.093 32.4328H361C360.283 30.4627 357.722 26.6299 353.208 27.0597C348.695 27.4896 346.85 30.6418 346.492 32.1642M365.093 32.4328C365.061 39.4623 364.527 46.5071 363.924 50.9702M350.522 52.7177C354.517 52.6042 358.372 52.5863 361.806 52.5835M361.806 52.5835C362.447 52.583 363.074 52.583 363.684 52.583C363.765 52.0934 363.845 51.5539 363.924 50.9702M361.806 52.5835C361.389 54.137 360.958 56.3767 359.344 58.4925M333.597 53.9929C333.145 54.057 332.697 54.124 332.253 54.194C332.043 53.6768 331.835 53.1391 331.629 52.5835M333.597 53.9929C334.235 56.1971 334.52 58.0379 336.552 60.1045M331.629 52.5835L330.329 53.2882M363.924 50.9702H365.417M365.417 50.9702H366.91C369.061 22.4925 372.283 10.1343 343.806 1C319.895 14.1642 322.85 28.403 323.925 36.194C324.785 42.4269 327.686 50.657 329.029 53.9929L330.329 53.2882M365.417 50.9702L366.91 61.7164H364.759L363.684 58.4925H359.344M359.344 58.4925C357.144 61.3769 353.208 64.0311 348.373 64.403C343.728 64.7603 339.077 62.673 336.552 60.1045M330.329 53.2882V63.0597H332.253V60.1045H336.552" stroke="#27AE60"/>
<circle cx="337.358" cy="35.9244" r="3.52985" stroke="#27AE60"/>
<circle cx="353.477" cy="34.8502" r="3.52985" stroke="#27AE60"/>
<circle cx="337.358" cy="35.9253" r="0.843284" stroke="#27AE60"/>
<circle cx="353.477" cy="34.8511" r="0.843284" stroke="#27AE60"/>
<path d="M477.149 205.715C480.158 205.715 487.716 206.969 491.119 207.595L508.851 343.267L509.07 344.879L509.289 346.491L511.736 364.491L512.612 370.939L491.119 384.103L459.149 379.536L457.537 372.551L473.925 343.267L479.567 341.924L473.925 266.969L468.552 263.207C467.746 254.163 466.081 234.407 465.866 227.745C465.597 219.416 473.388 205.715 477.149 205.715Z" fill="#0C0F23"/>
<path d="M491.119 207.595C487.716 206.969 480.158 205.715 477.149 205.715C473.388 205.715 465.597 219.416 465.866 227.745C466.081 234.407 467.746 254.163 468.552 263.207M491.119 207.595L508.851 343.267L509.07 344.879M491.119 207.595C483.328 211.357 481.716 225.864 481.448 231.506C481.233 236.019 482.433 255.775 483.06 265.088L468.552 263.207M468.552 263.207L473.925 266.969L479.567 341.924M479.567 341.924L473.925 343.267M479.567 341.924L509.07 344.879M473.925 343.267L457.537 372.551M473.925 343.267L491.607 344.879M457.537 372.551L459.149 379.536L491.119 384.103M457.537 372.551L491.119 376.849M491.119 384.103L512.612 370.939L511.736 364.491M491.119 384.103V376.849M491.119 376.849L511.736 364.491M491.119 376.849L484.403 370.939L491.607 344.879M491.119 376.849L491.607 344.879M511.736 364.491L509.289 346.491M509.289 346.491L509.07 344.879M509.289 346.491L491.607 344.879" stroke="#27AE60"/>
<path d="M533.03 366.639L548.343 392.43L546.731 399.684L527.657 414.729L489.776 406.401L487.627 402.639L506.164 369.326V355.087L506.89 349.177L508.045 339.774H512.612V333.863L524.164 335.769L538.672 338.162C538.582 342.371 538.457 351.648 538.672 355.087C538.887 358.526 535 364.221 533.03 366.639Z" fill="#0C0F23"/>
<path d="M548.343 392.43L533.03 366.639M548.343 392.43L527.657 410.43M548.343 392.43L546.731 399.684L527.657 414.729M533.03 366.639C535 364.221 538.887 358.526 538.672 355.087C538.457 351.648 538.582 342.371 538.672 338.162L524.164 335.769M533.03 366.639L522.552 359.923M533.03 366.639L531.687 367.413M524.164 371.744L527.657 410.43M524.164 371.744L531.687 367.413M524.164 371.744L512.612 370.192M506.164 369.326L487.627 402.639M506.164 369.326V355.087M506.164 369.326L512.612 370.192M487.627 402.639L527.657 410.43M487.627 402.639L489.776 406.401L527.657 414.729M527.657 410.43V414.729M506.164 355.087L506.89 349.177M506.164 355.087L511 357.774M522.552 359.923L524.164 350.789M522.552 359.923L511 357.774M524.164 350.789L522.552 345.147L524.164 335.769M524.164 350.789L506.89 349.177M524.164 335.769L512.612 333.863V339.774H508.045L506.89 349.177M511 357.774V364.221L517.985 369.326M517.985 369.326L524.164 366.639L531.687 367.413M517.985 369.326L512.612 370.192" stroke="#27AE60"/>
<path d="M598.045 213.506L597.602 216.461L584.917 301.088L583.468 310.759L580.045 333.595C578.821 333.022 575.891 332.008 570.911 330.699L562.582 347.028L537.597 344.61L485.746 334.67L475.269 317.43C473.652 317.337 472.21 317.263 470.97 317.207L476.746 282.55L488.836 210.013L490.045 202.759C490.467 200.926 491.007 198.941 491.667 196.849C491.972 195.885 492.302 194.898 492.658 193.894C497.815 179.35 508.446 160.98 525.776 152.247C530.691 149.771 536.144 148.069 542.164 147.45C543.048 147.359 543.943 147.292 544.851 147.249C547.932 147.102 551.155 147.234 554.522 147.685C557.28 148.053 559.874 148.588 562.314 149.272C563.9 149.716 565.422 150.223 566.881 150.788C572.138 152.823 576.578 155.608 580.314 158.908C589.454 166.982 594.372 178.139 596.702 188.943C597.991 194.926 598.487 200.801 598.467 205.983C598.463 206.807 598.447 207.614 598.419 208.401C598.371 209.714 598.291 210.971 598.182 212.162C598.14 212.62 598.095 213.068 598.045 213.506Z" fill="#0C0F23"/>
<path d="M490.045 202.759C490.467 200.926 491.007 198.941 491.667 196.849M490.045 202.759C491.318 202.289 493.56 201.734 496.761 201.269M490.045 202.759L488.836 210.013M597.602 216.461L598.045 213.506C598.095 213.068 598.14 212.62 598.182 212.162M597.602 216.461L584.917 301.088M597.602 216.461C596.475 216.08 595.183 215.657 593.746 215.201M491.667 196.849C493.634 195.685 501.06 193.464 515.03 193.894C532.493 194.431 570.379 198.192 598.182 212.162M491.667 196.849C491.972 195.885 492.302 194.898 492.658 193.894M598.182 212.162C598.291 210.971 598.371 209.714 598.419 208.401M492.658 193.894C495.19 192.819 503.209 190.67 515.03 190.67C529.806 190.67 576.225 194.7 598.419 208.401M492.658 193.894C497.815 179.35 508.446 160.98 525.776 152.247M598.419 208.401C598.447 207.614 598.463 206.807 598.467 205.983M584.917 301.088L578.97 297.595L593.746 215.201M584.917 301.088L583.468 310.759M593.746 215.201C590.894 214.294 587.474 213.257 583.647 212.162M583.468 310.759L580.045 333.595C578.821 333.022 575.891 332.008 570.911 330.699M583.468 310.759L575.478 307.535L570.911 330.699M570.911 330.699L562.582 347.028M570.911 330.699C566.811 329.622 561.322 328.346 554.254 326.951M583.647 212.162C569.438 208.099 549.625 203.252 532.493 201.416C515.862 199.634 503.916 200.229 496.761 201.269M583.647 212.162L571.716 310.759M493.806 222.103L491.925 235.267C495.508 235.267 506.111 235.374 519.866 235.804C533.621 236.234 550.314 239.207 556.94 240.64L558.552 226.67C550.493 223.714 542.164 223.177 520.672 221.834C505.358 220.877 498.463 221.565 493.806 222.103ZM493.806 222.103L496.761 201.269M476.746 282.55L470.97 317.207C472.21 317.263 473.652 317.337 475.269 317.43M476.746 282.55H482.254L494.612 208.401L488.836 210.013M476.746 282.55L488.836 210.013M598.467 205.983L590.791 201.416L589.985 185.565L596.702 188.943M598.467 205.983C598.487 200.801 597.991 194.926 596.702 188.943M596.702 188.943C594.372 178.139 589.454 166.982 580.314 158.908M525.776 152.247H537.328C537.955 151.287 539.8 148.982 542.164 147.45M525.776 152.247C530.691 149.771 536.144 148.069 542.164 147.45M542.164 147.45C543.048 147.359 543.943 147.292 544.851 147.249M544.851 147.249C547.932 147.102 551.155 147.234 554.522 147.685C557.28 148.053 559.874 148.588 562.314 149.272M544.851 147.249L539.478 152.247C542.791 152.249 550.761 152.467 556.134 153.326C561.508 154.186 566.433 155.297 568.224 155.744L562.314 149.272M562.314 149.272C563.9 149.716 565.422 150.223 566.881 150.788M566.881 150.788L570.911 157.088L580.314 158.908M566.881 150.788C572.138 152.823 576.578 155.608 580.314 158.908M544.851 156.737C542.698 156.194 540.053 155.744 537.328 155.744C532.17 155.744 525.508 155.744 522.821 155.744L511.269 174.013L538.94 174.677M544.851 156.737C546.774 157.222 548.304 157.782 549.149 158.162L544.851 174.819L538.94 174.677M544.851 156.737L538.94 174.677M562.582 347.028L544.045 341.655L493.537 334.67H485.746M562.582 347.028L537.597 344.61L485.746 334.67M485.746 334.67L475.269 317.43M475.269 317.43C476.512 317.501 477.859 317.583 479.299 317.676M479.299 317.676L487.896 332.789L482.254 317.874M479.299 317.676C480.245 317.737 481.231 317.803 482.254 317.874M482.254 317.874C483.376 317.952 484.541 318.036 485.746 318.125M485.746 318.125L491.925 331.983L501.866 332.789L498.911 319.222M485.746 318.125C489.753 318.423 494.195 318.788 498.911 319.222M498.911 319.222C500.58 319.376 502.284 319.538 504.015 319.71M504.015 319.71L506.164 333.595L514.224 334.67V320.797M504.015 319.71C507.335 320.039 510.755 320.401 514.224 320.797M514.224 320.797C515.468 320.939 516.718 321.086 517.972 321.237M517.972 321.237C524.976 322.08 532.101 323.062 538.94 324.192C539.211 324.237 539.479 324.281 539.746 324.326M517.972 321.237V336.013L535.448 337.625L539.746 324.326M539.746 324.326C541.1 324.552 542.416 324.776 543.695 324.998M543.695 324.998L538.94 337.625L544.582 338.7L554.254 326.951M543.695 324.998C547.549 325.668 551.062 326.322 554.254 326.951M566.881 216.461L554.254 291.685L568.224 294.64L578.97 219.953L566.881 216.461ZM554.254 294.64L552.911 301.894L566.881 305.117L568.224 298.401L554.254 294.64ZM549.418 293.297L548.343 301.088L528.731 297.595L529.537 290.879L549.418 293.297ZM522.821 289.267L522.015 296.52L500.791 294.64L501.866 287.386L522.821 289.267ZM496.761 287.386L495.955 294.64L487.09 294.103L487.896 287.386H496.761ZM529.537 239.834L522.821 286.043L502.672 283.894L509.657 238.759L529.537 239.834ZM496.761 225.326V230.431H500.791L504.015 232.312L528.194 233.655V231.237L538.672 234.461L552.105 235.804V230.431L542.164 226.67H539.478V227.744H528.731V225.326L505.358 223.714L500.791 225.326H496.761ZM555.328 216.461V222.103L546.731 219.953L543.776 221.297L516.373 218.341V216.461H512.075L507.239 218.341L498.105 217.267L498.911 210.55L506.433 209.207L511.269 211.356H516.373L516.911 210.013L542.164 211.356L546.731 214.312L555.328 216.461ZM550.493 290.879L556.94 244.401L533.567 240.64L526.851 287.386L550.493 290.879ZM554.254 245.744L548.343 288.461L529 285.506L535.448 243.058L554.254 245.744ZM506.433 237.685L505.358 251.923H489.239L491.119 237.685H506.433ZM504.015 256.491L499.716 283.894L491.119 282.55L494.612 255.685L504.015 256.491ZM500.791 297.595L499.716 315.595L516.911 317.207L519.328 299.476L500.791 297.595ZM523.896 301.088L522.015 318.013L531.955 319.894L535.448 302.7L523.896 301.088ZM538.672 302.7L535.448 319.894L541.358 321.237L544.582 303.774L538.672 302.7ZM546.731 305.117L544.582 321.237L549.418 322.58L552.911 305.117H546.731ZM561.239 306.729L555.328 311.565V319.894L558.015 324.998L565.537 326.61L569.03 322.58L570.105 312.909L567.687 308.61L561.239 306.729ZM498.105 297.595L495.955 314.52H480.105L481.448 296.52L498.105 297.595ZM558.552 176.968L557.746 193.088L568.224 194.968V178.58L558.552 176.968ZM570.911 179.386L570.642 195.506L578.97 197.923V181.267L570.911 179.386ZM581.119 182.341L581.657 198.461L588.105 201.269V184.759L581.119 182.341ZM536.791 179.117L535.448 189.864L516.911 188.943L519.866 178.043L536.791 179.117ZM516.911 178.043L514.224 188.943H510.463L513.149 178.043H516.911ZM509.925 180.729L508.045 188.943H502.134L504.015 180.729H509.925Z" stroke="#27AE60"/>
<path d="M532.233 167.243C530.069 170.774 526.153 172.074 523.546 170.476C520.94 168.879 520.322 164.799 522.486 161.268C524.65 157.737 528.566 156.437 531.173 158.034C533.779 159.632 534.398 163.712 532.233 167.243Z" stroke="#27AE60"/>
<path fill-rule="evenodd" clip-rule="evenodd" d="M524.286 171.373C527.106 172.338 530.655 170.773 532.66 167.503C533.251 166.538 533.649 165.521 533.862 164.513C533.393 163.8 532.762 163.175 531.985 162.699C529.183 160.981 525.535 161.836 523.836 164.607C522.506 166.777 522.766 169.479 524.286 171.373Z" fill="#27AE60"/>
<path d="M546.805 182.65C545.888 184.793 543.758 185.77 542.132 185.075C540.506 184.379 539.743 182.163 540.659 180.021C541.576 177.878 543.706 176.9 545.332 177.596C546.958 178.292 547.722 180.507 546.805 182.65Z" stroke="#27AE60"/>
<path d="M548.836 183.865C547.747 186.41 544.999 187.598 542.741 186.632C540.483 185.666 539.445 182.858 540.534 180.313C541.623 177.768 544.371 176.58 546.629 177.546C548.887 178.512 549.925 181.32 548.836 183.865Z" stroke="#27AE60"/>
<path d="M552.628 186.033C551.223 189.317 547.352 190.83 543.969 189.383C540.587 187.935 539.009 184.09 540.414 180.807C541.819 177.523 545.69 176.01 549.072 177.457C552.455 178.904 554.033 182.749 552.628 186.033Z" stroke="#27AE60"/>
<path fill-rule="evenodd" clip-rule="evenodd" d="M541.936 185.533C543.886 186.367 546.272 185.164 547.264 182.845C547.415 182.493 547.525 182.136 547.596 181.78C547.384 180.745 546.771 179.881 545.843 179.484C544.177 178.772 542.128 179.828 541.265 181.843C540.796 182.939 540.775 184.093 541.121 185.032C541.363 185.235 541.635 185.404 541.936 185.533Z" fill="#27AE60"/>
<ellipse cx="529.38" cy="183.64" rx="3.80203" ry="4.38619" transform="rotate(17.5287 529.38 183.64)" fill="#0C0F23"/>
<path d="M616.313 228.551C616.313 236.073 616.851 274.76 616.313 277.178C616.101 278.135 615.441 278.956 614.698 279.596L616.046 316.133L618.731 318.282V324.999V335.745L624.91 337.088V352.402L623.889 353.208L624.91 355.007L637 376.312L632.97 382.491L610.94 403.984L578.164 397.805L573.866 392.163L592.746 361.267L594.552 358.312L593.478 329.566L595.896 326.611L592.403 280.939L589.179 275.029L587.03 252.193C585.508 248.879 582.678 241.124 583.537 236.611C584.397 232.097 590.702 220.581 593.746 215.387L610.134 216.461C613.627 216.461 616.313 221.029 616.313 228.551Z" fill="#0C0F23"/>
<path d="M610.134 216.461C608.075 218.79 603.687 227.1 602.612 241.715C601.537 256.33 603.418 271.446 604.493 277.178M610.134 216.461C613.627 216.461 616.313 221.029 616.313 228.551C616.313 236.073 616.851 274.76 616.313 277.178C616.101 278.135 615.441 278.956 614.698 279.596M610.134 216.461L593.746 215.387C590.702 220.581 584.397 232.097 583.537 236.611C582.678 241.124 585.508 248.879 587.03 252.193L589.179 275.029M604.493 277.178L608.522 282.551M604.493 277.178L589.179 275.029M608.522 282.551L606.642 252.193L608.522 248.431L606.642 244.133C606.373 238.849 606.696 228.336 610.134 228.551C613.573 228.766 613.179 237.417 612.552 241.715V280.939C613.095 280.713 613.94 280.249 614.698 279.596M608.522 282.551L606.642 282.363M614.698 279.596L616.046 316.133M616.313 323.387L608.522 327.954M616.313 323.387L618.731 324.999M616.313 323.387L616.046 316.133M608.522 327.954L595.896 326.611M608.522 327.954L606.642 282.363M608.522 327.954V331.178M595.896 326.611L592.403 280.939M595.896 326.611L593.478 329.566M592.403 280.939L589.179 275.029M592.403 280.939L606.642 282.363M593.478 329.566L608.522 331.178M593.478 329.566L594.552 358.312M608.522 331.178L618.731 324.999M608.522 331.178V352.402M618.731 324.999V318.282L616.046 316.133M618.731 324.999V335.745M594.552 358.312L608.522 360.461M594.552 358.312L592.746 361.267M608.522 360.461V352.402M608.522 360.461H614.698M608.522 360.461L608.917 364.223M618.731 335.745L608.522 352.402M618.731 335.745L624.91 337.088M624.91 337.088L614.698 354.82V360.461M624.91 337.088V352.402L623.889 353.208M614.698 360.461L623.889 353.208M614.698 360.461V364.223M623.889 353.208L624.91 355.007M637 376.312L612.552 398.879M637 376.312L624.91 355.007M637 376.312L632.97 382.491L610.94 403.984M612.552 398.879L573.866 392.163M612.552 398.879L608.917 364.223M612.552 398.879L614.698 364.223M612.552 398.879L610.94 403.984M573.866 392.163L592.746 361.267M573.866 392.163L578.164 397.805L610.94 403.984M614.698 364.223H608.917M614.698 364.223L624.91 355.007M608.917 364.223L592.746 361.267" stroke="#27AE60"/>
<path d="M1663.43 255.727C1658.1 255.727 1639.27 256.684 1630.52 257.163C1626.52 257.061 1620.55 256.913 1615.11 256.783C1608.89 256.634 1603.38 256.51 1602.32 256.51C1601.67 256.51 1600.77 255.884 1599.79 254.866C1599.34 254.391 1598.87 253.832 1598.4 253.211C1598.1 252.811 1597.8 252.385 1597.5 251.94C1596.96 251.121 1596.43 250.238 1595.95 249.328C1595.51 248.494 1595.11 247.637 1594.77 246.79C1594.27 245.511 1593.9 244.254 1593.76 243.122C1593.72 242.785 1593.7 242.459 1593.7 242.147C1593.7 241.427 1593.72 240.777 1593.76 240.188C1593.84 239.136 1594 238.281 1594.25 237.577C1594.89 235.817 1596.15 235.006 1598.4 234.443C1599.98 234.047 1605.62 233.608 1611.72 233.233C1616.89 232.916 1622.41 232.644 1626.08 232.484H1628.56H1666.3C1673.09 232.484 1674 235.618 1674 239.405C1674 243.191 1670.09 255.727 1663.43 255.727Z" fill="#0C0F23"/>
<path d="M1630.52 257.163C1639.27 256.684 1658.1 255.727 1663.43 255.727C1670.09 255.727 1674 243.191 1674 239.405C1674 235.618 1673.09 232.484 1666.3 232.484C1661.24 232.484 1640.41 232.484 1628.56 232.484M1630.52 257.163C1626.52 257.061 1620.55 256.913 1615.11 256.783M1630.52 257.163C1629.78 256.584 1628.87 255.802 1627.91 254.866M1615.11 256.783C1608.89 256.634 1603.38 256.51 1602.32 256.51C1601.67 256.51 1600.77 255.884 1599.79 254.866M1615.11 256.783C1614.6 256.266 1613.99 255.614 1613.33 254.866M1606.89 243.061C1606.89 242.035 1606.93 241.076 1607.02 240.188M1606.89 243.061L1593.76 243.122M1606.89 243.061L1620.52 243.122M1606.89 243.061C1606.89 244.192 1607.25 245.47 1607.84 246.79M1611.72 233.233C1616.89 232.916 1622.41 232.644 1626.08 232.484C1626.85 232.484 1627.68 232.484 1628.56 232.484M1611.72 233.233C1605.62 233.608 1599.98 234.047 1598.4 234.443C1596.15 235.006 1594.89 235.817 1594.25 237.577M1611.72 233.233C1609.7 233.648 1608.43 234.932 1607.71 236.924M1628.56 232.484C1626.71 232.653 1623.61 233.664 1621.79 236.271M1594.25 237.577L1607.71 236.924M1594.25 237.577C1594 238.281 1593.84 239.136 1593.76 240.188M1607.71 236.924L1621.79 236.271M1607.71 236.924C1607.37 237.861 1607.15 238.955 1607.02 240.188M1621.79 236.271C1621.19 237.132 1620.73 238.168 1620.5 239.405M1620.5 239.405C1620.39 239.971 1620.34 240.58 1620.34 241.233C1620.34 241.859 1620.4 242.49 1620.52 243.122M1620.5 239.405L1607.02 240.188M1607.02 240.188H1593.76M1593.76 240.188C1593.72 240.777 1593.7 241.427 1593.7 242.147C1593.7 242.459 1593.72 242.785 1593.76 243.122M1593.76 243.122C1593.9 244.254 1594.27 245.511 1594.77 246.79M1620.52 243.122C1620.76 244.355 1621.21 245.589 1621.79 246.79M1621.79 246.79H1607.84M1621.79 246.79C1622.22 247.657 1622.71 248.507 1623.26 249.328M1607.84 246.79H1594.77M1607.84 246.79C1608.21 247.628 1608.68 248.483 1609.19 249.328M1594.77 246.79C1595.11 247.637 1595.51 248.494 1595.95 249.328M1595.95 249.328H1609.19M1595.95 249.328C1596.43 250.238 1596.96 251.121 1597.5 251.94M1609.19 249.328H1623.26M1609.19 249.328C1609.74 250.22 1610.34 251.1 1610.97 251.94M1623.26 249.328C1623.86 250.241 1624.52 251.117 1625.2 251.94M1610.97 251.94H1625.2M1610.97 251.94H1597.5M1610.97 251.94C1611.29 252.376 1611.62 252.801 1611.95 253.211M1625.2 251.94C1625.57 252.38 1625.94 252.804 1626.31 253.211M1597.5 251.94C1597.8 252.385 1598.1 252.811 1598.4 253.211M1598.4 253.211H1611.95M1598.4 253.211C1598.87 253.832 1599.34 254.391 1599.79 254.866M1611.95 253.211H1626.31M1611.95 253.211C1612.42 253.799 1612.88 254.354 1613.33 254.866M1626.31 253.211C1626.85 253.803 1627.39 254.357 1627.91 254.866M1627.91 254.866H1613.33M1613.33 254.866H1599.79M1629.22 253.211L1663.04 252.593C1665.82 250.373 1671.39 244.784 1671.39 240.188C1671.39 234.443 1669.69 235.096 1664.08 235.096C1658.46 235.096 1629.31 235.096 1627.26 235.096C1625.2 235.096 1621.79 235.676 1621.79 241.233C1621.79 245.679 1626.74 251.071 1629.22 253.211Z" stroke="#27AE60"/>
<path d="M1632.24 251.025C1632.24 251.9 1631.64 252.484 1631.04 252.484C1630.45 252.484 1629.85 251.9 1629.85 251.025C1629.85 250.15 1630.45 249.566 1631.04 249.566C1631.64 249.566 1632.24 250.15 1632.24 251.025Z" fill="#0C0F23" stroke="#27AE60"/>
<path d="M1631.72 251.026C1631.72 251.642 1631.33 251.962 1631.04 251.962C1630.76 251.962 1630.37 251.642 1630.37 251.026C1630.37 250.411 1630.76 250.09 1631.04 250.09C1631.33 250.09 1631.72 250.411 1631.72 251.026Z" fill="#0C0F23" stroke="#27AE60"/>
<path d="M1636.68 249.459C1636.68 250.334 1636.08 250.917 1635.48 250.917C1634.89 250.917 1634.29 250.334 1634.29 249.459C1634.29 248.583 1634.89 248 1635.48 248C1636.08 248 1636.68 248.583 1636.68 249.459Z" fill="#0C0F23" stroke="#27AE60"/>
<path d="M1636.16 249.456C1636.16 250.071 1635.77 250.392 1635.48 250.392C1635.2 250.392 1634.81 250.071 1634.81 249.456C1634.81 248.84 1635.2 248.52 1635.48 248.52C1635.77 248.52 1636.16 248.84 1636.16 249.456Z" fill="#0C0F23" stroke="#27AE60"/>
<path d="M1640.6 250.502C1640.6 251.377 1640 251.96 1639.4 251.96C1638.81 251.96 1638.2 251.377 1638.2 250.502C1638.2 249.626 1638.81 249.043 1639.4 249.043C1640 249.043 1640.6 249.626 1640.6 250.502Z" fill="#0C0F23" stroke="#27AE60"/>
<path d="M1640.08 250.503C1640.08 251.118 1639.69 251.439 1639.4 251.439C1639.12 251.439 1638.73 251.118 1638.73 250.503C1638.73 249.887 1639.12 249.566 1639.4 249.566C1639.69 249.566 1640.08 249.887 1640.08 250.503Z" fill="#0C0F23" stroke="#27AE60"/>
<path d="M1644.52 250.502C1644.52 251.377 1643.91 251.96 1643.32 251.96C1642.72 251.96 1642.12 251.377 1642.12 250.502C1642.12 249.626 1642.72 249.043 1643.32 249.043C1643.91 249.043 1644.52 249.626 1644.52 250.502Z" fill="#0C0F23" stroke="#27AE60"/>
<path d="M1643.99 250.503C1643.99 251.118 1643.6 251.439 1643.32 251.439C1643.03 251.439 1642.64 251.118 1642.64 250.503C1642.64 249.887 1643.03 249.566 1643.32 249.566C1643.6 249.566 1643.99 249.887 1643.99 250.503Z" fill="#0C0F23" stroke="#27AE60"/>
<path d="M1648.43 249.982C1648.43 250.857 1647.83 251.441 1647.24 251.441C1646.64 251.441 1646.04 250.857 1646.04 249.982C1646.04 249.107 1646.64 248.523 1647.24 248.523C1647.83 248.523 1648.43 249.107 1648.43 249.982Z" fill="#0C0F23" stroke="#27AE60"/>
<path d="M1647.91 249.979C1647.91 250.595 1647.52 250.916 1647.24 250.916C1646.95 250.916 1646.56 250.595 1646.56 249.979C1646.56 249.364 1646.95 249.043 1647.24 249.043C1647.52 249.043 1647.91 249.364 1647.91 249.979Z" fill="#0C0F23" stroke="#27AE60"/>
<path d="M1652.35 249.982C1652.35 250.857 1651.75 251.441 1651.15 251.441C1650.56 251.441 1649.96 250.857 1649.96 249.982C1649.96 249.107 1650.56 248.523 1651.15 248.523C1651.75 248.523 1652.35 249.107 1652.35 249.982Z" fill="#0C0F23" stroke="#27AE60"/>
<path d="M1651.83 249.979C1651.83 250.595 1651.44 250.916 1651.15 250.916C1650.87 250.916 1650.48 250.595 1650.48 249.979C1650.48 249.364 1650.87 249.043 1651.15 249.043C1651.44 249.043 1651.83 249.364 1651.83 249.979Z" fill="#0C0F23" stroke="#27AE60"/>
<path d="M1656.27 249.982C1656.27 250.857 1655.67 251.441 1655.07 251.441C1654.47 251.441 1653.87 250.857 1653.87 249.982C1653.87 249.107 1654.47 248.523 1655.07 248.523C1655.67 248.523 1656.27 249.107 1656.27 249.982Z" fill="#0C0F23" stroke="#27AE60"/>
<path d="M1655.74 249.979C1655.74 250.595 1655.35 250.916 1655.07 250.916C1654.79 250.916 1654.39 250.595 1654.39 249.979C1654.39 249.364 1654.79 249.043 1655.07 249.043C1655.35 249.043 1655.74 249.364 1655.74 249.979Z" fill="#0C0F23" stroke="#27AE60"/>
<path d="M1660.18 248.939C1660.18 249.814 1659.58 250.398 1658.99 250.398C1658.39 250.398 1657.79 249.814 1657.79 248.939C1657.79 248.064 1658.39 247.48 1658.99 247.48C1659.58 247.48 1660.18 248.064 1660.18 248.939Z" fill="#0C0F23" stroke="#27AE60"/>
<path d="M1659.66 248.936C1659.66 249.552 1659.27 249.873 1658.99 249.873C1658.7 249.873 1658.31 249.552 1658.31 248.936C1658.31 248.321 1658.7 248 1658.99 248C1659.27 248 1659.66 248.321 1659.66 248.936Z" fill="#0C0F23" stroke="#27AE60"/>
<path d="M1664.1 249.982C1664.1 250.857 1663.5 251.441 1662.9 251.441C1662.31 251.441 1661.71 250.857 1661.71 249.982C1661.71 249.107 1662.31 248.523 1662.9 248.523C1663.5 248.523 1664.1 249.107 1664.1 249.982Z" fill="#0C0F23" stroke="#27AE60"/>
<path d="M1663.58 249.979C1663.58 250.595 1663.19 250.916 1662.9 250.916C1662.62 250.916 1662.23 250.595 1662.23 249.979C1662.23 249.364 1662.62 249.043 1662.9 249.043C1663.19 249.043 1663.58 249.364 1663.58 249.979Z" fill="#0C0F23" stroke="#27AE60"/>
<path d="M1669.85 240.449C1669.85 242.311 1668.68 243.605 1667.47 243.605C1666.27 243.605 1665.1 242.311 1665.1 240.449C1665.1 238.587 1666.27 237.293 1667.47 237.293C1668.68 237.293 1669.85 238.587 1669.85 240.449Z" fill="#0C0F23" stroke="#27AE60"/>
<path d="M1668.96 240.451C1668.96 241.095 1668.77 241.658 1668.48 242.049C1668.19 242.439 1667.83 242.632 1667.48 242.632C1667.12 242.632 1666.76 242.439 1666.47 242.049C1666.18 241.658 1665.99 241.095 1665.99 240.451C1665.99 239.807 1666.18 239.243 1666.47 238.853C1666.76 238.462 1667.12 238.27 1667.48 238.27C1667.83 238.27 1668.19 238.462 1668.48 238.853C1668.77 239.243 1668.96 239.807 1668.96 240.451Z" fill="#0C0F23" stroke="#27AE60"/>
<path d="M1628.85 240.71C1628.85 242.707 1627.57 244.127 1626.21 244.127C1624.86 244.127 1623.58 242.707 1623.58 240.71C1623.58 238.713 1624.86 237.293 1626.21 237.293C1627.57 237.293 1628.85 238.713 1628.85 240.71Z" fill="#0C0F23" stroke="#27AE60"/>
<path d="M1627.88 240.712C1627.88 241.407 1627.67 242.017 1627.35 242.442C1627.03 242.867 1626.62 243.085 1626.21 243.085C1625.81 243.085 1625.4 242.867 1625.08 242.442C1624.76 242.017 1624.54 241.407 1624.54 240.712C1624.54 240.018 1624.76 239.408 1625.08 238.983C1625.4 238.558 1625.81 238.34 1626.21 238.34C1626.62 238.34 1627.03 238.558 1627.35 238.983C1627.67 239.408 1627.88 240.018 1627.88 240.712Z" fill="#0C0F23" stroke="#27AE60"/>
<path d="M1711.03 258.298C1704.73 258.298 1682.43 259.432 1672.08 259.999C1667.34 259.878 1660.27 259.702 1653.84 259.548C1646.47 259.372 1639.94 259.226 1638.69 259.226C1637.92 259.226 1636.85 258.484 1635.7 257.279C1635.16 256.717 1634.6 256.055 1634.05 255.32C1633.69 254.846 1633.33 254.342 1632.98 253.815C1632.34 252.846 1631.71 251.8 1631.15 250.723C1630.63 249.735 1630.15 248.721 1629.75 247.718C1629.15 246.204 1628.72 244.715 1628.56 243.375C1628.51 242.976 1628.48 242.59 1628.48 242.221C1628.48 241.369 1628.51 240.599 1628.56 239.902C1628.65 238.656 1628.83 237.643 1629.14 236.81C1629.89 234.726 1631.38 233.767 1634.05 233.1C1635.92 232.632 1642.59 232.112 1649.82 231.668C1655.94 231.292 1662.47 230.97 1666.82 230.781H1669.76H1714.43C1722.47 230.781 1723.56 234.491 1723.56 238.974C1723.56 243.458 1718.92 258.298 1711.03 258.298Z" fill="#0C0F23"/>
<path d="M1672.08 259.999C1682.43 259.432 1704.73 258.298 1711.03 258.298C1718.92 258.298 1723.56 243.458 1723.56 238.974C1723.56 234.491 1722.47 230.781 1714.43 230.781C1708.45 230.781 1683.78 230.781 1669.76 230.781M1672.08 259.999C1667.34 259.878 1660.27 259.702 1653.84 259.548M1672.08 259.999C1671.2 259.313 1670.12 258.387 1668.99 257.279M1653.84 259.548C1646.47 259.372 1639.94 259.226 1638.69 259.226C1637.92 259.226 1636.85 258.484 1635.7 257.279M1653.84 259.548C1653.22 258.937 1652.5 258.165 1651.72 257.279M1644.1 243.303C1644.1 242.089 1644.15 240.952 1644.25 239.902M1644.1 243.303L1628.56 243.375M1644.1 243.303L1660.24 243.375M1644.1 243.303C1644.1 244.642 1644.53 246.155 1645.22 247.718M1649.82 231.668C1655.94 231.292 1662.47 230.97 1666.82 230.781C1667.73 230.781 1668.72 230.781 1669.76 230.781M1649.82 231.668C1642.59 232.112 1635.92 232.632 1634.05 233.1C1631.38 233.767 1629.89 234.726 1629.14 236.81M1649.82 231.668C1647.42 232.158 1645.93 233.679 1645.07 236.037M1669.76 230.781C1667.57 230.981 1663.9 232.178 1661.74 235.264M1629.14 236.81L1645.07 236.037M1629.14 236.81C1628.83 237.643 1628.65 238.656 1628.56 239.902M1645.07 236.037L1661.74 235.264M1645.07 236.037C1644.67 237.147 1644.4 238.442 1644.25 239.902M1661.74 235.264C1661.03 236.284 1660.48 237.51 1660.21 238.974M1660.21 238.974C1660.09 239.645 1660.02 240.365 1660.02 241.139C1660.02 241.88 1660.1 242.628 1660.24 243.375M1660.21 238.974L1644.25 239.902M1644.25 239.902H1628.56M1628.56 239.902C1628.51 240.599 1628.48 241.369 1628.48 242.221C1628.48 242.59 1628.51 242.976 1628.56 243.375M1628.56 243.375C1628.72 244.715 1629.15 246.204 1629.75 247.718M1660.24 243.375C1660.52 244.835 1661.05 246.296 1661.74 247.718M1661.74 247.718H1645.22M1661.74 247.718C1662.24 248.745 1662.83 249.751 1663.48 250.723M1645.22 247.718H1629.75M1645.22 247.718C1645.67 248.71 1646.21 249.722 1646.83 250.723M1629.75 247.718C1630.15 248.721 1630.63 249.735 1631.15 250.723M1631.15 250.723H1646.83M1631.15 250.723C1631.71 251.8 1632.34 252.846 1632.98 253.815M1646.83 250.723H1663.48M1646.83 250.723C1647.47 251.778 1648.19 252.821 1648.93 253.815M1663.48 250.723C1664.19 251.803 1664.97 252.84 1665.78 253.815M1648.93 253.815H1665.78M1648.93 253.815H1632.98M1648.93 253.815C1649.31 254.332 1649.7 254.835 1650.08 255.32M1665.78 253.815C1666.21 254.336 1666.65 254.838 1667.09 255.32M1632.98 253.815C1633.33 254.342 1633.69 254.846 1634.05 255.32M1634.05 255.32H1650.08M1634.05 255.32C1634.6 256.055 1635.16 256.717 1635.7 257.279M1650.08 255.32H1667.09M1650.08 255.32C1650.64 256.016 1651.19 256.674 1651.72 257.279M1667.09 255.32C1667.73 256.02 1668.37 256.677 1668.99 257.279M1668.99 257.279H1651.72M1651.72 257.279H1635.7M1670.53 255.32L1710.57 254.588C1713.87 251.96 1720.46 245.344 1720.46 239.902C1720.46 233.1 1718.45 233.873 1711.81 233.873C1705.16 233.873 1670.64 233.873 1668.21 233.873C1665.78 233.873 1661.74 234.559 1661.74 241.139C1661.74 246.402 1667.6 252.786 1670.53 255.32Z" stroke="#27AE60"/>
<path d="M1674.21 252.733C1674.21 253.807 1673.46 254.552 1672.7 254.552C1671.93 254.552 1671.19 253.807 1671.19 252.733C1671.19 251.659 1671.93 250.914 1672.7 250.914C1673.46 250.914 1674.21 251.659 1674.21 252.733Z" fill="#0C0F23" stroke="#27AE60"/>
<path d="M1673.59 252.732C1673.59 253.493 1673.1 253.932 1672.7 253.932C1672.29 253.932 1671.8 253.493 1671.8 252.732C1671.8 251.97 1672.29 251.531 1672.7 251.531C1673.1 251.531 1673.59 251.97 1673.59 252.732Z" fill="#0C0F23" stroke="#27AE60"/>
<path d="M1679.46 250.874C1679.46 251.948 1678.72 252.692 1677.95 252.692C1677.18 252.692 1676.44 251.948 1676.44 250.874C1676.44 249.799 1677.18 249.055 1677.95 249.055C1678.72 249.055 1679.46 249.799 1679.46 250.874Z" fill="#0C0F23" stroke="#27AE60"/>
<path d="M1678.84 250.872C1678.84 251.634 1678.35 252.073 1677.95 252.073C1677.55 252.073 1677.06 251.634 1677.06 250.872C1677.06 250.111 1677.55 249.672 1677.95 249.672C1678.35 249.672 1678.84 250.111 1678.84 250.872Z" fill="#0C0F23" stroke="#27AE60"/>
<path d="M1684.1 252.116C1684.1 253.19 1683.36 253.935 1682.59 253.935C1681.82 253.935 1681.08 253.19 1681.08 252.116C1681.08 251.042 1681.82 250.297 1682.59 250.297C1683.36 250.297 1684.1 251.042 1684.1 252.116Z" fill="#0C0F23" stroke="#27AE60"/>
<path d="M1683.48 252.115C1683.48 252.876 1682.99 253.315 1682.59 253.315C1682.19 253.315 1681.7 252.876 1681.7 252.115C1681.7 251.353 1682.19 250.914 1682.59 250.914C1682.99 250.914 1683.48 251.353 1683.48 252.115Z" fill="#0C0F23" stroke="#27AE60"/>
<path d="M1688.74 252.116C1688.74 253.19 1688 253.935 1687.23 253.935C1686.46 253.935 1685.72 253.19 1685.72 252.116C1685.72 251.042 1686.46 250.297 1687.23 250.297C1688 250.297 1688.74 251.042 1688.74 252.116Z" fill="#0C0F23" stroke="#27AE60"/>
<path d="M1688.12 252.115C1688.12 252.876 1687.63 253.315 1687.23 253.315C1686.82 253.315 1686.34 252.876 1686.34 252.115C1686.34 251.353 1686.82 250.914 1687.23 250.914C1687.63 250.914 1688.12 251.353 1688.12 252.115Z" fill="#0C0F23" stroke="#27AE60"/>
<path d="M1693.37 251.499C1693.37 252.573 1692.63 253.317 1691.87 253.317C1691.1 253.317 1690.36 252.573 1690.36 251.499C1690.36 250.424 1691.1 249.68 1691.87 249.68C1692.63 249.68 1693.37 250.424 1693.37 251.499Z" fill="#0C0F23" stroke="#27AE60"/>
<path d="M1692.76 251.497C1692.76 252.259 1692.27 252.698 1691.86 252.698C1691.46 252.698 1690.97 252.259 1690.97 251.497C1690.97 250.736 1691.46 250.297 1691.86 250.297C1692.27 250.297 1692.76 250.736 1692.76 251.497Z" fill="#0C0F23" stroke="#27AE60"/>
<path d="M1698.01 251.499C1698.01 252.573 1697.27 253.317 1696.5 253.317C1695.73 253.317 1694.99 252.573 1694.99 251.499C1694.99 250.424 1695.73 249.68 1696.5 249.68C1697.27 249.68 1698.01 250.424 1698.01 251.499Z" fill="#0C0F23" stroke="#27AE60"/>
<path d="M1697.39 251.497C1697.39 252.259 1696.91 252.698 1696.5 252.698C1696.1 252.698 1695.61 252.259 1695.61 251.497C1695.61 250.736 1696.1 250.297 1696.5 250.297C1696.91 250.297 1697.39 250.736 1697.39 251.497Z" fill="#0C0F23" stroke="#27AE60"/>
<path d="M1702.65 251.499C1702.65 252.573 1701.91 253.317 1701.14 253.317C1700.37 253.317 1699.63 252.573 1699.63 251.499C1699.63 250.424 1700.37 249.68 1701.14 249.68C1701.91 249.68 1702.65 250.424 1702.65 251.499Z" fill="#0C0F23" stroke="#27AE60"/>
<path d="M1702.03 251.497C1702.03 252.259 1701.54 252.698 1701.14 252.698C1700.74 252.698 1700.25 252.259 1700.25 251.497C1700.25 250.736 1700.74 250.297 1701.14 250.297C1701.54 250.297 1702.03 250.736 1702.03 251.497Z" fill="#0C0F23" stroke="#27AE60"/>
<path d="M1707.29 250.26C1707.29 251.334 1706.55 252.079 1705.78 252.079C1705.01 252.079 1704.27 251.334 1704.27 250.26C1704.27 249.186 1705.01 248.441 1705.78 248.441C1706.55 248.441 1707.29 249.186 1707.29 250.26Z" fill="#0C0F23" stroke="#27AE60"/>
<path d="M1706.67 250.259C1706.67 251.021 1706.18 251.46 1705.78 251.46C1705.37 251.46 1704.89 251.021 1704.89 250.259C1704.89 249.498 1705.37 249.059 1705.78 249.059C1706.18 249.059 1706.67 249.498 1706.67 250.259Z" fill="#0C0F23" stroke="#27AE60"/>
<path d="M1711.92 251.499C1711.92 252.573 1711.18 253.317 1710.41 253.317C1709.65 253.317 1708.91 252.573 1708.91 251.499C1708.91 250.424 1709.65 249.68 1710.41 249.68C1711.18 249.68 1711.92 250.424 1711.92 251.499Z" fill="#0C0F23" stroke="#27AE60"/>
<path d="M1711.31 251.497C1711.31 252.259 1710.82 252.698 1710.41 252.698C1710.01 252.698 1709.52 252.259 1709.52 251.497C1709.52 250.736 1710.01 250.297 1710.41 250.297C1710.82 250.297 1711.31 250.736 1711.31 251.497Z" fill="#0C0F23" stroke="#27AE60"/>
<path d="M1718.73 240.207C1718.73 242.441 1717.32 244.036 1715.83 244.036C1714.33 244.036 1712.92 242.441 1712.92 240.207C1712.92 237.974 1714.33 236.379 1715.83 236.379C1717.32 236.379 1718.73 237.974 1718.73 240.207Z" fill="#0C0F23" stroke="#27AE60"/>
<path d="M1717.68 240.205C1717.68 240.986 1717.45 241.672 1717.09 242.152C1716.73 242.632 1716.28 242.88 1715.83 242.88C1715.37 242.88 1714.92 242.632 1714.56 242.152C1714.21 241.672 1713.97 240.986 1713.97 240.205C1713.97 239.425 1714.21 238.739 1714.56 238.259C1714.92 237.779 1715.37 237.531 1715.83 237.531C1716.28 237.531 1716.73 237.779 1717.09 238.259C1717.45 238.739 1717.68 239.425 1717.68 240.205Z" fill="#0C0F23" stroke="#27AE60"/>
<path d="M1670.19 240.517C1670.19 242.912 1668.65 244.654 1666.98 244.654C1665.3 244.654 1663.77 242.912 1663.77 240.517C1663.77 238.122 1665.3 236.379 1666.98 236.379C1668.65 236.379 1670.19 238.122 1670.19 240.517Z" fill="#0C0F23" stroke="#27AE60"/>
<path d="M1669.04 240.518C1669.04 241.359 1668.79 242.101 1668.39 242.622C1668 243.142 1667.49 243.419 1666.98 243.419C1666.46 243.419 1665.95 243.142 1665.56 242.622C1665.17 242.101 1664.91 241.359 1664.91 240.518C1664.91 239.678 1665.17 238.935 1665.56 238.415C1665.95 237.894 1666.46 237.617 1666.98 237.617C1667.49 237.617 1668 237.894 1668.39 238.415C1668.79 238.935 1669.04 239.678 1669.04 240.518Z" fill="#0C0F23" stroke="#27AE60"/>
<path d="M1816 204.267L1815.07 210.138L1807.49 221.417V226.051H1683.07L1681.67 223.734H1676.87L1673.62 229.296H1661.71L1588.82 232.231L1590.37 228.06L1549.2 135.825L1528 84.3768L1555.7 68L1654.44 82.9863L1701.48 92.2562L1703.96 96.8911L1777.62 109.56V116.203L1810.43 125.937L1808.88 204.053L1816 204.267Z" fill="#0C0F23"/>
<path d="M1661.71 229.296H1673.62L1676.87 223.734H1681.67L1683.07 226.051H1807.49V221.417L1815.07 210.138L1816 204.267L1808.88 204.053M1661.71 229.296V225.279M1661.71 229.296L1588.82 232.231L1590.37 228.06M1661.71 199.632L1654.44 82.9863M1661.71 199.632L1694.36 200.613M1661.71 199.632V225.279M1654.44 82.9863L1701.48 92.2562L1703.96 96.8911M1654.44 82.9863L1555.7 68M1654.44 82.9863L1566.07 130.572M1703.96 96.8911L1777.62 109.56V116.203M1703.96 96.8911C1703.25 104.506 1702.39 113.797 1701.48 123.658M1777.62 116.203L1810.43 125.937L1808.88 204.053M1777.62 116.203L1778.35 134.125M1808.88 204.053L1781.18 203.221M1781.18 203.221L1694.36 200.613M1781.18 203.221L1778.35 134.125M1694.36 200.613C1694.36 200.613 1698.25 158.57 1701.48 123.658M1701.48 123.658L1778.35 134.125M1555.7 68L1528 84.3768L1549.2 135.825M1555.7 68L1566.07 130.572M1549.2 135.825L1590.37 228.06M1549.2 135.825L1566.07 130.572M1590.37 228.06L1661.71 225.279M1661.71 225.279L1566.07 130.572M1552.29 79.4329C1553.53 78.759 1554.68 78.1317 1555.7 77.5789L1556.48 82.2138L1553.69 83.707M1552.29 79.4329L1553.69 83.707M1552.29 79.4329C1551.89 79.6517 1551.48 79.8755 1551.06 80.1032M1553.69 83.707L1552.44 84.3768M1551.06 80.1032L1552.44 84.3768M1551.06 80.1032C1550.72 80.2893 1550.37 80.478 1550.02 80.6688M1552.44 84.3768L1551.52 84.8683M1550.02 80.6688L1551.52 84.8683M1550.02 80.6688C1549.4 81.0097 1548.76 81.3574 1548.12 81.7089M1551.52 84.8683L1549.36 86.0296M1548.12 81.7089L1549.36 86.0296M1548.12 81.7089C1547.2 82.2128 1546.26 82.7245 1545.33 83.2353M1549.36 86.0296L1546.73 87.4398M1545.33 83.2353L1546.73 87.4398M1545.33 83.2353C1544.81 83.5196 1544.3 83.8036 1543.79 84.0858M1546.73 87.4398L1545.33 88.1864M1545.33 88.1864L1543.79 84.0858M1545.33 88.1864L1543.79 89.0159M1543.79 84.0858C1543.31 84.3486 1542.83 84.6098 1542.36 84.8683M1542.36 84.8683L1543.79 89.0159M1542.36 84.8683C1541.65 85.2633 1540.95 85.6519 1540.26 86.0296M1543.79 89.0159L1541.77 90.0943M1541.77 90.0943L1540.26 86.0296M1541.77 90.0943L1540.33 90.8657M1540.26 86.0296C1539.72 86.331 1539.19 86.6255 1538.68 86.9109M1538.68 86.9109L1540.33 90.8657M1538.68 86.9109C1538.08 87.2413 1537.52 87.5595 1536.98 87.8622M1540.33 90.8657L1538.68 91.7533M1538.68 91.7533L1536.98 87.8622M1538.68 91.7533L1537.45 92.4107M1536.98 87.8622C1536.49 88.1374 1536.02 88.3998 1535.58 88.6467M1537.45 92.4107L1535.58 88.6467M1537.45 92.4107L1536.2 93.0805M1535.58 88.6467C1535.14 88.8988 1534.72 89.1348 1534.34 89.3519M1534.34 89.3519L1536.2 93.0805M1534.34 89.3519C1534.01 89.5469 1533.69 89.7266 1533.42 89.8892M1536.2 93.0805L1534.81 93.8271M1534.81 93.8271L1533.42 94.5737L1531.87 90.8657C1531.87 90.8657 1532.5 90.4274 1533.42 89.8892M1534.81 93.8271L1533.42 89.8892M1582.16 80.6688V82.9863H1577.99V79.8963L1582.16 80.6688ZM1576.75 79.8963V82.9863H1575.66V79.8963H1576.75ZM1574.12 79.4329L1570.25 78.8149V82.9863H1574.12V79.4329ZM1569.01 78.8149V82.9863H1565.45V78.0424L1569.01 78.8149ZM1563.13 77.5789L1558.8 76.8064L1559.42 82.9863H1564.06L1563.13 77.5789Z" stroke="#27AE60"/>
<path d="M1796.69 254.54C1791.24 254.54 1771.99 255.519 1763.05 256.008C1758.96 255.904 1752.86 255.752 1747.3 255.619C1740.94 255.467 1735.3 255.341 1734.22 255.341C1733.56 255.341 1732.64 254.701 1731.64 253.66C1731.18 253.175 1730.7 252.603 1730.22 251.968C1729.91 251.559 1729.6 251.124 1729.3 250.669C1728.74 249.832 1728.2 248.929 1727.71 247.999C1727.26 247.146 1726.85 246.271 1726.51 245.405C1725.99 244.098 1725.62 242.812 1725.48 241.655C1725.43 241.31 1725.41 240.977 1725.41 240.658C1725.41 239.923 1725.43 239.258 1725.48 238.656C1725.56 237.581 1725.71 236.706 1725.97 235.987C1726.62 234.188 1727.91 233.359 1730.22 232.783C1731.83 232.379 1737.59 231.93 1743.83 231.547C1749.12 231.222 1754.76 230.945 1758.51 230.781H1761.05H1799.62C1806.56 230.781 1807.5 233.985 1807.5 237.855C1807.5 241.726 1803.49 254.54 1796.69 254.54Z" fill="#0C0F23"/>
<path d="M1763.05 256.008C1771.99 255.519 1791.24 254.54 1796.69 254.54C1803.49 254.54 1807.5 241.726 1807.5 237.855C1807.5 233.985 1806.56 230.781 1799.62 230.781C1794.45 230.781 1773.16 230.781 1761.05 230.781M1763.05 256.008C1758.96 255.904 1752.86 255.752 1747.3 255.619M1763.05 256.008C1762.29 255.416 1761.36 254.617 1760.38 253.66M1747.3 255.619C1740.94 255.467 1735.3 255.341 1734.22 255.341C1733.56 255.341 1732.64 254.701 1731.64 253.66M1747.3 255.619C1746.77 255.091 1746.15 254.424 1745.48 253.66M1738.89 241.593C1738.89 240.544 1738.93 239.563 1739.03 238.656M1738.89 241.593L1725.48 241.655M1738.89 241.593L1752.83 241.655M1738.89 241.593C1738.89 242.749 1739.26 244.055 1739.87 245.405M1743.83 231.547C1749.12 231.222 1754.76 230.945 1758.51 230.781C1759.3 230.781 1760.15 230.781 1761.05 230.781M1743.83 231.547C1737.59 231.93 1731.83 232.379 1730.22 232.783C1727.91 233.359 1726.62 234.188 1725.97 235.987M1743.83 231.547C1741.76 231.97 1740.47 233.283 1739.73 235.319M1761.05 230.781C1759.16 230.954 1755.99 231.987 1754.13 234.652M1725.97 235.987L1739.73 235.319M1725.97 235.987C1725.71 236.706 1725.56 237.581 1725.48 238.656M1739.73 235.319L1754.13 234.652M1739.73 235.319C1739.38 236.277 1739.16 237.395 1739.03 238.656M1754.13 234.652C1753.51 235.532 1753.04 236.591 1752.81 237.855M1752.81 237.855C1752.7 238.434 1752.64 239.056 1752.64 239.724C1752.64 240.364 1752.71 241.01 1752.83 241.655M1752.81 237.855L1739.03 238.656M1739.03 238.656H1725.48M1725.48 238.656C1725.43 239.258 1725.41 239.923 1725.41 240.658C1725.41 240.977 1725.43 241.31 1725.48 241.655M1725.48 241.655C1725.62 242.812 1725.99 244.098 1726.51 245.405M1752.83 241.655C1753.07 242.915 1753.53 244.177 1754.13 245.405M1754.13 245.405H1739.87M1754.13 245.405C1754.56 246.291 1755.07 247.16 1755.63 247.999M1739.87 245.405H1726.51M1739.87 245.405C1740.25 246.261 1740.72 247.135 1741.25 247.999M1726.51 245.405C1726.85 246.271 1727.26 247.146 1727.71 247.999M1727.71 247.999H1741.25M1727.71 247.999C1728.2 248.929 1728.74 249.832 1729.3 250.669M1741.25 247.999H1755.63M1741.25 247.999C1741.81 248.91 1742.42 249.811 1743.06 250.669M1755.63 247.999C1756.24 248.932 1756.92 249.828 1757.62 250.669M1743.06 250.669H1757.62M1743.06 250.669H1729.3M1743.06 250.669C1743.39 251.115 1743.73 251.549 1744.06 251.968M1757.62 250.669C1757.99 251.118 1758.37 251.552 1758.74 251.968M1729.3 250.669C1729.6 251.124 1729.91 251.559 1730.22 251.968M1730.22 251.968H1744.06M1730.22 251.968C1730.7 252.603 1731.18 253.175 1731.64 253.66M1744.06 251.968H1758.74M1744.06 251.968C1744.54 252.569 1745.02 253.137 1745.48 253.66M1758.74 251.968C1759.3 252.573 1759.85 253.14 1760.38 253.66M1760.38 253.66H1745.48M1745.48 253.66H1731.64M1761.72 251.968L1796.29 251.336C1799.13 249.067 1804.83 243.355 1804.83 238.656C1804.83 232.783 1803.09 233.451 1797.35 233.451C1791.61 233.451 1761.81 233.451 1759.71 233.451C1757.62 233.451 1754.13 234.043 1754.13 239.724C1754.13 244.269 1759.19 249.78 1761.72 251.968Z" stroke="#27AE60"/>
<path d="M1764.82 249.733C1764.82 250.632 1764.2 251.235 1763.58 251.235C1762.97 251.235 1762.35 250.632 1762.35 249.733C1762.35 248.833 1762.97 248.23 1763.58 248.23C1764.2 248.23 1764.82 248.833 1764.82 249.733Z" fill="#0C0F23" stroke="#27AE60"/>
<path d="M1764.29 249.73C1764.29 250.363 1763.88 250.698 1763.58 250.698C1763.29 250.698 1762.88 250.363 1762.88 249.73C1762.88 249.097 1763.29 248.762 1763.58 248.762C1763.88 248.762 1764.29 249.097 1764.29 249.73Z" fill="#0C0F23" stroke="#27AE60"/>
<path d="M1769.36 248.135C1769.36 249.034 1768.74 249.637 1768.12 249.637C1767.51 249.637 1766.89 249.034 1766.89 248.135C1766.89 247.236 1767.51 246.633 1768.12 246.633C1768.74 246.633 1769.36 247.236 1769.36 248.135Z" fill="#0C0F23" stroke="#27AE60"/>
<path d="M1768.82 248.132C1768.82 248.766 1768.42 249.101 1768.12 249.101C1767.82 249.101 1767.42 248.766 1767.42 248.132C1767.42 247.499 1767.82 247.164 1768.12 247.164C1768.42 247.164 1768.82 247.499 1768.82 248.132Z" fill="#0C0F23" stroke="#27AE60"/>
<path d="M1773.36 249.201C1773.36 250.101 1772.74 250.703 1772.13 250.703C1771.51 250.703 1770.89 250.101 1770.89 249.201C1770.89 248.302 1771.51 247.699 1772.13 247.699C1772.74 247.699 1773.36 248.302 1773.36 249.201Z" fill="#0C0F23" stroke="#27AE60"/>
<path d="M1772.83 249.199C1772.83 249.832 1772.43 250.167 1772.13 250.167C1771.83 250.167 1771.43 249.832 1771.43 249.199C1771.43 248.565 1771.83 248.23 1772.13 248.23C1772.43 248.23 1772.83 248.565 1772.83 249.199Z" fill="#0C0F23" stroke="#27AE60"/>
<path d="M1777.37 249.201C1777.37 250.101 1776.75 250.703 1776.13 250.703C1775.51 250.703 1774.9 250.101 1774.9 249.201C1774.9 248.302 1775.51 247.699 1776.13 247.699C1776.75 247.699 1777.37 248.302 1777.37 249.201Z" fill="#0C0F23" stroke="#27AE60"/>
<path d="M1776.83 249.199C1776.83 249.832 1776.43 250.167 1776.13 250.167C1775.83 250.167 1775.43 249.832 1775.43 249.199C1775.43 248.565 1775.83 248.23 1776.13 248.23C1776.43 248.23 1776.83 248.565 1776.83 249.199Z" fill="#0C0F23" stroke="#27AE60"/>
<path d="M1781.37 248.666C1781.37 249.565 1780.75 250.168 1780.14 250.168C1779.52 250.168 1778.9 249.565 1778.9 248.666C1778.9 247.767 1779.52 247.164 1780.14 247.164C1780.75 247.164 1781.37 247.767 1781.37 248.666Z" fill="#0C0F23" stroke="#27AE60"/>
<path d="M1780.84 248.664C1780.84 249.297 1780.43 249.632 1780.14 249.632C1779.84 249.632 1779.43 249.297 1779.43 248.664C1779.43 248.03 1779.84 247.695 1780.14 247.695C1780.43 247.695 1780.84 248.03 1780.84 248.664Z" fill="#0C0F23" stroke="#27AE60"/>
<path d="M1785.38 248.666C1785.38 249.565 1784.76 250.168 1784.14 250.168C1783.52 250.168 1782.9 249.565 1782.9 248.666C1782.9 247.767 1783.52 247.164 1784.14 247.164C1784.76 247.164 1785.38 247.767 1785.38 248.666Z" fill="#0C0F23" stroke="#27AE60"/>
<path d="M1784.84 248.664C1784.84 249.297 1784.44 249.632 1784.14 249.632C1783.84 249.632 1783.44 249.297 1783.44 248.664C1783.44 248.03 1783.84 247.695 1784.14 247.695C1784.44 247.695 1784.84 248.03 1784.84 248.664Z" fill="#0C0F23" stroke="#27AE60"/>
<path d="M1789.38 248.666C1789.38 249.565 1788.76 250.168 1788.14 250.168C1787.53 250.168 1786.91 249.565 1786.91 248.666C1786.91 247.767 1787.53 247.164 1788.14 247.164C1788.76 247.164 1789.38 247.767 1789.38 248.666Z" fill="#0C0F23" stroke="#27AE60"/>
<path d="M1788.84 248.664C1788.84 249.297 1788.44 249.632 1788.14 249.632C1787.85 249.632 1787.44 249.297 1787.44 248.664C1787.44 248.03 1787.85 247.695 1788.14 247.695C1788.44 247.695 1788.84 248.03 1788.84 248.664Z" fill="#0C0F23" stroke="#27AE60"/>
<path d="M1793.38 247.6C1793.38 248.499 1792.77 249.102 1792.15 249.102C1791.53 249.102 1790.91 248.499 1790.91 247.6C1790.91 246.701 1791.53 246.098 1792.15 246.098C1792.77 246.098 1793.38 246.701 1793.38 247.6Z" fill="#0C0F23" stroke="#27AE60"/>
<path d="M1792.85 247.597C1792.85 248.23 1792.45 248.565 1792.15 248.565C1791.85 248.565 1791.45 248.23 1791.45 247.597C1791.45 246.964 1791.85 246.629 1792.15 246.629C1792.45 246.629 1792.85 246.964 1792.85 247.597Z" fill="#0C0F23" stroke="#27AE60"/>
<path d="M1797.39 248.666C1797.39 249.565 1796.77 250.168 1796.15 250.168C1795.54 250.168 1794.92 249.565 1794.92 248.666C1794.92 247.767 1795.54 247.164 1796.15 247.164C1796.77 247.164 1797.39 247.767 1797.39 248.666Z" fill="#0C0F23" stroke="#27AE60"/>
<path d="M1796.85 248.664C1796.85 249.297 1796.45 249.632 1796.15 249.632C1795.85 249.632 1795.45 249.297 1795.45 248.664C1795.45 248.03 1795.85 247.695 1796.15 247.695C1796.45 247.695 1796.85 248.03 1796.85 248.664Z" fill="#0C0F23" stroke="#27AE60"/>
<path d="M1803.26 238.921C1803.26 240.828 1802.06 242.158 1800.82 242.158C1799.58 242.158 1798.39 240.828 1798.39 238.921C1798.39 237.014 1799.58 235.684 1800.82 235.684C1802.06 235.684 1803.26 237.014 1803.26 238.921Z" fill="#0C0F23" stroke="#27AE60"/>
<path d="M1802.36 238.924C1802.36 239.585 1802.16 240.163 1801.86 240.564C1801.56 240.966 1801.19 241.165 1800.82 241.165C1800.46 241.165 1800.09 240.966 1799.79 240.564C1799.49 240.163 1799.29 239.585 1799.29 238.924C1799.29 238.264 1799.49 237.686 1799.79 237.284C1800.09 236.883 1800.46 236.684 1800.82 236.684C1801.19 236.684 1801.56 236.883 1801.86 237.284C1802.16 237.686 1802.36 238.264 1802.36 238.924Z" fill="#0C0F23" stroke="#27AE60"/>
<path d="M1761.35 239.188C1761.35 241.233 1760.04 242.692 1758.65 242.692C1757.25 242.692 1755.94 241.233 1755.94 239.188C1755.94 237.143 1757.25 235.684 1758.65 235.684C1760.04 235.684 1761.35 237.143 1761.35 239.188Z" fill="#0C0F23" stroke="#27AE60"/>
<path d="M1760.36 239.19C1760.36 239.903 1760.15 240.529 1759.82 240.965C1759.49 241.402 1759.07 241.627 1758.65 241.627C1758.22 241.627 1757.81 241.402 1757.48 240.965C1757.15 240.529 1756.93 239.903 1756.93 239.19C1756.93 238.478 1757.15 237.852 1757.48 237.415C1757.81 236.979 1758.22 236.754 1758.65 236.754C1759.07 236.754 1759.49 236.979 1759.82 237.415C1760.15 237.852 1760.36 238.478 1760.36 239.19Z" fill="#0C0F23" stroke="#27AE60"/>
</svg>
