<svg width="1044" height="178" viewBox="0 0 1044 178" fill="none" xmlns="http://www.w3.org/2000/svg">
<path d="M50.9407 161.812C78.0026 161.812 99.9407 139.874 99.9407 112.813C99.9407 85.7506 78.0026 63.8125 50.9407 63.8125C23.8787 63.8125 1.94067 85.7506 1.94067 112.813C1.94067 139.874 23.8787 161.812 50.9407 161.812Z" stroke="#27AE60" stroke-width="2" stroke-miterlimit="10"/>
<path d="M200.062 137.879C202.547 137.879 204.562 135.864 204.562 133.379C204.562 130.894 202.547 128.879 200.062 128.879C197.577 128.879 195.562 130.894 195.562 133.379C195.562 135.864 197.577 137.879 200.062 137.879Z" stroke="#27AE60" stroke-width="2" stroke-miterlimit="10"/>
<path d="M302.393 137.879C304.879 137.879 306.893 135.864 306.893 133.379C306.893 130.894 304.879 128.879 302.393 128.879C299.908 128.879 297.893 130.894 297.893 133.379C297.893 135.864 299.908 137.879 302.393 137.879Z" stroke="#27AE60" stroke-width="2" stroke-miterlimit="10"/>
<path d="M404.922 137.879C407.407 137.879 409.422 135.864 409.422 133.379C409.422 130.894 407.407 128.879 404.922 128.879C402.437 128.879 400.422 130.894 400.422 133.379C400.422 135.864 402.437 137.879 404.922 137.879Z" stroke="#27AE60" stroke-width="2" stroke-miterlimit="10"/>
<path d="M507.45 137.879C509.936 137.879 511.95 135.864 511.95 133.379C511.95 130.894 509.936 128.879 507.45 128.879C504.965 128.879 502.95 130.894 502.95 133.379C502.95 135.864 504.965 137.879 507.45 137.879Z" stroke="#27AE60" stroke-width="2" stroke-miterlimit="10"/>
<path d="M1012.21 137.879C1014.69 137.879 1016.71 135.864 1016.71 133.379C1016.71 130.894 1014.69 128.879 1012.21 128.879C1009.72 128.879 1007.71 130.894 1007.71 133.379C1007.71 135.864 1009.72 137.879 1012.21 137.879Z" stroke="#27AE60" stroke-width="2" stroke-miterlimit="10"/>
<path d="M601.762 149.242C610.598 149.242 617.762 142.079 617.762 133.242C617.762 124.406 610.598 117.242 601.762 117.242C592.925 117.242 585.762 124.406 585.762 133.242C585.762 142.079 592.925 149.242 601.762 149.242Z" stroke="#27AE60" stroke-width="2" stroke-miterlimit="10"/>
<path d="M807.417 142.75C812.664 142.75 816.917 138.497 816.917 133.25C816.917 128.003 812.664 123.75 807.417 123.75C802.171 123.75 797.917 128.003 797.917 133.25C797.917 138.497 802.171 142.75 807.417 142.75Z" stroke="#27AE60" stroke-width="2" stroke-miterlimit="10"/>
<path d="M910.734 142.75C915.981 142.75 920.234 138.497 920.234 133.25C920.234 128.003 915.981 123.75 910.734 123.75C905.488 123.75 901.234 128.003 901.234 133.25C901.234 138.497 905.488 142.75 910.734 142.75Z" stroke="#27AE60" stroke-width="2" stroke-miterlimit="10"/>
<path d="M706.233 149.578C715.163 149.578 722.401 142.339 722.401 133.41C722.401 124.481 715.163 117.242 706.233 117.242C697.304 117.242 690.065 124.481 690.065 133.41C690.065 142.339 697.304 149.578 706.233 149.578Z" stroke="#27AE60" stroke-width="2" stroke-miterlimit="10"/>
<path d="M734.034 133.41H677.841" stroke="#27AE60" stroke-width="2" stroke-miterlimit="10" stroke-linecap="round"/>
<path d="M414.027 145.836C430.983 164.37 455.235 176.003 482.445 176.003H569.003C638.012 176.003 694.797 123.555 701.698 56.3203" stroke="#27AE60" stroke-width="2" stroke-miterlimit="10" stroke-linecap="round"/>
<path d="M429.263 146.169L412.951 145.04L412.964 161.486" stroke="#27AE60" stroke-width="2" stroke-miterlimit="10" stroke-linecap="round"/>
<path d="M725.098 1.21215L717.269 5.38672L727.845 25.2208L735.674 21.0462L725.098 1.21215Z" stroke="#27AE60" stroke-width="2" stroke-miterlimit="10" stroke-linejoin="round"/>
<path d="M720.232 39.165L701.698 4.66016C709.191 5.64601 715.895 10.1809 719.641 17.2791C723.584 24.3772 723.387 32.4612 720.232 39.165Z" stroke="#27AE60" stroke-width="2" stroke-miterlimit="10" stroke-linecap="round" stroke-linejoin="round"/>
<path d="M704.459 9.78516L687.305 33.0513L717.472 34.0371" stroke="#27AE60" stroke-width="2" stroke-miterlimit="10" stroke-linecap="round" stroke-linejoin="round"/>
<path d="M687.305 33.0572L710.768 22.0156" stroke="#27AE60" stroke-width="2" stroke-miterlimit="10" stroke-linecap="round" stroke-linejoin="round"/>
<path d="M212.913 112.909V106.797" stroke="#27AE60" stroke-miterlimit="10" stroke-linecap="round"/>
<path d="M209.561 109.953H203.449" stroke="#27AE60" stroke-miterlimit="10" stroke-linecap="round"/>
<path d="M200.294 112.909V106.797" stroke="#27AE60" stroke-miterlimit="10" stroke-linecap="round"/>
<path d="M196.942 109.953H190.633" stroke="#27AE60" stroke-miterlimit="10" stroke-linecap="round"/>
<path d="M288.626 160.032V153.723" stroke="#27AE60" stroke-miterlimit="10" stroke-linecap="round"/>
<path d="M291.978 156.879H298.288" stroke="#27AE60" stroke-miterlimit="10" stroke-linecap="round"/>
<path d="M310.906 160.032V153.723" stroke="#27AE60" stroke-miterlimit="10" stroke-linecap="round"/>
<path d="M316.23 160.032V153.723" stroke="#27AE60" stroke-miterlimit="10" stroke-linecap="round"/>
<path d="M307.555 156.879H301.442" stroke="#27AE60" stroke-miterlimit="10" stroke-linecap="round"/>
<path d="M491.712 160.032V153.723" stroke="#27AE60" stroke-miterlimit="10" stroke-linecap="round"/>
<path d="M495.063 156.879H501.373" stroke="#27AE60" stroke-miterlimit="10" stroke-linecap="round"/>
<path d="M513.992 160.032V153.723" stroke="#27AE60" stroke-miterlimit="10" stroke-linecap="round"/>
<path d="M519.316 160.032V153.723" stroke="#27AE60" stroke-miterlimit="10" stroke-linecap="round"/>
<path d="M524.245 160.032V153.723" stroke="#27AE60" stroke-miterlimit="10" stroke-linecap="round"/>
<path d="M510.64 156.879H504.528" stroke="#27AE60" stroke-miterlimit="10" stroke-linecap="round"/>
<path d="M715.697 171.659V165.547" stroke="#27AE60" stroke-miterlimit="10" stroke-linecap="round"/>
<path d="M720.824 171.659V165.547" stroke="#27AE60" stroke-miterlimit="10" stroke-linecap="round"/>
<path d="M725.95 171.659V165.547" stroke="#27AE60" stroke-miterlimit="10" stroke-linecap="round"/>
<path d="M692.234 171.659V165.547" stroke="#27AE60" stroke-miterlimit="10" stroke-linecap="round"/>
<path d="M687.108 171.659V165.547" stroke="#27AE60" stroke-miterlimit="10" stroke-linecap="round"/>
<path d="M697.558 171.659V165.547" stroke="#27AE60" stroke-miterlimit="10" stroke-linecap="round"/>
<path d="M702.684 171.659V165.547" stroke="#27AE60" stroke-miterlimit="10" stroke-linecap="round"/>
<path d="M712.345 168.703H706.233" stroke="#27AE60" stroke-miterlimit="10" stroke-linecap="round"/>
<path d="M815.268 107.778V101.469" stroke="#27AE60" stroke-miterlimit="10" stroke-linecap="round"/>
<path d="M820.395 107.778V101.469" stroke="#27AE60" stroke-miterlimit="10" stroke-linecap="round"/>
<path d="M825.521 107.778V101.469" stroke="#27AE60" stroke-miterlimit="10" stroke-linecap="round"/>
<path d="M830.647 107.778V101.469" stroke="#27AE60" stroke-miterlimit="10" stroke-linecap="round"/>
<path d="M791.805 107.778V101.469" stroke="#27AE60" stroke-miterlimit="10" stroke-linecap="round"/>
<path d="M786.481 107.778V101.469" stroke="#27AE60" stroke-miterlimit="10" stroke-linecap="round"/>
<path d="M796.931 107.778V101.469" stroke="#27AE60" stroke-miterlimit="10" stroke-linecap="round"/>
<path d="M802.058 107.778V101.469" stroke="#27AE60" stroke-miterlimit="10" stroke-linecap="round"/>
<path d="M811.916 104.625H805.607" stroke="#27AE60" stroke-miterlimit="10" stroke-linecap="round"/>
<path d="M576.889 101.274V94.9648" stroke="#27AE60" stroke-miterlimit="10" stroke-linecap="round"/>
<path d="M617.901 101.274V94.9648" stroke="#27AE60" stroke-miterlimit="10" stroke-linecap="round"/>
<path d="M623.816 101.274V94.9648" stroke="#27AE60" stroke-miterlimit="10" stroke-linecap="round"/>
<path d="M580.438 98.1172H586.551" stroke="#27AE60" stroke-miterlimit="10" stroke-linecap="round"/>
<path d="M627.759 98.1172H633.872" stroke="#27AE60" stroke-miterlimit="10" stroke-linecap="round"/>
<path d="M596.015 98.1172H589.705" stroke="#27AE60" stroke-miterlimit="10" stroke-linecap="round"/>
<path d="M604.888 98.1172H598.775" stroke="#27AE60" stroke-miterlimit="10" stroke-linecap="round"/>
<path d="M614.549 98.1172H608.437" stroke="#27AE60" stroke-miterlimit="10" stroke-linecap="round"/>
<path d="M880.729 165.155V159.043" stroke="#27AE60" stroke-miterlimit="10" stroke-linecap="round"/>
<path d="M875.208 165.155V159.043" stroke="#27AE60" stroke-miterlimit="10" stroke-linecap="round"/>
<path d="M884.081 162.199H890.193" stroke="#27AE60" stroke-miterlimit="10" stroke-linecap="round"/>
<path d="M899.657 162.199H893.545" stroke="#27AE60" stroke-miterlimit="10" stroke-linecap="round"/>
<path d="M927.064 165.155V159.043" stroke="#27AE60" stroke-miterlimit="10" stroke-linecap="round"/>
<path d="M921.543 165.155V159.043" stroke="#27AE60" stroke-miterlimit="10" stroke-linecap="round"/>
<path d="M930.416 162.199H936.528" stroke="#27AE60" stroke-miterlimit="10" stroke-linecap="round"/>
<path d="M945.992 162.199H939.88" stroke="#27AE60" stroke-miterlimit="10" stroke-linecap="round"/>
<path d="M908.727 162.199H902.417" stroke="#27AE60" stroke-miterlimit="10" stroke-linecap="round"/>
<path d="M918.191 162.199H912.079" stroke="#27AE60" stroke-miterlimit="10" stroke-linecap="round"/>
<path d="M397.464 112.909V106.797" stroke="#27AE60" stroke-miterlimit="10" stroke-linecap="round"/>
<path d="M392.338 112.909V106.797" stroke="#27AE60" stroke-miterlimit="10" stroke-linecap="round"/>
<path d="M400.816 109.953H406.928" stroke="#27AE60" stroke-miterlimit="10" stroke-linecap="round"/>
<path d="M410.28 112.909V106.797" stroke="#27AE60" stroke-miterlimit="10" stroke-linecap="round"/>
<path d="M413.632 109.953H419.942" stroke="#27AE60" stroke-miterlimit="10" stroke-linecap="round"/>
<path d="M1034.13 109.953H1028.02" stroke="#27AE60" stroke-miterlimit="10" stroke-linecap="round"/>
<path d="M1043 109.953H1036.69" stroke="#27AE60" stroke-miterlimit="10" stroke-linecap="round"/>
<path d="M988.975 112.909V106.797" stroke="#27AE60" stroke-miterlimit="10" stroke-linecap="round"/>
<path d="M994.299 112.909V106.797" stroke="#27AE60" stroke-miterlimit="10" stroke-linecap="round"/>
<path d="M999.228 112.909V106.797" stroke="#27AE60" stroke-miterlimit="10" stroke-linecap="round"/>
<path d="M1004.55 112.909V106.797" stroke="#27AE60" stroke-miterlimit="10" stroke-linecap="round"/>
<path d="M1009.48 112.909V106.797" stroke="#27AE60" stroke-miterlimit="10" stroke-linecap="round"/>
<path d="M1014.8 112.909V106.797" stroke="#27AE60" stroke-miterlimit="10" stroke-linecap="round"/>
<path d="M1019.93 112.909V106.797" stroke="#27AE60" stroke-miterlimit="10" stroke-linecap="round"/>
<path d="M1025.06 112.909V106.797" stroke="#27AE60" stroke-miterlimit="10" stroke-linecap="round"/>
</svg>
