<svg width="68" height="76" viewBox="0 0 68 76" fill="none" xmlns="http://www.w3.org/2000/svg">
<path d="M52.1665 41.1667C60.2915 43.9167 67.3332 48.4167 67.3332 54.6667V75.5H0.666504V54.6667C0.666504 48.4167 7.70817 43.9167 15.8748 41.1667L18.4582 46.3333L19.4165 48.4167C13.1665 50.3333 8.58317 53.0833 8.58317 54.6667V67.5833H26.1665L29.8332 46.4583L25.9165 38.625C28.4998 38.3333 31.2082 38.125 33.9998 38.125C36.7915 38.125 39.4998 38.3333 42.0832 38.625L38.1665 46.4583L41.8332 67.5833H59.4165V54.6667C59.4165 53.0833 54.8332 50.3333 48.5832 48.4167L49.5415 46.3333L52.1665 41.1667ZM33.9998 8.83333C29.4165 8.83333 25.6665 12.5833 25.6665 17.1667C25.6665 21.75 29.4165 25.5 33.9998 25.5C38.5832 25.5 42.3332 21.75 42.3332 17.1667C42.3332 12.5833 38.5832 8.83333 33.9998 8.83333ZM33.9998 33.8333C24.7915 33.8333 17.3332 26.375 17.3332 17.1667C17.3332 7.95833 24.7915 0.5 33.9998 0.5C43.2082 0.5 50.6665 7.95833 50.6665 17.1667C50.6665 26.375 43.2082 33.8333 33.9998 33.8333Z" fill="#56CCF2"/>
</svg>
