<svg width="425" height="21" viewBox="0 0 425 21" fill="none" xmlns="http://www.w3.org/2000/svg">
<path d="M1 8V1H47V8" stroke="#E0E0E0"/>
<path d="M45.46 12.59C45.46 12.9433 45.3933 13.3067 45.26 13.68C45.1333 14.0467 44.9633 14.4167 44.75 14.79C44.5433 15.1633 44.31 15.53 44.05 15.89C43.79 16.2433 43.53 16.58 43.27 16.9L42.78 17.33V17.37L43.42 17.26H45.6V18H41.62V17.71C41.7667 17.5567 41.9433 17.3667 42.15 17.14C42.3567 16.9133 42.57 16.6633 42.79 16.39C43.0167 16.11 43.2367 15.8167 43.45 15.51C43.67 15.1967 43.8667 14.88 44.04 14.56C44.22 14.24 44.3633 13.9233 44.47 13.61C44.5767 13.2967 44.63 13 44.63 12.72C44.63 12.3933 44.5367 12.1233 44.35 11.91C44.1633 11.69 43.88 11.58 43.5 11.58C43.2467 11.58 43 11.6333 42.76 11.74C42.52 11.84 42.3133 11.9567 42.14 12.09L41.81 11.52C42.0433 11.32 42.32 11.1633 42.64 11.05C42.96 10.9367 43.3033 10.88 43.67 10.88C43.9567 10.88 44.21 10.9233 44.43 11.01C44.65 11.09 44.8367 11.2067 44.99 11.36C45.1433 11.5133 45.26 11.6967 45.34 11.91C45.42 12.1167 45.46 12.3433 45.46 12.59ZM46.8792 14.5C46.8792 13.3 47.0726 12.3967 47.4592 11.79C47.8526 11.1833 48.4226 10.88 49.1692 10.88C49.9759 10.88 50.5592 11.18 50.9192 11.78C51.2859 12.3733 51.4692 13.28 51.4692 14.5C51.4692 15.7 51.2726 16.6033 50.8792 17.21C50.4926 17.8167 49.9226 18.12 49.1692 18.12C48.3759 18.12 47.7959 17.8033 47.4292 17.17C47.0626 16.5367 46.8792 15.6467 46.8792 14.5ZM47.7092 14.5C47.7092 14.9333 47.7359 15.33 47.7892 15.69C47.8492 16.0433 47.9392 16.35 48.0592 16.61C48.1792 16.8633 48.3292 17.0633 48.5092 17.21C48.6959 17.35 48.9159 17.42 49.1692 17.42C49.6759 17.42 50.0459 17.1867 50.2792 16.72C50.5192 16.2467 50.6392 15.5067 50.6392 14.5C50.6392 14.0733 50.6126 13.68 50.5592 13.32C50.5126 12.96 50.4292 12.65 50.3092 12.39C50.1959 12.13 50.0459 11.93 49.8592 11.79C49.6726 11.65 49.4426 11.58 49.1692 11.58C48.6692 11.58 48.2992 11.8167 48.0592 12.29C47.8259 12.7633 47.7092 13.5 47.7092 14.5Z" fill="black"/>
<path d="M47 8V1H93V8" stroke="#E0E0E0"/>
<path d="M89.34 17.42C89.5667 17.42 89.7767 17.3867 89.97 17.32C90.1633 17.2533 90.33 17.1567 90.47 17.03C90.61 16.8967 90.72 16.74 90.8 16.56C90.88 16.38 90.92 16.1833 90.92 15.97C90.92 15.5033 90.78 15.1567 90.5 14.93C90.2267 14.7033 89.8467 14.59 89.36 14.59H88.62V14.3L90.06 12.08L90.52 11.64L89.87 11.74H87.89V11H91.46V11.29L89.87 13.68L89.52 13.97V13.99L89.86 13.92C90.1267 13.9267 90.3733 13.9767 90.6 14.07C90.8267 14.1567 91.0233 14.2867 91.19 14.46C91.3567 14.6267 91.4867 14.83 91.58 15.07C91.6733 15.3033 91.72 15.57 91.72 15.87C91.72 16.23 91.6567 16.55 91.53 16.83C91.4033 17.11 91.23 17.3467 91.01 17.54C90.7967 17.7267 90.5433 17.87 90.25 17.97C89.9567 18.07 89.6467 18.12 89.32 18.12C89.02 18.12 88.75 18.0967 88.51 18.05C88.27 18.0033 88.06 17.9433 87.88 17.87L88.09 17.16C88.2433 17.2333 88.4233 17.2967 88.63 17.35C88.8433 17.3967 89.08 17.42 89.34 17.42ZM92.8792 14.5C92.8792 13.3 93.0726 12.3967 93.4592 11.79C93.8526 11.1833 94.4226 10.88 95.1692 10.88C95.9759 10.88 96.5592 11.18 96.9192 11.78C97.2859 12.3733 97.4692 13.28 97.4692 14.5C97.4692 15.7 97.2726 16.6033 96.8792 17.21C96.4926 17.8167 95.9226 18.12 95.1692 18.12C94.3759 18.12 93.7959 17.8033 93.4292 17.17C93.0626 16.5367 92.8792 15.6467 92.8792 14.5ZM93.7092 14.5C93.7092 14.9333 93.7359 15.33 93.7892 15.69C93.8492 16.0433 93.9392 16.35 94.0592 16.61C94.1792 16.8633 94.3292 17.0633 94.5092 17.21C94.6959 17.35 94.9159 17.42 95.1692 17.42C95.6759 17.42 96.0459 17.1867 96.2792 16.72C96.5192 16.2467 96.6392 15.5067 96.6392 14.5C96.6392 14.0733 96.6126 13.68 96.5592 13.32C96.5126 12.96 96.4292 12.65 96.3092 12.39C96.1959 12.13 96.0459 11.93 95.8592 11.79C95.6726 11.65 95.4426 11.58 95.1692 11.58C94.6692 11.58 94.2992 11.8167 94.0592 12.29C93.8259 12.7633 93.7092 13.5 93.7092 14.5Z" fill="black"/>
<path d="M93 8V1H139V8" stroke="#E0E0E0"/>
<path d="M138.24 15.85H137.06V18H136.28V15.85H133.2V15.52L136.52 10.89H137.06V15.15H138.24V15.85ZM136.28 12.97L136.38 12.15H136.35L136 12.83L134.59 14.74L134.11 15.23L134.81 15.15H136.28V12.97ZM138.879 14.5C138.879 13.3 139.073 12.3967 139.459 11.79C139.853 11.1833 140.423 10.88 141.169 10.88C141.976 10.88 142.559 11.18 142.919 11.78C143.286 12.3733 143.469 13.28 143.469 14.5C143.469 15.7 143.273 16.6033 142.879 17.21C142.493 17.8167 141.923 18.12 141.169 18.12C140.376 18.12 139.796 17.8033 139.429 17.17C139.063 16.5367 138.879 15.6467 138.879 14.5ZM139.709 14.5C139.709 14.9333 139.736 15.33 139.789 15.69C139.849 16.0433 139.939 16.35 140.059 16.61C140.179 16.8633 140.329 17.0633 140.509 17.21C140.696 17.35 140.916 17.42 141.169 17.42C141.676 17.42 142.046 17.1867 142.279 16.72C142.519 16.2467 142.639 15.5067 142.639 14.5C142.639 14.0733 142.613 13.68 142.559 13.32C142.513 12.96 142.429 12.65 142.309 12.39C142.196 12.13 142.046 11.93 141.859 11.79C141.673 11.65 141.443 11.58 141.169 11.58C140.669 11.58 140.299 11.8167 140.059 12.29C139.826 12.7633 139.709 13.5 139.709 14.5Z" fill="black"/>
<path d="M139 8V1H185V8" stroke="#E0E0E0"/>
<path d="M181.13 17.42C181.59 17.42 181.97 17.2867 182.27 17.02C182.57 16.7533 182.72 16.3667 182.72 15.86C182.72 15.3733 182.57 15.01 182.27 14.77C181.977 14.53 181.57 14.41 181.05 14.41L180.21 14.46V11H183.33V11.74H180.96V13.73L181.39 13.71C182.05 13.7167 182.57 13.9 182.95 14.26C183.33 14.62 183.52 15.1367 183.52 15.81C183.52 16.1833 183.457 16.5167 183.33 16.81C183.203 17.0967 183.03 17.3367 182.81 17.53C182.597 17.7233 182.343 17.87 182.05 17.97C181.757 18.07 181.443 18.12 181.11 18.12C180.81 18.12 180.557 18.1033 180.35 18.07C180.143 18.0367 179.95 17.9867 179.77 17.92L179.98 17.24C180.133 17.3 180.297 17.3467 180.47 17.38C180.65 17.4067 180.87 17.42 181.13 17.42ZM184.879 14.5C184.879 13.3 185.073 12.3967 185.459 11.79C185.853 11.1833 186.423 10.88 187.169 10.88C187.976 10.88 188.559 11.18 188.919 11.78C189.286 12.3733 189.469 13.28 189.469 14.5C189.469 15.7 189.273 16.6033 188.879 17.21C188.493 17.8167 187.923 18.12 187.169 18.12C186.376 18.12 185.796 17.8033 185.429 17.17C185.063 16.5367 184.879 15.6467 184.879 14.5ZM185.709 14.5C185.709 14.9333 185.736 15.33 185.789 15.69C185.849 16.0433 185.939 16.35 186.059 16.61C186.179 16.8633 186.329 17.0633 186.509 17.21C186.696 17.35 186.916 17.42 187.169 17.42C187.676 17.42 188.046 17.1867 188.279 16.72C188.519 16.2467 188.639 15.5067 188.639 14.5C188.639 14.0733 188.613 13.68 188.559 13.32C188.513 12.96 188.429 12.65 188.309 12.39C188.196 12.13 188.046 11.93 187.859 11.79C187.673 11.65 187.443 11.58 187.169 11.58C186.669 11.58 186.299 11.8167 186.059 12.29C185.826 12.7633 185.709 13.5 185.709 14.5Z" fill="black"/>
<path d="M185 8V1H231V8" stroke="#E0E0E0"/>
<path d="M229.92 15.89C229.92 16.1967 229.873 16.4867 229.78 16.76C229.687 17.0267 229.55 17.2633 229.37 17.47C229.19 17.67 228.967 17.83 228.7 17.95C228.433 18.0633 228.13 18.12 227.79 18.12C227.457 18.12 227.157 18.0667 226.89 17.96C226.623 17.8533 226.393 17.6967 226.2 17.49C226.007 17.2767 225.857 17.0167 225.75 16.71C225.65 16.4033 225.6 16.05 225.6 15.65C225.6 14.99 225.683 14.3833 225.85 13.83C226.023 13.27 226.26 12.7833 226.56 12.37C226.86 11.9567 227.213 11.6233 227.62 11.37C228.033 11.11 228.48 10.9467 228.96 10.88L229.13 11.52C228.757 11.5867 228.417 11.7133 228.11 11.9C227.803 12.0867 227.533 12.3167 227.3 12.59C227.073 12.8633 226.887 13.17 226.74 13.51C226.593 13.85 226.493 14.2 226.44 14.56C226.547 14.38 226.727 14.2167 226.98 14.07C227.233 13.9167 227.543 13.84 227.91 13.84C228.537 13.84 229.027 14.02 229.38 14.38C229.74 14.74 229.92 15.2433 229.92 15.89ZM229.09 15.97C229.09 15.4967 228.98 15.14 228.76 14.9C228.54 14.66 228.2 14.54 227.74 14.54C227.413 14.54 227.13 14.62 226.89 14.78C226.657 14.94 226.493 15.12 226.4 15.32C226.387 15.4133 226.38 15.49 226.38 15.55C226.38 15.61 226.38 15.6767 226.38 15.75C226.38 15.9567 226.407 16.16 226.46 16.36C226.52 16.56 226.61 16.74 226.73 16.9C226.85 17.0533 226.997 17.18 227.17 17.28C227.35 17.3733 227.56 17.42 227.8 17.42C227.993 17.42 228.167 17.3833 228.32 17.31C228.48 17.2367 228.617 17.1367 228.73 17.01C228.843 16.8833 228.93 16.73 228.99 16.55C229.057 16.37 229.09 16.1767 229.09 15.97ZM230.879 14.5C230.879 13.3 231.073 12.3967 231.459 11.79C231.853 11.1833 232.423 10.88 233.169 10.88C233.976 10.88 234.559 11.18 234.919 11.78C235.286 12.3733 235.469 13.28 235.469 14.5C235.469 15.7 235.273 16.6033 234.879 17.21C234.493 17.8167 233.923 18.12 233.169 18.12C232.376 18.12 231.796 17.8033 231.429 17.17C231.063 16.5367 230.879 15.6467 230.879 14.5ZM231.709 14.5C231.709 14.9333 231.736 15.33 231.789 15.69C231.849 16.0433 231.939 16.35 232.059 16.61C232.179 16.8633 232.329 17.0633 232.509 17.21C232.696 17.35 232.916 17.42 233.169 17.42C233.676 17.42 234.046 17.1867 234.279 16.72C234.519 16.2467 234.639 15.5067 234.639 14.5C234.639 14.0733 234.613 13.68 234.559 13.32C234.513 12.96 234.429 12.65 234.309 12.39C234.196 12.13 234.046 11.93 233.859 11.79C233.673 11.65 233.443 11.58 233.169 11.58C232.669 11.58 232.299 11.8167 232.059 12.29C231.826 12.7633 231.709 13.5 231.709 14.5Z" fill="black"/>
<path d="M231 8V1H277V8" stroke="#E0E0E0"/>
<path d="M272.1 18L274.61 12.14L275.05 11.65L274.46 11.74H271.61V11H275.79V11.27L272.91 18H272.1ZM276.879 14.5C276.879 13.3 277.073 12.3967 277.459 11.79C277.853 11.1833 278.423 10.88 279.169 10.88C279.976 10.88 280.559 11.18 280.919 11.78C281.286 12.3733 281.469 13.28 281.469 14.5C281.469 15.7 281.273 16.6033 280.879 17.21C280.493 17.8167 279.923 18.12 279.169 18.12C278.376 18.12 277.796 17.8033 277.429 17.17C277.063 16.5367 276.879 15.6467 276.879 14.5ZM277.709 14.5C277.709 14.9333 277.736 15.33 277.789 15.69C277.849 16.0433 277.939 16.35 278.059 16.61C278.179 16.8633 278.329 17.0633 278.509 17.21C278.696 17.35 278.916 17.42 279.169 17.42C279.676 17.42 280.046 17.1867 280.279 16.72C280.519 16.2467 280.639 15.5067 280.639 14.5C280.639 14.0733 280.613 13.68 280.559 13.32C280.513 12.96 280.429 12.65 280.309 12.39C280.196 12.13 280.046 11.93 279.859 11.79C279.673 11.65 279.443 11.58 279.169 11.58C278.669 11.58 278.299 11.8167 278.059 12.29C277.826 12.7633 277.709 13.5 277.709 14.5Z" fill="black"/>
<path d="M277 8V1H323V8" stroke="#E0E0E0"/>
<path d="M317.68 16.33C317.68 15.91 317.79 15.5467 318.01 15.24C318.23 14.9267 318.573 14.6433 319.04 14.39C318.873 14.29 318.717 14.1867 318.57 14.08C318.43 13.9667 318.303 13.84 318.19 13.7C318.083 13.56 317.997 13.4033 317.93 13.23C317.87 13.0567 317.84 12.8567 317.84 12.63C317.84 12.37 317.883 12.1333 317.97 11.92C318.063 11.7067 318.193 11.5233 318.36 11.37C318.533 11.2167 318.737 11.0967 318.97 11.01C319.21 10.9233 319.48 10.88 319.78 10.88C320.06 10.88 320.313 10.92 320.54 11C320.767 11.08 320.957 11.19 321.11 11.33C321.27 11.47 321.393 11.6367 321.48 11.83C321.567 12.0233 321.61 12.2367 321.61 12.47C321.61 12.85 321.523 13.1867 321.35 13.48C321.177 13.7667 320.89 14.05 320.49 14.33C320.663 14.43 320.827 14.54 320.98 14.66C321.14 14.78 321.277 14.9133 321.39 15.06C321.51 15.2067 321.603 15.3733 321.67 15.56C321.737 15.74 321.77 15.9467 321.77 16.18C321.77 16.4667 321.723 16.73 321.63 16.97C321.537 17.2033 321.4 17.4067 321.22 17.58C321.04 17.7467 320.82 17.88 320.56 17.98C320.3 18.0733 320.003 18.12 319.67 18.12C319.35 18.12 319.067 18.0733 318.82 17.98C318.573 17.8867 318.363 17.76 318.19 17.6C318.023 17.44 317.897 17.2533 317.81 17.04C317.723 16.82 317.68 16.5833 317.68 16.33ZM320.99 16.23C320.99 16.03 320.95 15.8567 320.87 15.71C320.79 15.5567 320.683 15.42 320.55 15.3C320.423 15.1733 320.277 15.06 320.11 14.96C319.943 14.86 319.77 14.7633 319.59 14.67C319.183 14.8967 318.893 15.15 318.72 15.43C318.547 15.71 318.46 15.9767 318.46 16.23C318.46 16.39 318.487 16.5433 318.54 16.69C318.593 16.8367 318.673 16.9633 318.78 17.07C318.887 17.1767 319.017 17.2633 319.17 17.33C319.33 17.39 319.513 17.42 319.72 17.42C319.887 17.42 320.047 17.3967 320.2 17.35C320.353 17.2967 320.487 17.2233 320.6 17.13C320.72 17.03 320.813 16.9067 320.88 16.76C320.953 16.6067 320.99 16.43 320.99 16.23ZM318.62 12.61C318.62 12.7967 318.657 12.9633 318.73 13.11C318.803 13.25 318.9 13.3767 319.02 13.49C319.147 13.6033 319.29 13.71 319.45 13.81C319.61 13.9033 319.777 13.9933 319.95 14.08C320.25 13.8467 320.47 13.6167 320.61 13.39C320.757 13.1633 320.83 12.9133 320.83 12.64C320.83 12.3 320.723 12.04 320.51 11.86C320.303 11.6733 320.053 11.58 319.76 11.58C319.58 11.58 319.42 11.61 319.28 11.67C319.14 11.73 319.02 11.8067 318.92 11.9C318.82 11.9933 318.743 12.1033 318.69 12.23C318.643 12.35 318.62 12.4767 318.62 12.61ZM322.879 14.5C322.879 13.3 323.073 12.3967 323.459 11.79C323.853 11.1833 324.423 10.88 325.169 10.88C325.976 10.88 326.559 11.18 326.919 11.78C327.286 12.3733 327.469 13.28 327.469 14.5C327.469 15.7 327.273 16.6033 326.879 17.21C326.493 17.8167 325.923 18.12 325.169 18.12C324.376 18.12 323.796 17.8033 323.429 17.17C323.063 16.5367 322.879 15.6467 322.879 14.5ZM323.709 14.5C323.709 14.9333 323.736 15.33 323.789 15.69C323.849 16.0433 323.939 16.35 324.059 16.61C324.179 16.8633 324.329 17.0633 324.509 17.21C324.696 17.35 324.916 17.42 325.169 17.42C325.676 17.42 326.046 17.1867 326.279 16.72C326.519 16.2467 326.639 15.5067 326.639 14.5C326.639 14.0733 326.613 13.68 326.559 13.32C326.513 12.96 326.429 12.65 326.309 12.39C326.196 12.13 326.046 11.93 325.859 11.79C325.673 11.65 325.443 11.58 325.169 11.58C324.669 11.58 324.299 11.8167 324.059 12.29C323.826 12.7633 323.709 13.5 323.709 14.5Z" fill="black"/>
<path d="M323 8V1H369V8" stroke="#E0E0E0"/>
<path d="M363.52 13.12C363.52 12.8 363.567 12.5033 363.66 12.23C363.753 11.9567 363.89 11.72 364.07 11.52C364.25 11.32 364.473 11.1633 364.74 11.05C365.013 10.9367 365.33 10.88 365.69 10.88C366.37 10.88 366.9 11.1 367.28 11.54C367.66 11.98 367.85 12.6 367.85 13.4C367.85 14.1533 367.763 14.8133 367.59 15.38C367.423 15.94 367.19 16.4133 366.89 16.8C366.59 17.1867 366.233 17.49 365.82 17.71C365.413 17.9233 364.97 18.06 364.49 18.12L364.31 17.48C364.697 17.42 365.043 17.3067 365.35 17.14C365.663 16.9733 365.93 16.7633 366.15 16.51C366.377 16.2567 366.56 15.97 366.7 15.65C366.84 15.3233 366.937 14.97 366.99 14.59C366.81 14.8033 366.61 14.9533 366.39 15.04C366.177 15.12 365.893 15.16 365.54 15.16C365.267 15.16 365.007 15.1167 364.76 15.03C364.52 14.9367 364.307 14.8033 364.12 14.63C363.933 14.4567 363.787 14.2433 363.68 13.99C363.573 13.7367 363.52 13.4467 363.52 13.12ZM364.35 13.04C364.35 13.5133 364.473 13.87 364.72 14.11C364.973 14.3433 365.303 14.46 365.71 14.46C366.037 14.46 366.317 14.4067 366.55 14.3C366.783 14.1933 366.95 14.0533 367.05 13.88C367.063 13.7933 367.07 13.7167 367.07 13.65C367.07 13.5833 367.07 13.5133 367.07 13.44C367.07 13.2 367.04 12.97 366.98 12.75C366.927 12.5233 366.843 12.3233 366.73 12.15C366.617 11.97 366.467 11.83 366.28 11.73C366.1 11.63 365.887 11.58 365.64 11.58C365.233 11.58 364.917 11.71 364.69 11.97C364.463 12.2233 364.35 12.58 364.35 13.04ZM368.879 14.5C368.879 13.3 369.073 12.3967 369.459 11.79C369.853 11.1833 370.423 10.88 371.169 10.88C371.976 10.88 372.559 11.18 372.919 11.78C373.286 12.3733 373.469 13.28 373.469 14.5C373.469 15.7 373.273 16.6033 372.879 17.21C372.493 17.8167 371.923 18.12 371.169 18.12C370.376 18.12 369.796 17.8033 369.429 17.17C369.063 16.5367 368.879 15.6467 368.879 14.5ZM369.709 14.5C369.709 14.9333 369.736 15.33 369.789 15.69C369.849 16.0433 369.939 16.35 370.059 16.61C370.179 16.8633 370.329 17.0633 370.509 17.21C370.696 17.35 370.916 17.42 371.169 17.42C371.676 17.42 372.046 17.1867 372.279 16.72C372.519 16.2467 372.639 15.5067 372.639 14.5C372.639 14.0733 372.613 13.68 372.559 13.32C372.513 12.96 372.429 12.65 372.309 12.39C372.196 12.13 372.046 11.93 371.859 11.79C371.673 11.65 371.443 11.58 371.169 11.58C370.669 11.58 370.299 11.8167 370.059 12.29C369.826 12.7633 369.709 13.5 369.709 14.5Z" fill="black"/>
<path d="M369 8V1H415V8" stroke="#E0E0E0"/>
<path d="M410.08 17.26H411.48V12.42L411.58 11.83L411.18 12.3L410.08 13.09L409.7 12.58L411.9 10.88H412.26V17.26H413.63V18H410.08V17.26ZM414.879 14.5C414.879 13.3 415.073 12.3967 415.459 11.79C415.853 11.1833 416.423 10.88 417.169 10.88C417.976 10.88 418.559 11.18 418.919 11.78C419.286 12.3733 419.469 13.28 419.469 14.5C419.469 15.7 419.273 16.6033 418.879 17.21C418.493 17.8167 417.923 18.12 417.169 18.12C416.376 18.12 415.796 17.8033 415.429 17.17C415.063 16.5367 414.879 15.6467 414.879 14.5ZM415.709 14.5C415.709 14.9333 415.736 15.33 415.789 15.69C415.849 16.0433 415.939 16.35 416.059 16.61C416.179 16.8633 416.329 17.0633 416.509 17.21C416.696 17.35 416.916 17.42 417.169 17.42C417.676 17.42 418.046 17.1867 418.279 16.72C418.519 16.2467 418.639 15.5067 418.639 14.5C418.639 14.0733 418.613 13.68 418.559 13.32C418.513 12.96 418.429 12.65 418.309 12.39C418.196 12.13 418.046 11.93 417.859 11.79C417.673 11.65 417.443 11.58 417.169 11.58C416.669 11.58 416.299 11.8167 416.059 12.29C415.826 12.7633 415.709 13.5 415.709 14.5ZM420.328 14.5C420.328 13.3 420.522 12.3967 420.908 11.79C421.302 11.1833 421.872 10.88 422.618 10.88C423.425 10.88 424.008 11.18 424.368 11.78C424.735 12.3733 424.918 13.28 424.918 14.5C424.918 15.7 424.722 16.6033 424.328 17.21C423.942 17.8167 423.372 18.12 422.618 18.12C421.825 18.12 421.245 17.8033 420.878 17.17C420.512 16.5367 420.328 15.6467 420.328 14.5ZM421.158 14.5C421.158 14.9333 421.185 15.33 421.238 15.69C421.298 16.0433 421.388 16.35 421.508 16.61C421.628 16.8633 421.778 17.0633 421.958 17.21C422.145 17.35 422.365 17.42 422.618 17.42C423.125 17.42 423.495 17.1867 423.728 16.72C423.968 16.2467 424.088 15.5067 424.088 14.5C424.088 14.0733 424.062 13.68 424.008 13.32C423.962 12.96 423.878 12.65 423.758 12.39C423.645 12.13 423.495 11.93 423.308 11.79C423.122 11.65 422.892 11.58 422.618 11.58C422.118 11.58 421.748 11.8167 421.508 12.29C421.275 12.7633 421.158 13.5 421.158 14.5Z" fill="black"/>
</svg>
