<svg width="40" height="32" viewBox="0 0 40 32" fill="none" xmlns="http://www.w3.org/2000/svg">
<g clip-path="url(#clip0_114:741)">
<path d="M39.1981 3.89665C37.7558 4.53619 36.2061 4.96842 34.5794 5.16287C36.2399 4.16765 37.5148 2.59169 38.1152 0.71395C36.5367 1.65065 34.8097 2.31062 33.0088 2.66534C31.5419 1.10254 29.4521 0.125854 27.139 0.125854C22.6979 0.125854 19.0972 3.72639 19.0972 8.16719C19.0972 8.79755 19.1684 9.41121 19.3055 9.99992C12.6222 9.66446 6.69684 6.46308 2.73053 1.59785C2.03847 2.78553 1.64191 4.16704 1.64191 5.64057C1.64191 8.43054 3.0617 10.8918 5.21933 12.3339C3.94232 12.2939 2.6934 11.949 1.57684 11.328C1.57638 11.3617 1.57638 11.3954 1.57638 11.4292C1.57638 15.3254 4.34829 18.5756 8.02691 19.3144C6.84274 19.6364 5.60062 19.6836 4.39545 19.4522C5.41868 22.647 8.38856 24.9718 11.9073 25.0369C9.15518 27.1936 5.6877 28.4792 1.92027 28.4792C1.27108 28.4792 0.631082 28.4411 0.00195312 28.3668C3.56069 30.6485 7.7876 31.9798 12.3288 31.9798C27.1203 31.9798 35.2087 19.7262 35.2087 9.09979C35.2087 8.751 35.201 8.40421 35.1854 8.0594C36.7597 6.92131 38.1186 5.51168 39.1981 3.89665Z" fill="#55ACEE"/>
</g>
<defs>
<clipPath id="clip0_114:741">
<rect width="39.2" height="32" fill="white"/>
</clipPath>
</defs>
</svg>
