<svg width="125" height="125" viewBox="0 0 125 125" fill="none" xmlns="http://www.w3.org/2000/svg">
<g clip-path="url(#clip0)">
<path d="M116.667 16.6667H112.5V8.33333C112.495 3.73307 108.767 0.00520833 104.167 0H20.8333C16.2331 0.00520833 12.5052 3.73307 12.5 8.33333V16.6667H8.33333C3.73307 16.6719 0.00520833 20.3997 0 25V95.8333C0.00520833 100.434 3.73307 104.161 8.33333 104.167H49.2831L44.2831 120.833H39.5833V125H85.4167V120.833H80.7185L79.4727 116.663C86.5133 116.61 93.3768 114.448 99.1763 110.456L111.384 122.664C114.499 125.779 119.549 125.779 122.664 122.664C125.779 119.549 125.779 114.499 122.664 111.384L115.446 104.167H116.667C121.267 104.161 124.995 100.434 125 95.8333V25C124.995 20.3997 121.267 16.6719 116.667 16.6667ZM8.33333 20.8333H12.5V83.3333H16.6667V8.33333C16.6693 6.03333 18.5333 4.16927 20.8333 4.16667H104.167C106.467 4.16927 108.331 6.03333 108.333 8.33333V54.1667H112.5V20.8333H116.667C118.967 20.8359 120.831 22.7 120.833 25V87.5H114.031C114.399 85.437 114.584 83.3456 114.583 81.25C114.583 61.7211 98.6953 45.8333 79.1667 45.8333C59.638 45.8333 43.75 61.7211 43.75 81.25C43.7492 83.3456 43.9341 85.437 44.3023 87.5H4.16667V25C4.16927 22.7 6.03333 20.8362 8.33333 20.8333ZM79.1667 112.5C61.9078 112.5 47.9167 98.5089 47.9167 81.25C47.9167 63.9911 61.9078 50 79.1667 50C96.4255 50 110.417 63.9911 110.417 81.25C110.397 98.5008 96.4175 112.48 79.1667 112.5ZM4.16667 95.8333V91.6667H45.3141C46.2195 94.5987 47.5037 97.4003 49.1341 100H8.33333C6.03333 99.9974 4.16927 98.1333 4.16667 95.8333ZM48.6336 120.833L53.269 105.381C58.988 111.534 66.7104 115.449 75.0534 116.427L76.3701 120.833H48.6336ZM120.833 117.024C120.833 119.128 119.128 120.833 117.024 120.833C116.014 120.833 115.045 120.432 114.331 119.718L102.491 107.878C104.407 106.197 106.139 104.317 107.655 102.267L119.718 114.33C120.434 115.043 120.836 116.013 120.833 117.024ZM120.833 95.8333C120.831 98.1333 118.967 99.9974 116.667 100H111.28L109.978 98.6979C111.244 96.4716 112.264 94.1141 113.019 91.6667H120.833V95.8333Z" fill="#FBB03B"/>
<path d="M22.9173 60.4167H27.9467C28.4311 62.131 29.1176 63.7815 29.9915 65.3339L26.4238 68.9016C25.6103 69.7151 25.6103 71.0341 26.4238 71.8479L32.3197 77.7438C33.1332 78.5573 34.4522 78.5573 35.266 77.7438L38.8337 74.176C39.4848 74.5406 40.1512 74.875 40.8296 75.1727L42.5035 71.357C41.5181 70.924 40.5723 70.4057 39.6767 69.8086C38.8504 69.2578 37.7501 69.3669 37.048 70.069L33.7928 73.3242L30.8428 70.375L34.098 67.1198C34.8012 66.4174 34.91 65.3161 34.3585 64.4896C33.0277 62.4982 32.0988 60.2659 31.6241 57.9182C31.427 56.9479 30.5741 56.2508 29.584 56.25H25.0007V52.0833H29.584C30.5746 52.0833 31.4283 51.3854 31.6254 50.4146C32.1001 48.0669 33.029 45.8346 34.3598 43.8432C34.9108 43.0169 34.8017 41.9164 34.0993 41.2143L30.8441 37.9591L33.7936 35.0096L37.0488 38.2648C37.7509 38.9669 38.8512 39.076 39.6775 38.5253C41.6691 37.1945 43.9014 36.2656 46.2494 35.7909C47.2197 35.5935 47.9171 34.7404 47.9173 33.75V29.1667H52.084V33.75C52.084 34.7406 52.7816 35.5943 53.7525 35.7917C56.1004 36.2664 58.3327 37.1953 60.3244 38.526C61.1507 39.0768 62.2509 38.9677 62.953 38.2656L66.2082 35.0104L69.1577 37.9599L65.9025 41.2151L68.8491 44.1615L73.5783 39.4323C74.3918 38.6188 74.3918 37.2997 73.5783 36.4859L67.6824 30.5901C66.8689 29.7766 65.5499 29.7766 64.7361 30.5901L61.1684 34.1578C59.616 33.2836 57.9652 32.5971 56.2507 32.1128V27.0833C56.2507 25.9328 55.3178 25 54.1673 25H45.834C44.6835 25 43.7507 25.9328 43.7507 27.0833V32.1128C42.0363 32.5971 40.3858 33.2836 38.8335 34.1576L35.2658 30.5898C34.4522 29.7763 33.1332 29.7763 32.3194 30.5898L26.4236 36.4857C25.61 37.2992 25.61 38.6182 26.4236 39.432L29.9913 42.9997C29.1173 44.5518 28.4309 46.2023 27.9467 47.9167H22.9173C21.7668 47.9167 20.834 48.8495 20.834 50V58.3333C20.834 59.4839 21.7668 60.4167 22.9173 60.4167Z" fill="white"/>
<path d="M50.0001 47.918C46.5482 47.9174 43.7495 50.7151 43.749 54.1669C43.7485 56.3997 44.9394 58.4633 46.8727 59.5799L48.9597 55.974C47.9639 55.3977 47.6238 54.1232 48.2001 53.1273C48.7764 52.1315 50.0508 51.7914 51.0467 52.3677C51.3615 52.55 51.6232 52.8115 51.8058 53.1263L55.4123 51.0398C54.292 49.1107 52.2311 47.9219 50.0001 47.918Z" fill="white"/>
<path d="M49.9998 39.582C41.9477 39.5805 35.4188 46.1065 35.417 54.1586C35.416 59.369 38.1954 64.1839 42.7081 66.7888L44.7915 63.1802C39.81 60.3081 38.1003 53.9414 40.9725 48.9602C43.8446 43.9786 50.2113 42.269 55.1925 45.1411C56.5946 45.9497 57.7891 47.074 58.6808 48.4245L62.1537 46.1221C59.4592 42.0378 54.8928 39.5805 49.9998 39.582Z" fill="white"/>
<path d="M98.2728 38.0076L101.368 34.9125L98.4215 31.9661L95.3265 35.0615C94.2153 34.3255 92.9726 33.8104 91.6663 33.5448V29.168H87.4997V33.5448C86.1934 33.8104 84.9507 34.3255 83.8395 35.0615L80.7445 31.9661L77.7979 34.9125L80.8932 38.0076C79.7648 39.7104 79.164 41.7086 79.1663 43.7513H83.333C83.333 40.2995 86.1312 37.5013 89.583 37.5013C93.0348 37.5013 95.833 40.2995 95.833 43.7513V45.8346H104.166V41.668H99.7895C99.5239 40.3617 99.0088 39.119 98.2728 38.0076Z" fill="white"/>
<path d="M79.1673 54.168C64.2095 54.168 52.084 66.2935 52.084 81.2513C52.084 96.2091 64.2095 108.335 79.1673 108.335C94.1251 108.335 106.251 96.2091 106.251 81.2513C106.234 66.3008 94.1181 54.1849 79.1673 54.168ZM79.1673 104.168C66.5108 104.168 56.2507 93.9078 56.2507 81.2513C56.2507 68.5948 66.5108 58.3346 79.1673 58.3346C91.8238 58.3346 102.084 68.5948 102.084 81.2513C102.07 93.9018 91.8178 104.154 79.1673 104.168Z" fill="#FBB03B"/>
<path d="M72.916 77.082H77.0827V81.2487H72.916V77.082Z" fill="white"/>
<path d="M81.25 77.082H85.4167V81.2487H81.25V77.082Z" fill="white"/>
<path d="M96.7607 75.35L93.7498 77.3573V77.0833C93.7498 69.0292 87.2206 62.5 79.1665 62.5C71.1123 62.5 64.5831 69.0292 64.5831 77.0833V77.3573L61.5722 75.35L59.2607 78.8167L64.5831 82.3649V83.3333C64.587 86.7836 67.3829 89.5794 70.8331 89.5833V90.5518L65.5107 94.1L67.8222 97.5667L70.8331 95.5594V95.8333C70.8331 96.9839 71.7659 97.9167 72.9165 97.9167H85.4165C86.567 97.9167 87.4998 96.9839 87.4998 95.8333V95.5594L90.5107 97.5667L92.8222 94.1L87.4998 90.5518V89.5833C90.9501 89.5794 93.7459 86.7836 93.7498 83.3333V82.3649L99.0722 78.8167L96.7607 75.35ZM89.5831 83.3333C89.5818 84.4833 88.6498 85.4154 87.4998 85.4167H85.4165C84.2659 85.4167 83.3331 86.3495 83.3331 87.5V93.75H74.9998V87.5C74.9998 86.3495 74.067 85.4167 72.9165 85.4167H70.8331C69.6831 85.4154 68.7511 84.4833 68.7498 83.3333V77.0833C68.7498 71.3305 73.4136 66.6667 79.1665 66.6667C84.9193 66.6667 89.5831 71.3305 89.5831 77.0833V83.3333Z" fill="white"/>
<path d="M20.834 8.33203H25.0007V12.4987H20.834V8.33203Z" fill="#FBB03B"/>
<path d="M29.167 8.33203H33.3337V12.4987H29.167V8.33203Z" fill="#FBB03B"/>
<path d="M37.5 8.33203H41.6667V12.4987H37.5V8.33203Z" fill="#FBB03B"/>
<path d="M20.835 16.668H104.167V20.8346H20.835V16.668Z" fill="#FBB03B"/>
</g>
<defs>
<clipPath id="clip0">
<rect width="125" height="125" fill="white"/>
</clipPath>
</defs>
</svg>
