<svg width="100" height="100" viewBox="0 0 100 100" fill="none" xmlns="http://www.w3.org/2000/svg">
<g clip-path="url(#clip0)">
<path d="M11.5152 36.6322C11.8005 36.9175 12.1751 37.0609 12.5497 37.0609C12.9243 37.0609 13.2989 36.9183 13.585 36.6322C14.1565 36.0607 14.1565 35.1337 13.585 34.5623L10.0312 31.0085L13.585 27.4555C14.1565 26.8833 14.1565 25.9571 13.585 25.3856C13.0136 24.8142 12.0866 24.8142 11.5152 25.3856L6.92682 29.974C6.65216 30.2486 6.49805 30.6209 6.49805 31.0085C6.49805 31.3968 6.65216 31.7692 6.92682 32.0438L11.5152 36.6322Z" fill="#FBB03B"/>
<path d="M26.0389 31.0054L22.4851 34.5591C21.9137 35.1306 21.9137 36.0576 22.4859 36.629C22.7712 36.9143 23.1458 37.0578 23.5204 37.0578C23.895 37.0578 24.2697 36.9143 24.555 36.629L29.1441 32.0399C29.7155 31.4685 29.7155 30.5415 29.1441 29.9708L24.555 25.3817C23.9835 24.8103 23.0573 24.8103 22.4859 25.3817C21.9137 25.9539 21.9137 26.8801 22.4859 27.4516L26.0389 31.0054Z" fill="#FBB03B"/>
<path d="M15.8534 36.9566C16.0289 37.0253 16.2105 37.0581 16.3883 37.0581C16.9727 37.0581 17.5243 36.7056 17.7509 36.1296L21.3558 26.9522C21.6518 26.1999 21.281 25.3508 20.5288 25.0547C19.7773 24.7595 18.9273 25.1295 18.6321 25.8818L15.0264 35.0592C14.7312 35.8115 15.1012 36.6614 15.8534 36.9566Z" fill="#FBB03B"/>
<path d="M8.79047 45.6462H18.65C19.4579 45.6462 20.1133 44.9908 20.1133 44.1821C20.1133 43.3741 19.4579 42.7188 18.65 42.7188H8.79047C7.98175 42.7188 7.32715 43.3741 7.32715 44.1821C7.32715 44.9908 7.98175 45.6462 8.79047 45.6462Z" fill="#FBB03B"/>
<path d="M41.3589 42.7188H24.0248C23.2169 42.7188 22.5615 43.3741 22.5615 44.1821C22.5615 44.9908 23.2169 45.6462 24.0248 45.6462H41.3589C42.1676 45.6462 42.823 44.9908 42.823 44.1821C42.823 43.3741 42.1676 42.7188 41.3589 42.7188Z" fill="#FBB03B"/>
<path d="M8.79047 51.8181H12.9905C13.7984 51.8181 14.4538 51.1627 14.4538 50.354C14.4538 49.546 13.7984 48.8906 12.9905 48.8906H8.79047C7.98175 48.8906 7.32715 49.546 7.32715 50.354C7.32715 51.1627 7.98175 51.8181 8.79047 51.8181Z" fill="#FBB03B"/>
<path d="M36.0043 48.8906C35.1956 48.8906 34.541 49.546 34.541 50.354C34.541 51.1627 35.1956 51.8181 36.0043 51.8181H38.5617C39.3704 51.8181 40.0258 51.1627 40.0258 50.354C40.0258 49.546 39.3704 48.8906 38.5617 48.8906H36.0043Z" fill="#FBB03B"/>
<path d="M32.1514 50.354C32.1514 49.546 31.496 48.8906 30.688 48.8906H18.1254C17.3167 48.8906 16.6621 49.546 16.6621 50.354C16.6621 51.1627 17.3167 51.8181 18.1254 51.8181H30.688C31.496 51.8181 32.1514 51.1627 32.1514 50.354Z" fill="#FBB03B"/>
<path d="M41.7393 50.354C41.7393 51.1627 42.3946 51.8181 43.2026 51.8181H47.9931C48.8018 51.8181 49.4572 51.1627 49.4572 50.354C49.4572 49.546 48.8018 48.8906 47.9931 48.8906H43.2026C42.3946 48.8906 41.7393 49.546 41.7393 50.354Z" fill="#FBB03B"/>
<path d="M33.7688 32.1813H38.8217C39.6305 32.1813 40.2858 31.526 40.2858 30.7172C40.2858 29.9093 39.6305 29.2539 38.8217 29.2539H33.7688C32.9601 29.2539 32.3047 29.9093 32.3047 30.7172C32.3047 31.526 32.9601 32.1813 33.7688 32.1813Z" fill="#FBB03B"/>
<path d="M44.4817 32.1813H75.3129C76.1217 32.1813 76.7763 31.526 76.7763 30.7172C76.7763 29.9093 76.1217 29.2539 75.3129 29.2539H44.4817C43.6729 29.2539 43.0176 29.9093 43.0176 30.7172C43.0176 31.526 43.6729 32.1813 44.4817 32.1813Z" fill="#FBB03B"/>
<path d="M70.6294 35.6914H58.1401C57.3321 35.6914 56.6768 36.3468 56.6768 37.1555C56.6768 37.9635 57.3321 38.6188 58.1401 38.6188H70.6294C71.4374 38.6188 72.0928 37.9635 72.0928 37.1555C72.0928 36.3468 71.4374 35.6914 70.6294 35.6914Z" fill="#FBB03B"/>
<path d="M53.4566 35.6914H49.1635C48.3548 35.6914 47.7002 36.3468 47.7002 37.1555C47.7002 37.9635 48.3548 38.6188 49.1635 38.6188H53.4566C54.2653 38.6188 54.9199 37.9635 54.9199 37.1555C54.9199 36.3468 54.2653 35.6914 53.4566 35.6914Z" fill="#FBB03B"/>
<path d="M33.7688 38.6188H44.2859C45.0939 38.6188 45.7493 37.9635 45.7493 37.1555C45.7493 36.3468 45.0939 35.6914 44.2859 35.6914H33.7688C32.9601 35.6914 32.3047 36.3468 32.3047 37.1555C32.3047 37.9635 32.9601 38.6188 33.7688 38.6188Z" fill="#FBB03B"/>
<path d="M30.7066 55.0117H20.8479C20.0392 55.0117 19.3838 55.6671 19.3838 56.475C19.3838 57.283 20.0392 57.9384 20.8479 57.9384H30.7066C31.5146 57.9384 32.1699 57.283 32.1699 56.475C32.1699 55.6671 31.5146 55.0117 30.7066 55.0117Z" fill="#FBB03B"/>
<path d="M16.365 55.0117H8.79047C7.98175 55.0117 7.32715 55.6671 7.32715 56.475C7.32715 57.283 7.98175 57.9384 8.79047 57.9384H16.365C17.1737 57.9384 17.8283 57.283 17.8283 56.475C17.8283 55.6671 17.1737 55.0117 16.365 55.0117Z" fill="#FBB03B"/>
<path d="M48.5789 55.0117H35.6997C34.8909 55.0117 34.2363 55.6671 34.2363 56.475C34.2363 57.283 34.8909 57.9384 35.6997 57.9384H48.5789C49.3868 57.9384 50.0422 57.283 50.0422 56.475C50.0422 55.6671 49.3868 55.0117 48.5789 55.0117Z" fill="#FBB03B"/>
<path d="M65.9963 47.4922H58.9536C58.1456 47.4922 57.4902 48.1476 57.4902 48.9555C57.4902 49.7642 58.1456 50.4196 58.9536 50.4196H65.9963C66.805 50.4196 67.4596 49.7642 67.4596 48.9555C67.4596 48.1476 66.805 47.4922 65.9963 47.4922Z" fill="#FBB03B"/>
<path d="M78.2163 50.4196H88.1582C88.9669 50.4196 89.6222 49.7642 89.6222 48.9555C89.6222 48.1476 88.9669 47.4922 88.1582 47.4922H78.2163C77.4075 47.4922 76.7529 48.1476 76.7529 48.9555C76.7529 49.7642 77.4083 50.4196 78.2163 50.4196Z" fill="#FBB03B"/>
<path d="M73.2452 47.4922H70.967C70.1583 47.4922 69.5029 48.1476 69.5029 48.9555C69.5029 49.7642 70.1583 50.4196 70.967 50.4196H73.2452C74.0539 50.4196 74.7085 49.7642 74.7085 48.9555C74.7085 48.1476 74.0539 47.4922 73.2452 47.4922Z" fill="#FBB03B"/>
<path d="M58.9536 66.372H65.9963C66.805 66.372 67.4596 65.7174 67.4596 64.9086C67.4596 64.1007 66.805 63.4453 65.9963 63.4453H58.9536C58.1456 63.4453 57.4902 64.1007 57.4902 64.9086C57.4902 65.7174 58.1456 66.372 58.9536 66.372Z" fill="#FBB03B"/>
<path d="M78.2163 66.372H88.1582C88.9669 66.372 89.6222 65.7174 89.6222 64.9086C89.6222 64.1007 88.9669 63.4453 88.1582 63.4453H78.2163C77.4075 63.4453 76.7529 64.1007 76.7529 64.9086C76.7529 65.7174 77.4083 66.372 78.2163 66.372Z" fill="#FBB03B"/>
<path d="M70.9672 66.372H73.2454C74.0541 66.372 74.7095 65.7174 74.7095 64.9086C74.7095 64.1007 74.0541 63.4453 73.2454 63.4453H70.9672C70.1585 63.4453 69.5039 64.1007 69.5039 64.9086C69.5039 65.7174 70.1585 66.372 70.9672 66.372Z" fill="#FBB03B"/>
<path d="M65.9963 79.3906H58.9536C58.1456 79.3906 57.4902 80.046 57.4902 80.854C57.4902 81.6619 58.1456 82.3173 58.9536 82.3173H65.9963C66.805 82.3173 67.4596 81.6619 67.4596 80.854C67.4596 80.046 66.805 79.3906 65.9963 79.3906Z" fill="#FBB03B"/>
<path d="M88.1582 79.3906H78.2163C77.4075 79.3906 76.7529 80.046 76.7529 80.854C76.7529 81.6619 77.4075 82.3173 78.2163 82.3173H88.1582C88.9669 82.3173 89.6222 81.6619 89.6222 80.854C89.6222 80.046 88.9669 79.3906 88.1582 79.3906Z" fill="#FBB03B"/>
<path d="M73.2452 79.3906H70.967C70.1583 79.3906 69.5029 80.046 69.5029 80.854C69.5029 81.6619 70.1583 82.3173 70.967 82.3173H73.2452C74.0539 82.3173 74.7085 81.6619 74.7085 80.854C74.7085 80.046 74.0539 79.3906 73.2452 79.3906Z" fill="#FBB03B"/>
<path d="M93.5596 0.195312H6.44152C2.89003 0.195312 0 3.08458 0 6.63684V77.4509C0 81.0024 2.89003 83.8916 6.44152 83.8916H11.9492C12.7572 83.8916 13.4125 83.237 13.4125 82.4283C13.4125 81.6203 12.7572 80.965 11.9492 80.965H6.44152C4.50365 80.965 2.92741 79.3887 2.92741 77.4509V71.8989H56.2472V74.4212H55.0867C53.4991 74.4212 52.2081 75.7121 52.2081 77.2998V80.965H20.8474C20.0394 80.965 19.3841 81.6203 19.3841 82.4283C19.3841 83.237 20.0394 83.8916 20.8474 83.8916H34.9191V89.1407H30.5001C27.5521 89.1407 25.1542 91.5394 25.1542 94.4866V97.6482C25.1542 98.9933 26.2483 100.087 27.5933 100.087H72.2957C73.6407 100.087 74.7348 98.9933 74.7348 97.6482V94.4866C74.7348 91.5394 72.3369 89.1407 69.3888 89.1407H64.9699V87.2905H92.0261C93.613 87.2905 94.9039 85.9996 94.9039 84.4119V83.723C97.7566 83.0608 99.889 80.5011 99.889 77.4509L99.9996 6.63607C100 3.08458 97.1111 0.195312 93.5596 0.195312ZM55.1356 68.4146V61.3993H91.9773V68.4146H55.1356ZM59.1738 58.4719V55.3927H87.9383V58.4719H59.1738ZM87.9383 71.3412V74.4212H59.1738V71.3412H87.9383ZM37.8458 83.8916H52.2081V84.4127C52.2081 85.9996 53.4991 87.2905 55.0867 87.2905H62.0432V89.1407H37.8458V83.8916ZM69.3896 92.0681C70.7232 92.0681 71.8081 93.153 71.8081 94.4866V97.1607H28.0809V94.4866C28.0809 93.153 29.1665 92.0681 30.5001 92.0681H69.3896ZM91.9773 84.3631H55.1356V77.3486H91.9773V84.3631ZM96.9623 77.4509C96.9623 78.8684 96.117 80.0899 94.9047 80.6445V77.299C94.9047 75.7121 93.613 74.4212 92.0261 74.4212H90.8657V71.8989H96.9623V77.4509ZM96.9623 68.9723H94.8566C94.8864 68.8067 94.9047 61.3505 94.9047 61.3505C94.9047 59.7628 93.613 58.4719 92.0261 58.4719H90.8657V55.3927H92.0261C93.613 55.3927 94.9047 54.101 94.9047 52.5141V45.4012C94.9047 43.8143 93.613 42.5226 92.0261 42.5226H83.7596C82.9509 42.5226 82.2963 43.178 82.2963 43.9867C82.2963 44.7946 82.9509 45.45 83.7596 45.45H91.9773V52.4653H55.1356V45.45H74.6532C75.4619 45.45 76.1165 44.7946 76.1165 43.9867C76.1165 43.178 75.4619 42.5226 74.6532 42.5226H55.0867C53.4991 42.5226 52.2081 43.8143 52.2081 45.4012V52.5141C52.2081 54.101 53.4991 55.3927 55.0867 55.3927H56.2472V58.4719H55.0867C53.4991 58.4719 52.2081 59.7636 52.2081 61.3505C52.2081 61.3505 52.2265 68.8067 52.2562 68.9723H2.92741V20.1035H96.9623V68.9723ZM96.9623 17.1761H3.03498V6.63607C3.03498 4.69896 4.61122 3.12272 6.5491 3.12272H93.4482C95.3861 3.12272 96.9623 4.69896 96.9623 6.63684V17.1761Z" fill="#FBB03B"/>
<path d="M10.7926 5.8125C8.42448 5.8125 6.49805 7.73893 6.49805 10.1071C6.49805 12.4753 8.42448 14.4025 10.7926 14.4025C13.1608 14.4025 15.088 12.4753 15.088 10.1071C15.088 7.73893 13.1608 5.8125 10.7926 5.8125ZM10.7926 11.4751C10.0389 11.4751 9.42469 10.8617 9.42469 10.1071C9.42469 9.35332 10.0389 8.73915 10.7926 8.73915C11.5472 8.73915 12.1606 9.35332 12.1606 10.1071C12.1606 10.8617 11.5472 11.4751 10.7926 11.4751Z" fill="#FBB03B"/>
<path d="M21.729 5.8125C19.3608 5.8125 17.4336 7.73893 17.4336 10.1071C17.4336 12.4753 19.3608 14.4025 21.729 14.4025C24.0971 14.4025 26.0236 12.4753 26.0236 10.1071C26.0236 7.73893 24.0964 5.8125 21.729 5.8125ZM21.729 11.4751C20.9744 11.4751 20.361 10.8617 20.361 10.1071C20.361 9.35332 20.9744 8.73915 21.729 8.73915C22.4828 8.73915 23.0969 9.35332 23.0969 10.1071C23.0969 10.8617 22.4828 11.4751 21.729 11.4751Z" fill="#FBB03B"/>
<path d="M32.6628 5.8125C30.2946 5.8125 28.3682 7.73893 28.3682 10.1071C28.3682 12.4753 30.2946 14.4025 32.6628 14.4025C35.0309 14.4025 36.9581 12.4753 36.9581 10.1071C36.9581 7.73893 35.0309 5.8125 32.6628 5.8125ZM32.6628 11.4751C31.909 11.4751 31.2948 10.8617 31.2948 10.1071C31.2948 9.35332 31.909 8.73915 32.6628 8.73915C33.4173 8.73915 34.0307 9.35332 34.0307 10.1071C34.0307 10.8617 33.4173 11.4751 32.6628 11.4751Z" fill="#FBB03B"/>
</g>
<defs>
<clipPath id="clip0">
<rect width="100" height="100" fill="white"/>
</clipPath>
</defs>
</svg>
