<svg width="126" height="125" viewBox="0 0 126 125" fill="none" xmlns="http://www.w3.org/2000/svg">
<g clip-path="url(#clip0)">
<path d="M111.883 6.96998C103.711 2.47523 92.8909 0 81.4165 0C69.9422 0 59.1222 2.47393 50.9502 6.96998C42.3844 11.6811 37.667 18.0842 37.667 24.9997V35.4163H41.5354C43.7698 38.2444 46.9377 40.8227 50.9502 43.0295C59.1222 47.5255 69.9422 49.9995 81.4165 49.9995C92.8909 49.9995 103.711 47.5255 111.883 43.0295C115.722 40.9183 118.784 38.4663 120.999 35.7817V41.6662C120.999 46.9974 117.05 52.1052 109.88 56.0489C102.314 60.2077 92.2065 62.4993 81.4165 62.4993C79.3949 62.4993 77.3502 62.4147 75.3387 62.248L74.9945 66.4003C77.1197 66.5766 79.2811 66.666 81.4165 66.666C92.8964 66.666 103.718 64.192 111.886 59.6999C115.723 57.5905 118.785 55.1385 121.001 52.4539V58.3327C121.001 63.6639 117.051 68.7717 109.881 72.7154C102.314 76.8742 92.2065 79.1658 81.4165 79.1658C79.3905 79.1658 77.3457 79.0815 75.339 78.9148L74.9942 83.0671C77.115 83.2431 79.2759 83.3325 81.4165 83.3325C92.8964 83.3325 103.718 80.8585 111.886 76.3664C115.723 74.257 118.785 71.805 121.001 69.1204V74.9992C121.001 80.3304 117.051 85.4382 109.881 89.3819C102.314 93.5407 92.2065 95.8323 81.4165 95.8323C78.71 95.8331 76.0054 95.6836 73.3156 95.3841L72.851 99.5247C75.6952 99.8414 78.5548 99.9997 81.4165 99.9989C92.8964 99.9989 103.718 97.525 111.886 93.0329C120.45 88.3238 125.167 81.9192 125.167 74.9992V24.9997C125.166 18.0842 120.449 11.6811 111.883 6.96998ZM109.875 39.3787C102.308 43.5412 92.2008 45.8328 81.4165 45.8328C70.6323 45.8328 60.5253 43.5412 52.9582 39.3787C45.7844 35.433 41.8336 30.3268 41.8336 24.9997C41.8336 19.6727 45.7844 14.5665 52.9582 10.6207C60.5253 6.45827 70.6323 4.16662 81.4165 4.16662C92.2008 4.16662 102.308 6.45827 109.875 10.6207C117.049 14.5665 120.999 19.6727 120.999 24.9997C120.999 30.3268 117.049 35.433 109.875 39.3787Z" fill="#FBB03B"/>
<path d="M99.5156 34.8072L100.818 38.7655C110.546 35.5624 116.833 30.1585 116.833 25H112.667C112.667 27.6554 108.057 31.9942 99.5156 34.8072Z" fill="white"/>
<path d="M64.1865 10.5724L65.3126 14.5828C66.6016 14.221 67.9492 13.9007 69.3182 13.6315L68.5136 9.54297C67.037 9.83515 65.5813 10.1818 64.1865 10.5724Z" fill="white"/>
<path d="M46 25.0004H50.1666C50.1666 22.6129 54.0017 18.7205 61.3314 15.9005L59.835 12.0117C51.3012 15.2948 46 20.2718 46 25.0004Z" fill="white"/>
<path d="M79.333 54.168H83.4996V58.3346H79.333V54.168Z" fill="white"/>
<path d="M87.666 54.168H91.8326V58.3346H87.666V54.168Z" fill="white"/>
<path d="M79.333 70.832H83.4996V74.9986H79.333V70.832Z" fill="white"/>
<path d="M87.666 70.832H91.8326V74.9986H87.666V70.832Z" fill="white"/>
<path d="M79.333 87.5H83.4996V91.6666H79.333V87.5Z" fill="white"/>
<path d="M87.666 87.5H91.8326V91.6666H87.666V87.5Z" fill="white"/>
<path d="M24.6459 118.539L34.4791 124.685C35.1546 125.107 36.0119 125.107 36.6874 124.685L46.5207 118.539C61.7486 109.022 70.9996 92.3307 70.9996 74.3731V56.2524C70.9996 55.1019 70.0668 54.1691 68.9163 54.1691C57.4573 54.2004 46.4621 49.646 38.3814 41.5211L37.0562 40.1961C36.2427 39.3826 34.9237 39.3826 34.1101 40.1961L32.7851 41.5213C24.7045 49.6463 13.7093 54.2004 2.2503 54.1691C1.09979 54.1691 0.166992 55.1019 0.166992 56.2524V74.3731C0.166992 92.331 9.41794 109.022 24.6459 118.539ZM4.33362 58.291C16.0952 57.8061 27.2467 52.9256 35.5833 44.6148C43.9197 52.9259 55.0714 57.8063 66.833 58.291V74.3731C66.8332 90.8943 58.3224 106.25 44.3124 115.006L35.5833 120.462L26.8542 115.006C12.8442 106.25 4.33335 90.8943 4.33362 74.3733V58.291Z" fill="#FBB03B"/>
<path d="M29.0635 111.469L34.4802 114.854C35.1557 115.277 36.013 115.277 36.6885 114.854L42.1051 111.469C54.9323 103.508 62.7148 89.4665 62.6663 74.37V63.9422C62.6663 62.9152 61.9176 62.0412 60.9025 61.8837C52.1154 60.5139 43.8368 56.879 36.8817 51.3369C36.1221 50.7314 35.0445 50.7314 34.2848 51.3369C27.3295 56.8788 19.0509 60.5136 10.2637 61.8837C9.24891 62.0412 8.50022 62.9152 8.50022 63.9422V74.37C8.4523 89.467 16.2356 103.509 29.0635 111.469ZM12.6668 65.6977C20.9764 64.1248 28.8154 60.6701 35.5833 55.5991C42.3509 60.6707 50.1901 64.1253 58.4997 65.6977V74.3695C58.5432 88.0285 51.5011 100.733 39.8949 107.935L35.5833 110.63L31.2716 107.935C19.6655 100.734 12.6236 88.029 12.6668 74.3703V65.6977Z" fill="white"/>
<path d="M33.5 62.5H37.6666V66.6666H33.5V62.5Z" fill="white"/>
<path d="M33.5 100H37.6666V104.167H33.5V100Z" fill="white"/>
<path d="M21 87.5H25.1666V91.6666H21V87.5Z" fill="white"/>
<path d="M16.834 70.832H21.0006V74.9986H16.834V70.832Z" fill="white"/>
<path d="M46 87.5H50.1666V91.6666H46V87.5Z" fill="white"/>
<path d="M50.166 70.832H54.3326V74.9986H50.166V70.832Z" fill="white"/>
</g>
<defs>
<clipPath id="clip0">
<rect width="125" height="125" fill="white" transform="translate(0.166992)"/>
</clipPath>
</defs>
</svg>
