<svg width="126" height="125" viewBox="0 0 126 125" fill="none" xmlns="http://www.w3.org/2000/svg">
<g clip-path="url(#clip0)">
<path d="M117.167 0H79.6667C75.0664 0.00520833 71.3386 3.73307 71.3333 8.33333V43.0766C69.3813 42.1464 67.2458 41.6646 65.0833 41.6667H62.5807C62.8599 40.2953 63.0005 38.8995 63 37.5V25C63 13.494 53.6727 4.16667 42.1667 4.16667C30.6607 4.16667 21.3333 13.494 21.3333 25V37.5C21.3328 38.8995 21.4734 40.2953 21.7526 41.6667H19.25C11.1997 41.6758 4.67579 48.1997 4.66668 56.25V63.6292C2.08569 65.1089 0.495582 67.8583 0.500009 70.8333V108.333C0.499488 109.87 0.923968 111.376 1.72657 112.686C0.980478 113.022 0.50053 113.765 0.500009 114.583V122.917C0.500009 124.067 1.43282 125 2.58334 125H81.75C82.9005 125 83.8333 124.067 83.8333 122.917V114.583C83.8328 113.765 83.3529 113.022 82.6068 112.686C83.4094 111.376 83.8339 109.87 83.8333 108.333V104.167H79.6667V108.333C79.6766 110.09 78.5685 111.659 76.9094 112.237C76.8833 112.246 76.8573 112.255 76.8313 112.266C76.4057 112.425 75.9544 112.505 75.5 112.5H8.83334C8.37892 112.505 7.92761 112.425 7.50209 112.266C7.47605 112.255 7.45001 112.246 7.42397 112.237C5.76485 111.659 4.65678 110.09 4.66668 108.333V70.8333C4.65678 69.0766 5.76485 67.5076 7.42397 66.9297C7.45001 66.9206 7.47605 66.9112 7.50209 66.901C7.92761 66.7414 8.37892 66.662 8.83334 66.6667H75.5C75.9544 66.662 76.4057 66.7414 76.8313 66.901C76.8573 66.9112 76.8833 66.9206 76.9094 66.9297C78.5685 67.5076 79.6766 69.0766 79.6667 70.8333V85.4167H83.8333V70.8333C83.8378 67.8583 82.2477 65.1089 79.6667 63.6292V56.25C79.6669 54.8297 79.4591 53.4172 79.0498 52.0573C79.2537 52.0724 79.4589 52.0833 79.6667 52.0833H89.6255L88.0404 60.0081C87.8146 61.1362 88.5461 62.2339 89.6745 62.4596C90.2081 62.5664 90.7625 62.4602 91.2188 62.1635L106.727 52.0833H117.167C121.767 52.0781 125.495 48.3503 125.5 43.75V8.33333C125.495 3.73307 121.767 0.00520833 117.167 0ZM79.6667 116.667V120.833H4.66668V116.667H79.6667ZM44.3636 33.0036C44.6573 33.8589 45.0654 34.6706 45.5766 35.4167H38.7568C39.268 34.6706 39.676 33.8589 39.9698 33.0036C40.338 31.9336 39.7849 30.7654 38.724 30.3721L29.8508 27.0833H54.4826L45.6094 30.3721C44.5484 30.7654 43.9953 31.9336 44.3636 33.0036ZM53.3125 39.5833C53.3417 39.5833 53.3706 39.5857 53.3995 39.5857C53.4357 39.5857 53.4716 39.5839 53.5078 39.5833H58.6979C57.5497 48.7135 49.2175 55.1844 40.0872 54.0362C32.5336 53.0862 26.5844 47.1372 25.6344 39.5833H30.8245C30.8607 39.5833 30.8966 39.5857 30.9328 39.5857C30.9617 39.5857 30.9906 39.5836 31.0198 39.5833H53.3125ZM55.2063 35.0904C53.8956 35.5805 52.4422 35.5159 51.18 34.912C50.4534 34.5685 49.8122 34.068 49.3024 33.4469L58.8294 29.9156C58.7789 32.2143 57.3487 34.2562 55.2063 35.0904ZM42.1667 8.33333C50.5607 8.34479 57.6399 14.5896 58.6984 22.9167H25.6349C26.6935 14.5896 33.7727 8.34479 42.1667 8.33333ZM35.0313 33.4469C34.5214 34.068 33.8802 34.5685 33.1537 34.912C31.8914 35.5156 30.438 35.5802 29.1274 35.0904C26.9846 34.2565 25.5547 32.2143 25.5042 29.9156L35.0313 33.4469ZM75.5 62.5H8.83334V56.25C8.83985 50.4997 13.4998 45.8398 19.25 45.8333H23.0781C27.6761 56.3755 39.9495 61.1945 50.4919 56.5966C55.3094 54.4956 59.1542 50.6508 61.2552 45.8333H65.0833C70.8336 45.8398 75.4935 50.4997 75.5 56.25V62.5ZM121.333 43.75C121.331 46.05 119.467 47.9141 117.167 47.9167H106.109C105.706 47.9167 105.312 48.0336 104.974 48.2531L93.0966 55.9734L94.2096 50.4086C94.4354 49.2805 93.7037 48.1828 92.5753 47.957C92.4409 47.9302 92.3039 47.9167 92.1667 47.9167H79.6667C77.3667 47.9141 75.5026 46.05 75.5 43.75V8.33333C75.5026 6.03333 77.3667 4.16927 79.6667 4.16667H117.167C119.467 4.16927 121.331 6.03333 121.333 8.33333V43.75Z" fill="#FBB03B"/>
<path d="M110.917 27.082H108.834V24.9987C108.833 24.582 108.807 24.1659 108.756 23.7523L111.578 22.8076C112.101 22.6326 112.533 22.257 112.779 21.7638L114.863 17.5971L111.136 15.7336L109.438 19.1299L107.437 19.8C106.733 18.5818 105.791 17.5177 104.667 16.6711V14.582C104.667 11.1302 101.869 8.33203 98.4172 8.33203C94.9654 8.33203 92.1672 11.1302 92.1672 14.582V16.6711C91.043 17.5177 90.1008 18.5818 89.3964 19.8L87.3953 19.1299L85.6971 15.7336L81.9706 17.5971L84.0539 21.7638C84.3005 22.257 84.7328 22.6326 85.2557 22.8076L88.0776 23.7523C88.0271 24.1659 88.0013 24.582 88.0005 24.9987V27.082H85.9172C85.3646 27.082 84.8346 27.3016 84.444 27.6922L80.2773 31.8589L83.2237 34.8052L86.7799 31.2487H88.2102C88.4409 32.3763 88.8581 33.4576 89.4445 34.4477L87.0688 35.6354C86.6656 35.837 86.3388 36.1638 86.1372 36.5669L84.0539 40.7336L87.7805 42.5971L89.5534 39.0516L92.3734 37.6414C95.9872 40.2289 100.847 40.2289 104.461 37.6414L107.281 39.0516L109.054 42.5971L112.78 40.7336L110.697 36.5669C110.496 36.1638 110.169 35.837 109.766 35.6354L107.39 34.4477C107.977 33.4576 108.395 32.3763 108.626 31.2487H110.056L113.612 34.8052L116.558 31.8589L112.392 27.6922C112.001 27.3013 111.47 27.0818 110.917 27.082ZM96.3339 35.057C93.8388 34.1719 92.1706 31.8128 92.1672 29.1654V24.9987C92.1706 22.3513 93.8388 19.9922 96.3339 19.107V35.057ZM96.3339 14.7917V14.582C96.3339 13.4315 97.2667 12.4987 98.4172 12.4987C99.5677 12.4987 100.501 13.4315 100.501 14.582V14.7917C99.1258 14.5122 97.7086 14.5122 96.3339 14.7917ZM104.667 29.1654C104.664 31.8128 102.996 34.1719 100.501 35.057V19.107C102.996 19.9922 104.664 22.3513 104.667 24.9987V29.1654Z" fill="white"/>
<path d="M28.4041 106.083L42.1669 100.184L55.9296 106.082L57.5703 102.252L48.3775 98.3125C48.4031 98.1826 48.4161 98.0505 48.4169 97.918V97.5013L57.57 93.5836L55.9294 89.7534L52.5835 91.1852V83.3346C52.5835 77.5818 47.9197 72.918 42.1669 72.918C36.414 72.918 31.7502 77.5818 31.7502 83.3346V91.1852L28.4033 89.7529L26.7627 93.5831L35.9169 97.5013V97.918C35.9171 98.0508 35.9301 98.1831 35.9554 98.3135L26.7627 102.253L28.4041 106.083ZM35.9169 89.5846V85.418H40.0835V81.2513H36.2752C37.4273 77.9974 40.9989 76.2935 44.2528 77.4456C46.0307 78.075 47.4291 79.4734 48.0585 81.2513H44.2502V85.418H48.4169V89.5846H46.3335C45.183 89.5846 44.2502 90.5175 44.2502 91.668V95.8346H40.0835V91.668C40.0835 90.5175 39.1507 89.5846 38.0002 89.5846H35.9169Z" fill="white"/>
<path d="M117.167 75H96.3334C91.7332 75.0052 88.0053 78.7331 88.0001 83.3333V91.3479L75.7946 89.6044C74.6556 89.4419 73.6004 90.2336 73.4379 91.3727C73.3399 92.0599 73.5905 92.7508 74.1064 93.2151L88.0001 105.72V116.667C88.0053 121.267 91.7332 124.995 96.3334 125H117.167C121.767 124.995 125.495 121.267 125.5 116.667V83.3333C125.495 78.7331 121.767 75.0052 117.167 75ZM121.333 116.667C121.331 118.967 119.467 120.831 117.167 120.833H96.3334C94.0334 120.831 92.1694 118.967 92.1668 116.667V104.792C92.1668 104.201 91.9162 103.638 91.4772 103.243L81.9816 94.6971L89.7889 95.8122C90.928 95.975 91.9832 95.1833 92.1459 94.0443C92.1597 93.9469 92.1668 93.8484 92.1668 93.75V83.3333C92.1694 81.0333 94.0334 79.1693 96.3334 79.1667H117.167C119.467 79.1693 121.331 81.0333 121.333 83.3333V116.667Z" fill="#FBB03B"/>
<path d="M108.834 87.5742V83.332H104.667V87.5742C100.682 88.1523 97.9196 91.8518 98.4975 95.837C99.0173 99.4203 102.088 102.079 105.709 102.082H107.792C109.518 102.082 110.917 103.481 110.917 105.207C110.917 106.933 109.518 108.332 107.792 108.332H105.709C103.984 108.33 102.585 106.932 102.584 105.207V104.165H98.417V105.207C98.4219 108.83 101.082 111.901 104.667 112.423V116.665H108.834V112.423C112.819 111.845 115.581 108.146 115.003 104.16C114.483 100.577 111.413 97.918 107.792 97.9154H105.709C103.983 97.9154 102.584 96.5161 102.584 94.7904C102.584 93.0646 103.983 91.6654 105.709 91.6654H107.792C109.517 91.6672 110.915 93.0654 110.917 94.7904V95.832H115.084V94.7904C115.079 91.1677 112.419 88.0961 108.834 87.5742Z" fill="white"/>
<path d="M49.3488 45.6133L47.4852 41.8867C45.0331 43.1091 42.3316 43.7469 39.5917 43.75H35.917V47.9167H39.5917C42.9782 47.9125 46.318 47.1242 49.3488 45.6133Z" fill="#FBB03B"/>
</g>
<defs>
<clipPath id="clip0">
<rect width="125" height="125" fill="white" transform="translate(0.5)"/>
</clipPath>
</defs>
</svg>
