<svg width="80" height="100" viewBox="0 0 80 100" fill="none" xmlns="http://www.w3.org/2000/svg">
<path d="M47.4814 10.0132C47.6791 10.1037 47.8863 10.1466 48.0902 10.1466C48.6457 10.1466 49.1768 9.82924 49.4231 9.29115L52.7272 2.07494C53.0641 1.33939 52.7406 0.470059 52.0051 0.13334C51.2693 -0.203574 50.4002 0.120059 50.0635 0.85541L46.7594 8.07162C46.4225 8.80717 46.7457 9.6765 47.4814 10.0132Z" fill="#FBB03B"/>
<path d="M49.7965 55.0485V50.8366H50.1648C52.0601 50.8366 53.6023 49.2946 53.6023 47.3993V44.5437C53.6023 43.0872 52.6902 41.8425 51.4086 41.3427L69.3899 2.07516C69.7268 1.33962 69.4034 0.47029 68.668 0.133573C67.9315 -0.20373 67.063 0.119901 66.7262 0.855444L48.2945 41.1062H34.8567L46.4525 15.7821C46.7894 15.0466 46.466 14.1772 45.7305 13.8403C44.9949 13.5034 44.1256 13.8269 43.7889 14.5624L40.0018 22.8327L29.9388 0.855639C29.6017 0.119901 28.7327 -0.203339 27.9972 0.133573C27.2614 0.470485 26.9382 1.33962 27.2751 2.07516L38.3748 26.3172C38.3799 26.3281 38.3868 26.3375 38.3918 26.3483L31.6712 41.0253L13.2766 0.855639C12.9394 0.120097 12.0711 -0.203339 11.3348 0.133768C10.5992 0.470485 10.276 1.33982 10.6129 2.07536L28.5942 41.3429C27.3126 41.8427 26.4005 43.0874 26.4005 44.5439V47.3995C26.4005 49.2948 27.9427 50.8368 29.838 50.8368H30.2063V55.0481C22.1001 58.7717 16.4568 66.9666 16.4568 76.4558C16.4568 89.4381 27.0187 100 40.001 100C52.9835 100 63.5454 89.4381 63.5454 76.4558C63.545 66.9672 57.9023 58.7725 49.7965 55.0485ZM33.1358 50.8368H36.387C37.1961 50.8368 37.8518 50.1809 37.8518 49.372C37.8518 48.563 37.1961 47.9071 36.387 47.9071H29.838C29.5579 47.9071 29.3302 47.6794 29.3302 47.3995V44.5439C29.3302 44.2638 29.5579 44.036 29.838 44.036H50.1648C50.4449 44.036 50.6726 44.2638 50.6726 44.5439V47.3995C50.6726 47.6794 50.4449 47.9071 50.1648 47.9071H43.4748C42.6656 47.9071 42.01 48.563 42.01 49.372C42.01 50.1809 42.6656 50.8368 43.4748 50.8368H46.8668V53.9338C44.6936 53.27 42.3883 52.9116 40.0008 52.9116C37.6137 52.9116 35.3088 53.2698 33.136 53.9335V50.8368H33.1358ZM40.0006 97.0705C28.6337 97.0705 19.3861 87.8229 19.3861 76.456C19.3861 65.0891 28.6337 55.8414 40.0006 55.8414C51.3675 55.8414 60.6153 65.0891 60.6153 76.456C60.6153 87.8227 51.3677 97.0705 40.0006 97.0705Z" fill="#FBB03B"/>
<path d="M40.0007 58.3203C36.2819 58.3203 32.7048 59.4416 29.656 61.5629C28.9919 62.025 28.8281 62.9379 29.2902 63.6017C29.7521 64.266 30.6654 64.4296 31.329 63.9675C33.8843 62.1896 36.8831 61.25 40.0005 61.25C48.3856 61.25 55.2072 68.0716 55.2072 76.4567C55.2072 84.8418 48.3854 91.6635 40.0005 91.6635C31.6156 91.6635 24.7937 84.8416 24.7937 76.4567C24.7937 73.7253 25.5289 71.0443 26.9197 68.7033C27.3328 68.0077 27.1039 67.1089 26.4086 66.6958C25.7131 66.2828 24.8144 66.5115 24.401 67.207C22.7414 70.0003 21.8643 73.1989 21.8643 76.4567C21.8643 86.4572 30.0001 94.5931 40.0007 94.5931C50.0012 94.5931 58.1371 86.457 58.1371 76.4567C58.1371 66.4564 50.0012 58.3203 40.0007 58.3203Z" fill="#FBB03B"/>
<path d="M31.7682 79.2162L31.6049 85.1535C31.5857 85.8455 31.909 86.5016 32.4689 86.9084C33.0289 87.3154 33.7525 87.4197 34.4051 87.1879L40.0012 85.1978L45.5973 87.1879C45.8262 87.2693 46.0639 87.3094 46.3004 87.3094C46.7373 87.3094 47.1699 87.1727 47.5334 86.9086C48.0933 86.5018 48.4164 85.8457 48.3974 85.1535L48.2342 79.2164L51.8558 74.5092C52.2781 73.9605 52.4025 73.2398 52.1887 72.5814C51.9746 71.9229 51.4506 71.4131 50.7865 71.2172L45.0892 69.5377L41.7316 64.6383C41.3402 64.0674 40.6933 63.7266 40.0012 63.7266C39.309 63.7266 38.6621 64.0674 38.2705 64.6385L34.9131 69.5377L29.2158 71.2172C28.5519 71.4129 28.0277 71.9229 27.8137 72.5814C27.5998 73.2398 27.7242 73.9605 28.1463 74.5092L31.7682 79.2162ZM36.241 72.2004C36.5641 72.1051 36.8445 71.9014 37.035 71.6234L40.0012 67.2953L42.9674 71.6234C43.158 71.9014 43.4383 72.1051 43.7613 72.2004L48.7943 73.684L45.5947 77.8424C45.3892 78.1094 45.282 78.4391 45.2914 78.7758L45.4355 84.0207L40.4918 82.2627C40.1744 82.1498 39.8277 82.1498 39.5103 82.2627L34.5666 84.0207L34.7107 78.7758C34.7201 78.4391 34.6129 78.1094 34.4074 77.8424L31.2078 73.6838L36.241 72.2004Z" fill="#FBB03B"/>
<path d="M2.84225 68.3845L9.23424 69.7603C9.4692 69.8109 9.70436 69.8353 9.93659 69.8353C11.3323 69.8353 12.6192 68.9547 13.093 67.5894L13.945 65.1328C14.4971 63.5406 13.7725 61.7804 12.2592 61.0388L6.38834 58.1611C5.52995 57.7402 4.53073 57.7078 3.64635 58.0716C2.76237 58.4357 2.07565 59.1625 1.76237 60.0656L0.389321 64.0242C0.0760394 64.9275 0.165298 65.9234 0.634048 66.7568C1.1026 67.59 1.90768 68.1834 2.84225 68.3845ZM3.15729 64.9845L4.53034 61.0259C4.58307 60.874 4.69791 60.8072 4.76198 60.7808C4.79752 60.7662 4.8528 60.7494 4.91979 60.7494C4.9735 60.7494 5.03483 60.7601 5.09928 60.7918L10.9702 63.6695C11.1561 63.7607 11.2452 63.9771 11.1774 64.1728L10.3256 66.6291C10.2575 66.825 10.0528 66.9392 9.85104 66.8961L3.45905 65.5203C3.30162 65.4865 3.22135 65.3804 3.18737 65.3203C3.15338 65.2601 3.10436 65.1365 3.15729 64.9845Z" fill="#FBB03B"/>
<path d="M19.0238 59.7844L20.99 58.083C22.2645 56.9803 22.517 55.0936 21.5774 53.6948L17.9318 48.267C17.3988 47.4735 16.5498 46.9455 15.602 46.8186C14.6541 46.6916 13.6961 46.9778 12.9733 47.6036L9.80509 50.345C9.08204 50.9705 8.66134 51.8776 8.65059 52.8336C8.64005 53.7897 9.04044 54.7059 9.74923 55.3473L14.5967 59.7346C15.2313 60.309 16.0346 60.5973 16.8387 60.5973C17.6174 60.5975 18.3967 60.327 19.0238 59.7844ZM16.5627 57.5629L11.715 53.1754C11.5959 53.0674 11.5793 52.9356 11.5801 52.8664C11.5809 52.7973 11.6004 52.6659 11.7221 52.5606L14.8904 49.819C14.9846 49.7375 15.0858 49.7188 15.1584 49.7188C15.1795 49.7188 15.1982 49.7204 15.2137 49.7225C15.2822 49.7317 15.4104 49.767 15.5002 49.9004L19.1457 55.3282C19.2611 55.5 19.2301 55.7321 19.0734 55.8676L17.1072 57.569C16.95 57.7043 16.7162 57.7018 16.5627 57.5629Z" fill="#FBB03B"/>
<path d="M13.7717 74.9291C13.4537 73.2738 11.9455 72.1133 10.2648 72.2264L3.74159 72.6695C2.78768 72.7344 1.90604 73.206 1.32225 73.9633C0.738853 74.7205 0.507407 75.6933 0.687876 76.632L1.47792 80.7467C1.65819 81.6855 2.23319 82.5035 3.05565 82.9908C3.57635 83.2992 4.16561 83.457 4.75877 83.457C5.10291 83.457 5.44823 83.4039 5.78221 83.2963L12.0056 81.292C13.6096 80.7752 14.5797 79.1377 14.2621 77.4826L13.7717 74.9291ZM11.1076 78.5035L4.88436 80.5078C4.73065 80.5576 4.60858 80.5055 4.54901 80.4703C4.48944 80.4351 4.38534 80.3525 4.35506 80.1945L3.56502 76.0797C3.53475 75.9217 3.60096 75.8064 3.64295 75.7517C3.68514 75.6971 3.77967 75.6037 3.94022 75.5928L10.4635 75.1496C10.4728 75.149 10.4822 75.1486 10.4916 75.1486C10.6867 75.1486 10.8572 75.2875 10.8945 75.4818L11.3849 78.035C11.424 78.2385 11.3047 78.4398 11.1076 78.5035Z" fill="#FBB03B"/>
<path d="M66.0566 65.1291L66.9088 67.5856C67.3822 68.9508 68.6691 69.8315 70.0648 69.8315C70.297 69.8315 70.5326 69.8071 70.7675 69.7565L77.1593 68.3805C78.0939 68.1793 78.899 67.5862 79.3677 66.753C79.8365 65.9196 79.9257 64.9237 79.6125 64.0204L78.2392 60.0618C77.9259 59.1584 77.239 58.4317 76.355 58.0678C75.4711 57.7038 74.4712 57.7364 73.6134 58.1573L67.7425 61.0352C66.2289 61.7768 65.5041 63.5368 66.0566 65.1291ZM69.0316 63.6657L74.9027 60.7877C74.967 60.7561 75.0283 60.7454 75.0818 60.7454C75.1488 60.7454 75.2041 60.7622 75.2396 60.7768C75.3035 60.803 75.4185 60.87 75.4712 61.0219L76.8445 64.9805C76.8974 65.1325 76.8484 65.2563 76.8146 65.3165C76.7806 65.3766 76.7003 65.4827 76.5429 65.5164L70.1511 66.8924H70.1509C69.9494 66.9364 69.7447 66.8215 69.6767 66.6256L68.8246 64.169C68.7566 63.9733 68.8457 63.7569 69.0316 63.6657Z" fill="#FBB03B"/>
<path d="M76.2601 72.6695L69.7367 72.2264C68.0574 72.1131 66.548 73.2742 66.2302 74.9291L65.7398 77.4826C65.422 79.1377 66.3919 80.7754 67.9962 81.292L74.2199 83.2963C74.5539 83.4039 74.8992 83.457 75.2431 83.457C75.8361 83.457 76.4255 83.2992 76.946 82.9908C77.7687 82.5035 78.3437 81.6855 78.524 80.7467L79.314 76.6318C79.4943 75.693 79.2628 74.7201 78.6792 73.9629C78.0957 73.2057 77.2136 72.7344 76.2601 72.6695ZM76.4369 76.0797L75.6468 80.1945C75.6166 80.3525 75.5123 80.4352 75.4529 80.4703C75.3931 80.5055 75.2707 80.5574 75.1177 80.5078L68.8941 78.5035C68.6968 78.44 68.5777 78.2387 68.6167 78.0354L69.1072 75.4818C69.1462 75.2783 69.3275 75.1346 69.538 75.1494L76.0615 75.5926C76.2218 75.6035 76.3166 75.6969 76.3585 75.7514C76.4009 75.8063 76.4671 75.9217 76.4369 76.0797Z" fill="#FBB03B"/>
<path d="M71.3507 52.8377C71.34 51.8817 70.9193 50.9745 70.1962 50.3489L67.0279 47.6073C66.3048 46.9817 65.3468 46.6956 64.3989 46.8225C63.4513 46.9493 62.6023 47.4772 62.0691 48.2709L58.4238 53.6987C57.4841 55.0977 57.7366 56.9842 59.0113 58.087L60.9775 59.7883C61.6046 60.3311 62.3839 60.6016 63.1626 60.6016C63.9665 60.6016 64.7698 60.3133 65.4046 59.7389L70.2521 55.3514C70.9611 54.71 71.3614 53.7938 71.3507 52.8377ZM68.2863 53.1793L63.4388 57.5668C63.2851 57.7057 63.0517 57.7083 62.8947 57.5729L60.9284 55.8715C60.7718 55.736 60.7407 55.504 60.8564 55.3321L64.5015 49.9043C64.5913 49.7707 64.7195 49.7354 64.788 49.7262C64.8034 49.7241 64.8222 49.7225 64.8435 49.7225C64.9159 49.7225 65.0171 49.7411 65.1113 49.8225L68.2796 52.5641C68.4013 52.6696 68.4208 52.801 68.4216 52.8702C68.422 52.9395 68.4056 53.0713 68.2863 53.1793Z" fill="#FBB03B"/>
</svg>
