<svg width="100" height="100" viewBox="0 0 100 100" fill="none" xmlns="http://www.w3.org/2000/svg">
<path d="M59.3999 14.6662C58.4453 14.587 57.6007 15.3015 57.5224 16.2606L57.1335 31.6376C56.4586 31.3652 55.7227 31.2138 54.9515 31.2138H54.1325V26.6576C54.1325 24.6038 52.4617 22.9328 50.4079 22.9328H43.24C37.8794 22.9328 32.5751 21.1489 28.3038 17.9096L27.4829 17.2871C26.8587 16.8138 26.0882 16.6169 25.314 16.7316C24.5393 16.8468 23.8596 17.2594 23.4003 17.8938C21.2386 20.8795 20.096 24.4058 20.096 28.092V31.2138H19.277C18.5371 31.2138 17.8296 31.3533 17.1775 31.605L15.7226 21.2318C15.5215 19.7974 15.5789 18.3525 15.8933 16.9373C16.1018 15.9985 15.5102 15.068 14.5711 14.8594C13.6322 14.6502 12.7017 15.2428 12.4932 16.1817C12.0879 18.0051 12.0141 19.8668 12.273 21.7155L14.0567 34.4321C13.6568 35.223 13.4299 36.1159 13.4299 37.0611C13.4299 40.2854 16.0531 42.9086 19.2775 42.9086H20.1487C20.554 48.3755 23.5505 53.1295 27.9142 55.9459V60.3518L15.8954 66.0321C7.28446 70.1013 1.7207 78.8846 1.7207 88.4081V94.2578C1.7207 95.2196 2.50027 95.9994 3.46235 95.9994C4.42444 95.9994 5.204 95.2196 5.204 94.2578V88.4081C5.204 80.2249 9.98471 72.678 17.3832 69.1812L28.2973 64.0229C29.3983 67.6168 32.7467 70.2376 36.6963 70.2376C40.6459 70.2376 43.9942 67.6165 45.0952 64.0229L57.01 69.1815L57.1851 69.2683C57.4305 69.3875 57.6897 69.4439 57.9449 69.4439C58.591 69.4439 59.2114 69.083 59.5129 68.463C59.9332 67.5977 59.5728 66.5558 58.7075 66.1355L58.6471 66.1055C58.5975 66.0804 58.5475 66.0556 58.4976 66.0321L45.4788 60.3518V56.4523C50.2925 53.7231 53.6495 48.7183 54.08 42.9088H54.9513C58.1757 42.9088 60.7988 40.2857 60.7988 37.0613C60.7988 36.2813 60.6442 35.5372 60.3657 34.8561L60.9941 16.5437C61.0724 15.5848 60.3585 14.7442 59.3999 14.6662ZM16.9125 37.0611C16.9125 35.7574 17.9731 34.6968 19.2768 34.6968H20.0958V39.4253H19.2768C17.9731 39.4253 16.9125 38.3647 16.9125 37.0611ZM41.9958 61.4551C41.9958 64.3771 39.6185 66.7545 36.6963 66.7545C33.774 66.7545 31.3968 64.3771 31.3968 61.4551V57.668C33.1849 58.3078 35.109 58.6589 37.1143 58.6589C38.8106 58.6589 40.4485 58.406 41.9958 57.9418V61.4551ZM50.6492 41.6404C50.6492 49.1037 44.5776 55.1756 37.1143 55.1756C29.651 55.1756 23.5791 49.1037 23.5791 41.6404V28.092C23.5791 25.3486 24.3705 22.7157 25.8744 20.4387L26.199 20.6851C31.0721 24.3809 37.124 26.4161 43.24 26.4161H50.4079C50.541 26.4161 50.6492 26.5243 50.6492 26.6576V41.6404ZM54.9515 39.4253H54.1325V34.6968H54.9515C56.255 34.6968 57.3158 35.7574 57.3158 37.0611C57.3158 38.3647 56.2552 39.4253 54.9515 39.4253Z" fill="#FBB03B"/>
<path d="M17.6916 11.7529C18.1509 11.7529 18.6096 11.5722 18.9516 11.2137C20.6606 9.42328 22.8474 8.2162 25.2752 7.7232C25.3876 7.70021 25.4977 7.66631 25.6036 7.62172L31.2632 5.24216C39.1868 1.9105 48.1593 4.18185 53.5884 10.8956C54.1933 11.6435 55.2903 11.7594 56.0379 11.1545C56.7858 10.5498 56.902 9.45301 56.297 8.70503C53.3107 5.01227 49.1528 2.28833 44.5899 1.03457C39.7202 -0.303249 34.6453 0.0413652 29.9131 2.03126L24.4081 4.34579C21.3486 5.00298 18.594 6.54352 16.4321 8.8086C15.7679 9.50433 15.7935 10.6069 16.4892 11.2711C16.8268 11.5931 17.2595 11.7529 17.6916 11.7529Z" fill="#FBB03B"/>
<path d="M16.5581 85.1055C15.596 85.1055 14.8164 85.8853 14.8164 86.8471V94.2589C14.8164 95.2207 15.596 96.0005 16.5581 96.0005C17.5201 96.0005 18.2997 95.2207 18.2997 94.2589V86.8471C18.2997 85.8853 17.5201 85.1055 16.5581 85.1055Z" fill="#FBB03B"/>
<path d="M53.7416 85.1055C52.7796 85.1055 52 85.8853 52 86.8471V94.2589C52 95.2207 52.7796 96.0005 53.7416 96.0005C54.7037 96.0005 55.4833 95.2207 55.4833 94.2589V86.8471C55.4833 85.8853 54.7037 85.1055 53.7416 85.1055Z" fill="#FBB03B"/>
<path fill-rule="evenodd" clip-rule="evenodd" d="M72.6979 59.5646L71.557 60.8732C70.3454 62.2628 68.4676 62.8729 66.6707 62.4609L64.9785 62.0728L64.8246 63.8021C64.6612 65.6384 63.5006 67.2358 61.8047 67.9587L60.2076 68.6394L61.0996 70.1289C62.0467 71.7105 62.0467 73.685 61.0996 75.2666L60.2076 76.7561L61.8047 77.4368C63.5006 78.1596 64.6612 79.757 64.8246 81.5933L64.9785 83.3226L66.6707 82.9345C68.4676 82.5225 70.3454 83.1326 71.557 84.5222L72.6979 85.8308L73.8388 84.5222C75.0504 83.1326 76.9282 82.5225 78.7251 82.9345L80.4173 83.3226L80.5712 81.5933C80.7346 79.757 81.8952 78.1596 83.5911 77.4368L85.1882 76.7561L84.2962 75.2666C83.3491 73.685 83.3491 71.7105 84.2962 70.1289L85.1882 68.6394L83.5911 67.9587C81.8952 67.2358 80.7346 65.6384 80.5712 63.8021L80.4173 62.0728L78.7251 62.4609C76.9282 62.8729 75.0504 62.2628 73.8388 60.8732L72.6979 59.5646ZM74.2054 56.7286C73.4083 55.8144 71.9875 55.8144 71.1904 56.7286L69.2957 58.9017C68.8111 59.4575 68.06 59.7016 67.3412 59.5368L64.5311 58.8924C63.3489 58.6213 62.1994 59.4564 62.0919 60.6645L61.8364 63.5363C61.7711 64.2708 61.3068 64.9097 60.6285 65.1989L57.9762 66.3293C56.8604 66.8049 56.4214 68.1561 57.0446 69.1967L58.5258 71.6702C58.9047 72.3028 58.9047 73.0926 58.5258 73.7253L57.0446 76.1987C56.4214 77.2393 56.8604 78.5906 57.9762 79.0661L60.6285 80.1966C61.3068 80.4857 61.7711 81.1247 61.8364 81.8592L62.0919 84.7309C62.1994 85.939 63.3489 86.7742 64.5311 86.5031L67.3412 85.8587C68.06 85.6938 68.8111 85.9379 69.2957 86.4937L71.1904 88.6668C71.9875 89.581 73.4083 89.581 74.2054 88.6668L76.1001 86.4937C76.5847 85.9379 77.3358 85.6938 78.0546 85.8587L80.8647 86.5031C82.0469 86.7742 83.1964 85.939 83.3039 84.7309L83.5594 81.8592C83.6247 81.1247 84.089 80.4857 84.7673 80.1966L87.4196 79.0661C88.5353 78.5906 88.9744 77.2393 88.3512 76.1987L86.87 73.7253C86.4911 73.0926 86.4911 72.3028 86.87 71.6702L88.3512 69.1967C88.9744 68.1561 88.5353 66.8049 87.4196 66.3293L84.7673 65.1989C84.089 64.9097 83.6247 64.2708 83.5594 63.5363L83.3039 60.6645C83.1964 59.4564 82.0469 58.6213 80.8647 58.8924L78.0546 59.5368C77.3358 59.7016 76.5847 59.4575 76.1001 58.9017L74.2054 56.7286Z" fill="#FBB03B"/>
<path fill-rule="evenodd" clip-rule="evenodd" d="M59.0632 93.9367L63.8184 82.6445L66.5832 83.8088L62.6357 93.183L64.8532 93.3536C65.1768 93.3785 65.4835 93.5077 65.7275 93.7218L67.399 95.1888L71.3465 85.8146L74.1113 86.9789L69.3562 98.2711C69.1691 98.7155 68.7797 99.0428 68.3098 99.1508C67.8399 99.2588 67.3467 99.1344 66.9843 98.8163L64.1244 96.3064L60.3305 96.0144C59.8498 95.9774 59.4161 95.7116 59.1651 95.2999C58.914 94.8883 58.8761 94.3811 59.0632 93.9367Z" fill="#FBB03B"/>
<path fill-rule="evenodd" clip-rule="evenodd" d="M86.0022 93.9367L81.2471 82.6445L78.4822 83.8088L82.4297 93.183L80.2123 93.3536C79.8887 93.3785 79.5819 93.5077 79.338 93.7218L77.6664 95.1888L73.719 85.8146L70.9541 86.9789L75.7092 98.2711C75.8964 98.7155 76.2857 99.0428 76.7556 99.1508C77.2255 99.2588 77.7187 99.1344 78.0811 98.8163L80.941 96.3064L84.7349 96.0144C85.2156 95.9774 85.6493 95.7116 85.9004 95.2999C86.1514 94.8883 86.1893 94.3811 86.0022 93.9367Z" fill="#FBB03B"/>
<path fill-rule="evenodd" clip-rule="evenodd" d="M72.6976 68.75C69.7666 68.75 67.3906 71.126 67.3906 74.057C67.3906 74.8854 66.7191 75.557 65.8906 75.557C65.0622 75.557 64.3906 74.8854 64.3906 74.057C64.3906 69.4692 68.1098 65.75 72.6976 65.75C73.526 65.75 74.1976 66.4216 74.1976 67.25C74.1976 68.0784 73.526 68.75 72.6976 68.75Z" fill="#FBB03B"/>
<path fill-rule="evenodd" clip-rule="evenodd" d="M72.6979 78.0039C75.6289 78.0039 78.0049 75.6279 78.0049 72.6969C78.0049 71.8685 78.6765 71.1969 79.5049 71.1969C80.3333 71.1969 81.0049 71.8685 81.0049 72.6969C81.0049 77.2848 77.2857 81.0039 72.6979 81.0039C71.8695 81.0039 71.1979 80.3323 71.1979 79.5039C71.1979 78.6755 71.8695 78.0039 72.6979 78.0039Z" fill="#FBB03B"/>
</svg>
