<svg width="88" height="100" viewBox="0 0 88 100" fill="none" xmlns="http://www.w3.org/2000/svg">
<path d="M83.5304 45.0258L80.4643 40.3714C79.896 39.5088 79.8795 38.3834 80.4221 37.5043L87.3533 26.2759C88.3168 24.7152 88.1184 22.6864 86.871 21.342L83.2138 17.3998C82.6612 16.804 81.7293 16.7688 81.1331 17.3218C80.5369 17.8748 80.502 18.8065 81.0552 19.4025L84.7124 23.3448C85.0624 23.7219 85.118 24.291 84.8477 24.7289L77.9164 35.9576C76.7745 37.8076 76.8092 40.1759 78.0051 41.9913L81.0711 46.6456C84.7006 52.1558 85.8993 58.7348 84.4456 65.1708C82.9924 71.6068 79.0829 77.0323 73.4376 80.4477L47.7048 96.0169C45.4196 97.3997 42.58 97.3997 40.2943 96.0169L14.5617 80.4477C8.91644 77.0323 5.00716 71.6068 3.55369 65.1708C2.10022 58.7348 3.29869 52.1558 6.92823 46.6456L9.99417 41.9911C11.1901 40.1757 11.225 37.8074 10.0831 35.9576L3.15185 24.7289C2.88173 24.2912 2.93728 23.7219 3.2873 23.3446L14.9722 10.7491C15.3285 10.3649 15.8997 10.2707 16.3602 10.5198L17.6233 11.2025C21.0514 13.0557 24.9016 13.7369 28.7573 13.1729C32.6132 12.6087 36.1067 10.8531 38.8601 8.09556L43.9427 3.00568C43.993 2.95542 44.0503 2.94462 44.09 2.94462C44.1253 2.93579 44.1875 2.95522 44.2382 3.00646L49.1306 7.9709C51.881 10.7618 55.3832 12.5435 59.2583 13.1238C63.1336 13.7041 67.0036 13.0256 70.4508 11.1623L71.6393 10.52C72.0998 10.2705 72.6711 10.3649 73.0274 10.7493L76.7872 14.8022C77.3401 15.3982 78.2719 15.4334 78.8679 14.8802C79.4641 14.3272 79.4991 13.3955 78.9459 12.7995L75.1862 8.74671C73.9161 7.37746 71.8817 7.04177 70.239 7.92948L69.0506 8.5718C63.2143 11.7267 55.8851 10.6297 51.2279 5.90417L46.3353 0.939531C45.7409 0.336472 44.947 0.00294462 44.1002 0C44.0966 0 44.0931 0 44.0898 0C43.247 0 42.4551 0.328227 41.8593 0.925004L36.7765 6.01488C34.4746 8.31994 31.5543 9.78773 28.3311 10.2593C25.1077 10.7306 21.8893 10.1611 19.0236 8.61224L17.7605 7.92948C16.1178 7.04177 14.0835 7.37766 12.8135 8.74651L1.12869 21.342C-0.118649 22.6866 -0.316919 24.7154 0.646365 26.2759L7.57762 37.5045C8.12021 38.3836 8.10352 39.509 7.53541 40.3716L4.46947 45.026C0.395483 51.2107 -0.949818 58.5955 0.6817 65.8196C2.31302 73.0435 6.7013 79.1334 13.0377 82.9673L38.7704 98.5365C40.3833 99.5124 42.1917 100 44.0001 100C45.8082 100 47.6166 99.5124 49.2295 98.5365L74.9624 82.9673C81.2986 79.1336 85.6869 73.0437 87.3182 65.8196C88.9495 58.5953 87.6044 51.2107 83.5304 45.0258Z" fill="#FBB03B"/>
<path d="M70.6635 15.4226C67.9213 16.6171 64.8984 17.2486 61.9215 17.2486C56.0146 17.2486 50.4791 14.9328 46.3349 10.7273L45.1152 9.48973C44.8398 9.21019 44.464 9.05216 44.0714 9.05098C43.6859 9.04431 43.3021 9.20528 43.0247 9.48286L41.6392 10.8704C38.9427 13.5706 35.5954 15.5227 31.9596 16.5152C31.1752 16.7294 30.7128 17.539 30.927 18.3232C31.1412 19.1077 31.9508 19.5698 32.735 19.3558C36.865 18.2282 40.6643 16.0134 43.7228 12.951L44.0596 12.6136L44.2375 12.7942C48.9395 17.5655 55.2198 20.193 61.9215 20.193C64.951 20.193 68.0212 19.6173 70.8659 18.5213L76.7145 24.8257L72.0707 32.3488C69.5304 36.4637 69.6078 41.7322 72.268 45.771L75.3341 50.4257C77.9267 54.3613 78.7826 59.0605 77.7446 63.6576C76.7063 68.2548 73.9138 72.1299 69.8816 74.5694L44.149 90.1386C44.0593 90.1928 43.9417 90.1928 43.852 90.1386L29.8361 81.6587C29.1404 81.2378 28.235 81.4604 27.8144 82.1564C27.3935 82.8521 27.6163 83.7572 28.312 84.1781L42.3278 92.6581C42.8325 92.9633 43.4108 93.1247 44.0006 93.1247C44.5903 93.1247 45.1686 92.9633 45.6733 92.6581L71.4062 77.0889C76.1295 74.231 79.4006 69.6914 80.6168 64.3062C81.8331 58.9209 80.8303 53.416 77.7933 48.8057L74.7271 44.1513C72.6945 41.0653 72.6354 37.0398 74.5761 33.8957L79.8086 25.4192C80.1562 24.8558 80.0854 24.1298 79.635 23.6443L72.3306 15.7708C71.9056 15.3124 71.2366 15.1732 70.6635 15.4226Z" fill="#FBB03B"/>
<path d="M10.2064 48.805C7.16929 53.4153 6.16655 58.9202 7.38268 64.3055C8.59881 69.6906 11.8699 74.2302 16.5935 77.0881L22.9409 80.9285C23.1792 81.0726 23.4421 81.1413 23.7016 81.1413C24.1998 81.1413 24.6861 80.8882 24.9627 80.4308C25.3836 79.7351 25.1607 78.8299 24.465 78.4091L18.1176 74.5687C14.0852 72.1292 11.2929 68.2538 10.2549 63.6569C9.21659 59.0599 10.0727 54.3607 12.6651 50.4249L15.7313 45.7705C18.3914 41.7314 18.469 36.4627 15.9286 32.3479L11.2847 24.825L17.1256 18.529C19.9715 19.6369 23.0471 20.2235 26.0842 20.2319H26.0883C26.8994 20.2319 27.5583 19.5755 27.5606 18.7637C27.563 17.9506 26.9055 17.2897 26.0924 17.2873C23.107 17.2791 20.0789 16.6366 17.3359 15.4295C16.7617 15.1768 16.0903 15.3156 15.6634 15.7757L8.36402 23.6438C7.91389 24.129 7.84282 24.8552 8.19048 25.4186L13.4229 33.895C15.364 37.0393 15.3047 41.065 13.2719 44.1509L10.2064 48.805Z" fill="#FBB03B"/>
<path d="M44.0976 73.2364C56.9116 73.2364 67.3367 62.8114 67.3367 49.9972C67.3367 47.8476 67.0428 45.7179 66.4633 43.6666C66.2421 42.8843 65.429 42.4287 64.6461 42.6501C63.8636 42.8712 63.4084 43.6849 63.6294 44.4674C64.1355 46.2579 64.3921 48.1183 64.3921 49.997C64.3921 61.1873 55.2881 70.2915 44.0976 70.2915C32.9072 70.2915 23.803 61.1875 23.803 49.997C23.803 38.8064 32.907 29.7024 44.0976 29.7024C46.7664 29.7024 49.3618 30.2134 51.8117 31.2213C52.5641 31.531 53.4242 31.1718 53.7335 30.4197C54.0427 29.6677 53.6839 28.8075 52.932 28.4981C50.1248 27.3434 47.1527 26.7578 44.0976 26.7578C31.2835 26.7578 20.8584 37.1828 20.8584 49.997C20.8584 62.8112 31.2833 73.2364 44.0976 73.2364Z" fill="#FBB03B"/>
<path d="M43.4316 42.2917C42.311 41.2003 40.5111 41.2234 39.4194 42.3439L36.3927 45.4503C35.3009 46.5709 35.3242 48.3706 36.4448 49.4625L42.6363 55.495C43.5764 56.4112 44.8171 56.9155 46.1294 56.9155C46.2117 56.9155 46.2941 56.9136 46.3768 56.9094C47.7611 56.8409 49.067 56.1935 49.9596 55.133L67.6468 34.1177C68.654 32.9208 68.5001 31.1275 67.303 30.1198L63.9848 27.3271C63.4051 26.8389 62.67 26.6057 61.9146 26.6709C61.1596 26.7359 60.475 27.091 59.987 27.6707L45.7668 44.5667L43.4316 42.2917ZM47.0001 47.6749L62.1706 29.6495L65.3246 32.304L47.7066 53.2373C47.3391 53.6741 46.8014 53.9407 46.2315 53.9689C45.653 53.996 45.1025 53.7873 44.6911 53.3865L38.5765 47.4287L41.4534 44.4761L44.8458 47.7815C45.1387 48.0669 45.5346 48.2183 45.9459 48.1975C46.3548 48.1771 46.7366 47.9878 47.0001 47.6749Z" fill="#FBB03B"/>
</svg>
