<svg width="126" height="125" viewBox="0 0 126 125" fill="none" xmlns="http://www.w3.org/2000/svg">
<g clip-path="url(#clip0)">
<path d="M125.833 10.4167C125.827 4.66641 121.167 0.00651042 115.416 0H67.4997C61.7494 0.00651042 57.0895 4.66641 57.083 10.4167V41.6667H61.2497V16.6667H121.666V95.8333H77.9163V100H121.666V106.25C121.662 109.7 118.867 112.496 115.416 112.5H67.4997C66.9726 112.5 66.4476 112.434 65.9372 112.303L64.8955 116.338C65.7463 116.557 66.6213 116.667 67.4997 116.667H115.416C121.167 116.66 125.827 112 125.833 106.25V10.4167ZM121.666 12.5H61.2497V10.4167C61.2536 6.96641 64.0494 4.17057 67.4997 4.16667H115.416C118.867 4.17057 121.662 6.96641 121.666 10.4167V12.5Z" fill="#FBB03B"/>
<path d="M90.416 104.168H94.5827V108.335H90.416V104.168Z" fill="#FBB03B"/>
<path d="M69.5827 35.4154H75.8327C78.1327 35.4128 79.9968 33.5487 79.9994 31.2487V24.9987C79.9968 22.6987 78.1327 20.8346 75.8327 20.832H69.5827C67.2827 20.8346 65.4186 22.6987 65.416 24.9987V31.2487C65.4186 33.5487 67.2827 35.4128 69.5827 35.4154ZM69.5827 24.9987H75.8327L75.8353 31.2487H69.5827V24.9987Z" fill="white"/>
<path d="M88.3337 35.4154H94.5837C96.8836 35.4128 98.7477 33.5487 98.7503 31.2487V24.9987C98.7477 22.6987 96.8836 20.8346 94.5837 20.832H88.3337C86.0337 20.8346 84.1696 22.6987 84.167 24.9987V31.2487C84.1696 33.5487 86.0337 35.4128 88.3337 35.4154ZM88.3337 24.9987H94.5837L94.5863 31.2487H88.3337V24.9987Z" fill="white"/>
<path d="M107.083 35.4154H113.333C115.633 35.4128 117.497 33.5487 117.499 31.2487V24.9987C117.497 22.6987 115.633 20.8346 113.333 20.832H107.083C104.783 20.8346 102.919 22.6987 102.916 24.9987V31.2487C102.919 33.5487 104.783 35.4128 107.083 35.4154ZM107.083 24.9987H113.333L113.335 31.2487H107.083V24.9987Z" fill="white"/>
<path d="M79.9994 45.832V43.7487C79.9968 41.4487 78.1327 39.5846 75.8327 39.582H69.5827C67.2827 39.5846 65.4186 41.4487 65.416 43.7487V45.832H69.5827V43.7487H75.8327V45.832H79.9994Z" fill="white"/>
<path d="M84.167 49.9987C84.1696 52.2987 86.0337 54.1628 88.3337 54.1654H94.5837C96.8836 54.1628 98.7477 52.2987 98.7503 49.9987V43.7487C98.7477 41.4487 96.8836 39.5846 94.5837 39.582H88.3337C86.0337 39.5846 84.1696 41.4487 84.167 43.7487V49.9987ZM88.3337 43.7487H94.5837L94.5863 49.9987H88.3337V43.7487Z" fill="white"/>
<path d="M102.916 49.9987C102.919 52.2987 104.783 54.1628 107.083 54.1654H113.333C115.633 54.1628 117.497 52.2987 117.499 49.9987V43.7487C117.497 41.4487 115.633 39.5846 113.333 39.582H107.083C104.783 39.5846 102.919 41.4487 102.916 43.7487V49.9987ZM107.083 43.7487H113.333L113.335 49.9987H107.083V43.7487Z" fill="white"/>
<path d="M84.167 68.7487C84.1696 71.0487 86.0337 72.9128 88.3337 72.9154H94.5837C96.8836 72.9128 98.7477 71.0487 98.7503 68.7487V62.4987C98.7477 60.1987 96.8836 58.3346 94.5837 58.332H88.3337C86.0337 58.3346 84.1696 60.1987 84.167 62.4987V68.7487ZM88.3337 62.4987H94.5837L94.5863 68.7487H88.3337V62.4987Z" fill="white"/>
<path d="M102.916 68.7487C102.919 71.0487 104.783 72.9128 107.083 72.9154H113.333C115.633 72.9128 117.497 71.0487 117.499 68.7487V62.4987C117.497 60.1987 115.633 58.3346 113.333 58.332H107.083C104.783 58.3346 102.919 60.1987 102.916 62.4987V68.7487ZM107.083 62.4987H113.333L113.335 68.7487H107.083V62.4987Z" fill="white"/>
<path d="M84.167 87.4987C84.1696 89.7987 86.0337 91.6628 88.3337 91.6654H94.5837C96.8836 91.6628 98.7477 89.7987 98.7503 87.4987V81.2487C98.7477 78.9487 96.8836 77.0846 94.5837 77.082H88.3337C86.0337 77.0846 84.1696 78.9487 84.167 81.2487V87.4987ZM88.3337 81.2487H94.5837L94.5863 87.4987H88.3337V81.2487Z" fill="white"/>
<path d="M102.916 87.4987C102.919 89.7987 104.783 91.6628 107.083 91.6654H113.333C115.633 91.6628 117.497 89.7987 117.499 87.4987V81.2487C117.497 78.9487 115.633 77.0846 113.333 77.082H107.083C104.783 77.0846 102.919 78.9487 102.916 81.2487V87.4987ZM107.083 81.2487H113.333L113.335 87.4987H107.083V81.2487Z" fill="white"/>
<path d="M27.5148 118.134L39.4046 124.739C40.0338 125.089 40.7989 125.089 41.4281 124.739L53.3179 118.134C69.782 108.98 79.9939 91.625 79.9997 72.7878V52.0846C79.9997 50.9341 79.0669 50.0013 77.9163 50.0013H75.6247C62.965 50.0357 50.8179 45.0042 41.8906 36.0281C41.077 35.2146 39.758 35.2146 38.9442 36.0281C30.0163 45.0047 17.8684 50.0365 5.20801 50.0013H2.91634C1.76582 50.0013 0.833008 50.9341 0.833008 52.0846V72.7878C0.838737 91.625 11.0507 108.98 27.5148 118.134ZM4.99967 54.168H5.20801C12.0208 54.1747 18.7676 52.8326 25.0593 50.2193C30.7213 47.8815 35.9216 44.5536 40.4163 40.3919C50.002 49.249 62.5736 54.168 75.6247 54.168H75.833V72.7878C75.8273 90.112 66.4356 106.073 51.2945 114.491L40.4163 120.535L29.5382 114.491C14.3971 106.073 5.0054 90.112 4.99967 72.7878V54.168Z" fill="#FBB03B"/>
<path d="M31.5619 110.848L39.4048 115.205C40.034 115.554 40.7991 115.554 41.4283 115.205L49.2702 110.848C63.0892 103.165 71.6608 88.5974 71.666 72.7862V60.1081C71.666 59.0398 70.8579 58.1448 69.7954 58.0357C59.5751 56.9901 49.8441 53.1346 41.6811 46.8969C40.9342 46.326 39.8978 46.326 39.1509 46.8969C30.9879 53.1346 21.2569 56.9901 11.0366 58.0357C9.97409 58.1448 9.16602 59.0398 9.16602 60.1081V72.7862C9.17122 88.5977 17.7428 103.165 31.5619 110.848ZM13.3327 61.9589C23.1145 60.6458 32.4189 56.9318 40.416 51.1482C48.4132 56.9318 57.7176 60.6458 67.4994 61.9589V72.7862C67.4947 87.0844 59.7436 100.258 47.2473 107.206L40.416 111.001L33.5848 107.206C21.0884 100.258 13.3374 87.0844 13.3327 72.7862V61.9589Z" fill="white"/>
<path d="M38.333 56.25H42.4997V60.4167H38.333V56.25Z" fill="white"/>
<path d="M38.333 102.082H42.4997V106.249H38.333V102.082Z" fill="white"/>
<path d="M17.5 64.582H21.6667V68.7487H17.5V64.582Z" fill="white"/>
<path d="M21.667 85.418H25.8337V89.5846H21.667V85.418Z" fill="white"/>
<path d="M55 85.418H59.1667V89.5846H55V85.418Z" fill="white"/>
<path d="M59.166 64.582H63.3327V68.7487H59.166V64.582Z" fill="white"/>
</g>
<defs>
<clipPath id="clip0">
<rect width="125" height="125" fill="white" transform="translate(0.833008)"/>
</clipPath>
</defs>
</svg>
