<svg width="100" height="100" viewBox="0 0 100 100" fill="none" xmlns="http://www.w3.org/2000/svg">
<g clip-path="url(#clip0)">
<path d="M18.6593 18.8873C19.998 20.2247 22.0672 18.1539 20.7283 16.8166L16.9008 12.993C15.5621 11.6554 13.4929 13.7263 14.8318 15.0637L18.6593 18.8873Z" fill="#27AE60"/>
<path d="M3.10323 37.0366L8.33151 38.4363C10.0957 38.9081 10.8968 36.0927 9.0885 35.6085L3.86022 34.2089C2.03225 33.7201 1.27506 36.5472 3.10323 37.0366Z" fill="#27AE60"/>
<path d="M8.4153 57.6992L3.18702 59.0986C1.38305 59.5816 2.19546 62.3947 3.94381 61.9263L9.17209 60.5269C11.0003 60.0375 10.2431 57.2101 8.4153 57.6992Z" fill="#27AE60"/>
<path d="M18.8875 77.1668L15.0602 80.9902C13.721 82.3275 15.7904 84.3985 17.129 83.0609L20.9562 79.2375C22.2952 77.9003 20.2262 75.8292 18.8875 77.1668Z" fill="#27AE60"/>
<path d="M81.3679 76.9383C80.0294 75.6006 77.9602 77.6719 79.2991 79.0091L83.1264 82.8325C84.4649 84.17 86.5343 82.0991 85.1952 80.7617L81.3679 76.9383Z" fill="#27AE60"/>
<path d="M96.9238 58.7881L91.6955 57.3886C89.8673 56.8996 89.1108 59.7269 90.9387 60.2164L96.167 61.6158C97.931 62.0881 98.7319 59.2722 96.9238 58.7881Z" fill="#27AE60"/>
<path d="M91.2324 38.1762C91.3577 38.1762 91.4851 38.16 91.6118 38.126L96.84 36.7264C98.6682 36.237 97.9108 33.4083 96.083 33.8987L90.8548 35.2983C89.2169 35.7368 89.597 38.1762 91.2324 38.1762Z" fill="#27AE60"/>
<path d="M80.1049 19.0869C80.4792 19.0869 80.8535 18.9443 81.1394 18.6588L84.9667 14.8352C86.3057 13.4978 84.2367 11.4269 82.8977 12.7645L79.0704 16.588C78.2008 17.4565 78.8759 19.0869 80.1049 19.0869Z" fill="#27AE60"/>
<path d="M60.5348 8.06502C61.2514 8.25743 62.1338 7.75278 62.3276 7.03052L63.7286 1.80751C64.2186 -0.0204602 61.3915 -0.77862 60.9013 1.04896L59.5003 6.27197C59.2909 7.05297 59.754 7.85562 60.5348 8.06502Z" fill="#27AE60"/>
<path d="M37.3875 7.11451C37.8696 8.91048 40.7067 8.18979 40.2149 6.35596L38.8139 1.13295C38.3235 -0.694636 35.4963 0.0635242 35.9865 1.8915L37.3875 7.11451Z" fill="#27AE60"/>
<path d="M82.6833 36.5847C82.6833 30.0186 78.1997 24.4791 72.131 22.8611C71.6971 20.2588 70.4054 17.8734 68.4385 16.0728C62.8652 10.8273 53.5007 12.5271 50.0144 19.1121C49.6967 18.5327 49.3298 17.9786 48.9166 17.458C45.923 13.684 40.8124 12.0759 36.1995 13.4548C31.8855 14.7448 28.638 18.4675 27.8964 22.8677C25.4201 23.5314 23.1339 24.8571 21.3335 26.7196C20.0215 28.0771 22.1176 30.1197 23.438 28.7543C25.5538 26.5656 28.5135 25.3106 31.5584 25.3106C33.4954 25.2441 33.4958 22.4501 31.5584 22.3834H31.0032C31.833 19.499 34.1092 17.1352 37.0382 16.2594C40.5142 15.2196 44.3667 16.4325 46.6236 19.2774C47.8119 20.7749 48.4906 22.6371 48.5496 24.5482L48.5494 71.976C48.4401 75.4426 46.2517 78.6297 43.0354 79.9641C39.7008 81.3483 35.6511 80.498 33.1493 77.891C32.1349 76.8341 31.398 75.5408 31.0006 74.1461H31.5582C33.4275 74.1461 33.4642 71.2672 31.5955 71.2192C27.1849 71.1066 23.3029 68.7525 21.4644 65.0759C20.6908 63.5287 20.4824 62.0305 20.2506 60.3421C20.1167 54.6441 20.1727 48.9074 20.227 43.3585C20.2504 40.9615 20.2746 38.4831 20.2838 36.0152C20.291 34.1221 17.3639 34.1135 17.3565 36.0041C17.3264 44.2232 17.1303 52.1717 17.3261 60.4963C17.4779 66.6297 21.8932 72.1077 27.889 73.6229C28.2746 75.9762 29.3752 78.1869 31.0369 79.9182C32.7109 81.6625 34.857 82.8123 37.1434 83.2982C37.0889 84.4945 37.4902 85.6765 38.2967 86.5672C35.8841 89.1762 37.4992 93.5425 41.0175 93.9749C39.8985 96.7968 42.1379 100.06 45.1902 99.9992H54.8363C57.8871 100.06 60.1302 96.796 59.009 93.9747C62.5292 93.5417 64.1415 89.1748 61.7298 86.567C62.5323 85.6806 62.9347 84.5052 62.8832 83.3142C67.5428 82.3935 71.4118 78.3641 72.1306 73.6683C78.1994 72.0503 82.6829 66.5106 82.6829 59.9448V36.5847H82.6833ZM54.8369 97.072H45.1906C43.1927 97.0038 43.1542 94.1388 45.1444 94.0128H54.8832C56.8747 94.1394 56.8333 97.0046 54.8369 97.072ZM58.4265 91.0855H41.601C39.6657 91.027 39.5391 88.2759 41.4511 88.033C41.5009 88.0347 41.5509 88.0355 41.601 88.0355H48.8429C50.7352 88.0355 50.7352 85.1083 48.8429 85.1083H41.7714C40.847 85.0011 40.2291 84.5181 40.0712 83.5541C41.4556 83.5049 42.841 83.2143 44.1573 82.6679C46.6759 81.6229 48.7195 79.7217 50.0017 77.3936C51.9508 80.9441 55.6651 83.396 59.9565 83.5617C59.7231 84.8401 58.9831 85.1069 57.8198 85.1083C55.9274 85.1083 55.9274 88.0355 57.8198 88.0355C58.0713 88.0369 58.3248 88.0414 58.5764 88.033C60.4885 88.2763 60.3622 91.0268 58.4265 91.0855ZM79.7561 59.9446C79.7561 66.1611 74.6927 71.2186 68.469 71.2186C66.5325 71.2848 66.5311 74.0791 68.469 74.1459H69.0322C66.1414 83.8743 51.9645 82.1675 51.4776 71.9744L51.4778 24.5509C51.9715 14.3531 66.1463 12.6627 69.0322 22.3832H68.469C67.6606 22.3832 67.0053 23.0383 67.0053 23.8468C67.0053 24.6553 67.6606 25.3104 68.469 25.3104C74.6927 25.3104 79.7561 30.368 79.7561 36.5845V59.9446Z" fill="#27AE60"/>
<path d="M69.2994 58.9277C62.8354 58.9277 57.5769 64.1818 57.5769 70.6399C57.5769 71.4484 58.2322 72.1035 59.0405 72.1035C59.8488 72.1035 60.5042 71.4484 60.5042 70.6399C60.5042 65.7961 64.4497 61.855 69.2994 61.855C71.2328 61.791 71.2398 58.9949 69.2994 58.9277Z" fill="#27AE60"/>
<path d="M30.7275 61.855C35.5772 61.855 39.5227 65.7959 39.5227 70.6399C39.5227 71.4484 40.1781 72.1035 40.9864 72.1035C41.7947 72.1035 42.45 71.4484 42.45 70.6399C42.45 64.1818 37.1913 58.9277 30.7275 58.9277C28.7916 58.9949 28.7885 61.7871 30.7275 61.855Z" fill="#27AE60"/>
<path d="M40.9871 25.877C40.1788 25.877 39.5235 26.5321 39.5235 27.3406C39.5235 32.1844 35.578 36.1255 30.7283 36.1255C29.92 36.1255 29.2646 36.7806 29.2646 37.5891C29.2646 38.3976 29.92 39.0527 30.7283 39.0527C37.1922 39.0527 42.4508 33.7987 42.4508 27.3406C42.4508 26.5321 41.7955 25.877 40.9871 25.877Z" fill="#27AE60"/>
<path d="M69.2994 36.1255C64.4497 36.1255 60.5042 32.1846 60.5042 27.3406C60.5042 26.5321 59.8488 25.877 59.0405 25.877C58.2322 25.877 57.5769 26.5321 57.5769 27.3406C57.5769 33.7987 62.8356 39.0527 69.2994 39.0527C71.2351 38.9858 71.2384 36.1934 69.2994 36.1255Z" fill="#27AE60"/>
<path d="M42.0224 42.5757C41.451 42.0039 40.5245 42.0033 39.9525 42.5747C38.4299 44.0957 37.5916 46.1167 37.5916 48.2653C37.5916 50.4141 38.4299 52.4351 39.9525 53.9561C41.2912 55.2934 43.3604 53.2227 42.0215 51.8853C40.0313 49.9769 40.0313 46.554 42.0215 44.6454C42.5933 44.0744 42.5937 43.1477 42.0224 42.5757Z" fill="#27AE60"/>
<path d="M57.9236 53.9554C58.6135 54.5274 59.3035 54.5276 59.9936 53.9564C63.1207 50.9583 63.1207 45.5729 59.9936 42.575C58.6548 41.2374 56.5857 43.3084 57.9246 44.6457C59.9149 46.5543 59.9147 49.9772 57.9246 51.8856C57.3528 52.4566 57.3524 53.3834 57.9236 53.9554Z" fill="#27AE60"/>
</g>
<defs>
<clipPath id="clip0">
<rect width="100" height="100" fill="white"/>
</clipPath>
</defs>
</svg>
