<svg width="100" height="100" viewBox="0 0 100 100" fill="none" xmlns="http://www.w3.org/2000/svg">
<g clip-path="url(#clip0)">
<path d="M99.9998 41.1529L94.6547 35.8085H89.057C88.658 36.2075 86.846 38.0195 80.7318 44.1329H71.3744L68.5591 41.3177L69.9248 39.9528H74.0141L79.4241 34.5428C83.2747 30.6922 83.2747 24.427 79.4241 20.5764C75.5736 16.7259 69.3083 16.7259 65.4578 20.5764L60.0478 25.9864V30.0758L58.6821 31.4407L55.8669 28.6254V19.268C58.4258 16.7099 57.0144 18.1213 64.1921 10.9436V5.34514L58.8469 0C46.1295 12.7174 49.1904 9.65651 29.3197 29.5272L31.3918 31.5986L44.3496 18.6409V22.5685L39.0693 27.8488L41.1407 29.9209L44.3496 26.712V38.0698C43.2143 39.2051 1.194 81.2262 0 82.4202L6.09206 88.5115H10.1967C10.8246 87.8836 33.2008 65.5074 33.9027 64.8055L35.1951 66.0971C34.6298 66.6625 12.5458 88.7465 11.4883 89.8039V93.9077L17.5804 99.9998L61.9292 55.651H73.2878L70.0789 58.8591L72.151 60.9313L77.4313 55.651H81.3582L68.4012 68.608L70.4726 70.6801C71.7833 69.3701 98.992 42.1615 99.9998 41.1529ZM90.2708 38.7382H93.4408L95.8563 41.1529L90.7713 46.2379C89.2904 44.757 88.2513 43.7179 86.7712 42.2378L90.2708 38.7382ZM62.9775 27.2003L67.5292 22.6478C70.2376 19.9401 74.6436 19.9401 77.352 22.6478C80.0597 25.3562 80.0597 29.7622 77.352 32.4706L72.8003 37.0223H66.5442L62.9775 33.4556V27.2003ZM61.2616 6.55821V9.72975L57.7628 13.2286L53.7619 9.2285L58.8469 4.14352L61.2616 6.55821ZM8.98283 85.5818H7.30589L4.14352 82.4194L12.0285 74.5345L14.0289 76.5349L16.0293 78.5345L8.98283 85.5818ZM17.5804 95.8563L14.4188 92.6939V91.017L21.4653 83.9705L25.4653 87.9713L17.5804 95.8563ZM27.5375 85.8992L23.5366 81.8991L39.3386 66.0971L33.9027 60.6612L18.1007 76.4632L16.101 74.4627L14.1006 72.4631L51.8104 34.7533L49.739 32.6812L47.28 35.1402V15.7112L51.6906 11.3006L55.6907 15.3007L52.9372 18.0549V29.8393L58.6821 35.5849L60.0478 34.2193V34.6694L65.3311 39.9528H65.7813L64.4156 41.3177L70.1613 47.0634H81.9456L84.6998 44.3091C86.1807 45.7908 87.2191 46.8291 88.6999 48.31L84.2894 52.7205H64.8604L67.3194 50.2616L65.2472 48.1894L27.5375 85.8992Z" fill="#27AE60"/>
<path d="M44.5045 92.1136L33.7211 86.6647L32.3997 89.28L45.5955 95.9481L68.2517 58.8555L65.7508 57.3281L44.5045 92.1136Z" fill="#27AE60"/>
<path d="M41.1446 32.8359L4.72412 55.0581L10.833 67.4673L13.4621 66.1726L8.535 56.1651L42.6704 35.3369L41.1446 32.8359Z" fill="#27AE60"/>
<path d="M37.658 52.3573L39.7301 50.2852L49.7132 60.2682L47.641 62.3404L37.658 52.3573Z" fill="#27AE60"/>
<path d="M33.0085 57.0077L35.0807 54.9355L45.0638 64.9194L42.9916 66.9908L33.0085 57.0077Z" fill="#27AE60"/>
<path d="M55.4376 38.4316C52.0577 38.4316 49.3081 41.1805 49.3081 44.5603C49.3081 47.9402 52.0577 50.6898 55.4376 50.6898C58.8174 50.6898 61.567 47.9402 61.567 44.5603C61.567 41.1805 58.8174 38.4316 55.4376 38.4316ZM55.4376 47.7601C53.6736 47.7601 52.2386 46.325 52.2386 44.5603C52.2386 42.7964 53.6736 41.3613 55.4376 41.3613C57.2015 41.3613 58.6366 42.7964 58.6366 44.5603C58.6366 46.325 57.2015 47.7601 55.4376 47.7601Z" fill="#27AE60"/>
<path d="M71.9911 35.069H67.9604V32.1386H70.7772L70.9115 32.0043L71.0458 32.1386H71.3845V32.4773L72.9836 34.0764L71.9911 35.069ZM74.3646 32.6948L72.2932 30.6234L73.8992 29.0174C73.9915 28.9251 74.0746 28.8251 74.1464 28.7198L76.5641 30.3754C76.3894 30.6302 76.1895 30.8713 75.9698 31.0903L74.3646 32.6948ZM77.4278 27.7845L74.5011 27.6517C74.5019 27.6212 74.5027 27.5899 74.5027 27.5587C74.5027 27.0078 74.2883 26.4905 73.8992 26.1007L75.9706 24.0293C76.9135 24.9715 77.4331 26.225 77.4331 27.5587C77.4331 27.6349 77.4316 27.7097 77.4278 27.7845Z" fill="#27AE60"/>
<path d="M28.9054 82.6016L26.834 80.5302L32.1624 75.201L34.2345 77.2732L28.9054 82.6016ZM35.6154 75.8923L33.544 73.8201L35.6154 71.748L37.6876 73.8201L35.6154 75.8923ZM39.0692 72.4384L36.9971 70.3663L39.0692 68.2949L41.1406 70.3671L39.0692 72.4384Z" fill="#27AE60"/>
<path d="M44.4152 88.1718L41.9143 86.6444L49.2324 74.6632L51.7333 76.1899L44.4152 88.1718ZM52.7519 74.5229L50.2509 72.9962L51.7784 70.4953L54.2793 72.0227L52.7519 74.5229ZM55.297 70.3557L52.7961 68.8283L54.3235 66.3281L56.8244 67.8548L55.297 70.3557Z" fill="#27AE60"/>
</g>
<defs>
<clipPath id="clip0">
<rect width="100" height="100" fill="white"/>
</clipPath>
</defs>
</svg>
