<svg width="100" height="100" viewBox="0 0 100 100" fill="none" xmlns="http://www.w3.org/2000/svg">
<path d="M37.8918 30.3043C37.0478 28.1812 36.8007 25.8676 37.1773 23.6141C37.2283 23.3075 37.1554 22.9932 36.9746 22.7404C36.7938 22.4875 36.52 22.3168 36.2134 22.2659C35.9068 22.2149 35.5925 22.2878 35.3397 22.4686C35.0868 22.6493 34.9162 22.9231 34.8652 23.2297C34.4184 25.9054 34.7121 28.6523 35.7146 31.1729C35.8308 31.46 36.0559 31.6894 36.3408 31.811C36.6256 31.9326 36.947 31.9364 37.2347 31.8218C37.5224 31.7071 37.753 31.4832 37.8762 31.199C37.9993 30.9148 38.0049 30.5934 37.8918 30.3051V30.3043Z" fill="#27AE60"/>
<path d="M39.3974 32.9393C39.2357 32.6738 38.9752 32.4835 38.6732 32.4101C38.3712 32.3367 38.0524 32.3863 37.7869 32.548C37.5215 32.7096 37.3311 32.9701 37.2577 33.2722C37.1844 33.5742 37.234 33.893 37.3956 34.1584C37.5273 34.3744 37.6657 34.5897 37.8073 34.7981C37.8939 34.9253 38.0046 35.0343 38.1333 35.1187C38.2619 35.2032 38.406 35.2615 38.5571 35.2903C38.7083 35.3191 38.8637 35.3178 39.0144 35.2865C39.1651 35.2553 39.3081 35.1947 39.4354 35.1081C39.5626 35.0216 39.6716 34.9108 39.756 34.7822C39.8405 34.6535 39.8988 34.5095 39.9276 34.3583C39.9564 34.2072 39.9551 34.0518 39.9238 33.9011C39.8926 33.7504 39.832 33.6074 39.7454 33.4801C39.6257 33.3041 39.5087 33.1221 39.3974 32.9393Z" fill="#27AE60"/>
<path d="M36.1387 45.1258C36.2661 45.2141 36.4098 45.2761 36.5614 45.3085C36.713 45.3408 36.8695 45.3427 37.0218 45.3142C37.1742 45.2856 37.3193 45.2271 37.4489 45.1421C37.5785 45.057 37.6899 44.9471 37.7767 44.8187C37.8635 44.6903 37.924 44.5459 37.9546 44.394C37.9853 44.242 37.9854 44.0855 37.9552 43.9335C37.9249 43.7815 37.8648 43.637 37.7783 43.5084C37.6917 43.3798 37.5806 43.2696 37.4512 43.1842C36.8377 42.7693 36.2462 42.3229 35.6789 41.8467C35.4409 41.6468 35.1333 41.5497 34.8236 41.5767C34.514 41.6037 34.2277 41.7525 34.0279 41.9906C33.828 42.2286 33.7309 42.5363 33.7578 42.8459C33.7848 43.1555 33.9337 43.4418 34.1717 43.6416C34.8013 44.17 35.4578 44.6654 36.1387 45.1258Z" fill="#27AE60"/>
<path d="M29.0368 15.9301C28.8945 15.8715 28.742 15.8415 28.5881 15.8418C28.4342 15.8421 28.2819 15.8728 28.1398 15.932C27.9977 15.9912 27.8687 16.0778 27.7601 16.1869C27.6516 16.296 27.5655 16.4254 27.507 16.5677C26.8756 18.1023 26.4087 19.6994 26.1138 21.3324C26.0853 21.4843 26.0872 21.6403 26.1193 21.7915C26.1514 21.9427 26.2131 22.086 26.3008 22.2133C26.3885 22.3405 26.5005 22.4492 26.6304 22.5329C26.7603 22.6167 26.9054 22.674 27.0575 22.7014C27.2096 22.7289 27.3656 22.726 27.5166 22.6929C27.6676 22.6598 27.8105 22.5971 27.9371 22.5086C28.0638 22.42 28.1717 22.3073 28.2546 22.1768C28.3375 22.0464 28.3938 21.9009 28.4202 21.7486C28.6857 20.2789 29.1061 18.8415 29.6743 17.4603C29.733 17.318 29.763 17.1655 29.7628 17.0115C29.7625 16.8576 29.7318 16.7052 29.6726 16.5631C29.6134 16.421 29.5268 16.2919 29.4177 16.1833C29.3086 16.0747 29.1792 15.9886 29.0368 15.9301Z" fill="#27AE60"/>
<path d="M25.7483 26.2782C25.798 27.9357 26.0216 29.5834 26.4155 31.1942C26.4895 31.496 26.6804 31.7561 26.9461 31.9173C27.2119 32.0784 27.5308 32.1274 27.8327 32.0534C28.1345 31.9794 28.3946 31.7885 28.5558 31.5227C28.7169 31.2569 28.7659 30.938 28.6919 30.6362C28.3372 29.185 28.1357 27.7007 28.0909 26.2075C28.0786 25.8988 27.945 25.6075 27.7191 25.3968C27.4932 25.1862 27.1933 25.0732 26.8846 25.0826C26.5758 25.0919 26.2833 25.2227 26.0705 25.4466C25.8577 25.6705 25.7419 25.9694 25.7483 26.2782Z" fill="#27AE60"/>
<path d="M31.8022 13.5311C32.6481 12.2995 33.6206 11.1599 34.7038 10.1309C34.8153 10.0249 34.9049 9.89793 34.9675 9.75731C35.03 9.61669 35.0642 9.46513 35.0681 9.31129C35.0721 9.15745 35.0457 9.00433 34.9904 8.86069C34.9352 8.71705 34.8522 8.58569 34.7462 8.47412C34.6402 8.36255 34.5133 8.27295 34.3727 8.21043C34.2321 8.14791 34.0805 8.1137 33.9267 8.10976C33.7728 8.10582 33.6197 8.13221 33.4761 8.18744C33.3324 8.24267 33.2011 8.32565 33.0895 8.43164C31.8877 9.57374 30.8086 10.8384 29.87 12.2051C29.7813 12.3319 29.7186 12.475 29.6855 12.6262C29.6525 12.7774 29.6496 12.9336 29.6773 13.0859C29.7049 13.2381 29.7624 13.3834 29.8465 13.5133C29.9306 13.6432 30.0395 13.7552 30.1671 13.8428C30.2947 13.9304 30.4384 13.9918 30.5898 14.0236C30.7413 14.0553 30.8975 14.0568 31.0495 14.0278C31.2016 13.9989 31.3463 13.9401 31.4755 13.8549C31.6047 13.7697 31.7157 13.6598 31.8022 13.5314V13.5311Z" fill="#27AE60"/>
<path d="M28.6432 34.2976C28.3637 34.4334 28.1497 34.6747 28.0481 34.9684C27.9464 35.262 27.9656 35.5841 28.1014 35.8636C28.8267 37.355 29.7068 38.766 30.7272 40.0733C30.9185 40.3183 31.1992 40.4773 31.5077 40.5153C31.8162 40.5533 32.1272 40.4672 32.3721 40.2759C32.6171 40.0846 32.7761 39.8038 32.8141 39.4954C32.8521 39.1869 32.766 38.8759 32.5747 38.631C31.6555 37.4535 30.8628 36.1826 30.2094 34.8393C30.0736 34.5598 29.8323 34.3457 29.5385 34.2441C29.2448 34.1425 28.9228 34.1617 28.6432 34.2976Z" fill="#27AE60"/>
<path d="M37.6365 7.58194C37.8524 7.58204 38.064 7.5222 38.2478 7.40909C39.5204 6.62917 40.8719 5.98589 42.2797 5.48995C42.5697 5.38443 42.8065 5.16874 42.9384 4.88971C43.0704 4.61068 43.087 4.29085 42.9845 3.99969C42.882 3.70852 42.6689 3.46954 42.3912 3.33464C42.1136 3.19974 41.794 3.17982 41.5017 3.27921C39.9378 3.82989 38.4365 4.54434 37.0228 5.41065C36.8049 5.54409 36.6366 5.74509 36.5435 5.98306C36.4503 6.22102 36.4376 6.48289 36.5071 6.72879C36.5766 6.97469 36.7245 7.19113 36.9284 7.34515C37.1323 7.49917 37.381 7.58232 37.6365 7.58194Z" fill="#27AE60"/>
<path d="M46.4906 4.46982C46.5402 4.46988 46.5897 4.46675 46.6389 4.46044C47.3744 4.36805 48.1142 4.31355 48.8553 4.29716C49.0092 4.29377 49.1609 4.26011 49.3018 4.19809C49.4426 4.13607 49.5699 4.04691 49.6764 3.93569C49.7828 3.82448 49.8663 3.6934 49.922 3.54992C49.9778 3.40645 50.0047 3.2534 50.0014 3.0995C49.998 2.94561 49.9643 2.79389 49.9023 2.65301C49.8403 2.51212 49.7511 2.38484 49.6399 2.27841C49.5287 2.17199 49.3976 2.08851 49.2541 2.03275C49.1106 1.97698 48.9576 1.95002 48.8037 1.95341C47.9817 1.97154 47.1611 2.0321 46.3453 2.13485C46.0496 2.17208 45.7792 2.32056 45.5892 2.55008C45.3991 2.7796 45.3036 3.07291 45.3221 3.37035C45.3406 3.66779 45.4717 3.947 45.6888 4.15117C45.9059 4.35535 46.1926 4.46915 46.4906 4.46942V4.46982Z" fill="#27AE60"/>
<path d="M17.3652 21.1738C17.3652 21.4846 17.4887 21.7827 17.7085 22.0025C17.9282 22.2222 18.2263 22.3457 18.5371 22.3457H22.7033C23.0141 22.3457 23.3122 22.2222 23.532 22.0025C23.7517 21.7827 23.8752 21.4846 23.8752 21.1738C23.8752 20.863 23.7517 20.565 23.532 20.3452C23.3122 20.1254 23.0141 20.002 22.7033 20.002H18.5371C18.2263 20.002 17.9282 20.1254 17.7085 20.3452C17.4887 20.565 17.3652 20.863 17.3652 21.1738Z" fill="#27AE60"/>
<path d="M13.5544 22.3457H14.8611C15.1719 22.3457 15.47 22.2222 15.6897 22.0025C15.9095 21.7827 16.033 21.4846 16.033 21.1738C16.033 20.863 15.9095 20.565 15.6897 20.3452C15.47 20.1254 15.1719 20.002 14.8611 20.002H13.5544C13.2436 20.002 12.9456 20.1254 12.7258 20.3452C12.506 20.565 12.3826 20.863 12.3826 21.1738C12.3826 21.4846 12.506 21.7827 12.7258 22.0025C12.9456 22.2222 13.2436 22.3457 13.5544 22.3457Z" fill="#27AE60"/>
<path d="M21.759 27.4746C22.0698 27.4746 22.3679 27.3511 22.5876 27.1314C22.8074 26.9116 22.9309 26.6135 22.9309 26.3027C22.9309 25.9919 22.8074 25.6939 22.5876 25.4741C22.3679 25.2543 22.0698 25.1309 21.759 25.1309H20.4619C20.1511 25.1309 19.853 25.2543 19.6333 25.4741C19.4135 25.6939 19.29 25.9919 19.29 26.3027C19.29 26.6135 19.4135 26.9116 19.6333 27.1314C19.853 27.3511 20.1511 27.4746 20.4619 27.4746H21.759Z" fill="#27AE60"/>
<path d="M17.9111 26.3027C17.9111 25.9919 17.7877 25.6939 17.5679 25.4741C17.3481 25.2543 17.0501 25.1309 16.7393 25.1309H10.7188C10.4079 25.1309 10.1099 25.2543 9.89011 25.4741C9.67034 25.6939 9.54688 25.9919 9.54688 26.3027C9.54688 26.6135 9.67034 26.9116 9.89011 27.1314C10.1099 27.3511 10.4079 27.4746 10.7188 27.4746H16.7393C17.0501 27.4746 17.3481 27.3511 17.5679 27.1314C17.7877 26.9116 17.9111 26.6135 17.9111 26.3027Z" fill="#27AE60"/>
<path d="M23.8752 31.4316C23.8752 31.1208 23.7517 30.8228 23.532 30.603C23.3122 30.3832 23.0141 30.2598 22.7033 30.2598H18.5371C18.2263 30.2598 17.9282 30.3832 17.7085 30.603C17.4887 30.8228 17.3652 31.1208 17.3652 31.4316C17.3652 31.7424 17.4887 32.0405 17.7085 32.2603C17.9282 32.4801 18.2263 32.6035 18.5371 32.6035H22.7033C23.0141 32.6035 23.3122 32.4801 23.532 32.2603C23.7517 32.0405 23.8752 31.7424 23.8752 31.4316Z" fill="#27AE60"/>
<path d="M13.5544 32.6035H14.8611C15.1719 32.6035 15.47 32.4801 15.6897 32.2603C15.9095 32.0405 16.033 31.7424 16.033 31.4316C16.033 31.1208 15.9095 30.8228 15.6897 30.603C15.47 30.3832 15.1719 30.2598 14.8611 30.2598H13.5544C13.2436 30.2598 12.9456 30.3832 12.7258 30.603C12.506 30.8228 12.3826 31.1208 12.3826 31.4316C12.3826 31.7424 12.506 32.0405 12.7258 32.2603C12.9456 32.4801 13.2436 32.6035 13.5544 32.6035Z" fill="#27AE60"/>
<path d="M24.9101 14.875H23.613C23.3022 14.875 23.0042 14.9985 22.7844 15.2182C22.5646 15.438 22.4412 15.7361 22.4412 16.0469C22.4412 16.3577 22.5646 16.6557 22.7844 16.8755C23.0042 17.0953 23.3022 17.2188 23.613 17.2188H24.9101C25.2209 17.2188 25.519 17.0953 25.7388 16.8755C25.9585 16.6557 26.082 16.3577 26.082 16.0469C26.082 15.7361 25.9585 15.438 25.7388 15.2182C25.519 14.9985 25.2209 14.875 24.9101 14.875Z" fill="#27AE60"/>
<path d="M19.8911 14.875H13.8706C13.5598 14.875 13.2617 14.9985 13.042 15.2182C12.8222 15.438 12.6987 15.7361 12.6987 16.0469C12.6987 16.3577 12.8222 16.6557 13.042 16.8755C13.2617 17.0953 13.5598 17.2188 13.8706 17.2188H19.8911C20.2019 17.2188 20.5 17.0953 20.7198 16.8755C20.9395 16.6557 21.063 16.3577 21.063 16.0469C21.063 15.7361 20.9395 15.438 20.7198 15.2182C20.5 14.9985 20.2019 14.875 19.8911 14.875Z" fill="#27AE60"/>
<path d="M23.613 37.7324H24.9101C25.2209 37.7324 25.519 37.609 25.7388 37.3892C25.9585 37.1694 26.082 36.8713 26.082 36.5605C26.082 36.2497 25.9585 35.9517 25.7388 35.7319C25.519 35.5121 25.2209 35.3887 24.9101 35.3887H23.613C23.3022 35.3887 23.0042 35.5121 22.7844 35.7319C22.5646 35.9517 22.4412 36.2497 22.4412 36.5605C22.4412 36.8713 22.5646 37.1694 22.7844 37.3892C23.0042 37.609 23.3022 37.7324 23.613 37.7324Z" fill="#27AE60"/>
<path d="M13.8706 35.3887C13.7167 35.3887 13.5643 35.419 13.4221 35.4779C13.28 35.5368 13.1508 35.6231 13.042 35.7319C12.9331 35.8407 12.8468 35.9699 12.7879 36.1121C12.729 36.2543 12.6987 36.4067 12.6987 36.5605C12.6987 36.7144 12.729 36.8668 12.7879 37.009C12.8468 37.1512 12.9331 37.2804 13.042 37.3892C13.1508 37.498 13.28 37.5843 13.4221 37.6432C13.5643 37.7021 13.7167 37.7324 13.8706 37.7324H19.8911C20.2019 37.7324 20.5 37.609 20.7198 37.3892C20.9395 37.1694 21.063 36.8713 21.063 36.5605C21.063 36.2497 20.9395 35.9517 20.7198 35.7319C20.5 35.5121 20.2019 35.3887 19.8911 35.3887H13.8706Z" fill="#27AE60"/>
<path d="M50.6499 15.8016L50.6304 14.143C50.6286 13.9892 50.5966 13.8371 50.5361 13.6956C50.4756 13.5541 50.3878 13.4259 50.2778 13.3183C50.1677 13.2107 50.0375 13.1259 49.8947 13.0686C49.7519 13.0113 49.5991 12.9827 49.4452 12.9845C49.2913 12.9862 49.1393 13.0182 48.9978 13.0787C48.8563 13.1392 48.7281 13.227 48.6205 13.3371C48.5129 13.4471 48.428 13.5773 48.3708 13.7201C48.3135 13.863 48.2849 14.0157 48.2866 14.1696L48.3052 15.8005C45.725 16.0874 43.3412 17.3155 41.6098 19.2499C39.8784 21.1842 38.9208 23.689 38.9204 26.285C38.92 28.8811 39.8767 31.3862 41.6074 33.3211C43.3382 35.256 45.7216 36.4849 48.3017 36.7727L48.3038 38.3878C48.3042 38.6983 48.4279 38.996 48.6476 39.2154C48.8673 39.4348 49.1652 39.5581 49.4757 39.5581H49.4775C49.6314 39.5579 49.7837 39.5273 49.9258 39.4682C50.0679 39.4091 50.1969 39.3226 50.3056 39.2136C50.4142 39.1046 50.5004 38.9753 50.559 38.833C50.6177 38.6908 50.6478 38.5383 50.6476 38.3845L50.6454 36.7725C53.2244 36.4842 55.6066 35.2556 57.3368 33.3215C59.0669 31.3875 60.0237 28.8837 60.0241 26.2887C60.0245 23.6937 59.0686 21.1895 57.3391 19.2549C55.6096 17.3202 53.2278 16.0908 50.6489 15.8016H50.6499ZM49.4736 34.4956C47.85 34.4957 46.2628 34.0144 44.9128 33.1125C43.5627 32.2106 42.5105 30.9286 41.8891 29.4287C41.2676 27.9288 41.105 26.2782 41.4216 24.6858C41.7383 23.0934 42.52 21.6307 43.668 20.4826C44.816 19.3345 46.2787 18.5526 47.871 18.2358C49.4634 17.919 51.114 18.0815 52.614 18.7028C54.114 19.3241 55.3961 20.3762 56.2981 21.7262C57.2001 23.0761 57.6816 24.6632 57.6816 26.2868C57.6792 28.4631 56.8137 30.5495 55.275 32.0884C53.7362 33.6274 51.6498 34.4931 49.4736 34.4956Z" fill="#27AE60"/>
<path d="M49.4738 25.1453C49.3358 25.1519 49.1979 25.1305 49.0684 25.0822C48.9389 25.0339 48.8206 24.9599 48.7206 24.8646C48.6205 24.7692 48.5409 24.6546 48.4865 24.5275C48.4321 24.4005 48.404 24.2638 48.404 24.1256C48.404 23.9874 48.4321 23.8507 48.4865 23.7236C48.5409 23.5966 48.6205 23.482 48.7206 23.3866C48.8206 23.2913 48.9389 23.2172 49.0684 23.169C49.1979 23.1207 49.3358 23.0992 49.4738 23.1059C49.6388 23.1043 49.8019 23.1407 49.9505 23.2121C50.0992 23.2836 50.2294 23.3882 50.3313 23.518C50.5224 23.763 50.8031 23.9221 51.1116 23.9602C51.42 23.9983 51.731 23.9124 51.9761 23.7212C52.2212 23.53 52.3802 23.2493 52.4184 22.9409C52.4565 22.6324 52.3705 22.3214 52.1793 22.0764C51.7588 21.5357 51.1844 21.1351 50.5318 20.9271V20.8926C50.5318 20.5818 50.4084 20.2837 50.1886 20.0639C49.9688 19.8442 49.6708 19.7207 49.36 19.7207C49.0492 19.7207 48.7511 19.8442 48.5313 20.0639C48.3116 20.2837 48.1881 20.5818 48.1881 20.8926V21.0121C47.4567 21.3002 46.8497 21.836 46.4729 22.526C46.0962 23.216 45.9737 24.0163 46.1267 24.7874C46.2798 25.5585 46.6987 26.2513 47.3104 26.7451C47.9222 27.2388 48.6878 27.5022 49.4738 27.4891C49.6117 27.4827 49.7494 27.5044 49.8786 27.5528C50.0078 27.6012 50.1259 27.6753 50.2257 27.7706C50.3254 27.8659 50.4049 27.9804 50.4591 28.1073C50.5134 28.2342 50.5414 28.3707 50.5414 28.5087C50.5414 28.6467 50.5134 28.7832 50.4591 28.9101C50.4049 29.037 50.3254 29.1515 50.2257 29.2468C50.1259 29.3421 50.0078 29.4162 49.8786 29.4646C49.7494 29.513 49.6117 29.5346 49.4738 29.5283C49.3089 29.5299 49.1459 29.4935 48.9972 29.4221C48.8485 29.3507 48.7183 29.2461 48.6164 29.1164C48.5222 28.9939 48.4046 28.8913 48.2706 28.8144C48.1365 28.7376 47.9886 28.688 47.8353 28.6685C47.6819 28.6491 47.5263 28.6601 47.3773 28.701C47.2283 28.742 47.0888 28.812 46.967 28.907C46.8451 29.0021 46.7433 29.1203 46.6673 29.2548C46.5913 29.3894 46.5427 29.5377 46.5242 29.6911C46.5057 29.8445 46.5178 30.0001 46.5597 30.1488C46.6016 30.2976 46.6725 30.4366 46.7684 30.5578C47.1636 31.0664 47.6956 31.452 48.302 31.6693V31.6799C48.302 31.9907 48.4254 32.2888 48.6452 32.5085C48.865 32.7283 49.163 32.8518 49.4738 32.8518C49.7846 32.8518 50.0827 32.7283 50.3025 32.5085C50.5223 32.2888 50.6457 31.9907 50.6457 31.6799V31.6633C51.3971 31.3986 52.0297 30.8753 52.4304 30.1868C52.8312 29.4983 52.9738 28.6897 52.8329 27.9057C52.6919 27.1217 52.2765 26.4134 51.6611 25.9077C51.0457 25.4019 50.2703 25.1317 49.4738 25.1453Z" fill="#27AE60"/>
<path d="M55.7739 84.8887H55.7704C55.4596 84.8896 55.162 85.0139 54.9429 85.2343C54.7238 85.4547 54.6012 85.7531 54.6021 86.0639L54.6148 90.2994C54.6157 90.6096 54.7396 90.9068 54.9592 91.1258C55.1789 91.3448 55.4764 91.4678 55.7866 91.4678H55.7903C56.1011 91.4668 56.3988 91.3425 56.6179 91.1221C56.837 90.9017 56.9596 90.6033 56.9587 90.2926L56.946 86.057C56.9451 85.7468 56.8212 85.4496 56.6015 85.2306C56.3817 85.0116 56.0842 84.8886 55.7739 84.8887Z" fill="#27AE60"/>
<path d="M55.7103 66.0557H55.714C56.0247 66.0547 56.3224 65.9304 56.5415 65.71C56.7606 65.4896 56.8832 65.1912 56.8823 64.8805L56.8696 60.6451C56.8687 60.3349 56.7449 60.0377 56.5252 59.8186C56.3055 59.5996 56.008 59.4766 55.6978 59.4766H55.6942C55.5403 59.477 55.388 59.5078 55.246 59.5671C55.104 59.6264 54.9751 59.7131 54.8666 59.8223C54.7581 59.9314 54.6722 60.0609 54.6137 60.2032C54.5553 60.3456 54.5254 60.4981 54.5259 60.652L54.5386 64.8873C54.5395 65.1975 54.6634 65.4946 54.883 65.7136C55.1026 65.9326 55.4001 66.0556 55.7103 66.0557Z" fill="#27AE60"/>
<path d="M55.7619 82.9969H55.7654C56.0762 82.9959 56.3739 82.8716 56.593 82.6512C56.8121 82.4308 56.9347 82.1324 56.9338 81.8217L56.9211 77.5863C56.9202 77.2761 56.7963 76.979 56.5766 76.76C56.357 76.541 56.0594 76.418 55.7492 76.418H55.7455C55.4347 76.4189 55.1371 76.5432 54.918 76.7636C54.6989 76.984 54.5763 77.2824 54.5772 77.5932L54.5898 81.8285C54.5908 82.1387 54.7147 82.4359 54.9344 82.655C55.1541 82.874 55.4517 82.9969 55.7619 82.9969Z" fill="#27AE60"/>
<path d="M55.7356 74.5264H55.7392C56.0499 74.5254 56.3476 74.4011 56.5667 74.1807C56.7858 73.9603 56.9084 73.6619 56.9075 73.3512L56.895 69.1156C56.8941 68.8054 56.7702 68.5083 56.5505 68.2893C56.3309 68.0702 56.0333 67.9473 55.7231 67.9473H55.7196C55.4089 67.9482 55.1112 68.0725 54.8921 68.2929C54.673 68.5133 54.5504 68.8117 54.5513 69.1225L54.5638 73.358C54.5647 73.6682 54.6886 73.9654 54.9082 74.1844C55.1279 74.4034 55.4255 74.5264 55.7356 74.5264Z" fill="#27AE60"/>
<path d="M35.4518 73.7832C33.6849 73.7824 31.9575 74.3055 30.4879 75.2865C29.0184 76.2675 27.8728 77.6623 27.1961 79.2945C26.5193 80.9266 26.3418 82.7228 26.686 84.4558C27.0302 86.1889 27.8806 87.7809 29.1297 89.0306C30.3788 90.2803 31.9704 91.1315 33.7033 91.4765C35.4361 91.8215 37.2324 91.6448 38.8649 90.9689C40.4974 90.2929 41.8927 89.148 42.8744 87.679C43.8561 86.2099 44.3801 84.4827 44.3801 82.7158C44.378 80.3481 43.4368 78.078 41.763 76.4034C40.0892 74.7288 37.8195 73.7865 35.4518 73.7832ZM35.4518 89.3045C34.1485 89.3053 32.8741 88.9196 31.79 88.1961C30.7059 87.4727 29.8608 86.4439 29.3614 85.24C28.8621 84.0361 28.731 82.7112 28.9847 81.4328C29.2385 80.1544 29.8657 78.9799 30.787 78.058C31.7083 77.1361 32.8824 76.5082 34.1606 76.2537C35.4389 75.9991 36.7639 76.1293 37.9681 76.6279C39.1723 77.1265 40.2016 77.9711 40.9258 79.0547C41.6499 80.1384 42.0364 81.4125 42.0364 82.7158C42.0349 84.4621 41.3409 86.1365 40.1065 87.3717C38.872 88.6068 37.1981 89.3019 35.4518 89.3045Z" fill="#27AE60"/>
<path d="M22.0116 57.5137H21.3364C21.0256 57.5137 20.7276 57.6371 20.5078 57.8569C20.288 58.0767 20.1646 58.3747 20.1646 58.6855C20.1646 58.9963 20.288 59.2944 20.5078 59.5142C20.7276 59.734 21.0256 59.8574 21.3364 59.8574H22.0116C22.3224 59.8574 22.6205 59.734 22.8403 59.5142C23.06 59.2944 23.1835 58.9963 23.1835 58.6855C23.1835 58.3747 23.06 58.0767 22.8403 57.8569C22.6205 57.6371 22.3224 57.5137 22.0116 57.5137Z" fill="#27AE60"/>
<path d="M38.0803 57.5137H25.5803C25.2695 57.5137 24.9714 57.6371 24.7517 57.8569C24.5319 58.0767 24.4084 58.3747 24.4084 58.6855C24.4084 58.9963 24.5319 59.2944 24.7517 59.5142C24.9714 59.734 25.2695 59.8574 25.5803 59.8574H38.0803C38.3911 59.8574 38.6892 59.734 38.909 59.5142C39.1287 59.2944 39.2522 58.9963 39.2522 58.6855C39.2522 58.3747 39.1287 58.0767 38.909 57.8569C38.6892 57.6371 38.3911 57.5137 38.0803 57.5137Z" fill="#27AE60"/>
<path d="M87.0921 23.1641C86.4068 23.1653 85.7382 23.3758 85.1758 23.7674C84.6134 24.159 84.1841 24.713 83.9452 25.3554H70.0321V24.1425C70.0317 23.7424 69.8726 23.3588 69.5897 23.0758C69.3068 22.7929 68.9232 22.6338 68.5231 22.6333H66.4892C66.3103 21.8758 66.0803 21.1313 65.8007 20.405H76.5394C77.2562 20.404 77.9435 20.1188 78.4503 19.6118C78.9571 19.1048 79.2422 18.4175 79.2429 17.7007V13.3942L80.078 13.3764C80.3531 14.0144 80.8404 14.5375 81.4572 14.8572C82.0739 15.1769 82.7823 15.2735 83.4622 15.1306C84.142 14.9876 84.7515 14.614 85.1873 14.073C85.6231 13.5319 85.8584 12.8569 85.8533 12.1622C85.8482 11.4675 85.6031 10.7959 85.1594 10.2613C84.7157 9.72678 84.1007 9.3621 83.4189 9.22915C82.737 9.09619 82.0301 9.20314 81.4181 9.53185C80.8061 9.86056 80.3266 10.3908 80.0608 11.0327L78.8679 11.0583C78.3447 11.0629 77.8444 11.2739 77.4759 11.6453C77.1073 12.0167 76.9003 12.5186 76.8997 13.0419V17.7007C76.8997 17.7962 76.8618 17.8877 76.7944 17.9553C76.7269 18.0229 76.6354 18.061 76.5399 18.0612H71.4759V9.80145C72.0038 9.53747 72.4271 9.10298 72.6772 8.56838C72.9273 8.03378 72.9896 7.43039 72.854 6.85596C72.7184 6.28153 72.3928 5.76972 71.93 5.40345C71.4672 5.03717 70.8942 4.83789 70.304 4.83789C69.7138 4.83789 69.1409 5.03717 68.678 5.40345C68.2152 5.76972 67.8896 6.28153 67.754 6.85596C67.6184 7.43039 67.6807 8.03378 67.9308 8.56838C68.1809 9.10298 68.6042 9.53747 69.1321 9.80145V18.0612H64.6948C64.5929 17.8817 64.489 17.7034 64.3804 17.5272L65.8144 16.0938C66.0969 15.8105 66.2555 15.4267 66.2555 15.0266C66.2555 14.6265 66.0969 14.2428 65.8144 13.9595L62.2442 10.3886C62.1041 10.2483 61.9377 10.1371 61.7546 10.0612C61.5715 9.9853 61.3752 9.94623 61.177 9.94623C60.9787 9.94623 60.7824 9.9853 60.5993 10.0612C60.4162 10.1371 60.2498 10.2483 60.1097 10.3886L58.6823 11.8165C57.1041 10.8376 55.3778 10.1206 53.5704 9.69325V8.15614C53.5696 7.75517 53.4096 7.37093 53.1256 7.08791C52.8416 6.8049 52.4567 6.64628 52.0558 6.64696L49.387 6.65926C46.9325 6.61618 44.4941 7.06392 42.2151 7.97621C39.936 8.8885 37.8622 10.2469 36.1153 11.9718C34.0955 13.9809 32.5523 16.4178 31.5997 19.1027C30.647 21.7877 30.3091 24.6522 30.6109 27.4851C30.9127 30.318 31.8464 33.0471 33.3433 35.471C34.8402 37.895 36.8621 39.9521 39.2599 41.4907C39.5147 41.649 39.7252 41.8693 39.8717 42.131C40.0183 42.3928 40.096 42.6874 40.0978 42.9874V52.4763H20.0355C19.6044 52.4795 19.1803 52.5858 18.7986 52.7863C18.4169 52.9867 18.0887 53.2755 17.8413 53.6286C17.7765 53.72 17.7252 53.8203 17.6888 53.9263L12.6829 68.5202C12.5429 68.7771 12.4682 69.0645 12.4654 69.3571C12.4627 69.6497 12.5319 69.9384 12.6671 70.1979C12.8097 70.4786 13.027 70.7145 13.295 70.8796C13.5631 71.0447 13.8716 71.1325 14.1864 71.1335H17.8728V94.3497C17.868 94.8141 18.0448 95.262 18.3656 95.5979C18.6863 95.9338 19.1256 96.1311 19.5898 96.1477L55.7444 98.0454C55.7649 98.0454 55.7853 98.047 55.8058 98.047H55.8095C55.8552 98.0466 55.9008 98.0436 55.9462 98.038C55.9569 98.0368 55.9675 98.0347 55.9784 98.0329C56.0148 98.0277 56.0506 98.0207 56.086 98.012C56.0915 98.0106 56.0972 98.0102 56.1026 98.0089L77.0661 92.5313C77.1528 92.5086 77.2365 92.4758 77.3155 92.4337C77.6329 92.2645 77.8979 92.0117 78.0818 91.7025C78.2656 91.3934 78.3612 91.0398 78.3583 90.6802V70.4181L82.7181 70.2354C82.9621 70.2254 83.2004 70.1587 83.4142 70.0407C83.628 69.9227 83.8114 69.7565 83.9499 69.5554C84.0942 69.3471 84.1887 69.1085 84.2263 68.8579C84.264 68.6074 84.2436 68.3515 84.1669 68.11L79.5519 53.672C79.4216 53.2645 79.0245 52.5757 77.8241 52.5405C77.8138 52.5405 77.8035 52.5405 77.7931 52.5405L58.5392 52.4854V41.5917C58.5825 41.5618 58.6249 41.5331 58.6667 41.503L60.1095 42.9458C60.2496 43.086 60.416 43.1973 60.5991 43.2732C60.7822 43.3491 60.9785 43.3882 61.1768 43.3882C61.375 43.3882 61.5713 43.3491 61.7544 43.2732C61.9376 43.1973 62.1039 43.086 62.244 42.9458L65.8144 39.3751C66.0969 39.0918 66.2556 38.7081 66.2556 38.308C66.2556 37.9079 66.0969 37.5242 65.8144 37.2409L64.3601 35.7866C64.5106 35.5434 64.653 35.2966 64.7898 35.0477H81.6944V41.6993C81.6942 42.0076 81.5718 42.3033 81.3539 42.5214C81.136 42.7396 80.8405 42.8624 80.5321 42.863H77.4688C77.1795 42.1438 76.6471 41.5488 75.9643 41.1817C75.2815 40.8146 74.4915 40.6985 73.732 40.8538C72.9725 41.0091 72.2915 41.4258 71.8075 42.0315C71.3236 42.6371 71.0674 43.3933 71.0836 44.1684C71.0997 44.9435 71.3872 45.6883 71.8959 46.2733C72.4046 46.8582 73.1024 47.2463 73.8678 47.3698C74.6331 47.4933 75.4175 47.3445 76.0844 46.9492C76.7514 46.554 77.2585 45.9374 77.5177 45.2067H80.5325C81.4622 45.2055 82.3535 44.8355 83.0108 44.178C83.6681 43.5204 84.0377 42.629 84.0386 41.6993V34.9651C84.0379 34.3658 83.7996 33.7912 83.3758 33.3674C82.9521 32.9436 82.3775 32.7052 81.7782 32.7044H65.8687C66.1117 32.0496 66.3148 31.3807 66.4769 30.7013H68.5231C68.9233 30.7007 69.3068 30.5415 69.5897 30.2586C69.8726 29.9756 70.0317 29.592 70.0321 29.1919V27.6991H83.9452C84.1599 28.2737 84.5277 28.7785 85.0089 29.1589C85.4901 29.5393 86.0662 29.7807 86.6748 29.8569C87.2834 29.9331 87.9013 29.8412 88.4614 29.5912C89.0215 29.3412 89.5025 28.9426 89.8522 28.4387C90.2018 27.9348 90.4069 27.3447 90.4451 26.7326C90.4832 26.1204 90.3531 25.5094 90.0687 24.966C89.7843 24.4225 89.3566 23.9673 88.8318 23.6497C88.3071 23.332 87.7055 23.1641 87.0921 23.1641ZM82.8405 11.5171C82.9726 11.5169 83.1017 11.5559 83.2116 11.6291C83.3215 11.7023 83.4072 11.8065 83.4578 11.9284C83.5085 12.0503 83.5218 12.1845 83.4962 12.3141C83.4705 12.4436 83.4071 12.5626 83.3138 12.656C83.2205 12.7495 83.1016 12.8131 82.9721 12.8389C82.8426 12.8648 82.7083 12.8516 82.5863 12.8011C82.4643 12.7506 82.36 12.6651 82.2867 12.5553C82.2133 12.4456 82.1741 12.3165 82.1741 12.1845C82.1742 12.0076 82.2444 11.8381 82.3693 11.7129C82.4942 11.5878 82.6637 11.5174 82.8405 11.5171ZM70.304 7.18348C70.3589 7.18333 70.4125 7.19945 70.4582 7.22981C70.5039 7.26017 70.5395 7.3034 70.5606 7.35403C70.5817 7.40466 70.5873 7.46041 70.5767 7.51422C70.5661 7.56803 70.5398 7.61749 70.501 7.65633C70.4623 7.69516 70.4129 7.72164 70.3591 7.73239C70.3054 7.74315 70.2496 7.73771 70.1989 7.71676C70.1482 7.6958 70.1049 7.66028 70.0744 7.61469C70.0439 7.56909 70.0276 7.51548 70.0276 7.46063C70.0276 7.38726 70.0567 7.31688 70.1085 7.26493C70.1604 7.21298 70.2306 7.18369 70.304 7.18348ZM74.4021 45.0681C74.2108 45.0683 74.0238 45.0118 73.8646 44.9057C73.7055 44.7996 73.5814 44.6487 73.508 44.472C73.4347 44.2954 73.4154 44.101 73.4525 43.9134C73.4897 43.7257 73.5817 43.5534 73.7168 43.418C73.852 43.2827 74.0243 43.1905 74.2118 43.1531C74.3994 43.1157 74.5939 43.1348 74.7706 43.2079C74.9473 43.2811 75.0984 43.405 75.2047 43.564C75.311 43.723 75.3677 43.91 75.3677 44.1013C75.3676 44.3574 75.2659 44.6031 75.0848 44.7844C74.9038 44.9656 74.6582 45.0676 74.4021 45.0681ZM15.0683 68.7891L19.8339 54.8966C19.89 54.8478 19.9615 54.8201 20.0358 54.8184H54.0007L48.8718 68.7891H15.0683ZM42.4413 52.4763V47.4118H56.1946V52.4776L42.4413 52.4763ZM76.0155 90.3839L56.9726 95.3589L56.97 94.5276C56.969 94.2175 56.8451 93.9203 56.6255 93.7014C56.4058 93.4824 56.1083 93.3595 55.7982 93.3595H55.7944C55.6405 93.3599 55.4882 93.3907 55.3462 93.45C55.2042 93.5094 55.0753 93.5961 54.9668 93.7052C54.8583 93.8144 54.7723 93.9439 54.7139 94.0863C54.6554 94.2286 54.6256 94.3811 54.6261 94.535L54.6294 95.6397L20.2153 93.8337V71.1329H49.3358C49.6154 71.132 49.8905 71.0625 50.1369 70.9305C50.3833 70.7984 50.5935 70.6079 50.7491 70.3757C50.8025 70.2967 50.846 70.2114 50.8786 70.1218L55.488 57.5659C55.5531 57.5773 55.619 57.5832 55.6851 57.5837H55.6888C55.899 57.583 56.1051 57.5255 56.2853 57.4171L62.7614 70.1198C62.8924 70.3854 63.0948 70.6093 63.346 70.7663C63.5971 70.9233 63.887 71.0072 64.1831 71.0087C64.2044 71.0087 64.2261 71.0087 64.2476 71.0073L76.0149 70.5145L76.0155 90.3839ZM77.4782 54.8829L81.6501 67.9348L64.6399 68.6475L57.5935 54.8261L77.4782 54.8829ZM67.6884 28.3575H65.803C65.4536 28.3585 65.1153 28.4804 64.8456 28.7026C64.5759 28.9248 64.3914 29.2335 64.3235 29.5763C63.938 31.5368 63.1625 33.3999 62.0431 35.055C61.8473 35.3454 61.7585 35.6947 61.7917 36.0434C61.825 36.392 61.9782 36.7183 62.2253 36.9665L63.5669 38.3085L61.1769 40.6987L59.8292 39.3511C59.5819 39.1048 59.257 38.9518 58.9096 38.918C58.5623 38.8842 58.2139 38.9716 57.9237 39.1655C57.7497 39.2827 57.5966 39.3899 57.447 39.4952C57.2595 39.6272 57.0825 39.7518 56.878 39.8829C56.6683 40.016 56.4957 40.2 56.3762 40.4178C56.2567 40.6356 56.1941 40.88 56.1944 41.1284V45.0681H50.6579L50.6548 42.7479C50.6544 42.4374 50.5307 42.1397 50.311 41.9203C50.0913 41.7009 49.7934 41.5776 49.4829 41.5776H49.4814C49.3275 41.5778 49.1751 41.6083 49.033 41.6674C48.8909 41.7265 48.7618 41.813 48.6532 41.922C48.5445 42.0309 48.4583 42.1602 48.3996 42.3025C48.3409 42.4447 48.3108 42.5972 48.311 42.7511L48.3142 45.0681H42.4413V42.9884C42.4407 42.2938 42.2638 41.6107 41.9273 41.003C41.5907 40.3954 41.1055 39.883 40.5171 39.5139C38.4166 38.1645 36.6456 36.3611 35.3344 34.2366C34.0232 32.112 33.2053 29.7204 32.9408 27.2379C32.6763 24.7554 32.972 22.2451 33.8061 19.892C34.6402 17.5389 35.9915 15.4028 37.7605 13.6411C40.5658 10.8715 44.2921 9.23079 48.2292 9.03172L48.2466 10.5638C48.2501 10.8722 48.3751 11.1669 48.5945 11.3838C48.8139 11.6007 49.11 11.7224 49.4185 11.7223H49.4319C49.7427 11.7188 50.0394 11.592 50.2566 11.3698C50.4739 11.1476 50.594 10.8482 50.5905 10.5374L50.5732 8.99852L51.2265 8.9954V10.3684C51.2273 10.7183 51.3495 11.057 51.5721 11.3268C51.7948 11.5967 52.1041 11.781 52.4474 11.8483C54.4168 12.2322 56.2886 13.0094 57.9507 14.1335C58.2411 14.329 58.5904 14.4177 58.939 14.3844C59.2875 14.3511 59.6137 14.1979 59.8618 13.9509L61.1767 12.6358L63.5667 15.0263L62.2468 16.3462C62.0001 16.594 61.847 16.9196 61.8133 17.2676C61.7796 17.6155 61.8675 17.9645 62.062 18.255C63.1805 19.9168 63.9527 21.7869 64.3325 23.7538C64.3994 24.0976 64.5836 24.4076 64.8536 24.6307C65.1236 24.8539 65.4627 24.9763 65.813 24.9772H67.688L67.6884 28.3575ZM87.0921 27.5456C86.8906 27.5459 86.6935 27.4863 86.5258 27.3746C86.3581 27.2628 86.2274 27.1038 86.1501 26.9177C86.0728 26.7316 86.0524 26.5268 86.0916 26.3291C86.1308 26.1314 86.2277 25.9498 86.3701 25.8072C86.5125 25.6646 86.694 25.5675 86.8916 25.5281C87.0893 25.4887 87.2941 25.5089 87.4803 25.5859C87.6665 25.663 87.8257 25.7936 87.9376 25.9612C88.0496 26.1287 88.1093 26.3257 88.1093 26.5272C88.1091 26.7971 88.0019 27.0558 87.8113 27.2467C87.6206 27.4376 87.3619 27.5451 87.0921 27.5456Z" fill="#27AE60"/>
</svg>
