<svg width="624" height="604" viewBox="0 0 624 604" fill="none" xmlns="http://www.w3.org/2000/svg">
<g clip-path="url(#clip0)">
<path d="M268.191 424.422C273.697 424.422 287.528 426.717 293.755 427.865L326.2 676.268L326.601 679.219L327.002 682.17L331.479 715.127L333.083 726.932L293.755 751.035L235.254 742.672L232.304 729.883L262.292 676.268L272.616 673.808L262.292 536.572L252.46 529.686C250.985 513.125 247.937 476.955 247.544 464.757C247.052 449.508 261.309 424.422 268.191 424.422Z" fill="#0C0F23"/>
<path d="M293.755 427.865C287.528 426.717 273.697 424.422 268.191 424.422C261.309 424.422 247.052 449.508 247.544 464.757C247.937 476.955 250.985 513.125 252.46 529.686M293.755 427.865L326.2 676.268L326.601 679.219M293.755 427.865C279.498 434.751 276.548 461.313 276.057 471.643C275.664 479.907 277.859 516.077 279.007 533.129L252.46 529.686M252.46 529.686L262.292 536.572L272.616 673.808M272.616 673.808L262.292 676.268M272.616 673.808L326.601 679.219M262.292 676.268L232.304 729.883M262.292 676.268L294.647 679.219M232.304 729.883L235.254 742.672L293.755 751.035M232.304 729.883L293.755 737.754M293.755 751.035L333.083 726.932L331.479 715.127M293.755 751.035V737.754M293.755 737.754L331.479 715.127M293.755 737.754L281.465 726.932L294.647 679.219M293.755 737.754L294.647 679.219M331.479 715.127L327.002 682.17M327.002 682.17L326.601 679.219M327.002 682.17L294.647 679.219" stroke="#27AE60" stroke-width="2"/>
<path d="M489.413 438.685L488.602 444.096L465.391 599.04L462.739 616.748L456.475 658.558C454.237 657.508 448.874 655.651 439.761 653.256L424.521 683.152L378.802 678.725L283.922 660.526L264.75 628.961C261.791 628.792 259.153 628.656 256.884 628.553L267.454 565.1L289.576 432.29L291.788 419.009C292.561 415.654 293.548 412.019 294.757 408.188C295.314 406.423 295.918 404.617 296.57 402.777C306.005 376.15 325.46 342.515 357.171 326.526C366.165 321.992 376.143 318.877 387.159 317.744C388.775 317.577 390.414 317.454 392.075 317.374C397.713 317.105 403.61 317.348 409.773 318.173C414.818 318.847 419.565 319.827 424.029 321.078C426.933 321.892 429.717 322.82 432.387 323.854C442.006 327.581 450.132 332.68 456.967 338.721C473.693 353.505 482.692 373.933 486.955 393.713C489.315 404.667 490.222 415.423 490.184 424.912C490.178 426.421 490.148 427.898 490.096 429.339C490.01 431.742 489.863 434.044 489.664 436.225C489.588 437.063 489.504 437.884 489.413 438.685Z" fill="#0C0F23"/>
<path d="M291.788 419.009C292.561 415.654 293.548 412.019 294.757 408.188M291.788 419.009C294.118 418.148 298.221 417.133 304.078 416.281M291.788 419.009L289.576 432.29M488.602 444.096L489.413 438.685C489.504 437.884 489.588 437.063 489.664 436.225M488.602 444.096L465.391 599.04M488.602 444.096C486.54 443.399 484.175 442.624 481.547 441.788M294.757 408.188C298.356 406.056 311.944 401.99 337.507 402.777C369.461 403.761 438.788 410.647 489.664 436.225M294.757 408.188C295.314 406.423 295.918 404.617 296.57 402.777M489.664 436.225C489.863 434.044 490.01 431.742 490.096 429.339M296.57 402.777C301.203 400.81 315.877 396.874 337.507 396.874C364.545 396.874 449.486 404.253 490.096 429.339M296.57 402.777C306.005 376.15 325.46 342.515 357.171 326.526M490.096 429.339C490.148 427.898 490.178 426.421 490.184 424.912M465.391 599.04L454.509 592.645L481.547 441.788M465.391 599.04L462.739 616.748M481.547 441.788C476.328 440.129 470.069 438.229 463.066 436.225M462.739 616.748L456.475 658.558C454.237 657.508 448.874 655.651 439.761 653.256M462.739 616.748L448.118 610.845L439.761 653.256M439.761 653.256L424.521 683.152M439.761 653.256C432.259 651.284 422.216 648.947 409.281 646.394M463.066 436.225C437.067 428.786 400.811 419.911 369.461 416.55C339.029 413.287 317.17 414.376 304.078 416.281M463.066 436.225L441.236 616.748M298.671 454.425L295.229 478.528C301.784 478.528 321.186 478.724 346.356 479.511C371.526 480.298 402.071 485.742 414.197 488.365L417.147 462.787C402.399 457.377 387.159 456.393 347.831 453.933C319.81 452.181 307.192 453.441 298.671 454.425ZM298.671 454.425L304.078 416.281M267.454 565.1L256.884 628.553C259.153 628.656 261.791 628.792 264.75 628.961M267.454 565.1H277.532L300.145 429.339L289.576 432.29M267.454 565.1L289.576 432.29M490.184 424.912L476.139 416.55L474.665 387.529L486.955 393.713M490.184 424.912C490.222 415.423 489.315 404.667 486.955 393.713M486.955 393.713C482.692 373.933 473.693 353.505 456.967 338.721M357.171 326.526H378.31C379.457 324.767 382.833 320.548 387.159 317.744M357.171 326.526C366.165 321.992 376.143 318.877 387.159 317.744M387.159 317.744C388.775 317.577 390.414 317.454 392.075 317.374M392.075 317.374C397.713 317.105 403.61 317.348 409.773 318.173C414.818 318.847 419.565 319.827 424.029 321.078M392.075 317.374L382.243 326.526C388.306 326.529 402.89 326.928 412.723 328.502C422.555 330.076 431.567 332.109 434.845 332.929L424.029 321.078M424.029 321.078C426.933 321.892 429.717 322.82 432.387 323.854M432.387 323.854L439.761 335.389L456.967 338.721M432.387 323.854C442.006 327.581 450.132 332.68 456.967 338.721M392.075 334.747C388.136 333.753 383.296 332.929 378.31 332.929C368.872 332.929 356.68 332.929 351.764 332.929L330.625 366.377L381.26 367.593M392.075 334.747C395.594 335.635 398.395 336.66 399.941 337.356L392.075 367.853L381.26 367.593M392.075 334.747L381.26 367.593M424.521 683.152L390.6 673.315L298.179 660.526H283.922M424.521 683.152L378.802 678.725L283.922 660.526M283.922 660.526L264.75 628.961M264.75 628.961C267.025 629.091 269.49 629.241 272.124 629.412M272.124 629.412L287.855 657.082L277.532 629.774M272.124 629.412C273.856 629.524 275.66 629.645 277.532 629.774M277.532 629.774C279.584 629.917 281.717 630.07 283.922 630.234M283.922 630.234L295.229 655.607L313.419 657.082L308.011 632.242M283.922 630.234C291.253 630.78 299.382 631.447 308.011 632.242M308.011 632.242C311.066 632.524 314.184 632.821 317.351 633.136M317.351 633.136L321.284 658.558L336.032 660.526V635.127M317.351 633.136C323.427 633.738 329.685 634.401 336.032 635.127M336.032 635.127C338.309 635.387 340.597 635.655 342.892 635.931M342.892 635.931C355.706 637.475 368.745 639.272 381.26 641.342C381.754 641.424 382.246 641.505 382.735 641.587M342.892 635.931V662.985L374.869 665.936L382.735 641.587M382.735 641.587C385.212 642 387.621 642.411 389.96 642.818M389.96 642.818L381.26 665.936L391.584 667.904L409.281 646.394M389.96 642.818C397.012 644.045 403.441 645.241 409.281 646.394M432.387 444.096L409.281 581.824L434.845 587.235L454.509 450.49L432.387 444.096ZM409.281 587.235L406.823 600.516L432.387 606.418L434.845 594.121L409.281 587.235ZM400.432 584.775L398.466 599.04L362.579 592.645L364.054 580.348L400.432 584.775ZM351.764 577.397L350.289 590.678L311.452 587.235L313.419 573.954L351.764 577.397ZM304.078 573.954L302.603 587.235L286.38 586.251L287.855 573.954H304.078ZM364.054 486.89L351.764 571.494L314.893 567.559L327.675 484.922L364.054 486.89ZM304.078 460.328V469.674H311.452L317.351 473.117L361.596 475.576V471.149L380.768 477.052L405.348 479.511V469.674L387.159 462.787H382.243V464.755H362.579V460.328L319.81 457.377L311.452 460.328H304.078ZM411.248 444.096V454.425L395.516 450.49L390.109 452.95L339.965 447.539V444.096H332.1L323.251 447.539L306.536 445.571L308.011 433.274L321.776 430.815L330.625 434.75H339.965L340.948 432.29L387.159 434.75L395.516 440.16L411.248 444.096ZM402.399 580.348L414.197 495.252L371.428 488.365L359.138 573.954L402.399 580.348ZM409.281 497.711L398.466 575.921L363.071 570.51L374.869 492.792L409.281 497.711ZM321.776 482.955L319.81 509.025H290.313L293.755 482.955H321.776ZM317.351 517.387L309.486 567.559L293.755 565.1L300.145 515.911L317.351 517.387ZM311.452 592.645L309.486 625.602L340.948 628.553L345.373 596.089L311.452 592.645ZM353.73 599.04L350.289 630.029L368.478 633.472L374.869 601.991L353.73 599.04ZM380.768 601.991L374.869 633.472L385.684 635.931L391.584 603.959L380.768 601.991ZM395.516 606.418L391.584 635.931L400.432 638.391L406.823 606.418H395.516ZM422.063 609.369L411.248 618.223V633.472L416.164 642.818L429.929 645.769L436.319 638.391L438.286 620.683L433.861 612.813L422.063 609.369ZM306.536 592.645L302.603 623.634H273.599L276.057 590.678L306.536 592.645ZM417.147 371.788L415.672 401.301L434.845 404.745V374.74L417.147 371.788ZM439.761 376.215L439.269 405.728L454.509 410.155V379.658L439.761 376.215ZM458.442 381.626L459.425 411.139L471.223 416.281V386.053L458.442 381.626ZM377.327 375.723L374.869 395.399L340.948 393.713L346.356 373.756L377.327 375.723ZM340.948 373.756L336.032 393.713H329.15L334.066 373.756H340.948ZM328.167 378.675L324.726 393.713H313.91L317.351 378.675H328.167Z" stroke="#27AE60" stroke-width="2"/>
<path d="M368.914 353.938C364.969 360.38 357.851 362.723 353.135 359.831C348.42 356.939 347.277 349.529 351.223 343.088C355.169 336.647 362.287 334.303 367.002 337.195C371.717 340.087 372.86 347.497 368.914 353.938Z" stroke="#27AE60" stroke-width="2"/>
<path fill-rule="evenodd" clip-rule="evenodd" d="M354.444 361.543C359.605 363.31 366.099 360.446 369.767 354.459C370.849 352.692 371.578 350.829 371.966 348.983C371.108 347.678 369.954 346.534 368.532 345.661C363.405 342.517 356.729 344.082 353.621 349.155C351.188 353.128 351.663 358.074 354.444 361.543Z" fill="#27AE60"/>
<path d="M395.573 382.157C393.907 386.051 390.053 387.801 387.134 386.552C384.215 385.302 382.819 381.303 384.484 377.41C386.149 373.516 390.003 371.765 392.923 373.015C395.842 374.265 397.238 378.263 395.573 382.157Z" stroke="#27AE60" stroke-width="2"/>
<path d="M399.289 384.385C397.312 389.008 392.33 391.155 388.248 389.407C384.166 387.659 382.277 382.572 384.254 377.948C386.231 373.324 391.213 371.178 395.296 372.926C399.378 374.674 401.267 379.761 399.289 384.385Z" stroke="#27AE60" stroke-width="2"/>
<path d="M406.228 388.35C403.676 394.318 396.644 397.071 390.496 394.439C384.348 391.807 381.482 384.816 384.034 378.848C386.586 372.88 393.619 370.127 399.767 372.759C405.914 375.391 408.78 382.382 406.228 388.35Z" stroke="#27AE60" stroke-width="2"/>
<path fill-rule="evenodd" clip-rule="evenodd" d="M386.741 387.469C390.31 388.998 394.676 386.794 396.492 382.549C396.767 381.904 396.968 381.25 397.098 380.599C396.711 378.703 395.589 377.123 393.89 376.396C390.842 375.091 387.092 377.025 385.514 380.715C384.656 382.721 384.617 384.833 385.249 386.553C385.693 386.924 386.191 387.234 386.741 387.469Z" fill="#27AE60"/>
<ellipse rx="6.95753" ry="8.03032" transform="matrix(0.953516 0.301342 -0.301026 0.953616 363.766 384.001)" fill="#0C0F23"/>
<path d="M522.842 466.231C522.842 480.004 523.825 550.836 522.842 555.263C522.453 557.015 521.245 558.519 519.886 559.69L522.352 626.586L527.266 630.521V642.819V662.494L538.573 664.954V692.991L536.704 694.467L538.573 697.762L560.695 736.769L553.321 748.082L513.01 787.433L453.034 776.12L445.168 765.79L479.717 709.223L483.022 703.813L481.055 651.181L485.48 645.77L479.089 562.149L473.19 551.328L469.257 509.517C466.471 503.451 461.293 489.252 462.866 480.988C464.439 472.724 475.976 451.639 481.547 442.129L511.535 444.096C517.926 444.096 522.842 452.459 522.842 466.231Z" fill="#0C0F23"/>
<path d="M511.535 444.096C507.766 448.359 499.736 463.575 497.77 490.334C495.804 517.092 499.245 544.769 501.211 555.263M511.535 444.096C517.926 444.096 522.842 452.459 522.842 466.231C522.842 480.004 523.825 550.836 522.842 555.263C522.453 557.015 521.245 558.519 519.886 559.69M511.535 444.096L481.547 442.129C475.976 451.639 464.439 472.724 462.866 480.988C461.293 489.252 466.471 503.451 469.257 509.517L473.19 551.328M501.211 555.263L508.585 565.101M501.211 555.263L473.19 551.328M508.585 565.101L505.144 509.517L508.585 502.631L505.144 494.761C504.652 485.087 505.242 465.838 511.535 466.231C517.827 466.625 517.106 482.464 515.959 490.334V562.149C516.953 561.735 518.498 560.886 519.886 559.69M508.585 565.101L505.144 564.756M519.886 559.69L522.352 626.586M522.842 639.867L508.585 648.229M522.842 639.867L527.266 642.819M522.842 639.867L522.352 626.586M508.585 648.229L485.48 645.77M508.585 648.229L505.144 564.756M508.585 648.229V654.132M485.48 645.77L479.089 562.149M485.48 645.77L481.055 651.181M479.089 562.149L473.19 551.328M479.089 562.149L505.144 564.756M481.055 651.181L508.585 654.132M481.055 651.181L483.022 703.813M508.585 654.132L527.266 642.819M508.585 654.132V692.991M527.266 642.819V630.521L522.352 626.586M527.266 642.819V662.494M483.022 703.813L508.585 707.748M483.022 703.813L479.717 709.223M508.585 707.748V692.991M508.585 707.748H519.886M508.585 707.748L509.307 714.634M527.266 662.494L508.585 692.991M527.266 662.494L538.573 664.954M538.573 664.954L519.886 697.418V707.748M538.573 664.954V692.991L536.704 694.467M519.886 707.748L536.704 694.467M519.886 707.748V714.634M536.704 694.467L538.573 697.762M560.695 736.769L515.959 778.087M560.695 736.769L538.573 697.762M560.695 736.769L553.321 748.082L513.01 787.433M515.959 778.087L445.168 765.79M515.959 778.087L509.307 714.634M515.959 778.087L519.886 714.634M515.959 778.087L513.01 787.433M445.168 765.79L479.717 709.223M445.168 765.79L453.034 776.12L513.01 787.433M519.886 714.634H509.307M519.886 714.634L538.573 697.762M509.307 714.634L479.717 709.223" stroke="#27AE60" stroke-width="2"/>
<path d="M219.698 327.752L217.23 370.262V381.421L215.255 381.65L213.281 381.879L202.571 383.119L200.445 383.365L193.041 384.223L188.598 384.738L182.674 385.424L172.8 386.568L165.149 387.454L157.497 388.341L152.067 388.97L146.636 389.599L134.789 390.972L129.358 391.601L107.144 394.174L101.713 338.911L125.409 329.346L129.358 328.987L154.041 326.749L157.497 326.435L164.902 325.763L167.37 325.539L178.132 324.563L193.041 323.211L198.471 322.718L200.445 322.539L203.901 322.226L213.281 321.375L214.885 322.969L216.489 324.563L219.698 327.752Z" fill="#0C0F23"/>
<path d="M125.409 329.346L101.713 338.911L107.144 394.174L129.358 391.601M125.409 329.346L129.358 328.987M125.409 329.346L129.358 391.601M216.489 324.563L219.698 327.752L217.23 370.262V381.421L215.255 381.65M216.489 324.563L215.255 381.65M216.489 324.563L214.885 322.969M215.255 381.65L213.281 381.879M214.885 322.969L213.281 321.375L203.901 322.226M214.885 322.969L214.494 337.316M213.281 381.879L202.571 383.119M213.281 381.879L214.321 343.693M203.901 322.226L200.445 322.539M203.901 322.226L203.806 326.583M202.571 383.119L200.445 383.365M202.571 383.119L203.711 330.94M200.445 322.539V383.365M200.445 322.539L198.471 322.718M200.445 383.365L193.041 384.223M198.471 322.718L193.041 384.223M198.471 322.718L193.041 323.211M193.041 384.223L188.598 384.738M193.041 323.211L188.598 384.738M193.041 323.211L178.132 324.563M188.598 384.738L182.674 385.424M167.37 325.539L172.8 386.568M167.37 325.539L164.902 325.763M167.37 325.539L165.149 387.454M167.37 325.539L178.132 324.563M172.8 386.568L165.149 387.454M172.8 386.568L182.674 385.424M164.902 325.763L157.497 388.341M164.902 325.763L157.497 326.435M157.497 388.341L165.149 387.454M157.497 388.341L152.067 388.97M182.674 385.424C183.069 385.379 179.81 344.831 178.132 324.563M214.321 343.693L203.711 330.94M214.321 343.693L214.494 337.316M203.711 330.94L203.806 326.583M214.494 337.316L203.806 326.583M154.041 326.749L146.636 389.599M154.041 326.749L157.497 326.435M154.041 326.749L129.358 328.987M146.636 389.599L152.067 388.97M146.636 389.599L134.789 390.972M157.497 326.435L152.067 388.97M129.358 328.987L134.789 390.972M134.789 390.972L129.358 391.601" stroke="#27AE60" stroke-width="2"/>
<path d="M177.912 621.919C166.113 624.87 155.298 612.081 150.382 598.308C145.465 584.535 150.356 571.323 156.771 568.303C165.313 564.281 171.935 561.615 183.319 560.43C185.466 560.207 187.802 560.036 190.202 559.923C199.977 559.464 210.815 559.977 214.289 561.908C223.138 566.827 229.037 586.994 225.104 596.34C223.04 601.246 213.392 607.235 202.983 612.246C200.538 613.424 198.05 614.547 195.609 615.59C188.646 618.564 182.062 620.88 177.912 621.919Z" fill="#0C0F23"/>
<path d="M177.912 621.919C166.113 624.87 155.298 612.081 150.382 598.308C145.465 584.535 150.356 571.323 156.771 568.303M177.912 621.919C182.828 620.467 191.198 605.71 181.844 586.992C173.979 571.252 166.113 566.825 156.771 568.303M177.912 621.919C182.062 620.88 188.646 618.564 195.609 615.59M156.771 568.303C165.313 564.281 171.935 561.615 183.319 560.43M195.609 615.59C198.231 613.108 202.983 606.188 202.983 598.308C202.983 575.189 192.168 566.043 183.319 560.43M195.609 615.59C198.05 614.547 200.538 613.424 202.983 612.246M183.319 560.43C185.466 560.207 187.802 560.036 190.202 559.923M202.983 612.246C213.392 607.235 223.04 601.246 225.104 596.34C229.037 586.994 223.138 566.827 214.289 561.908C210.815 559.977 199.977 559.464 190.202 559.923M202.983 612.246C205.769 610.387 210.751 600.273 208.391 588.468C205.441 573.711 201.017 567.286 190.202 559.923" stroke="#27AE60" stroke-width="2"/>
<path d="M170.163 597.089C171.497 600.086 172.336 602.923 172.631 605.068C172.78 606.148 172.782 606.994 172.675 607.578C172.622 607.868 172.549 608.053 172.484 608.161C172.454 608.213 172.429 608.241 172.414 608.254C172.4 608.267 172.393 608.271 172.391 608.272C172.389 608.272 172.381 608.276 172.363 608.277C172.343 608.279 172.305 608.279 172.246 608.267C172.123 608.243 171.937 608.173 171.686 608.019C171.18 607.708 170.553 607.14 169.851 606.307C168.455 604.651 166.91 602.129 165.577 599.132C164.243 596.135 163.404 593.299 163.109 591.153C162.96 590.074 162.958 589.227 163.065 588.643C163.118 588.354 163.191 588.169 163.256 588.061C163.286 588.009 163.311 587.981 163.326 587.967C163.34 587.954 163.347 587.951 163.349 587.95C163.351 587.949 163.359 587.946 163.377 587.944C163.397 587.943 163.435 587.943 163.494 587.955C163.617 587.979 163.803 588.048 164.054 588.203C164.559 588.514 165.186 589.082 165.889 589.915C167.285 591.57 168.83 594.092 170.163 597.089Z" stroke="#27AE60" stroke-width="2"/>
<path d="M173.946 595.405C175.89 599.774 176.863 604.028 176.897 607.35C176.915 609.012 176.697 610.392 176.287 611.424C175.88 612.449 175.314 613.067 174.655 613.361C173.996 613.654 173.158 613.662 172.123 613.278C171.084 612.893 169.913 612.132 168.69 611.006C166.246 608.757 163.738 605.187 161.794 600.818C159.85 596.449 158.877 592.196 158.842 588.874C158.825 587.211 159.043 585.831 159.452 584.8C159.859 583.774 160.426 583.156 161.085 582.863C161.744 582.569 162.582 582.561 163.616 582.945C164.656 583.331 165.827 584.092 167.05 585.218C169.494 587.466 172.002 591.036 173.946 595.405Z" stroke="#27AE60" stroke-width="2"/>
<path d="M147.924 597.324C143.991 614.54 140.058 617.491 135.634 619.458C135.152 619.673 134.13 619.78 132.684 619.8L128.751 630.28L83.5239 628.804V614.54C80.0826 612.572 78.9028 595.454 80.0827 582.075C81.2625 568.696 87.129 560.432 89.9147 557.973L101.713 560.584L110.071 562.434L115.66 563.672L122.852 565.264L128.751 566.57L145.466 570.27C147.596 573.549 151.07 583.551 147.924 597.324Z" fill="#0C0F23"/>
<path d="M83.5239 614.54C80.0826 612.572 78.9028 595.454 80.0827 582.075C81.2625 568.696 87.129 560.432 89.9147 557.973M83.5239 614.54C87.4568 611.096 90.4303 602.285 91.8812 589.945C93.8476 573.221 91.3896 563.547 89.9147 557.973M83.5239 614.54C86.3553 614.948 89.7192 615.418 93.356 615.904M83.5239 614.54V628.804L128.751 630.28L132.684 619.8M89.9147 557.973L101.713 560.584M93.356 615.904C95.4863 612.826 100.14 604.21 101.713 594.372C103.286 584.535 102.369 567.748 101.713 560.584M93.356 615.904C96.0287 616.261 98.8488 616.628 101.713 616.986M101.713 560.584L110.071 562.434M101.713 616.986C103.68 614.859 108.104 607.752 110.071 596.34C112.037 584.928 110.89 568.981 110.071 562.434M101.713 616.986C104.489 617.334 107.306 617.673 110.071 617.99M110.071 562.434L115.66 563.672M110.071 617.99C111.709 615.692 115.38 607.555 116.953 593.388C118.526 579.222 116.747 567.675 115.66 563.672M110.071 617.99C111.968 618.207 113.842 618.413 115.66 618.604M115.66 563.672L122.852 565.264M115.66 618.604C117.894 613.314 122.459 601.062 122.852 594.372C123.246 587.683 123.016 572.179 122.852 565.264M115.66 618.604C117.644 618.811 119.563 619 121.377 619.163M122.852 565.264L128.751 566.57M121.377 619.163C123.344 614.835 127.572 603.62 128.751 593.388C129.931 583.157 129.243 571.246 128.751 566.57M121.377 619.163C126.075 619.585 130.072 619.835 132.684 619.8M128.751 566.57L145.466 570.27C147.596 573.549 151.07 583.551 147.924 597.324C143.991 614.54 140.058 617.491 135.634 619.458C135.152 619.673 134.13 619.78 132.684 619.8" stroke="#27AE60" stroke-width="2"/>
<path d="M87.5053 586.379C87.1636 590.417 86.5675 594.024 85.8895 596.586C85.5484 597.874 85.1989 598.85 84.8741 599.476C84.8353 599.55 84.7984 599.617 84.7636 599.676C84.7393 599.612 84.7141 599.54 84.6884 599.46C84.4733 598.789 84.2927 597.768 84.1729 596.44C83.9349 593.801 83.9532 590.145 84.2949 586.107C84.6365 582.068 85.2327 578.461 85.9106 575.9C86.2517 574.611 86.6012 573.635 86.9261 573.01C86.9648 572.935 87.0017 572.869 87.0365 572.81C87.0608 572.874 87.086 572.946 87.1117 573.026C87.3269 573.697 87.5075 574.718 87.6272 576.045C87.8653 578.684 87.8469 582.34 87.5053 586.379ZM84.4683 600.07C84.4683 600.07 84.4697 600.069 84.4724 600.067C84.4696 600.069 84.4683 600.07 84.4683 600.07ZM84.9851 600.11C84.9874 600.113 84.9886 600.114 84.9886 600.114C84.9886 600.114 84.9874 600.113 84.9851 600.11ZM87.3319 572.416C87.3319 572.416 87.3305 572.417 87.3278 572.419C87.3305 572.417 87.3319 572.416 87.3319 572.416ZM86.8151 572.375C86.8127 572.373 86.8115 572.372 86.8115 572.372C86.8115 572.372 86.8127 572.373 86.8151 572.375Z" stroke="#27AE60" stroke-width="2"/>
<path d="M427.154 314.978L429.612 336.129H423.713L416.339 317.929L414.209 314.978L403.557 300.221L402.083 291.367L408.473 292.843L424.663 312.026L427.154 314.978Z" fill="#0C0F23"/>
<path d="M427.154 314.978L429.612 336.129H423.713L416.339 317.929M427.154 314.978L416.339 317.929M427.154 314.978L424.663 312.026M416.339 317.929L414.209 314.978M424.663 312.026L408.473 292.843L402.083 291.367L403.557 300.221L414.209 314.978M424.663 312.026L414.209 314.978" stroke="#27AE60" stroke-width="2"/>
<path d="M418.797 313.012L421.747 339.082H415.356L409.457 317.439L407.982 315.491L397.167 301.206L398.641 293.828L405.032 296.288L417.178 311.044L418.797 313.012Z" fill="#0C0F23"/>
<path d="M418.797 313.012L421.747 339.082H415.356L409.457 317.439M418.797 313.012L409.457 317.439M418.797 313.012L417.178 311.044M409.457 317.439L407.982 315.491M417.178 311.044L405.032 296.288L398.641 293.828L397.167 301.206L407.982 315.491M417.178 311.044L407.982 315.491" stroke="#27AE60" stroke-width="2"/>
<path d="M402.082 322.847L397.166 328.749L382.91 320.387L381.047 318.42L374.061 311.041L376.519 302.188L385.368 305.631L389.188 309.566L390.621 311.041L402.082 322.847Z" fill="#0C0F23"/>
<path d="M382.91 320.387L397.166 328.749L402.082 322.847L390.621 311.041M382.91 320.387L390.621 311.041M382.91 320.387L381.047 318.42M390.621 311.041L389.188 309.566M381.047 318.42L374.061 311.041L376.519 302.188L385.368 305.631L389.188 309.566M381.047 318.42L389.188 309.566" stroke="#27AE60" stroke-width="2"/>
<path d="M414.864 334.166L408.965 335.642L403.066 317.934L401.414 315.967L392.742 307.605L397.658 299.734L410.44 309.572L411.915 312.032L414.864 334.166Z" fill="#0C0F23"/>
<path d="M403.066 317.934L408.965 335.642L414.864 334.166L411.915 312.032M403.066 317.934L411.915 312.032M403.066 317.934L401.414 315.967M411.915 312.032L410.44 309.572M410.44 309.572L397.658 299.734L392.742 307.605L401.414 315.967M410.44 309.572L401.414 315.967" stroke="#27AE60" stroke-width="2"/>
<path d="M243.787 228.898L291.964 270.217C294.644 270.55 297.624 270.921 300.813 271.319C327.453 274.642 368.723 279.844 372.587 280.547C377.994 281.53 380.452 288.417 379.469 296.779C378.486 305.141 375.045 313.995 370.129 313.995C366.196 313.995 319.002 312.355 295.897 311.535C294.586 312.027 290.981 312.716 287.048 311.535C282.132 310.06 276.724 311.043 273.775 308.092C271.415 305.731 271.808 303.173 272.3 302.19L214.291 256.444L221.173 250.017L232.48 239.458L243.787 228.898Z" fill="#0C0F23"/>
<path d="M291.964 270.217L243.787 228.898L232.48 239.458M291.964 270.217C291.401 273.316 291.65 279.128 287.048 286.361M291.964 270.217C294.644 270.55 297.624 270.921 300.813 271.319M272.3 302.19L214.291 256.444L221.173 250.017M272.3 302.19C273.113 301.828 274.855 300.637 277.31 298.254M272.3 302.19C271.808 303.173 271.415 305.731 273.775 308.092C276.724 311.043 282.132 310.06 287.048 311.535C290.981 312.716 294.586 312.027 295.897 311.535M277.31 298.254C279.304 296.319 281.769 293.596 284.59 289.892C285.476 288.729 286.294 287.546 287.048 286.361M277.31 298.254L221.173 250.017M277.31 298.254C278.59 299.074 281.542 301.599 283.115 305.141C284.688 308.682 292.292 310.88 295.897 311.535M277.31 298.254C279.737 298.254 285.868 298.648 290.981 300.222M221.173 250.017L232.48 239.458M232.48 239.458L287.048 286.361M372.587 280.547C377.994 281.53 380.452 288.417 379.469 296.779C378.486 305.141 375.045 313.995 370.129 313.995M372.587 280.547C369.473 282.678 363.246 289.204 363.246 298.254M372.587 280.547C368.723 279.844 327.453 274.642 300.813 271.319M370.129 313.995C366.196 313.995 319.002 312.355 295.897 311.535M370.129 313.995C369.079 313.319 367.547 311.86 366.196 309.608M295.897 311.535V308.092L366.196 309.608M363.246 298.254C363.246 299.658 363.357 300.97 363.552 302.19M363.246 298.254L306.22 293.827L289.96 284.482M366.196 309.608C365.67 308.731 365.171 307.734 364.738 306.617M364.738 306.617C342.282 305.141 296.093 301.796 290.981 300.222M364.738 306.617C364.231 305.307 363.814 303.832 363.552 302.19M290.981 300.222C290.286 298.275 289.424 294.415 289.462 289.892M300.813 271.319C298.682 271.053 293.734 272.527 290.981 280.547C290.531 281.855 290.198 283.175 289.96 284.482M363.552 302.19L304.254 298.254L289.462 289.892M289.462 289.892C289.476 288.162 289.622 286.335 289.96 284.482" stroke="#27AE60" stroke-width="2"/>
<path d="M394.709 288.416L413.882 293.335L407.983 294.811L402.083 296.286L401.1 298.057L400.117 299.828L394.709 309.567C391.76 308.256 385.074 305.632 381.928 305.632C379.801 305.632 377.817 307.359 376.755 309.567C375.854 311.442 375.617 313.663 376.52 315.47C378.093 318.618 370.293 312.191 366.196 309.567C364.803 306.64 362.581 302.054 363.155 296.286C363.256 295.27 363.444 294.278 363.738 293.335C363.962 292.62 364.183 291.965 364.401 291.367C365.042 289.605 365.653 288.332 366.196 287.429C367.091 285.944 367.801 285.465 368.163 285.465L381.436 286.941L394.709 288.416Z" fill="#0C0F23"/>
<path d="M400.117 299.828L394.709 309.567C391.76 308.256 385.074 305.632 381.928 305.632C379.801 305.632 377.817 307.359 376.755 309.567M400.117 299.828L364.401 291.367M400.117 299.828L401.1 298.057M364.401 291.367C364.183 291.965 363.962 292.62 363.738 293.335C363.444 294.278 363.256 295.27 363.155 296.286M364.401 291.367C365.042 289.605 365.653 288.332 366.196 287.429M401.1 298.057L402.083 296.286L407.983 294.811M401.1 298.057L366.196 287.429M366.196 287.429C367.091 285.944 367.801 285.465 368.163 285.465L381.436 286.941M376.755 309.567C375.854 311.442 375.617 313.663 376.52 315.47C378.093 318.618 370.293 312.191 366.196 309.567C364.803 306.64 362.581 302.054 363.155 296.286M376.755 309.567L363.155 296.286M407.983 294.811L413.882 293.335L394.709 288.416L381.436 286.941M407.983 294.811L381.436 286.941" stroke="#27AE60" stroke-width="2"/>
<path fill-rule="evenodd" clip-rule="evenodd" d="M260.164 257.956C260.686 256.412 262.36 255.583 263.903 256.105L279.182 261.273L284.589 263.102L289.505 264.765L295.637 266.839L301.254 268.738L333.711 279.716C335.254 280.238 336.082 281.913 335.561 283.457C335.039 285.001 333.365 285.83 331.822 285.308L298.846 274.155L293.93 272.492L288.031 270.497L282.832 268.738L277.215 266.839L262.014 261.697C260.471 261.175 259.643 259.5 260.164 257.956Z" fill="#0C0F23"/>
<path d="M277.215 266.839L262.014 261.697C260.471 261.175 259.643 259.5 260.164 257.956C260.686 256.412 262.36 255.583 263.903 256.105L279.182 261.273M277.215 266.839L279.182 261.273M277.215 266.839L282.832 268.738M279.182 261.273L284.589 263.102M282.832 268.738L284.589 263.102M282.832 268.738L288.031 270.497M284.589 263.102L289.505 264.765M288.031 270.497L289.505 264.765M288.031 270.497L293.93 272.492M289.505 264.765L295.637 266.839M293.93 272.492L295.637 266.839M293.93 272.492L298.846 274.155M295.637 266.839L301.254 268.738M298.846 274.155L331.822 285.308C333.365 285.83 335.039 285.001 335.561 283.457C336.082 281.913 335.254 280.238 333.711 279.716L301.254 268.738M298.846 274.155L301.254 268.738" stroke="#27AE60" stroke-width="2" stroke-linecap="round"/>
<path d="M148.907 333.18C142.221 333.18 117.28 341.05 105.646 344.985L96.3052 331.704L86.9648 318.424L80.4264 309.078L59.435 279.073C52.0609 277.597 35.838 272.481 29.9388 263.824C26.5477 258.847 24.4042 254.391 24.5122 249.068C24.6391 242.815 27.8721 235.366 35.838 224.473C42.7361 215.04 50.3063 210.08 56.4856 207.685C58.6527 206.845 60.6488 206.321 62.3848 206.03C64.1651 205.731 65.6719 205.678 66.809 205.782L105.646 192.992V182.171L111.545 178.728V169.382L157.756 167.906L162.18 178.728L168.571 182.171L171.019 192.947C170.944 192.581 171.146 192.462 171.822 192.892C177.219 192.242 188.112 191.479 199.05 192.193C201.695 192.365 204.343 192.624 206.916 192.992C220.681 194.96 239.526 212.832 247.227 221.522C247.159 223.92 246.65 227.682 245.391 231.852C243.638 237.659 240.431 244.258 234.937 249.068C225.499 257.331 221.172 259.069 220.189 258.905L210.357 263.824L216.748 297.764H220.189V318.424V326.293H206.916C198.067 326.293 199.05 341.05 181.844 341.05C164.638 341.05 157.264 333.18 148.907 333.18Z" fill="#0C0F23"/>
<path d="M216.748 297.764H220.189V318.424M216.748 297.764L210.357 263.824M216.748 297.764C212.16 286.287 196.592 264.119 171.029 267.267C139.075 271.202 136.125 291.862 130.717 309.078C108.104 309.078 94.0439 311.537 80.4264 309.078M210.357 263.824C208.391 252.346 201.017 225.358 187.252 209.224C173.487 193.09 170.701 191.68 171.029 192.992M210.357 263.824C207.08 258.577 194.626 249.658 171.029 255.954C157.756 233.327 160.214 225.457 165.621 221.522C169.947 218.374 179.55 215.619 183.811 214.635M210.357 263.824L220.189 258.905M210.357 263.824C211.504 257.921 217.046 241.571 214.29 224.473C211.832 209.224 204.294 195.738 199.05 192.193M171.029 192.992L168.571 182.171L162.18 178.728M171.029 192.992C176.092 192.325 187.546 191.442 199.05 192.193M171.029 192.992C166.113 194.632 145.957 198.895 134.159 198.895C122.36 198.895 112.692 194.632 105.646 192.992M162.18 178.728C159.886 180.859 151.561 185.122 136.617 185.122C121.672 185.122 113.675 180.859 111.545 178.728M162.18 178.728L157.756 167.906L111.545 169.382V178.728M111.545 178.728L105.646 182.171V192.992M105.646 192.992L66.809 205.782M66.809 205.782C73.1999 207.093 85.49 216.308 83.5235 242.673C83.1772 247.316 82.4293 251.418 81.3927 255.03M66.809 205.782C65.6719 205.678 64.1651 205.731 62.3848 206.03M59.435 279.073L80.4264 309.078M59.435 279.073C63.1655 278.479 68.9579 275.813 73.9522 269.727M59.435 279.073C52.0609 277.597 35.838 272.481 29.9388 263.824C26.5477 258.847 24.4042 254.391 24.5122 249.068M80.4264 309.078L86.9648 318.424L96.3052 331.704M96.3052 331.704L105.646 344.985C117.28 341.05 142.221 333.18 148.907 333.18C157.264 333.18 164.638 341.05 181.844 341.05C199.05 341.05 198.067 326.293 206.916 326.293C213.995 326.293 218.714 326.293 220.189 326.293V318.424M96.3052 331.704C108.923 328.917 135.634 323.342 141.533 323.342C151.365 323.342 162.18 335.64 179.878 335.64C195.43 335.64 201.017 317.44 211.832 317.44C217.31 317.44 219.042 317.604 220.189 318.424M73.9522 269.727C81.5671 274.154 99.7465 282.221 111.545 279.073C126.293 275.138 124.327 260.381 162.18 255.954C162.18 240.214 148.415 224.473 134.159 221.522C122.753 219.161 101.877 215.947 92.864 214.635M73.9522 269.727C75.3416 268.034 76.6693 266.076 77.8736 263.824M73.9522 269.727C73.9522 260.121 63.4857 251.933 50.0947 245.766M206.916 192.992C220.681 194.96 239.526 212.832 247.227 221.522C247.159 223.92 246.65 227.682 245.391 231.852M206.916 192.992C211.832 195.288 222.057 204.798 223.631 224.473M206.916 192.992C204.343 192.624 201.695 192.365 199.05 192.193M220.189 258.905C221.172 259.069 225.499 257.331 234.937 249.068C240.431 244.258 243.638 237.659 245.391 231.852M220.189 258.905C221.992 255.626 225.204 244.149 223.631 224.473M223.631 224.473C223.528 223.489 224.858 221.522 231.005 221.522C237.151 221.522 243.157 228.408 245.391 231.852M24.5122 249.068C24.6391 242.815 27.8721 235.366 35.838 224.473C42.7361 215.04 50.3063 210.08 56.4856 207.685M24.5122 249.068C25.0103 244.805 29.3492 237.557 42.7207 242.673C44.0475 243.181 45.3605 243.707 46.6535 244.251M77.8736 263.824C79.2335 261.281 80.4361 258.364 81.3927 255.03M77.8736 263.824C78.2137 255.908 77.7469 239.496 73.9522 227.862M56.4856 207.685C58.7797 207.706 64.9411 210.504 71.2337 221.522C71.7557 222.436 72.2397 223.424 72.688 224.473M56.4856 207.685C58.6527 206.845 60.6488 206.321 62.3848 206.03M81.3927 255.03C81.4498 248.452 80.8258 233.13 77.8736 224.473C74.1833 213.652 68.284 208.246 62.3848 206.03M72.688 224.473C67.7788 226.933 56.7805 232.639 52.0611 235.787C47.3417 238.935 46.4896 242.741 46.6535 244.251M72.688 224.473C73.1456 225.544 73.5661 226.678 73.9522 227.862M46.6535 244.251C47.8183 244.742 48.9669 245.247 50.0947 245.766M50.0947 245.766C49.9309 244.407 50.5865 241.099 54.5191 238.738C58.4518 236.377 69.1131 230.503 73.9522 227.862" stroke="#27AE60" stroke-width="2"/>
<path d="M229.531 419.262C227.172 440.512 223.96 445.168 222.649 444.84C220.355 457.629 178.404 484.683 178.404 484.683H154.807V475.337V469.927L96.3066 428.116C95.4004 423.747 94.138 416.237 93.3065 407.949C92.4841 399.75 92.0831 390.79 92.8654 383.355C92.9965 382.108 93.1444 380.872 93.3065 379.649C93.943 374.848 94.7978 370.26 95.7093 366.139C97.3513 358.714 99.1769 352.806 100.239 349.906C114.496 363.679 150.088 390.438 178.404 387.29C198.83 385.019 210.783 373.974 217.24 364.171L218.715 349.906C223.632 353.349 223.949 359.241 224.667 362.695C225.288 365.681 225.925 368.998 226.535 372.533C228.302 382.784 229.835 394.863 230.045 405.981C230.133 410.646 229.989 415.142 229.531 419.262Z" fill="#0C0F23"/>
<path d="M93.3065 407.949C94.138 416.237 95.4004 423.747 96.3066 428.116L154.807 469.927V475.337V484.683H178.404C178.404 484.683 220.355 457.629 222.649 444.84C223.96 445.168 227.172 440.512 229.531 419.262C229.989 415.142 230.133 410.646 230.045 405.981M93.3065 407.949C92.4841 399.75 92.0831 390.79 92.8654 383.355C92.9965 382.108 93.1444 380.872 93.3065 379.649M93.3065 407.949C93.1595 404.342 94.3402 397.127 100.239 397.127C107.613 397.127 127.278 413.36 139.076 428.116C150.875 442.873 157.265 467.467 166.606 467.467C175.946 467.467 185.287 463.532 195.119 447.792C204.951 432.051 208.929 419.754 230.045 405.981M230.045 405.981C229.835 394.863 228.302 382.784 226.535 372.533M226.535 372.533C211.832 391.717 193.151 422.705 183.811 422.705C159.722 422.705 158.166 395.255 117.936 376.96C107.12 372.041 96.3066 374.501 93.3065 379.649M226.535 372.533C225.925 368.998 225.288 365.681 224.667 362.695M93.3065 379.649C93.943 374.848 94.7978 370.26 95.7093 366.139M224.667 362.695C223.949 359.241 223.632 353.349 218.715 349.906L217.24 364.171C210.783 373.974 198.83 385.019 178.404 387.29C150.088 390.438 114.496 363.679 100.239 349.906C99.1769 352.806 97.3513 358.714 95.7093 366.139M224.667 362.695C215.309 378.436 191.699 405.981 181.353 405.981C167.588 405.981 151.365 392.7 137.109 381.879C123.096 371.243 103.188 360.236 95.7093 366.139" stroke="#27AE60" stroke-width="2"/>
<path d="M217.732 415.815L215.274 420.734L196.593 415.815L193.545 414.339L181.353 408.437L184.303 400.566L198.068 405.977L201.017 407.453L217.732 415.815Z" fill="#0C0F23"/>
<path d="M196.593 415.815L215.274 420.734L217.732 415.815L201.017 407.453M196.593 415.815L201.017 407.453M196.593 415.815L193.545 414.339M201.017 407.453L198.068 405.977M198.068 405.977L184.303 400.566L181.353 408.437L193.545 414.339M198.068 405.977L193.545 414.339" stroke="#27AE60" stroke-width="2"/>
<path d="M193.643 372.041L171.029 368.105L169.555 370.073L178.895 377.943L206.425 387.781L193.643 372.041Z" fill="#0C0F23" stroke="#27AE60" stroke-width="2"/>
<path d="M216.748 388.27L230.022 392.697L228.055 398.599L214.29 395.156L210.849 394.452L192.66 390.729V382.367H198.067L213.113 387.121L216.748 388.27Z" fill="#0C0F23"/>
<path d="M216.748 388.27L230.022 392.697L228.055 398.599L214.29 395.156M216.748 388.27L214.29 395.156M216.748 388.27L213.113 387.121M214.29 395.156L210.849 394.452M210.849 394.452L192.66 390.729V382.367H198.067L213.113 387.121M210.849 394.452L213.113 387.121" stroke="#27AE60" stroke-width="2"/>
<path d="M228.547 405.98L226.581 411.883L203.475 405.98L201.017 405.277L186.269 401.061L188.727 393.191L192.66 392.207L207.408 397.126L210.358 398.11L228.547 405.98Z" fill="#0C0F23"/>
<path d="M203.475 405.98L226.581 411.883L228.547 405.98L210.358 398.11M203.475 405.98L210.358 398.11M203.475 405.98L201.017 405.277M210.358 398.11L207.408 397.126M207.408 397.126L192.66 392.207L188.727 393.191L186.269 401.061L201.017 405.277M207.408 397.126L201.017 405.277" stroke="#27AE60" stroke-width="2"/>
<path d="M9.78504 356.298C9.78504 356.298 5.35877 356.298 5.35889 351.871L10.5478 332.196L12.7347 324.827L14.3435 319.407L15.9494 313.996L17.5867 308.479L19.4532 302.19L27.4828 275.137L30.4324 284.483L25.5163 295.796L23.3421 304.158L21.8073 310.061L20.2726 315.963L18.9936 320.882L17.5867 326.293L15.6683 333.671L13.6219 341.541L21.8073 348.92C19.8547 350.723 15.6283 354.724 14.3435 356.298C13.0588 357.872 10.7692 356.954 9.78504 356.298Z" fill="#0C0F23"/>
<path d="M9.78504 356.298C9.78504 356.298 5.35877 356.298 5.35889 351.871L10.5478 332.196M9.78504 356.298C10.7692 356.954 13.0588 357.872 14.3435 356.298C15.6283 354.724 19.8547 350.723 21.8073 348.92L13.6219 341.541M9.78504 356.298L13.6219 341.541M10.5478 332.196L15.6683 333.671M10.5478 332.196L12.7347 324.827M15.6683 333.671L17.5867 326.293M15.6683 333.671L13.6219 341.541M12.7347 324.827L17.5867 326.293M12.7347 324.827L14.3435 319.407M17.5867 326.293L18.9936 320.882M14.3435 319.407L18.9936 320.882M14.3435 319.407L15.9494 313.996M18.9936 320.882L20.2726 315.963M15.9494 313.996L20.2726 315.963M15.9494 313.996L17.5867 308.479M20.2726 315.963L21.8073 310.061M17.5867 308.479L21.8073 310.061M17.5867 308.479L19.4532 302.19M21.8073 310.061L23.3421 304.158M19.4532 302.19L27.4828 275.137L30.4324 284.483L25.5163 295.796L23.3421 304.158M19.4532 302.19L23.3421 304.158" stroke="#27AE60" stroke-width="2"/>
<path d="M204.458 422.703L202.492 426.638L190.694 424.015L187.744 422.703L174.471 413.849L179.878 409.422L191.677 415.357L194.626 417.128L204.458 422.703Z" fill="#0C0F23"/>
<path d="M190.694 424.015L202.492 426.638L204.458 422.703L194.626 417.128M190.694 424.015L194.626 417.128M190.694 424.015L187.744 422.703M194.626 417.128L191.677 415.357M191.677 415.357L179.878 409.422L174.471 413.849L187.744 422.703M191.677 415.357L187.744 422.703" stroke="#27AE60" stroke-width="2"/>
<path d="M150.874 358.758L199.051 380.893L195.118 388.763L189.956 399.092L184.794 409.422L175.945 415.817L139.075 388.763L136.617 380.893L138.467 375.482L140.317 370.071L143.008 362.201L150.874 358.758Z" fill="#0C0F23"/>
<path d="M184.794 409.422L175.945 415.817L139.075 388.763L136.617 380.893L138.467 375.482M184.794 409.422L189.956 399.092M184.794 409.422L138.467 375.482M143.008 362.201L150.874 358.758L199.051 380.893L195.118 388.763M143.008 362.201L195.118 388.763M143.008 362.201L140.317 370.071M195.118 388.763L189.956 399.092M189.956 399.092L140.317 370.071M140.317 370.071L138.467 375.482" stroke="#27AE60" stroke-width="2"/>
<path d="M71.2335 262.348L65.8259 320.882L71.2335 323.182L144.482 354.33C144.974 353.674 146.645 352.756 149.398 354.33C152.151 355.904 151.529 356.862 151.365 357.518C149.071 358.666 143.782 363.486 141.533 372.038C139.075 381.384 138.911 389.418 139.075 392.205L133.667 389.254V389.254L132.192 387.287L57.4686 363.178L11.7495 348.427L13.2243 335.147L21.8291 334.429L23.0564 323.834C24.8589 301.207 29.0539 254.773 31.4136 250.051C34.0873 244.7 41.6082 243.391 46.6533 244.659C47.174 244.79 47.6683 244.948 48.1282 245.132C49.1628 245.546 50.6982 246.221 52.4961 247.099C59.2412 250.39 69.6809 256.523 71.2335 262.348Z" fill="#0C0F23"/>
<path d="M65.8259 320.882L71.2335 262.348C69.6809 256.523 59.2412 250.39 52.4961 247.099M65.8259 320.882L71.2335 323.182M65.8259 320.882C64.5038 320.422 62.4398 319.813 59.9266 319.233M23.0564 323.834C24.8589 301.207 29.0539 254.773 31.4136 250.051C34.0873 244.7 41.6082 243.391 46.6533 244.659M23.0564 323.834C25.0515 322.503 29.4305 320.227 34.8549 318.771M23.0564 323.834L21.8291 334.429M40.2625 317.694C41.2311 317.57 42.2163 317.482 43.2121 317.439C44.3518 317.39 45.5034 317.386 46.6533 317.421M40.2625 317.694L41.7373 294.812H36.3297L40.2625 262.348H45.1785L46.6533 244.659M40.2625 317.694C38.3839 317.934 36.5673 318.312 34.8549 318.771M46.6533 244.659C47.174 244.79 47.6683 244.948 48.1282 245.132C49.1628 245.546 50.6982 246.221 52.4961 247.099M52.4961 247.099L51.5694 263.331H55.5022L52.4961 296.288H48.1282L46.6533 317.421M46.6533 317.421C51.4294 317.566 56.1777 318.367 59.9266 319.233M42.7583 270.218L43.2121 266.282H52.4961L52.1266 270.218M42.7583 270.218H52.1266M42.7583 270.218L42.1344 275.628M52.1266 270.218L51.5694 276.153M42.1344 275.628L51.5694 276.153M42.1344 275.628L41.5671 280.547M51.5694 276.153L51.1568 280.547M41.5671 280.547H51.1568M41.5671 280.547L40.9148 286.204M51.1568 280.547L50.6257 286.204M40.9148 286.204L40.2625 291.861H50.0946L50.6257 286.204M40.9148 286.204H50.6257M144.482 354.33C144.974 353.674 146.645 352.756 149.398 354.33C152.151 355.904 151.529 356.862 151.365 357.518C149.071 358.666 143.782 363.486 141.533 372.038C139.075 381.384 138.911 389.418 139.075 392.205L133.667 389.254M144.482 354.33L71.2335 323.182M144.482 354.33C143.721 354.983 142.663 356.07 141.533 357.518M133.667 389.254L132.192 387.287L57.4686 363.178M133.667 389.254C133.667 383.536 133.667 380.87 134.793 374.497M34.8549 318.771C31.311 320.575 28.0482 326.696 26.1549 331.211M21.8291 334.429L13.2243 335.147L11.7495 348.427L57.4686 363.178M21.8291 334.429L25.0228 334.163C25.3066 333.335 25.6893 332.322 26.1549 331.211M71.2335 323.182C70.0231 323.489 68.3017 324.306 66.4588 325.801M57.4686 342.033C56.973 344.371 56.6186 346.499 56.3774 348.427M57.4686 342.033L135.634 370.07M57.4686 342.033L41.8118 336.622M57.4686 342.033C57.7945 340.496 58.1879 339.07 58.634 337.751M57.4686 363.178C56.5281 361.835 55.279 357.209 56.3774 348.427M135.634 370.07C135.3 371.739 135.023 373.196 134.793 374.497M135.634 370.07C135.908 368.695 136.287 367.38 136.738 366.135M134.793 374.497L56.3774 348.427M26.1549 331.211L41.8118 336.622M41.8118 336.622C42.2786 333.888 43.9004 327.896 46.6533 325.801C50.0946 323.182 53.8324 319.694 59.9266 319.233M136.738 366.135L58.634 337.751M136.738 366.135C137.113 365.099 137.538 364.111 137.994 363.178M58.634 337.751C59.072 336.455 59.5608 335.261 60.0864 334.163M137.994 363.178L60.0864 334.163M137.994 363.178C139.083 360.95 140.348 359.035 141.533 357.518M60.0864 334.163C61.9565 330.255 64.2917 327.559 66.4588 325.801M141.533 357.518L66.4588 325.801" stroke="#27AE60" stroke-width="2"/>
<path d="M174.962 482.713C189.219 480.254 205.442 459.102 213.799 445.33C217.312 439.541 222.335 434.313 227.072 430.203C231.352 426.49 235.399 423.69 237.888 422.211C229.53 459.102 233.463 455.167 231.497 485.664C229.53 516.161 222.156 539.28 217.732 550.593C214.192 559.644 216.257 572.4 217.732 577.647C214.746 579.976 210.931 582.759 206.917 585.404C195.95 592.63 183.488 598.825 182.337 591.912C181.162 584.858 174.063 577.548 168.087 572.728C166.062 571.095 164.165 569.748 162.672 568.793L160.032 522.556L159.386 511.242L157.756 482.713C158.365 483.22 160.441 483.853 164.639 483.796C167.224 483.76 170.615 483.463 174.962 482.713Z" fill="#0C0F23"/>
<path d="M159.386 511.242L157.756 482.713C158.365 483.22 160.441 483.853 164.639 483.796M159.386 511.242L160.032 522.556M159.386 511.242C160.823 511.813 163.315 512.589 166.605 513.304M220.682 511.242C215.11 512.39 200.624 514.784 187.253 515.178C179.051 515.419 171.825 514.439 166.605 513.304M220.682 511.242C223.041 495.896 225.925 450.822 227.072 430.203M220.682 511.242C219.828 514.469 218.645 518.941 217.3 524.031M227.072 430.203C231.352 426.49 235.399 423.69 237.888 422.211C229.53 459.102 233.463 455.167 231.497 485.664C229.53 516.161 222.156 539.28 217.732 550.593C214.192 559.644 216.257 572.4 217.732 577.647C214.746 579.976 210.931 582.759 206.917 585.404M227.072 430.203C222.335 434.313 217.312 439.541 213.799 445.33C205.442 459.102 189.219 480.254 174.962 482.713C170.615 483.463 167.224 483.76 164.639 483.796M206.917 585.404C195.95 592.63 183.488 598.825 182.337 591.912C181.162 584.858 174.063 577.548 168.087 572.728M206.917 585.404C205.278 584.294 202.984 578.336 206.917 563.382C209.711 552.756 213.996 536.532 217.3 524.031M160.032 522.556L162.672 568.793C164.165 569.748 166.062 571.095 168.087 572.728M160.032 522.556C161.405 523.085 163.676 523.792 166.605 524.462M217.3 524.031C212.528 524.687 199.838 526.097 187.253 526.491C179.181 526.743 171.842 525.66 166.605 524.462M164.639 483.796L166.605 513.304M166.605 524.462L168.087 572.728" stroke="#27AE60" stroke-width="2"/>
<path d="M119.411 585.517C85.9817 585.517 86.9649 550.593 86.9649 524.031V479.269V408.438C91.752 410.034 103.545 415.145 119.411 424.556C124.726 427.709 130.498 431.344 136.617 435.491C151.348 445.477 156.663 459.599 157.722 473.858C158.309 481.748 157.592 489.68 156.448 496.977C155.381 503.778 153.942 510.028 152.84 515.177C149.3 531.704 148.415 556.823 148.415 567.317C149.89 573.384 146.154 585.517 119.411 585.517Z" fill="#0C0F23"/>
<path d="M119.411 585.517C85.9817 585.517 86.9649 550.593 86.9649 524.031C86.9649 514.974 86.9649 498.03 86.9649 479.269M119.411 585.517C146.154 585.517 149.89 573.384 148.415 567.317C148.415 556.823 149.3 531.704 152.84 515.177C153.942 510.028 155.381 503.778 156.448 496.977M119.411 585.517V554.036M86.9649 479.269C86.9649 454.013 86.9649 425.466 86.9649 408.438C91.752 410.034 103.545 415.145 119.411 424.556M86.9649 479.269C89.4229 489.271 96.0103 512.914 102.696 527.474C109.382 542.034 116.625 551.249 119.411 554.036M119.411 554.036V502.88M119.411 424.556C124.726 427.709 130.498 431.344 136.617 435.491C151.348 445.477 156.663 459.599 157.722 473.858M119.411 424.556V484.188M157.722 473.858C155.767 477.302 145.367 484.188 119.411 484.188M157.722 473.858C158.309 481.748 157.592 489.68 156.448 496.977M119.411 484.188V502.88M119.411 502.88C128.207 503.864 147.929 504.06 156.448 496.977" stroke="#27AE60" stroke-width="2"/>
<path d="M201.646 298.025C204.533 313.342 195.219 327.845 180.998 330.528C166.777 333.212 152.824 323.099 149.937 307.782C147.05 292.465 156.364 277.961 170.585 275.278C184.805 272.595 198.759 282.708 201.646 298.025Z" stroke="#27AE60" stroke-width="2"/>
<path d="M198.927 298.81C201.553 312.742 193.392 325.811 180.927 328.163C168.461 330.516 156.104 321.318 153.478 307.386C150.852 293.454 159.013 280.385 171.478 278.033C183.943 275.681 196.301 284.878 198.927 298.81Z" stroke="#27AE60" stroke-width="2"/>
<path d="M196.934 299.751C199.193 311.738 192.149 322.968 181.422 324.992C170.695 327.016 160.047 319.125 157.787 307.138C155.528 295.151 162.572 283.921 173.299 281.897C184.027 279.873 194.675 287.764 196.934 299.751Z" stroke="#27AE60" stroke-width="2"/>
<path d="M189.589 300.487C190.895 307.415 186.82 313.838 180.708 314.991C174.597 316.144 168.463 311.648 167.157 304.72C165.852 297.792 169.927 291.369 176.039 290.216C182.15 289.063 188.284 293.559 189.589 300.487Z" stroke="#27AE60" stroke-width="2"/>
<path d="M181.256 302.208C181.521 303.613 180.686 304.788 179.613 304.99C178.541 305.193 177.336 304.403 177.071 302.997C176.806 301.592 177.641 300.417 178.713 300.215C179.786 300.013 180.991 300.802 181.256 302.208Z" stroke="#27AE60" stroke-width="2"/>
<path d="M172.012 303.953C171.196 299.623 173.736 295.509 177.687 294.764M180.175 294.764C183.147 295.323 185.675 297.848 186.316 301.253C186.525 302.361 186.514 303.454 186.316 304.48M173.979 308.015C175.659 309.916 178.133 310.916 180.642 310.442C182.274 310.134 183.665 309.251 184.679 308.015" stroke="#27AE60" stroke-width="2"/>
<path d="M100.566 160.65C98.1075 154.542 92.7982 139.474 91.2251 128.062C89.2587 113.797 83.851 87.7274 127.604 63.625C179.714 80.3491 173.818 102.976 169.882 155.116H167.149L169.882 174.791H165.945L163.979 168.889H156.037C152.011 174.17 144.809 179.029 135.961 179.71C127.462 180.364 118.952 176.543 114.331 171.84H106.465V177.251H102.944V159.36L100.566 160.65Z" fill="#0C0F23"/>
<path d="M97.2856 126.586C95.9156 118.094 95.2462 109.914 95.6489 103.468C96.5092 89.695 107.936 73.9527 129.567 72.4789C151.197 71.005 164.372 84.5791 165.945 103.468C166.409 109.031 166.585 115.1 166.557 121.176M97.2856 126.586L102.532 124.619C103.024 121.176 106.268 114.191 115.314 113.797C124.359 113.404 128.585 118.552 129.567 121.176L131.537 133.965M97.2856 126.586C99.0593 137.582 102.007 149.104 105.323 158.07M131.537 133.965L124.163 140.851L114.822 139.867M131.537 133.965L132.52 143.803M131.537 133.965L143.991 140.851L156.037 132.489M132.52 143.803L128.147 150.197M132.52 143.803L137.565 150.197M126.129 158.939L126.294 155.608L139.894 155.116V158.316M126.129 158.939C130.733 158.641 135.362 158.444 139.894 158.316M126.129 158.939C120.268 159.319 114.448 159.866 108.923 160.65M166.557 121.176H159.066C157.755 117.569 153.069 110.551 144.81 111.338C136.551 112.125 133.175 117.896 132.52 120.684M166.557 121.176C166.497 134.046 165.522 146.944 164.417 155.116M139.894 158.316C147.203 158.108 154.258 158.075 160.541 158.07M160.541 158.07C161.715 158.069 162.862 158.069 163.979 158.069C164.126 157.172 164.273 156.185 164.417 155.116M160.541 158.07C159.778 160.914 158.989 165.015 156.037 168.889M108.923 160.65C108.097 160.768 107.277 160.89 106.465 161.019C106.08 160.072 105.699 159.087 105.323 158.07M108.923 160.65C110.092 164.686 110.612 168.056 114.331 171.84M105.323 158.07L102.944 159.36M164.417 155.116H167.149M167.149 155.116H169.882C173.818 102.976 179.714 80.3491 127.604 63.625C83.851 87.7274 89.2587 113.797 91.2251 128.062C92.7982 139.474 98.1075 154.542 100.566 160.65L102.944 159.36M167.149 155.116L169.882 174.791H165.945L163.979 168.889H156.037M156.037 168.889C152.011 174.17 144.809 179.029 135.961 179.71C127.462 180.364 118.952 176.543 114.331 171.84M102.944 159.36V177.251H106.465V171.84H114.331" stroke="#27AE60" stroke-width="2"/>
<path d="M122.179 127.57C122.179 131.093 119.325 133.948 115.805 133.948C112.285 133.948 109.431 131.093 109.431 127.57C109.431 124.047 112.285 121.191 115.805 121.191C119.325 121.191 122.179 124.047 122.179 127.57Z" stroke="#27AE60" stroke-width="2"/>
<path d="M151.675 125.601C151.675 129.124 148.821 131.979 145.301 131.979C141.782 131.979 138.927 129.124 138.927 125.601C138.927 122.078 141.782 119.223 145.301 119.223C148.821 119.223 151.675 122.078 151.675 125.601Z" stroke="#27AE60" stroke-width="2"/>
<path d="M117.263 127.569C117.263 128.375 116.61 129.028 115.805 129.028C115 129.028 114.347 128.375 114.347 127.569C114.347 126.762 115 126.109 115.805 126.109C116.61 126.109 117.263 126.762 117.263 127.569Z" stroke="#27AE60" stroke-width="2"/>
<path d="M146.759 125.6C146.759 126.407 146.106 127.059 145.301 127.059C144.497 127.059 143.843 126.407 143.843 125.6C143.843 124.793 144.497 124.141 145.301 124.141C146.106 124.141 146.759 124.793 146.759 125.6Z" stroke="#27AE60" stroke-width="2"/>
</g>
<defs>
<clipPath id="clip0">
<rect width="624" height="604" fill="white"/>
</clipPath>
</defs>
</svg>
