<svg width="664" height="642" viewBox="0 0 664 642" fill="none" xmlns="http://www.w3.org/2000/svg">
<g clip-path="url(#clip0)">
<path d="M1220.64 532.964C1220.18 532.827 1143.82 528.281 1143.35 528.145C1128.84 525.542 1116.02 525.405 1101.51 524.173C1088.54 523.077 1075.88 520.064 1062.91 519.927C1048.09 519.79 1038.05 525.953 1024 525.953C1011.18 525.953 999.14 525.816 986.633 524.857C973.355 523.762 963.781 529.788 951.275 530.747C942.474 531.295 937.687 526.775 930.121 524.036C920.703 520.612 914.218 522.803 904.645 525.816C884.956 532.026 868.848 526.871 849.166 524.434L818.566 519.768C809.252 518.102 799.907 516.504 790.423 515.822L759.58 517.572C747.873 519.218 736.148 521.331 724.609 521.707C698.514 522.666 672.42 525.405 646.326 523.214C633.047 521.981 618.996 516.64 606.026 516.777C598.741 516.858 592.638 518.796 586.195 520.233L561.91 521.265C554.147 521.069 546.704 521.272 539.148 521.985L514.987 525.788C504.393 527.77 493.809 529.403 482.811 528.281C464.437 526.501 451.93 523.351 433.402 526.775C412.248 530.747 392.33 525.679 371.177 524.994C365.606 524.804 360.047 524.551 354.493 524.319L334.789 523.728C326.909 523.64 319.023 523.799 311.113 524.447C307.007 524.778 302.891 525.061 298.766 525.305L278.726 526.199C267.288 526.562 255.829 526.705 244.411 526.775C222.176 526.775 202.567 520.338 180.796 517.462C138.18 511.983 94.7927 519.927 52.0227 520.064C29.7884 519.927 7.863 514.859 -14.6801 514.859C-27.1868 514.859 -39.3848 516.777 -51.5827 518.146C-55.5973 518.557 -96.875 523.043 -101.044 523.728" stroke="#56CCF2" stroke-width="2" stroke-miterlimit="10"/>
<line x1="-7.88706e-08" y1="556.238" x2="664" y2="556.238" stroke="#56CCF2" stroke-width="2"/>
<path d="M385.769 127.328C387.307 133.893 394.469 159.789 397.858 171.916V174.925L373.405 167.539L365.986 170.822V166.719L343.457 86.0229H339.885L337.412 78.3636L343.457 77.543H345.38C358.202 91.4026 384.23 120.763 385.769 127.328Z" fill="#0C0F23"/>
<path d="M397.858 171.916C394.469 159.789 387.307 133.893 385.769 127.328C384.23 120.763 358.202 91.4026 345.38 77.543H343.457M397.858 171.916L373.405 163.983M397.858 171.916V174.925L373.405 167.539M343.457 77.543V86.0229M343.457 77.543L337.412 78.3636L339.885 86.0229M343.457 77.543L339.885 86.0229M343.457 86.0229L365.986 166.719M343.457 86.0229H339.885M365.986 166.719L373.405 163.983M365.986 166.719V170.822L373.405 167.539M373.405 163.983V167.539" stroke="#56CCF2" stroke-width="2"/>
<path d="M287.408 69.1665C297.86 47.1724 307.487 40.5742 311.888 40.5742C316.289 40.5742 331.031 55.3652 342.694 80.4384C357.271 111.78 366.898 155.218 366.898 171.164V375.709L370.436 391.929L379.551 433.718L417.783 531.316L418.608 585.752L377.35 590.7V593.175L362.497 594.824L337.193 599.498L333.892 601.422H325.64L316.013 599.498H281.082L269.53 601.422H262.103L260.453 594.824L251.376 593.175V589.601L215.619 584.652V531.042L251.376 439.491V435.367L252.65 427.532L253.924 419.697L262.103 369.385V364.986V338.044V324.023V308.352V277.835V200.856V180.511C262.103 179.314 262.112 178.122 262.128 176.937L254.402 175.013L230.197 184.36L228.272 181.886C230.93 171.072 236.853 147.08 239.274 137.623C241.694 128.166 268.638 96.4758 281.807 81.8131C283.738 77.1212 285.636 72.895 287.408 69.1665Z" fill="#0C0F23"/>
<path d="M262.103 369.385C267.054 362.512 273.105 355.914 309.412 355.914C333.906 355.914 352.596 364.986 358.647 369.385M262.103 369.385C262.103 367.877 262.103 366.421 262.103 364.986M262.103 369.385L253.924 419.697M262.103 369.385L261.918 396.878M342.694 80.4384C331.031 55.3652 316.289 40.5742 311.888 40.5742C307.487 40.5742 297.86 47.1724 287.408 69.1665C285.636 72.895 283.738 77.1212 281.807 81.8131M342.694 80.4384C357.271 111.78 366.898 155.218 366.898 171.164C366.898 206.574 366.898 332.912 366.898 375.709M342.694 80.4384C349.143 95.4807 353.364 117.293 355.834 139.273M366.898 375.709L358.647 369.385M366.898 375.709L370.436 391.929M379.551 433.718H377.35M379.551 433.718L417.783 531.316M379.551 433.718L370.436 391.929M377.35 433.718L417.783 531.316M377.35 433.718V590.7M362.497 594.824L377.35 593.175V590.7M362.497 594.824L337.193 599.498M362.497 594.824L355.346 429.594L355.548 426.02M337.193 599.498L333.892 601.422M337.193 599.498C337.193 592.075 337.193 575.524 337.193 568.706M333.892 601.422H325.64M333.892 601.422L332.517 568.706M325.64 601.422L316.013 599.498M325.64 601.422V568.706M316.013 599.498H281.082M316.013 599.498C316.013 593.358 316.013 578.604 316.013 568.706M281.082 599.498L269.53 601.422M281.082 599.498C281.082 592.258 281.082 574.315 281.082 567.057M269.53 601.422H262.103M269.53 601.422V567.057M262.103 601.422L260.453 594.824M262.103 601.422C262.562 593.541 263.478 575.634 263.478 567.057M260.453 594.824L251.376 593.175V589.601M260.453 594.824L261.697 429.594M316.013 568.706C316.013 556.335 322.615 549.736 327.566 549.736C332.517 549.736 337.193 560.184 337.193 568.706M316.013 568.706H325.64M337.193 568.706H332.517M325.64 568.706H332.517M281.082 567.057C281.082 559.799 277.414 553.036 275.581 549.736H272.28C269.346 551.936 263.478 558.479 263.478 567.057M281.082 567.057H269.53M263.478 567.057H269.53M417.783 531.316L418.608 585.752L377.35 590.7M251.376 439.491V435.367L252.65 427.532M251.376 439.491L215.619 531.042V584.652L251.376 589.601M251.376 439.491V589.601M262.204 173.363L252.751 171.164L228.272 181.886M262.204 173.363C262.171 174.548 262.145 175.74 262.128 176.937M262.204 173.363C262.678 156.584 264.787 141.1 267.755 127.176M228.272 181.886C230.93 171.072 236.853 147.08 239.274 137.623C241.694 128.166 268.638 96.4758 281.807 81.8131M228.272 181.886L230.197 184.36L254.402 175.013L262.128 176.937M281.807 81.8131C276.797 93.9866 271.566 109.295 267.755 127.176M262.128 176.937C262.112 178.122 262.103 179.314 262.103 180.511C262.103 187 262.103 191.393 262.103 200.856M358.647 369.385C358.647 367.921 358.647 366.459 358.647 364.986M358.647 369.385L357.684 386.98M355.548 426.02C347.688 423.912 328.886 419.697 298.96 419.697C269.034 419.697 262.928 424.37 261.697 429.594M355.548 426.02L357.684 397.703M261.697 429.594L261.727 425.195M358.647 310.276C358.647 320.461 358.647 330.394 358.647 339.693M358.647 310.276C358.647 300.678 358.647 290.856 358.647 281.134M358.647 310.276C353.242 306.003 347.789 302.675 342.144 300.106M262.103 308.352C269.805 297.355 284.932 292.131 300.06 292.131C305.668 292.131 306.839 292.307 311.888 292.738M262.103 308.352C262.103 298.339 262.103 288.063 262.103 277.835M262.103 308.352C262.103 313.665 262.103 318.904 262.103 324.023M358.647 339.693C352.668 336.178 347.214 333.419 342.144 331.273M358.647 339.693C358.647 349.595 358.647 357.428 358.647 364.986M262.103 338.044C268.704 330.621 283.557 324.023 300.06 324.023C308.849 324.023 311.523 323.925 320.414 325.122M262.103 338.044C262.103 332.988 262.103 329.397 262.103 324.023M262.103 338.044C262.103 349.692 262.103 356.993 262.103 364.986M320.414 325.122V309.626M320.414 325.122C327.07 326.018 334.128 327.88 342.144 331.273M320.414 293.761C317.647 293.324 314.809 292.988 311.888 292.738M320.414 293.761V309.626M320.414 293.761C328.118 294.977 335.274 296.98 342.144 300.106M355.834 139.273C357.788 156.661 358.647 174.155 358.647 188.484C358.647 192.84 358.647 199.471 358.647 207.729M355.834 139.273C335.267 113.979 321.79 109.855 299.51 109.855C285.382 109.855 273.105 118.378 267.755 127.176M358.647 207.729C339.118 187.11 319.864 180.511 299.51 180.511C279.156 180.511 268.154 190.684 262.103 200.856M358.647 207.729C358.647 226.391 358.647 253.359 358.647 281.134M262.103 200.856C262.103 221.32 262.103 251.342 262.103 277.835M358.647 281.134C340.415 265.161 328.999 261.338 311.888 260.477M262.103 277.835C266.321 271.97 279.706 260.24 299.51 260.24C304.008 260.24 308.088 260.285 311.888 260.477M311.888 260.477V292.738M262.103 324.023C266.229 316.325 277.231 309.177 298.41 308.352C315.353 307.692 320.139 308.926 320.414 309.626M342.144 300.106V331.273M358.647 364.986C344.619 355.914 327.291 351.79 303.636 351.79C279.982 351.79 268.704 355.089 262.103 364.986M357.684 386.98L370.436 391.929M357.684 386.98V397.703M261.781 417.222L253.924 419.697M261.781 417.222L261.727 425.195M261.781 417.222L261.918 396.878M253.924 419.697L252.65 427.532M261.727 425.195L252.65 427.532M357.684 397.703C335.534 387.805 312.438 386.98 290.434 388.355C271.766 389.521 265.005 393.945 261.918 396.878" stroke="#56CCF2" stroke-width="2"/>
<path d="M105.1 453.141L104.3 452.994L109.284 426.087L110.084 426.234L105.1 453.141Z" fill="#0C0F23" stroke="#56CCF2" stroke-width="2"/>
<path d="M150.531 565.575L89.6186 440.187L96.8172 436.706L157.73 562.094L150.531 565.575Z" fill="#0C0F23" stroke="#56CCF2" stroke-width="2"/>
<mask id="path-9-inside-1" fill="white">
<path fill-rule="evenodd" clip-rule="evenodd" d="M147.174 569.523C147.945 563.548 153.077 558.914 159.271 558.914H162.711V569.523H170.998C172.718 569.523 174.126 570.46 174.907 571.864C175.064 572.488 175.22 573.112 175.22 573.736V587H96.7246V573.736C96.7246 573.112 96.881 572.332 97.1937 571.864C97.8192 570.46 99.3828 569.523 101.103 569.523H147.174Z"/>
</mask>
<path fill-rule="evenodd" clip-rule="evenodd" d="M147.174 569.523C147.945 563.548 153.077 558.914 159.271 558.914H162.711V569.523H170.998C172.718 569.523 174.126 570.46 174.907 571.864C175.064 572.488 175.22 573.112 175.22 573.736V587H96.7246V573.736C96.7246 573.112 96.881 572.332 97.1937 571.864C97.8192 570.46 99.3828 569.523 101.103 569.523H147.174Z" fill="#0C0F23"/>
<path d="M147.174 569.523V571.523H148.933L149.158 569.779L147.174 569.523ZM162.711 558.914H164.711V556.914H162.711V558.914ZM162.711 569.523H160.711V571.523H162.711V569.523ZM174.907 571.864L176.847 571.378L176.783 571.122L176.655 570.891L174.907 571.864ZM175.22 587V589H177.22V587H175.22ZM96.7246 587H94.7246V589H96.7246V587ZM97.1937 571.864L98.8567 572.975L98.9514 572.833L99.0207 572.678L97.1937 571.864ZM159.271 556.914C152.06 556.914 146.089 562.306 145.191 569.267L149.158 569.779C149.801 564.791 154.094 560.914 159.271 560.914V556.914ZM162.711 556.914H159.271V560.914H162.711V556.914ZM164.711 569.523V558.914H160.711V569.523H164.711ZM162.711 571.523H170.998V567.523H162.711V571.523ZM170.998 571.523C171.929 571.523 172.699 572.009 173.16 572.837L176.655 570.891C175.552 568.91 173.508 567.523 170.998 567.523V571.523ZM172.967 572.35C173.135 573.021 173.22 573.402 173.22 573.736H177.22C177.22 572.822 176.992 571.955 176.847 571.378L172.967 572.35ZM173.22 573.736V587H177.22V573.736H173.22ZM175.22 585H96.7246V589H175.22V585ZM98.7246 587V573.736H94.7246V587H98.7246ZM98.7246 573.736C98.7246 573.579 98.7459 573.381 98.7885 573.201C98.8091 573.113 98.8309 573.046 98.8491 573C98.8683 572.951 98.875 572.948 98.8567 572.975L95.5307 570.753C94.911 571.68 94.7246 572.91 94.7246 573.736H98.7246ZM99.0207 572.678C99.2791 572.097 100.054 571.523 101.103 571.523V567.523C98.712 567.523 96.3593 568.822 95.3667 571.05L99.0207 572.678ZM101.103 571.523H147.174V567.523H101.103V571.523Z" fill="#56CCF2" mask="url(#path-9-inside-1)"/>
<path d="M107.106 585.999V584.098H165.933V585.999H107.106Z" fill="#0C0F23" stroke="#56CCF2" stroke-width="2"/>
<path d="M177.972 582.469C177.972 586.568 174.642 589.895 170.529 589.895C166.416 589.895 163.085 586.568 163.085 582.469C163.085 578.37 166.416 575.043 170.529 575.043C174.642 575.043 177.972 578.37 177.972 582.469Z" fill="#0C0F23" stroke="#56CCF2" stroke-width="2"/>
<path d="M175.158 582.469C175.158 585.017 173.087 587.086 170.529 587.086C167.97 587.086 165.899 585.017 165.899 582.469C165.899 579.921 167.97 577.852 170.529 577.852C173.087 577.852 175.158 579.921 175.158 582.469Z" fill="#0C0F23" stroke="#56CCF2" stroke-width="2"/>
<path d="M109.12 582.469C109.12 586.568 105.789 589.895 101.676 589.895C97.5631 589.895 94.2324 586.568 94.2324 582.469C94.2324 578.37 97.5631 575.043 101.676 575.043C105.789 575.043 109.12 578.37 109.12 582.469Z" fill="#0C0F23" stroke="#56CCF2" stroke-width="2"/>
<path d="M106.305 582.469C106.305 585.017 104.235 587.086 101.676 587.086C99.1174 587.086 97.0469 585.017 97.0469 582.469C97.0469 579.921 99.1174 577.852 101.676 577.852C104.235 577.852 106.305 579.921 106.305 582.469Z" fill="#0C0F23" stroke="#56CCF2" stroke-width="2"/>
<path d="M96.5884 438.174L91.2782 432.201L205.802 330.724L211.112 336.696L96.5884 438.174Z" fill="#0C0F23" stroke="#56CCF2" stroke-width="2"/>
<path d="M99.6402 435.5C100.125 438.963 97.7043 442.166 94.2299 442.651C90.7555 443.135 87.5492 440.717 87.0649 437.254C86.5806 433.792 89.0008 430.589 92.4752 430.104C95.9496 429.619 99.1559 432.037 99.6402 435.5Z" fill="#0C0F23" stroke="#56CCF2" stroke-width="2"/>
<path d="M95.596 437.004C95.2829 438.22 94.0399 438.955 92.817 438.641C91.594 438.327 90.8601 437.084 91.1732 435.868C91.4862 434.652 92.7292 433.916 93.9522 434.23C95.1752 434.545 95.9091 435.788 95.596 437.004Z" fill="#0C0F23" stroke="#56CCF2" stroke-width="2"/>
<mask id="path-19-inside-2" fill="white">
<path d="M230.481 321H229.073V344.99H230.481V321Z"/>
</mask>
<path d="M230.481 321H229.073V344.99H230.481V321Z" fill="#0C0F23"/>
<path d="M229.073 321V319H227.073V321H229.073ZM230.481 321H232.481V319H230.481V321ZM230.481 344.99V346.99H232.481V344.99H230.481ZM229.073 344.99H227.073V346.99H229.073V344.99ZM229.073 323H230.481V319H229.073V323ZM228.481 321V344.99H232.481V321H228.481ZM230.481 342.99H229.073V346.99H230.481V342.99ZM231.073 344.99V321H227.073V344.99H231.073Z" fill="#56CCF2" mask="url(#path-19-inside-2)"/>
<mask id="path-21-inside-3" fill="white">
<path d="M245.961 322.317V343.528H213.749V322.317H245.961ZM247.368 321H212.186V344.99H247.368V321Z"/>
</mask>
<path d="M245.961 322.317V343.528H213.749V322.317H245.961ZM247.368 321H212.186V344.99H247.368V321Z" fill="#0C0F23"/>
<path d="M245.961 322.317H247.961V320.317H245.961V322.317ZM245.961 343.528V345.528H247.961V343.528H245.961ZM213.749 343.528H211.749V345.528H213.749V343.528ZM213.749 322.317V320.317H211.749V322.317H213.749ZM247.368 321H249.368V319H247.368V321ZM212.186 321V319H210.186V321H212.186ZM212.186 344.99H210.186V346.99H212.186V344.99ZM247.368 344.99V346.99H249.368V344.99H247.368ZM243.961 322.317V343.528H247.961V322.317H243.961ZM245.961 341.528H213.749V345.528H245.961V341.528ZM215.749 343.528V322.317H211.749V343.528H215.749ZM213.749 324.317H245.961V320.317H213.749V324.317ZM247.368 319H212.186V323H247.368V319ZM210.186 321V344.99H214.186V321H210.186ZM212.186 346.99H247.368V342.99H212.186V346.99ZM249.368 344.99V321H245.368V344.99H249.368Z" fill="#56CCF2" mask="url(#path-21-inside-3)"/>
<mask id="path-23-inside-4" fill="white">
<path fill-rule="evenodd" clip-rule="evenodd" d="M210.935 328.801H205.462V339.724H209.527V344.563V348.464V348.618H212.186V348.464H245.961C246.742 348.464 247.368 347.84 247.368 347.06V344.563H212.186V328.801H210.935V328.801Z"/>
</mask>
<path fill-rule="evenodd" clip-rule="evenodd" d="M210.935 328.801H205.462V339.724H209.527V344.563V348.464V348.618H212.186V348.464H245.961C246.742 348.464 247.368 347.84 247.368 347.06V344.563H212.186V328.801H210.935V328.801Z" fill="#0C0F23"/>
<path d="M205.462 328.801V326.801H203.462V328.801H205.462ZM210.935 328.801H212.935V326.801H210.935V328.801ZM205.462 339.724H203.462V341.724H205.462V339.724ZM209.527 339.724H211.527V337.724H209.527V339.724ZM209.527 348.618H207.527V350.618H209.527V348.618ZM212.186 348.618V350.618H214.186V348.618H212.186ZM212.186 348.464V346.464H210.186V348.464H212.186ZM247.368 344.563H249.368V342.563H247.368V344.563ZM212.186 344.563H210.186V346.563H212.186V344.563ZM212.186 328.801H214.186V326.801H212.186V328.801ZM210.935 328.801H208.935V330.801H210.935V328.801ZM205.462 330.801H210.935V326.801H205.462V330.801ZM207.462 339.724V328.801H203.462V339.724H207.462ZM209.527 337.724H205.462V341.724H209.527V337.724ZM211.527 344.563V339.724H207.527V344.563H211.527ZM211.527 348.464V344.563H207.527V348.464H211.527ZM211.527 348.618V348.464H207.527V348.618H211.527ZM212.186 346.618H209.527V350.618H212.186V346.618ZM210.186 348.464V348.618H214.186V348.464H210.186ZM245.961 346.464H212.186V350.464H245.961V346.464ZM245.368 347.06C245.368 346.732 245.642 346.464 245.961 346.464V350.464C247.843 350.464 249.368 348.949 249.368 347.06H245.368ZM245.368 344.563V347.06H249.368V344.563H245.368ZM212.186 346.563H247.368V342.563H212.186V346.563ZM210.186 328.801V344.563H214.186V328.801H210.186ZM210.935 330.801H212.186V326.801H210.935V330.801ZM208.935 328.801V328.801H212.935V328.801H208.935Z" fill="#56CCF2" mask="url(#path-23-inside-4)"/>
<mask id="path-25-inside-5" fill="white">
<path d="M246.743 328.02H213.124V329.424H246.743V328.02Z"/>
</mask>
<path d="M246.743 328.02H213.124V329.424H246.743V328.02Z" fill="#0C0F23"/>
<path d="M213.124 328.02V326.02H211.124V328.02H213.124ZM246.743 328.02H248.743V326.02H246.743V328.02ZM246.743 329.424V331.424H248.743V329.424H246.743ZM213.124 329.424H211.124V331.424H213.124V329.424ZM213.124 330.02H246.743V326.02H213.124V330.02ZM244.743 328.02V329.424H248.743V328.02H244.743ZM246.743 327.424H213.124V331.424H246.743V327.424ZM215.124 329.424V328.02H211.124V329.424H215.124Z" fill="#56CCF2" mask="url(#path-25-inside-5)"/>
<path d="M248.368 332.425V322.41H251.841V332.425H248.368Z" fill="#0C0F23" stroke="#56CCF2" stroke-width="2"/>
<mask id="path-28-inside-6" fill="white">
<path d="M398.366 358.941H399.773V382.932H398.366V358.941Z"/>
</mask>
<path d="M398.366 358.941H399.773V382.932H398.366V358.941Z" fill="#0C0F23"/>
<path d="M399.773 358.941V356.941H401.773V358.941H399.773ZM398.366 358.941H396.366V356.941H398.366V358.941ZM398.366 382.932V384.932H396.366V382.932H398.366ZM399.773 382.932H401.773V384.932H399.773V382.932ZM399.773 360.941H398.366V356.941H399.773V360.941ZM400.366 358.941V382.932H396.366V358.941H400.366ZM398.366 380.932H399.773V384.932H398.366V380.932ZM397.773 382.932V358.941H401.773V382.932H397.773Z" fill="#56CCF2" mask="url(#path-28-inside-6)"/>
<mask id="path-30-inside-7" fill="white">
<path d="M382.886 360.258V381.469H415.097V360.258H382.886ZM381.479 358.941H416.661V382.932H381.479V358.941Z"/>
</mask>
<path d="M382.886 360.258V381.469H415.097V360.258H382.886ZM381.479 358.941H416.661V382.932H381.479V358.941Z" fill="#0C0F23"/>
<path d="M382.886 360.258H380.886V358.258H382.886V360.258ZM382.886 381.469V383.469H380.886V381.469H382.886ZM415.097 381.469H417.097V383.469H415.097V381.469ZM415.097 360.258V358.258H417.097V360.258H415.097ZM381.479 358.941H379.479V356.941H381.479V358.941ZM416.661 358.941V356.941H418.661V358.941H416.661ZM416.661 382.932H418.661V384.932H416.661V382.932ZM381.479 382.932V384.932H379.479V382.932H381.479ZM384.886 360.258V381.469H380.886V360.258H384.886ZM382.886 379.469H415.097V383.469H382.886V379.469ZM413.097 381.469V360.258H417.097V381.469H413.097ZM415.097 362.258H382.886V358.258H415.097V362.258ZM381.479 356.941H416.661V360.941H381.479V356.941ZM418.661 358.941V382.932H414.661V358.941H418.661ZM416.661 384.932H381.479V380.932H416.661V384.932ZM379.479 382.932V358.941H383.479V382.932H379.479Z" fill="#56CCF2" mask="url(#path-30-inside-7)"/>
<mask id="path-32-inside-8" fill="white">
<path fill-rule="evenodd" clip-rule="evenodd" d="M417.912 366.742H423.385V377.665H419.319V382.505V386.405V386.56H416.661V386.405H382.886C382.104 386.405 381.479 385.781 381.479 385.001V382.505H416.661V366.743H417.912V366.742Z"/>
</mask>
<path fill-rule="evenodd" clip-rule="evenodd" d="M417.912 366.742H423.385V377.665H419.319V382.505V386.405V386.56H416.661V386.405H382.886C382.104 386.405 381.479 385.781 381.479 385.001V382.505H416.661V366.743H417.912V366.742Z" fill="#0C0F23"/>
<path d="M423.385 366.742V364.742H425.385V366.742H423.385ZM417.912 366.742H415.912V364.742H417.912V366.742ZM423.385 377.665H425.385V379.665H423.385V377.665ZM419.319 377.665H417.319V375.665H419.319V377.665ZM419.319 386.56H421.319V388.56H419.319V386.56ZM416.661 386.56V388.56H414.661V386.56H416.661ZM416.661 386.405V384.405H418.661V386.405H416.661ZM381.479 382.505H379.479V380.505H381.479V382.505ZM416.661 382.505H418.661V384.505H416.661V382.505ZM416.661 366.743H414.661V364.743H416.661V366.743ZM417.912 366.743H419.912V368.743H417.912V366.743ZM423.385 368.742H417.912V364.742H423.385V368.742ZM421.385 377.665V366.742H425.385V377.665H421.385ZM419.319 375.665H423.385V379.665H419.319V375.665ZM417.319 382.505V377.665H421.319V382.505H417.319ZM417.319 386.405V382.505H421.319V386.405H417.319ZM417.319 386.56V386.405H421.319V386.56H417.319ZM416.661 384.56H419.319V388.56H416.661V384.56ZM418.661 386.405V386.56H414.661V386.405H418.661ZM382.886 384.405H416.661V388.405H382.886V384.405ZM383.479 385.001C383.479 384.673 383.205 384.405 382.886 384.405V388.405C381.004 388.405 379.479 386.89 379.479 385.001H383.479ZM383.479 382.505V385.001H379.479V382.505H383.479ZM416.661 384.505H381.479V380.505H416.661V384.505ZM418.661 366.743V382.505H414.661V366.743H418.661ZM417.912 368.743H416.661V364.743H417.912V368.743ZM419.912 366.742V366.743H415.912V366.742H419.912Z" fill="#56CCF2" mask="url(#path-32-inside-8)"/>
<mask id="path-34-inside-9" fill="white">
<path d="M382.104 365.961H415.723V367.365H382.104V365.961Z"/>
</mask>
<path d="M382.104 365.961H415.723V367.365H382.104V365.961Z" fill="#0C0F23"/>
<path d="M415.723 365.961V363.961H417.723V365.961H415.723ZM382.104 365.961H380.104V363.961H382.104V365.961ZM382.104 367.365V369.365H380.104V367.365H382.104ZM415.723 367.365H417.723V369.365H415.723V367.365ZM415.723 367.961H382.104V363.961H415.723V367.961ZM384.104 365.961V367.365H380.104V365.961H384.104ZM382.104 365.365H415.723V369.365H382.104V365.365ZM413.723 367.365V365.961H417.723V367.365H413.723Z" fill="#56CCF2" mask="url(#path-34-inside-9)"/>
<path d="M380.479 370.367V360.352H377.006V370.367H380.479Z" fill="#0C0F23" stroke="#56CCF2" stroke-width="2"/>
<path d="M120.867 579.132V574.422H130.595V579.132H120.867Z" fill="#0C0F23" stroke="#56CCF2" stroke-width="2"/>
<path d="M155.624 580.685C155.353 580.685 155.173 580.379 155.173 579.92V573.336C155.173 572.877 155.353 572.57 155.624 572.57C155.895 572.57 156.075 572.877 156.075 573.336V579.92C155.985 580.379 155.804 580.685 155.624 580.685Z" fill="#0C0F23"/>
<path d="M152.467 580.685C151.925 580.685 151.564 580.379 151.564 579.92V573.336C151.564 572.877 151.925 572.57 152.467 572.57C153.008 572.57 153.369 572.877 153.369 573.336V579.92C153.369 580.379 153.008 580.685 152.467 580.685Z" fill="#0C0F23"/>
<path d="M149.76 580.685C149.218 580.685 148.857 580.379 148.857 579.92V573.336C148.857 572.877 149.218 572.57 149.76 572.57C150.301 572.57 150.662 572.877 150.662 573.336V579.92C150.481 580.379 150.12 580.685 149.76 580.685Z" fill="#0C0F23"/>
<path d="M147.054 580.685C146.512 580.685 146.151 580.379 146.151 579.92V573.336C146.151 572.877 146.512 572.57 147.054 572.57C147.595 572.57 147.956 572.877 147.956 573.336V579.92C147.956 580.379 147.414 580.685 147.054 580.685Z" fill="#0C0F23"/>
<path d="M571.117 561.754L575.613 558.104L422.069 369.146L417.573 372.795L571.117 561.754Z" fill="#0C0F23" stroke="#56CCF2" stroke-width="2"/>
<path d="M549.767 559.604L550.595 559.366L543.116 533.379L542.287 533.618L549.767 559.604Z" stroke="#56CCF2" stroke-width="2"/>
<path d="M530.574 577.063L532.048 586.84H587.598V574.535H545.9L530.574 577.063Z" stroke="#56CCF2" stroke-width="2"/>
<path d="M581.097 582.035C581.097 586.213 584.486 589.601 588.668 589.601C592.849 589.601 596.238 586.213 596.238 582.035C596.238 577.857 592.849 574.469 588.668 574.469C584.486 574.469 581.097 577.857 581.097 582.035Z" stroke="#56CCF2" stroke-width="2"/>
<path d="M583.803 582.037C583.803 584.721 585.98 586.898 588.667 586.898C591.354 586.898 593.531 584.721 593.531 582.037C593.531 579.353 591.354 577.176 588.667 577.176C585.98 577.176 583.803 579.353 583.803 582.037Z" fill="#0C0F23" stroke="#56CCF2" stroke-width="2"/>
<path d="M521.554 582.035C521.554 586.213 524.943 589.601 529.125 589.601C533.306 589.601 536.695 586.213 536.695 582.035C536.695 577.857 533.306 574.469 529.125 574.469C524.943 574.469 521.554 577.857 521.554 582.035Z" stroke="#56CCF2" stroke-width="2"/>
<path d="M525.162 582.037C525.162 584.798 527.211 586.898 529.575 586.898C531.939 586.898 533.988 584.798 533.988 582.037C533.988 579.276 531.939 577.176 529.575 577.176C527.211 577.176 525.162 579.276 525.162 582.037Z" fill="#0C0F23" stroke="#56CCF2" stroke-width="2"/>
<path d="M546.818 563.998V572.535H597.662C599.519 572.535 601.115 571.052 601.115 569.084V553.349C601.115 551.494 599.632 549.898 597.662 549.898H567.765C565.907 549.898 564.312 551.382 564.312 553.349V559.548V560.548H563.312H550.15C548.394 560.691 546.818 562.214 546.818 563.998Z" fill="#0C0F23" stroke="#56CCF2" stroke-width="2"/>
<path d="M597.298 559.975V554.027H587.371V559.975H597.298Z" stroke="#56CCF2" stroke-width="2"/>
<path d="M582.826 559.975V554.027H572.899V559.975H582.826Z" stroke="#56CCF2" stroke-width="2"/>
<path d="M543.946 533.673L544.677 532.12L535.699 521.271L540.193 533.673L543.946 533.673Z" stroke="#56CCF2" stroke-width="2"/>
<path d="M550.112 570.51C550.589 570.51 550.907 570.192 550.907 569.715V562.881C550.907 562.404 550.589 562.086 550.112 562.086C549.635 562.086 549.317 562.404 549.317 562.881V569.715C549.476 570.192 549.794 570.51 550.112 570.51Z" fill="#56CCF2"/>
<path d="M552.974 570.51C553.451 570.51 553.77 570.192 553.77 569.715V562.881C553.77 562.404 553.451 562.086 552.974 562.086C552.497 562.086 552.179 562.404 552.179 562.881V569.715C552.179 570.192 552.497 570.51 552.974 570.51Z" fill="#56CCF2"/>
<path d="M555.838 570.51C556.315 570.51 556.633 570.192 556.633 569.715V562.881C556.633 562.404 556.315 562.086 555.838 562.086C555.361 562.086 555.042 562.404 555.042 562.881V569.715C555.042 570.192 555.361 570.51 555.838 570.51Z" fill="#56CCF2"/>
<path d="M558.541 570.51C559.018 570.51 559.336 570.192 559.336 569.715V562.881C559.336 562.404 559.018 562.086 558.541 562.086C558.064 562.086 557.746 562.404 557.746 562.881V569.715C557.905 570.192 558.223 570.51 558.541 570.51Z" fill="#56CCF2"/>
</g>
<defs>
<clipPath id="clip0">
<rect width="664" height="642" fill="white"/>
</clipPath>
</defs>
</svg>
