<svg width="217" height="355" viewBox="0 0 217 355" fill="none" xmlns="http://www.w3.org/2000/svg">
<path d="M133.774 361.087V264.977H171.093C171.093 264.977 171.093 264.977 171.224 264.977C171.224 286.058 171.224 334.506 171.224 361.087" stroke="#FBB03B" stroke-width="2" stroke-miterlimit="10"/>
<path d="M74.327 361.087C74.327 334.506 74.327 286.058 74.327 264.977C74.327 264.977 74.327 264.977 74.458 264.977H111.776V361.087" stroke="#FBB03B" stroke-width="2" stroke-miterlimit="10"/>
<path d="M153.285 221.767C148.964 221.767 144.119 221.375 139.143 219.934C138.226 221.375 136.524 222.422 134.691 222.422V224.124H153.285H171.093C171.093 224.124 171.093 224.124 171.224 224.124C171.224 220.72 171.224 221.767 171.224 218.887C170.307 219.28 163.498 221.767 153.285 221.767Z" stroke="#FBB03B" stroke-width="2" stroke-miterlimit="10"/>
<path d="M139.929 217.446C156.034 221.636 170.045 216.53 171.093 216.137C171.093 217.053 171.093 217.97 171.093 219.017C170.307 219.279 163.367 221.898 153.285 221.898C148.964 221.898 144.119 221.505 139.143 220.065C139.667 219.148 139.929 218.363 139.929 217.446Z" stroke="#FBB03B" stroke-width="2" stroke-miterlimit="10"/>
<path d="M139.928 217.444C139.928 218.361 139.667 219.277 139.143 219.932C137.833 219.539 136.524 219.146 135.346 218.754C134.691 218.492 134.298 217.706 134.56 217.051C134.822 216.397 135.607 216.004 136.262 216.266C137.441 216.658 138.75 217.051 139.928 217.444Z" stroke="#FBB03B" stroke-width="2" stroke-miterlimit="10"/>
<path d="M175.544 236.17V260.394C175.544 262.882 173.58 264.846 171.223 264.846C171.223 264.846 171.223 264.846 171.092 264.846H133.774L122.775 264.715H111.776H74.4575C74.4575 264.715 74.4575 264.715 74.3266 264.715C71.8387 264.715 70.0055 262.62 70.0055 260.263V236.039" stroke="#FBB03B" stroke-width="2" stroke-miterlimit="10"/>
<path d="M116.097 217.052C116.097 214.171 113.74 211.814 110.729 211.814V205.66H111.122H134.56V211.814C131.548 211.814 129.192 214.171 129.192 217.052C129.192 220.064 131.548 222.421 134.56 222.421V224.123H122.775H110.86V222.421C113.74 222.421 116.097 220.064 116.097 217.052Z" stroke="#FBB03B" stroke-width="2" stroke-miterlimit="10"/>
<path d="M60.3163 49.4473C59.2688 53.3756 58.4831 57.4348 58.2213 61.6249C58.4831 62.1486 58.4831 62.6724 58.4831 63.3271V71.0527C58.4831 71.5764 58.3522 71.9692 58.2213 72.493C60.0544 93.8364 72.3629 112.299 89.909 122.644C99.5987 128.405 110.86 131.548 122.906 131.548C134.822 131.548 145.952 128.405 155.642 122.774C168.212 115.442 178.163 104.05 183.532 90.301C185.365 85.7181 186.675 80.8733 187.329 75.7665M187.329 58.6132C186.937 55.4706 186.413 52.3281 185.496 49.3164L187.329 58.6132Z" stroke="#FBB03B" stroke-width="2" stroke-miterlimit="10"/>
<path d="M74.327 145.427V185.495C74.327 185.495 74.327 185.495 74.327 185.626C74.327 186.804 74.327 216.921 74.327 216.004C75.3746 216.397 89.3853 221.504 105.491 217.314C105.491 217.183 105.491 217.052 105.491 217.052C105.491 214.171 107.848 211.814 110.729 211.814V205.66H104.967C99.0749 205.66 94.361 200.946 94.361 195.054V173.448C94.361 167.556 99.0749 162.842 104.967 162.842H141.238C147.13 162.842 151.844 167.556 151.844 173.448V195.054C151.844 200.946 147.13 205.66 141.238 205.66H134.953H134.56V211.814C137.441 211.814 139.798 214.171 139.798 217.052C139.798 217.183 139.798 217.314 139.798 217.314C155.903 221.504 169.914 216.397 170.962 216.004C170.962 191.649 170.962 185.626 170.962 185.626C174.89 199.113 178.949 219.54 180.389 245.99C180.782 245.859 181.044 245.859 181.437 245.859H211.553C211.815 245.859 211.946 245.859 212.208 245.99C209.72 191.518 197.019 160.878 184.056 143.855" stroke="#FBB03B" stroke-width="2" stroke-miterlimit="10"/>
<path d="M160.879 124.478C158.392 123.299 156.82 123.037 155.642 122.775C146.083 128.406 134.822 131.549 122.907 131.549C110.86 131.549 99.599 128.275 89.9093 122.645C88.8618 122.906 87.1596 123.299 85.1954 124.216" stroke="#FBB03B" stroke-width="2" stroke-miterlimit="10"/>
<path d="M160.487 124.347C158.392 123.43 156.689 123.037 155.642 122.775C146.083 128.406 134.822 131.549 122.907 131.549C110.86 131.549 99.599 128.275 89.9093 122.645C88.8618 122.906 87.1596 123.299 85.1954 124.216C86.7667 125.263 88.338 126.442 89.9093 127.358C99.599 133.12 110.86 136.262 122.907 136.262C134.822 136.262 145.952 133.12 155.642 127.489C157.213 126.442 158.915 125.394 160.487 124.347Z" stroke="#FBB03B" stroke-width="2" stroke-miterlimit="10"/>
<path d="M38.7112 112.691C38.1875 116.096 37.5328 120.024 37.2709 123.952C35.8305 141.106 38.9731 147.522 39.8897 148.176C45.2583 151.188 54.1623 146.343 60.5784 141.498" stroke="#FBB03B" stroke-width="2" stroke-miterlimit="10"/>
<path d="M74.1961 174.89C65.1612 180.39 54.5549 184.449 43.5559 184.449C36.7469 184.449 29.6761 182.878 22.8671 179.081C6.89231 170.177 -0.178521 151.19 2.04748 122.645C2.4403 116.883 3.22595 111.384 4.0116 106.539" stroke="#FBB03B" stroke-width="2" stroke-miterlimit="10"/>
<path d="M106.277 219.932C105.753 219.146 105.491 218.361 105.491 217.444C106.669 217.182 107.979 216.789 109.288 216.266C109.943 216.004 110.729 216.397 110.99 217.051C111.252 217.706 110.86 218.492 110.205 218.754C108.895 219.146 107.586 219.539 106.277 219.932Z" stroke="#FBB03B" stroke-width="2" stroke-miterlimit="10"/>
<path d="M106.277 219.934C101.17 221.244 96.4561 221.767 92.135 221.767C81.9216 221.767 75.1127 219.28 74.327 218.887C74.327 221.767 74.327 220.72 74.327 224.124H74.458H92.266H110.86V222.422C108.896 222.422 107.324 221.506 106.277 219.934Z" stroke="#FBB03B" stroke-width="2" stroke-miterlimit="10"/>
<path d="M92.135 221.765C81.9216 221.765 75.1127 219.277 74.327 218.885C74.327 217.837 74.327 216.92 74.327 216.004C75.3746 216.397 89.3853 221.503 105.491 217.313C105.491 218.23 105.753 219.147 106.277 219.801C101.301 221.242 96.4561 221.765 92.135 221.765Z" stroke="#FBB03B" stroke-width="2" stroke-miterlimit="10"/>
<path d="M113.217 23.9164C83.2312 28.1066 61.1021 50.3666 60.3165 49.45C60.4474 48.6643 60.7093 48.0096 60.9712 47.224C61.6259 45.1289 62.2806 43.1648 63.1972 41.2007C63.59 40.2841 63.9828 39.2366 64.5066 38.32C64.8994 37.5343 65.2922 36.7487 65.6851 35.963C66.2088 34.9155 66.8635 33.737 67.5182 32.6895C68.042 31.7729 68.5658 30.9873 69.2205 30.0707C70.3989 28.1066 71.8393 26.2734 73.4106 24.5711C73.9344 23.9164 74.4581 23.2617 74.9819 22.738C75.5057 22.2142 75.8985 21.6904 76.4222 21.1667C76.8151 20.7738 77.077 20.381 77.4698 20.1191C78.6483 18.9407 79.9577 17.7622 81.2671 16.5837C81.7908 16.1909 82.3146 15.6671 82.8384 15.2743C83.755 14.4887 84.6715 13.834 85.5881 13.1792C86.2428 12.7864 86.8975 12.2627 87.5523 11.8698C88.207 11.3461 88.9926 10.9532 89.7783 10.4295C92.1352 8.98912 94.4922 7.81065 96.98 6.63218C97.6347 6.3703 98.4204 5.97748 99.0751 5.71559C99.8607 5.45371 100.515 5.19183 101.301 4.92995C104.837 3.75147 108.372 2.70394 112.169 2.18018C112.824 2.04924 113.479 1.9183 114.133 1.9183C114.919 1.78736 115.836 1.65641 116.621 1.65641C117.276 1.52547 117.931 1.52547 118.716 1.52547C120.026 1.39453 121.466 1.39453 122.906 1.39453C124.347 1.39453 125.787 1.39453 127.097 1.52547C127.751 1.52547 128.406 1.65641 129.061 1.65641C129.453 1.65641 129.846 1.65641 130.239 1.78736C130.763 1.78736 131.287 1.9183 131.679 1.9183C132.203 2.04924 132.858 2.04924 133.382 2.18018C136.524 2.70394 139.536 3.35865 142.417 4.40618C143.071 4.66806 143.857 4.799 144.512 5.06089C145.035 5.19183 145.559 5.45371 146.083 5.58465C146.476 5.71559 146.738 5.84653 147.131 5.97748C147.523 6.10842 148.047 6.3703 148.44 6.50124C149.226 6.89406 150.142 7.28689 150.928 7.67971C151.844 8.07254 152.892 8.5963 153.678 9.12007C154.463 9.51289 155.249 9.90571 155.904 10.4295C156.689 10.8223 157.344 11.3461 158.13 11.8698C158.653 12.2627 159.177 12.5245 159.701 12.9174C160.094 13.1792 160.487 13.4411 160.879 13.703C161.534 14.0958 162.189 14.6196 162.713 15.1434C163.236 15.5362 163.76 15.929 164.284 16.4528C169.783 21.0357 174.628 26.6662 178.295 32.9514C178.818 33.737 179.211 34.5227 179.604 35.3083C180.128 36.2249 180.521 37.1415 181.044 38.0581C181.437 38.8437 181.83 39.6294 182.223 40.546C182.354 40.8079 182.485 41.0697 182.616 41.4626C183.401 43.2957 184.056 45.1289 184.58 46.9621C184.842 47.6168 184.973 48.4024 185.234 49.0572C184.973 50.4975 166.248 31.642 139.929 25.0949C137.441 24.4402 134.822 23.9164 132.203 23.5236" stroke="#FBB03B" stroke-width="2" stroke-miterlimit="10"/>
<path d="M187.853 18.8092C185.496 18.2854 183.924 16.1904 183.924 13.7025C183.924 10.8218 186.281 8.46484 189.162 8.46484C192.043 8.46484 194.4 10.8218 194.4 13.7025C194.4 16.1904 192.697 18.2854 190.471 18.8092" stroke="#FBB03B" stroke-width="2" stroke-miterlimit="10"/>
<path d="M187.853 58.6147V18.8086C188.246 18.9395 188.77 18.9395 189.163 18.9395C189.555 18.9395 190.079 18.9395 190.472 18.8086V58.6147H187.853Z" stroke="#FBB03B" stroke-width="2" stroke-miterlimit="10"/>
<path d="M190.472 58.6133C192.96 58.7442 194.924 60.8393 194.924 63.3272V71.0527C194.924 73.6715 192.829 75.7666 190.21 75.7666H187.984C186.151 75.7666 184.58 74.7191 183.794 73.1478C184.056 70.9218 184.187 68.8267 184.187 66.6007C184.187 64.7675 184.056 62.8034 183.925 60.9702C184.711 59.6608 186.151 58.6133 187.853 58.6133" stroke="#FBB03B" stroke-width="2" stroke-miterlimit="10"/>
<path d="M160.093 148.7C160.093 152.89 156.689 156.295 152.499 156.295C148.309 156.295 144.904 152.89 144.904 148.7C144.904 144.51 148.309 141.105 152.499 141.105C156.689 141.105 160.093 144.51 160.093 148.7Z" stroke="#FBB03B" stroke-width="2" stroke-miterlimit="10"/>
<path d="M156.951 148.702C156.951 151.19 154.987 153.154 152.499 153.154C150.011 153.154 148.047 151.19 148.047 148.702C148.047 146.214 150.011 144.25 152.499 144.25C154.987 144.25 156.951 146.214 156.951 148.702Z" stroke="#FBB03B" stroke-width="2" stroke-miterlimit="10"/>
<path d="M104.575 155.25H88.2071C87.2905 155.25 86.5048 154.465 86.5048 153.548V144.12C86.5048 143.204 87.2905 142.418 88.2071 142.418H104.444C105.36 142.418 106.146 143.204 106.146 144.12V153.548C106.277 154.465 105.491 155.25 104.575 155.25Z" stroke="#FBB03B" stroke-width="2" stroke-miterlimit="10"/>
<path d="M100.253 148.702C100.253 150.797 98.5511 152.63 96.3251 152.63C94.23 152.63 92.3969 150.928 92.3969 148.702C92.3969 146.607 94.0991 144.773 96.3251 144.773C98.5511 144.773 100.253 146.607 100.253 148.702Z" stroke="#FBB03B" stroke-width="2" stroke-miterlimit="10"/>
<path d="M115.705 170.438C115.836 170.438 115.967 170.438 115.967 170.568C115.836 170.438 115.836 170.438 115.705 170.438Z" fill="#D9C925"/>
<path d="M116.883 170.699C117.014 170.83 117.276 170.83 117.407 170.961C117.145 170.83 117.014 170.83 116.883 170.699Z" fill="#D9C925"/>
<path d="M119.109 171.746C119.371 171.877 119.763 172.139 120.025 172.27C119.633 172.139 119.371 172.008 119.109 171.746Z" fill="#D9C925"/>
<path d="M117.93 171.223C118.192 171.354 118.454 171.485 118.716 171.615C118.454 171.485 118.192 171.354 117.93 171.223Z" fill="#D9C925"/>
<path d="M104.837 171.615C105.098 171.485 105.36 171.354 105.622 171.223C105.36 171.354 105.098 171.485 104.837 171.615Z" fill="#D9C925"/>
<path d="M106.146 170.961C106.277 170.83 106.539 170.83 106.669 170.699C106.539 170.83 106.408 170.83 106.146 170.961Z" fill="#D9C925"/>
<path d="M123.954 176.332C124.215 176.594 124.346 176.987 124.477 177.249C124.346 176.987 124.085 176.594 123.954 176.332Z" fill="#D9C925"/>
<path d="M107.586 170.44C107.717 170.44 107.848 170.44 107.979 170.309C107.848 170.44 107.717 170.44 107.586 170.44Z" fill="#D9C925"/>
<path d="M120.025 196.625C120.811 196.102 121.466 195.578 122.12 194.923C122.775 194.268 123.299 193.614 123.823 192.828C122.906 194.268 121.597 195.578 120.025 196.625Z" fill="#D9C925"/>
<path d="M99.7296 192.699C100.253 193.485 100.777 194.14 101.432 194.794C102.086 195.449 102.741 195.973 103.527 196.497C102.086 195.58 100.777 194.271 99.7296 192.699Z" fill="#D9C925"/>
<path d="M99.5984 192.698C99.3365 192.436 99.2055 192.043 99.0746 191.781C99.2055 192.043 99.4674 192.436 99.5984 192.698Z" fill="#D9C925"/>
<path d="M103.657 172.403C103.919 172.141 104.312 172.01 104.574 171.879C104.181 172.01 103.919 172.141 103.657 172.403Z" fill="#D9C925"/>
<path d="M125.263 178.949C125.394 179.08 125.394 179.342 125.525 179.473C125.525 179.211 125.394 179.08 125.263 178.949Z" fill="#D9C925"/>
<path d="M124.739 177.508C124.87 177.77 125.001 178.032 125.132 178.293C125.001 178.032 124.87 177.77 124.739 177.508Z" fill="#D9C925"/>
<path d="M123.823 176.2C123.299 175.414 122.775 174.759 122.12 174.105C121.466 173.45 120.811 172.926 120.025 172.402C121.597 173.45 122.906 174.759 123.823 176.2Z" fill="#D9C925"/>
<path d="M103.527 172.402C102.741 172.926 102.086 173.45 101.432 174.105C100.777 174.759 100.253 175.414 99.7296 176.2C100.777 174.759 101.956 173.45 103.527 172.402Z" fill="#D9C925"/>
<path d="M125.525 189.555C125.394 189.686 125.394 189.948 125.263 190.078C125.394 189.948 125.525 189.686 125.525 189.555Z" fill="#D9C925"/>
<path d="M124.477 191.781C124.346 192.043 124.085 192.436 123.954 192.698C124.085 192.436 124.346 192.043 124.477 191.781Z" fill="#D9C925"/>
<path d="M98.2893 190.078C98.1584 189.948 98.1583 189.686 98.0274 189.555C98.1583 189.686 98.1584 189.948 98.2893 190.078Z" fill="#D9C925"/>
<path d="M105.622 197.803C105.36 197.672 105.098 197.541 104.837 197.41C105.098 197.541 105.36 197.672 105.622 197.803Z" fill="#D9C925"/>
<path d="M107.979 198.592C107.848 198.592 107.717 198.592 107.586 198.461C107.717 198.592 107.848 198.592 107.979 198.592Z" fill="#D9C925"/>
<path d="M106.8 198.195C106.539 198.065 106.408 198.065 106.146 197.934C106.408 198.065 106.539 198.195 106.8 198.195Z" fill="#D9C925"/>
<path d="M125.001 190.602C124.87 190.863 124.739 191.125 124.608 191.387C124.87 191.125 125.001 190.863 125.001 190.602Z" fill="#D9C925"/>
<path d="M98.813 191.387C98.682 191.125 98.5511 190.863 98.4202 190.602C98.682 190.863 98.682 191.125 98.813 191.387Z" fill="#D9C925"/>
<path d="M117.407 198.066C117.276 198.197 117.014 198.197 116.883 198.328C117.014 198.197 117.145 198.066 117.407 198.066Z" fill="#D9C925"/>
<path d="M98.0274 179.473C98.1583 179.342 98.1584 179.08 98.2893 178.949C98.1584 179.08 98.1583 179.211 98.0274 179.473Z" fill="#D9C925"/>
<path d="M115.966 198.461C115.835 198.461 115.705 198.461 115.574 198.592C115.705 198.592 115.835 198.592 115.966 198.461Z" fill="#D9C925"/>
<path d="M104.574 197.149C104.312 197.018 103.919 196.756 103.657 196.625C103.919 196.887 104.181 197.018 104.574 197.149Z" fill="#D9C925"/>
<path d="M98.551 178.293C98.682 178.032 98.8129 177.77 98.9439 177.508C98.682 177.77 98.682 178.032 98.551 178.293Z" fill="#D9C925"/>
<path d="M118.716 197.41C118.454 197.541 118.192 197.672 117.93 197.803C118.192 197.672 118.454 197.541 118.716 197.41Z" fill="#D9C925"/>
<path d="M99.0746 177.249C99.2055 176.987 99.4674 176.594 99.5984 176.332C99.4674 176.594 99.2055 176.987 99.0746 177.249Z" fill="#D9C925"/>
<path d="M120.025 196.625C119.763 196.887 119.371 197.018 119.109 197.149C119.371 197.018 119.633 196.887 120.025 196.625Z" fill="#D9C925"/>
<path d="M112.3 198.067C112.955 198.067 113.609 197.936 114.395 197.805C113.74 197.936 112.955 198.067 112.3 198.067Z" fill="#D9C925"/>
<path d="M109.288 197.805C109.943 197.936 110.597 197.936 111.252 198.067C110.597 198.067 109.943 197.936 109.288 197.805Z" fill="#D9C925"/>
<path d="M107.848 197.543C107.586 197.412 107.324 197.412 107.062 197.281C107.324 197.281 107.586 197.412 107.848 197.543Z" fill="#D9C925"/>
<path d="M109.157 197.805C108.765 197.805 108.503 197.674 108.241 197.543C108.503 197.674 108.896 197.805 109.157 197.805Z" fill="#D9C925"/>
<path d="M105.36 196.494C105.229 196.494 105.229 196.363 105.098 196.363C105.098 196.363 105.229 196.363 105.36 196.494Z" fill="#D9C925"/>
<path d="M106.539 197.02C106.408 196.889 106.146 196.889 106.015 196.758C106.277 196.889 106.408 197.02 106.539 197.02Z" fill="#D9C925"/>
<path d="M116.49 197.281C116.228 197.412 115.967 197.412 115.705 197.543C115.967 197.412 116.228 197.281 116.49 197.281Z" fill="#D9C925"/>
<path d="M115.442 197.543C115.049 197.674 114.788 197.674 114.395 197.805C114.788 197.805 115.049 197.674 115.442 197.543Z" fill="#D9C925"/>
<path d="M99.4676 190.211C99.3366 190.08 99.3366 189.818 99.2057 189.688C99.3366 189.818 99.3366 190.08 99.4676 190.211Z" fill="#D9C925"/>
<path d="M98.944 188.77C98.944 188.9 99.075 189.031 99.075 189.162C98.944 189.031 98.944 188.9 98.944 188.77Z" fill="#D9C925"/>
<path d="M99.9916 191.258C99.9916 191.127 99.8607 191.127 99.8607 190.996C99.8607 190.996 99.9916 191.127 99.9916 191.258Z" fill="#D9C925"/>
<path d="M124.608 188.77C124.608 188.9 124.477 189.031 124.477 189.162C124.608 189.031 124.608 188.9 124.608 188.77Z" fill="#D9C925"/>
<path d="M124.739 180.26C124.739 180.129 124.608 179.998 124.608 179.867C124.608 179.998 124.608 180.129 124.739 180.26Z" fill="#D9C925"/>
<path d="M123.561 177.77C123.561 177.9 123.692 177.9 123.692 178.031C123.692 177.9 123.692 177.9 123.561 177.77Z" fill="#D9C925"/>
<path d="M118.192 172.531C118.323 172.531 118.323 172.662 118.454 172.662C118.454 172.662 118.323 172.531 118.192 172.531Z" fill="#D9C925"/>
<path d="M117.014 171.879C117.145 172.01 117.407 172.01 117.538 172.141C117.276 172.141 117.145 172.01 117.014 171.879Z" fill="#D9C925"/>
<path d="M114.264 171.094C113.609 170.963 112.955 170.963 112.3 170.832C112.955 170.963 113.609 170.963 114.264 171.094Z" fill="#D9C925"/>
<path d="M98.944 180.26C98.944 180.129 99.075 179.998 99.075 179.867C98.944 179.998 98.944 180.129 98.944 180.26Z" fill="#D9C925"/>
<path d="M124.085 178.816C124.216 178.947 124.216 179.209 124.347 179.34C124.216 179.078 124.216 178.947 124.085 178.816Z" fill="#D9C925"/>
<path d="M111.252 170.961C110.597 170.961 109.943 171.092 109.288 171.223C109.943 170.961 110.597 170.961 111.252 170.961Z" fill="#D9C925"/>
<path d="M115.705 171.484C115.967 171.615 116.228 171.615 116.49 171.746C116.228 171.615 115.967 171.615 115.705 171.484Z" fill="#D9C925"/>
<path d="M99.8607 178.031C99.8607 177.9 99.9916 177.9 99.9916 177.77C99.9916 177.9 99.8607 177.9 99.8607 178.031Z" fill="#D9C925"/>
<path d="M117.538 196.758C117.407 196.889 117.145 196.889 117.014 197.02C117.145 197.02 117.407 196.889 117.538 196.758Z" fill="#D9C925"/>
<path d="M114.395 171.223C114.657 171.223 115.049 171.354 115.311 171.485C115.049 171.354 114.657 171.223 114.395 171.223Z" fill="#D9C925"/>
<path d="M99.2057 179.34C99.3366 179.209 99.3366 178.947 99.4676 178.816C99.3366 178.947 99.3366 179.078 99.2057 179.34Z" fill="#D9C925"/>
<path d="M105.098 172.662C105.229 172.662 105.229 172.531 105.36 172.531C105.229 172.531 105.098 172.662 105.098 172.662Z" fill="#D9C925"/>
<path d="M108.241 171.356C108.503 171.225 108.896 171.225 109.157 171.094C108.896 171.225 108.503 171.356 108.241 171.356Z" fill="#D9C925"/>
<path d="M107.193 171.746C107.455 171.615 107.717 171.615 107.979 171.484C107.586 171.615 107.324 171.615 107.193 171.746Z" fill="#D9C925"/>
<path d="M106.015 172.141C106.146 172.01 106.408 172.01 106.539 171.879C106.408 172.01 106.277 172.141 106.015 172.141Z" fill="#D9C925"/>
<path d="M118.585 196.234C118.454 196.234 118.323 196.365 118.323 196.365C118.323 196.365 118.454 196.365 118.585 196.234Z" fill="#D9C925"/>
<path d="M124.347 189.688C124.216 189.818 124.216 190.08 124.085 190.211C124.216 190.08 124.216 189.818 124.347 189.688Z" fill="#D9C925"/>
<path d="M123.692 190.863C123.692 190.994 123.561 190.994 123.561 191.125C123.692 191.125 123.692 190.994 123.692 190.863Z" fill="#D9C925"/>
<path d="M133.512 181.828H129.715V195.97H133.512V181.828Z" fill="#FBB03B"/>
<path d="M139.667 181.828H135.869V195.97H139.667V181.828Z" fill="#FBB03B"/>
<path d="M133.512 172.531H129.715V177.376H133.512V172.531Z" fill="#FBB03B"/>
<path d="M139.667 172.531H135.869V177.376H139.667V172.531Z" fill="#FBB03B"/>
<path d="M145.952 181.828H142.155V195.97H145.952V181.828Z" fill="#FBB03B"/>
<path d="M145.952 172.531H142.155V177.376H145.952V172.531Z" fill="#FBB03B"/>
<path d="M42.1154 99.8621L50.8884 90.4343C52.1978 88.9939 52.1978 86.637 50.7575 85.3276C49.3171 84.0182 46.9602 84.0182 45.6508 85.4585L42.6391 88.6011L47.2221 72.4953C47.7458 70.5312 46.6983 68.5671 44.7342 68.0433C42.7701 67.5196 40.806 68.5671 40.2822 70.5312L37.2705 81.1375C37.0087 80.8756 36.7468 80.6137 36.4849 80.3518L40.0203 68.3052C40.5441 66.3411 39.4965 64.377 37.5324 63.8532C35.5683 63.3295 33.6042 64.377 33.0804 66.3411L29.8069 76.8164H29.6759C29.2831 76.6855 28.8903 76.5545 28.3665 76.5545L30.8544 67.7815C31.3782 65.8173 30.3306 63.8532 28.3665 63.3295C26.4024 62.8057 24.4383 63.8532 23.9145 65.8173L20.7719 76.6855C20.2482 76.8164 19.7244 76.9474 19.2006 77.2092L21.6885 68.4362C22.2123 66.472 21.1648 64.5079 19.2006 63.9842C17.2365 63.4604 15.2724 64.5079 14.7486 66.472L8.85628 86.2442C8.46346 87.0298 8.07063 87.9464 7.80875 88.863C7.80875 88.9939 7.54687 90.0415 7.0231 91.6128" stroke="#FBB03B" stroke-width="2" stroke-miterlimit="10" stroke-linejoin="round"/>
<path d="M178.163 260.133L172.402 270.215C171.354 271.918 172.009 274.144 173.711 275.191C174.235 275.453 174.89 275.715 175.545 275.715C176.854 275.715 178.032 275.06 178.687 273.882L182.223 269.692L181.437 286.452C181.306 288.416 182.877 290.118 184.841 290.249H184.972C186.936 290.249 188.508 288.678 188.639 286.845L189.424 271.132C189.817 271.263 189.948 271.263 190.341 271.394L189.424 289.071C189.293 291.035 190.865 292.737 192.829 292.868H192.96C194.924 292.868 196.495 291.297 196.626 289.464L197.543 271.525H198.197L197.412 287.5C197.281 289.464 198.852 291.166 200.816 291.297H200.947C202.911 291.297 204.483 289.726 204.614 287.892L205.399 271.394C205.923 271.263 205.923 271.525 206.447 271.394L205.792 285.274C205.661 287.238 207.232 288.94 209.196 289.071H209.327C211.292 289.071 212.863 287.5 212.994 285.666L214.434 261.573" stroke="#FBB03B" stroke-width="2" stroke-miterlimit="10" stroke-linejoin="round"/>
<path d="M40.1515 96.5873C39.8896 96.4564 39.4968 96.3255 39.104 96.1945L9.38032 91.2188C9.24938 91.2188 8.9875 91.2188 8.85656 91.2188C7.15432 91.2188 5.71397 92.3972 5.45209 94.0995L3.74985 103.789C3.48797 105.36 4.27361 106.801 5.71397 107.455C5.97585 107.586 6.36868 107.717 6.63056 107.717L36.3542 112.955C36.4852 112.955 36.7471 112.955 36.878 112.955C38.5802 112.955 40.1515 111.777 40.4134 110.074L42.1156 100.385C42.2466 98.8133 41.4609 97.242 40.1515 96.5873Z" stroke="#FBB03B" stroke-width="2" stroke-miterlimit="10"/>
<path d="M212.47 245.861C212.339 245.861 212.078 245.73 211.816 245.73H181.699C181.306 245.73 181.045 245.73 180.652 245.861C179.211 246.254 178.164 247.564 178.164 249.135V259.086C178.164 260.789 179.473 262.36 181.175 262.491C181.306 262.491 181.568 262.491 181.699 262.491H211.816C212.209 262.491 212.47 262.491 212.863 262.36C214.304 261.967 215.351 260.658 215.351 258.956V249.004C215.351 247.564 214.042 246.123 212.47 245.861Z" stroke="#FBB03B" stroke-width="2" stroke-miterlimit="10"/>
<path d="M174.628 236.826H70.9228C69.7444 236.826 68.8278 235.91 68.8278 234.731V226.22C68.8278 225.042 69.7444 224.125 70.9228 224.125H174.628C175.807 224.125 176.723 225.042 176.723 226.22V234.6C176.723 235.91 175.807 236.826 174.628 236.826Z" stroke="#FBB03B" stroke-width="2" stroke-miterlimit="10"/>
<path d="M122.644 236.433C119.371 236.433 116.621 233.684 116.621 230.41C116.621 227.136 119.371 224.387 122.644 224.387C125.918 224.387 128.668 227.136 128.668 230.41C128.668 233.814 125.918 236.433 122.644 236.433Z" stroke="#FBB03B" stroke-width="2" stroke-miterlimit="10"/>
<path d="M122.644 234.075C124.597 234.075 126.18 232.492 126.18 230.539C126.18 228.587 124.597 227.004 122.644 227.004C120.692 227.004 119.109 228.587 119.109 230.539C119.109 232.492 120.692 234.075 122.644 234.075Z" fill="#FBB03B"/>
<path d="M86.6356 126.049C89.6472 131.286 86.1118 138.881 78.91 142.94C71.7082 147.13 63.328 146.345 60.3164 141.107C57.3047 135.869 60.8401 128.275 68.0419 124.216C75.3746 120.156 83.7548 120.942 86.6356 126.049Z" stroke="#FBB03B" stroke-width="2" stroke-miterlimit="10"/>
<path d="M159.57 126.049C156.558 131.286 160.094 138.881 167.295 142.94C174.497 147.13 182.877 146.345 185.889 141.107C188.901 135.869 185.365 128.275 178.163 124.216C170.831 120.156 162.581 120.942 159.57 126.049Z" stroke="#FBB03B" stroke-width="2" stroke-miterlimit="10"/>
<path d="M166.51 53.3746C166.51 53.3746 166.379 53.2436 166.379 53.1127C166.248 52.9818 166.117 52.7199 165.986 52.5889C165.724 52.3271 165.462 52.0652 165.2 51.8033C164.807 51.4105 164.546 51.1486 164.153 50.7558C163.629 50.232 162.974 49.7082 162.451 49.1845C161.796 48.6607 161.141 48.006 160.486 47.4822C159.701 46.9585 159.046 46.3038 158.26 45.78C157.475 45.2562 156.689 44.7325 155.903 44.2087C155.773 44.2087 155.773 44.2087 155.773 44.0778C155.118 43.6849 154.463 43.2921 153.808 42.8993C151.451 41.4589 148.833 40.2805 146.083 39.3639C145.428 39.102 144.773 38.8401 143.988 38.7092C142.024 38.0545 140.06 37.5307 138.095 37.0069C137.441 36.876 136.786 36.745 136 36.6141C135.084 36.4832 134.167 36.2213 133.251 36.0903C132.334 35.9594 131.548 35.8285 130.632 35.6975C128.275 35.4356 126.049 35.3047 123.561 35.3047C121.204 35.3047 118.847 35.4356 116.49 35.6975C115.574 35.8285 114.657 35.8285 113.871 36.0903C112.955 36.2213 112.038 36.3522 111.122 36.6141C108.372 37.1379 105.753 37.7926 103.134 38.7092C102.479 38.971 101.694 39.2329 101.039 39.3639C100.384 39.6257 99.5987 39.8876 98.944 40.1495C97.2418 40.9352 95.6705 41.5899 94.0992 42.5065C93.8373 42.6374 93.5754 42.7683 93.3135 43.0302C92.6588 43.423 92.0041 43.8159 91.3494 44.2087C91.3494 44.2087 91.2185 44.2087 91.2185 44.3396C90.4328 44.8634 89.6472 45.3872 88.8615 45.9109C88.0759 46.4347 87.4212 46.9585 86.6355 47.6132C85.1952 48.7916 83.7548 49.9701 82.5764 51.2795C81.9217 51.9342 81.2669 52.5889 80.7432 53.2436C74.5889 60.0526 71.0535 68.4328 71.0535 77.4678C71.0535 100.513 94.623 119.369 123.561 119.369C147.13 119.369 167.033 106.93 173.711 89.9072C175.283 85.979 176.068 81.7888 176.068 77.4678C175.937 68.4328 172.533 60.0526 166.51 53.3746ZM75.7674 89.7763L92.6588 45.78H92.7898C93.4445 45.3872 94.0992 44.9943 94.7539 44.7325C95.0158 44.6015 95.2777 44.4706 95.5395 44.3396C96.9799 43.554 98.5512 42.7683 100.122 42.1136C100.777 41.8518 101.432 41.5899 102.087 41.328C102.741 41.0661 103.396 40.8042 104.051 40.6733C106.539 39.7567 109.027 39.102 111.645 38.7092C112.3 38.5782 112.824 38.4473 113.479 38.3163L87.6831 105.358C82.3145 101.037 78.2553 95.6686 75.7674 89.7763ZM98.0274 111.774C95.9324 110.727 93.9683 109.679 92.0041 108.501L119.109 37.3997C120.549 37.2688 121.99 37.2688 123.43 37.2688C124.478 37.2688 125.525 37.2688 126.442 37.3997L98.0274 111.774Z" fill="#FBB03B"/>
<path d="M126.18 181.828C126.18 181.697 126.18 181.697 126.18 181.828C126.049 181.435 126.049 181.042 125.918 180.649L125.787 180.257C125.656 179.995 125.656 179.733 125.525 179.471C125.394 179.34 125.394 179.078 125.263 178.947C125.133 178.816 125.133 178.554 125.002 178.423C124.871 178.162 124.74 177.9 124.609 177.638C124.609 177.507 124.478 177.376 124.478 177.376C124.347 177.114 124.085 176.721 123.954 176.459C123.954 176.459 123.954 176.459 123.954 176.328C122.907 174.888 121.597 173.579 120.157 172.531C120.157 172.531 120.026 172.531 120.026 172.4C119.764 172.269 119.371 172.007 119.109 171.876C118.978 171.745 118.847 171.745 118.716 171.614C118.455 171.483 118.193 171.353 117.931 171.222C117.669 171.091 117.538 171.091 117.276 170.96C117.145 170.829 116.883 170.829 116.752 170.698C116.49 170.567 116.229 170.436 115.967 170.436C115.836 170.436 115.705 170.436 115.705 170.305C115.312 170.174 114.919 170.174 114.657 170.043C113.741 169.912 112.824 169.781 111.907 169.781C110.991 169.781 110.074 169.912 109.158 170.043C108.765 170.174 108.372 170.174 108.11 170.305C107.979 170.305 107.848 170.305 107.717 170.436C107.455 170.567 107.194 170.567 106.932 170.698C106.801 170.829 106.539 170.829 106.408 170.96C106.146 171.091 106.015 171.091 105.884 171.222C105.622 171.353 105.36 171.483 105.099 171.614C104.968 171.614 104.837 171.745 104.706 171.876C104.444 172.007 104.051 172.269 103.789 172.4C103.789 172.4 103.789 172.4 103.658 172.4C102.087 173.448 100.908 174.757 99.8609 176.197C99.8609 176.197 99.8609 176.197 99.8609 176.328C99.599 176.59 99.468 176.983 99.3371 177.245C99.3371 177.376 99.2062 177.507 99.2062 177.507C99.0752 177.769 98.9443 178.031 98.8133 178.292C98.6824 178.423 98.6824 178.685 98.5515 178.816C98.4205 178.947 98.4205 179.209 98.2896 179.34C98.1586 179.602 98.1586 179.864 98.0277 180.126L97.8968 180.518C97.7658 180.911 97.7658 181.173 97.6349 181.566V181.697C97.5039 182.614 97.373 183.53 97.373 184.447C97.373 185.363 97.5039 186.28 97.6349 187.196V187.327C97.7658 187.72 97.7658 187.982 97.8968 188.375L98.0277 188.768C98.1586 189.03 98.1586 189.292 98.2896 189.553C98.4205 189.684 98.4205 189.946 98.5515 190.077C98.6824 190.208 98.6824 190.47 98.8133 190.601C98.9443 190.863 99.0752 191.125 99.2062 191.387C99.2062 191.518 99.3371 191.648 99.3371 191.648C99.468 191.91 99.7299 192.303 99.8609 192.565C99.8609 192.565 99.8609 192.565 99.8609 192.696C100.908 194.267 102.218 195.577 103.658 196.493C103.658 196.493 103.658 196.493 103.789 196.493C104.051 196.755 104.444 196.886 104.706 197.017C104.837 197.017 104.968 197.148 104.968 197.148C105.229 197.279 105.491 197.41 105.753 197.541C105.884 197.672 106.146 197.672 106.277 197.803C106.408 197.934 106.67 197.934 106.932 198.065C107.194 198.196 107.455 198.196 107.717 198.326C107.848 198.326 107.979 198.326 108.11 198.457C108.503 198.588 108.765 198.588 109.158 198.719C109.158 198.719 109.158 198.719 109.289 198.719C110.205 198.85 111.122 198.981 112.038 198.981C112.955 198.981 113.872 198.85 114.788 198.719C114.788 198.719 114.788 198.719 114.919 198.719C115.312 198.588 115.574 198.588 115.967 198.457C116.098 198.457 116.229 198.457 116.359 198.326C116.621 198.196 116.883 198.196 117.145 198.065C117.276 197.934 117.538 197.934 117.669 197.803C117.8 197.672 118.062 197.672 118.193 197.541C118.455 197.41 118.716 197.279 118.978 197.148C119.109 197.148 119.24 197.017 119.371 196.886C119.633 196.755 120.026 196.493 120.288 196.362C120.288 196.362 120.288 196.362 120.419 196.362C121.859 195.315 123.168 194.005 124.216 192.565C124.216 192.565 124.216 192.565 124.216 192.434C124.478 192.172 124.609 191.779 124.74 191.518C124.74 191.387 124.871 191.256 124.871 191.256C125.002 190.994 125.133 190.732 125.263 190.47C125.394 190.339 125.394 190.077 125.525 189.946C125.656 189.815 125.656 189.553 125.787 189.422C125.918 189.161 125.918 188.899 126.049 188.637L126.18 188.244C126.311 187.851 126.311 187.589 126.442 187.196C126.442 187.196 126.442 187.196 126.442 187.066C126.573 186.149 126.704 185.232 126.704 184.316C126.442 183.53 126.311 182.614 126.18 181.828ZM99.0752 179.864C99.2062 179.733 99.2062 179.471 99.3371 179.34C99.468 179.209 99.4681 178.947 99.599 178.816C99.7299 178.554 99.8609 178.292 99.9918 178.162C99.9918 178.031 100.123 178.031 100.123 177.9C100.254 177.638 100.516 177.376 100.647 176.983C101.039 176.459 101.432 175.935 101.956 175.412L106.932 180.388H99.0752C98.9443 180.126 98.9443 179.995 99.0752 179.864ZM108.241 182.614C109.289 182.614 110.074 183.399 110.074 184.447C110.074 185.494 109.289 186.28 108.241 186.28C107.194 186.28 106.408 185.494 106.408 184.447C106.408 183.399 107.325 182.614 108.241 182.614ZM103.265 184.447C103.265 185.494 102.48 186.28 101.432 186.28C100.385 186.28 99.599 185.494 99.599 184.447C99.599 183.399 100.385 182.614 101.432 182.614C102.48 182.614 103.265 183.399 103.265 184.447ZM100.516 192.172C100.516 192.172 100.516 192.041 100.516 192.172C100.254 191.91 100.123 191.518 99.9918 191.256C99.9918 191.125 99.8609 191.125 99.8609 190.994C99.7299 190.732 99.599 190.47 99.468 190.339C99.3371 190.208 99.3371 189.946 99.2062 189.815C99.0752 189.684 99.0752 189.422 98.9443 189.292C98.9443 189.161 98.8133 189.03 98.8133 188.899H106.67L101.694 193.874C101.301 193.22 100.908 192.696 100.516 192.172ZM111.253 198.065C110.598 198.065 109.943 197.934 109.289 197.803C109.289 197.803 109.289 197.803 109.158 197.803C108.765 197.803 108.503 197.672 108.241 197.541C108.11 197.541 107.979 197.541 107.848 197.41C107.586 197.279 107.325 197.279 107.063 197.148C106.932 197.017 106.67 197.017 106.539 196.886C106.408 196.755 106.146 196.755 106.015 196.624C105.753 196.493 105.491 196.362 105.229 196.231C105.099 196.231 105.099 196.1 104.968 196.1C104.706 195.97 104.313 195.708 104.051 195.577C103.527 195.184 103.003 194.791 102.48 194.267L108.241 188.506H111.253V198.065ZM111.253 170.96V180.257H108.241L102.48 174.495C103.003 174.102 103.527 173.579 104.051 173.186C104.313 173.055 104.575 172.793 104.968 172.662C105.099 172.662 105.099 172.531 105.229 172.531C105.491 172.4 105.753 172.269 106.015 172.138C106.146 172.007 106.408 172.007 106.539 171.876C106.67 171.745 106.932 171.745 107.063 171.614C107.325 171.483 107.586 171.484 107.848 171.353C107.979 171.353 108.11 171.353 108.241 171.222C108.503 171.091 108.896 171.091 109.158 170.96H109.289C109.943 170.96 110.598 170.96 111.253 170.96ZM123.037 176.852C123.299 177.245 123.43 177.507 123.561 177.769C123.561 177.9 123.692 177.9 123.692 178.031C123.823 178.292 123.954 178.554 124.085 178.685C124.216 178.816 124.216 179.078 124.347 179.209C124.478 179.34 124.478 179.602 124.609 179.733C124.609 179.864 124.74 179.995 124.74 180.126H116.883L121.859 175.15C122.252 175.805 122.645 176.328 123.037 176.852ZM124.085 184.447C124.085 185.494 123.299 186.28 122.252 186.28C121.204 186.28 120.419 185.494 120.419 184.447C120.419 183.399 121.204 182.614 122.252 182.614C123.299 182.614 124.085 183.399 124.085 184.447ZM117.145 184.447C117.145 185.494 116.359 186.28 115.312 186.28C114.264 186.28 113.479 185.494 113.479 184.447C113.479 183.399 114.264 182.614 115.312 182.614C116.359 182.614 117.145 183.399 117.145 184.447ZM112.3 170.96C112.955 170.96 113.61 171.091 114.264 171.222C114.264 171.222 114.264 171.222 114.395 171.222C114.657 171.222 115.05 171.353 115.312 171.483C115.443 171.483 115.574 171.483 115.705 171.614C115.967 171.745 116.229 171.745 116.49 171.876C116.621 172.007 116.883 172.007 117.014 172.138C117.145 172.269 117.407 172.269 117.538 172.4C117.8 172.531 118.062 172.662 118.193 172.793C118.324 172.793 118.324 172.924 118.455 172.924C118.716 173.055 118.978 173.317 119.371 173.448C119.895 173.84 120.419 174.233 120.942 174.757L115.181 180.518H112.3V170.96ZM119.502 195.708C119.371 195.708 119.371 195.708 119.502 195.708C119.109 195.97 118.847 196.1 118.585 196.231C118.455 196.231 118.324 196.362 118.324 196.362C118.062 196.493 117.931 196.624 117.669 196.755C117.538 196.886 117.276 196.886 117.145 197.017C117.014 197.148 116.752 197.148 116.621 197.148C116.359 197.279 116.098 197.279 115.836 197.41C115.705 197.41 115.574 197.41 115.574 197.541C115.181 197.672 114.919 197.672 114.526 197.803C113.872 197.934 113.217 198.065 112.431 198.065V188.768H115.443L121.204 194.529C120.55 194.922 120.026 195.315 119.502 195.708ZM124.478 189.161C124.347 189.292 124.347 189.553 124.216 189.684C124.085 189.815 124.085 190.077 123.954 190.208C123.823 190.47 123.692 190.732 123.561 190.863C123.561 190.994 123.43 190.994 123.43 191.125C123.299 191.387 123.037 191.648 122.907 192.041C122.514 192.565 122.121 193.089 121.597 193.613L116.621 188.637H124.478C124.609 188.899 124.609 189.03 124.478 189.161Z" fill="#FBB03B"/>
<path d="M126.754 30.6166C131.903 28.4956 134.357 22.6025 132.236 17.4539C130.115 12.3054 124.222 9.85108 119.073 11.9721C113.925 14.0931 111.471 19.9862 113.592 25.1348C115.713 30.2833 121.606 32.7376 126.754 30.6166Z" stroke="#FBB03B" stroke-width="2" stroke-miterlimit="10"/>
<path d="M129.06 21.2949C129.06 24.6993 126.311 27.4491 122.906 27.4491C119.502 27.4491 116.752 24.6993 116.752 21.2949C116.752 17.8904 119.502 15.1406 122.906 15.1406C126.311 15.1406 129.06 17.8904 129.06 21.2949Z" stroke="#FBB03B" stroke-width="2" stroke-miterlimit="10"/>
<path d="M122.906 24.9616C124.931 24.9616 126.573 23.3201 126.573 21.2953C126.573 19.2704 124.931 17.6289 122.906 17.6289C120.881 17.6289 119.24 19.2704 119.24 21.2953C119.24 23.3201 120.881 24.9616 122.906 24.9616Z" fill="#FBB03B"/>
<path d="M179.08 233.157L211.161 228.312" stroke="#FBB03B" stroke-width="2" stroke-miterlimit="10"/>
<path d="M179.473 238.134L212.339 235.516" stroke="#FBB03B" stroke-width="2" stroke-miterlimit="10"/>
<path d="M179.735 242.327L212.732 241.672" stroke="#FBB03B" stroke-width="2" stroke-miterlimit="10"/>
<path d="M1.1311 130.24L37.6637 126.836" stroke="#FBB03B" stroke-width="2" stroke-miterlimit="10"/>
<path d="M2.17828 121.074H37.5324" stroke="#FBB03B" stroke-width="2" stroke-miterlimit="10"/>
<path d="M2.57132 112.039L38.0564 117.015" stroke="#FBB03B" stroke-width="2" stroke-miterlimit="10"/>
<path d="M171.224 204.649L171.355 145.07" stroke="#FBB03B" stroke-width="2" stroke-miterlimit="10"/>
<path d="M74.327 268.68H111.776" stroke="#FBB03B" stroke-width="2" stroke-miterlimit="10"/>
<path d="M74.327 287.012H111.776" stroke="#FBB03B" stroke-width="2" stroke-miterlimit="10"/>
<path d="M74.327 305.211H111.776" stroke="#FBB03B" stroke-width="2" stroke-miterlimit="10"/>
<path d="M74.327 323.41H111.776" stroke="#FBB03B" stroke-width="2" stroke-miterlimit="10"/>
<path d="M133.774 268.68H171.224" stroke="#FBB03B" stroke-width="2" stroke-miterlimit="10"/>
<path d="M133.774 287.012H171.224" stroke="#FBB03B" stroke-width="2" stroke-miterlimit="10"/>
<path d="M133.774 305.211H171.224" stroke="#FBB03B" stroke-width="2" stroke-miterlimit="10"/>
<path d="M133.774 323.41H171.224" stroke="#FBB03B" stroke-width="2" stroke-miterlimit="10"/>
</svg>
