<svg width="221" height="355" viewBox="0 0 221 355" fill="none" xmlns="http://www.w3.org/2000/svg">
<path d="M137.897 361.092V264.98H175.215C175.215 264.98 175.215 264.98 175.346 264.98C175.346 286.062 175.346 334.511 175.346 361.092" stroke="#FBB03B" stroke-width="2" stroke-miterlimit="10"/>
<path d="M78.4489 361.092C78.4489 334.511 78.4489 286.062 78.4489 264.98C78.4489 264.98 78.4489 264.98 78.5798 264.98H115.898V361.092" stroke="#FBB03B" stroke-width="2" stroke-miterlimit="10"/>
<path d="M157.407 221.767C153.086 221.767 148.241 221.375 143.265 219.934C142.349 221.375 140.646 222.422 138.813 222.422V224.124H157.407H175.215C175.215 224.124 175.215 224.124 175.346 224.124C175.346 220.72 175.346 221.767 175.346 218.887C174.429 219.28 167.62 221.767 157.407 221.767Z" stroke="#FBB03B" stroke-width="2" stroke-miterlimit="10"/>
<path d="M144.051 217.446C160.157 221.636 174.167 216.53 175.215 216.137C175.215 217.053 175.215 217.97 175.215 219.017C174.429 219.279 167.489 221.898 157.407 221.898C153.086 221.898 148.241 221.505 143.265 220.065C143.789 219.148 144.051 218.363 144.051 217.446Z" stroke="#FBB03B" stroke-width="2" stroke-miterlimit="10"/>
<path d="M144.051 217.448C144.051 218.365 143.789 219.281 143.265 219.936C141.956 219.543 140.647 219.15 139.468 218.757C138.813 218.496 138.42 217.71 138.682 217.055C138.944 216.4 139.73 216.008 140.385 216.27C141.563 216.662 142.873 217.055 144.051 217.448Z" stroke="#FBB03B" stroke-width="2" stroke-miterlimit="10"/>
<path d="M179.667 236.17V260.394C179.667 262.882 177.703 264.846 175.346 264.846C175.346 264.846 175.346 264.846 175.215 264.846H137.896L126.897 264.715H115.898H78.5797C78.5797 264.715 78.5797 264.715 78.4488 264.715C75.9609 264.715 74.1277 262.62 74.1277 260.263V236.039" stroke="#FBB03B" stroke-width="2" stroke-miterlimit="10"/>
<path d="M120.219 217.056C120.219 214.175 117.862 211.818 114.851 211.818V205.664H115.244H138.682V211.818C135.671 211.818 133.314 214.175 133.314 217.056C133.314 220.068 135.671 222.425 138.682 222.425V224.127H126.767H114.851V222.425C117.862 222.425 120.219 220.068 120.219 217.056Z" stroke="#FBB03B" stroke-width="2" stroke-miterlimit="10"/>
<path d="M64.438 49.4473C63.3904 53.3756 62.6048 57.4348 62.3429 61.6249C62.6048 62.1487 62.6048 62.6725 62.6048 63.3272V71.0528C62.6048 71.5765 62.4738 71.9694 62.3429 72.4931C64.1761 93.8367 76.4846 112.299 94.0308 122.644C103.721 128.405 114.982 131.548 127.028 131.548C138.944 131.548 150.074 128.405 159.764 122.775C172.334 115.442 182.286 104.05 187.654 90.3012C189.488 85.7183 190.797 80.8734 191.452 75.7667M191.452 58.6133C191.059 55.4707 190.535 52.3281 189.618 49.3164L191.452 58.6133Z" stroke="#FBB03B" stroke-width="2" stroke-miterlimit="10"/>
<path d="M78.4489 145.431V185.499C78.4489 185.499 78.4489 185.499 78.4489 185.63C78.4489 186.808 78.4489 216.925 78.4489 216.008C79.4964 216.401 93.5072 221.508 109.613 217.318C109.613 217.187 109.613 217.056 109.613 217.056C109.613 214.175 111.97 211.818 114.851 211.818V205.664H109.089C103.197 205.664 98.483 200.95 98.483 195.058V173.452C98.483 167.56 103.197 162.846 109.089 162.846H145.36C151.253 162.846 155.966 167.56 155.966 173.452V195.058C155.966 200.95 151.253 205.664 145.36 205.664H139.075H138.682V211.818C141.563 211.818 143.92 214.175 143.92 217.056C143.92 217.187 143.92 217.318 143.92 217.318C160.026 221.508 174.036 216.401 175.084 216.008C175.084 191.653 175.084 185.63 175.084 185.63C179.012 199.117 183.071 219.544 184.512 245.994C184.905 245.863 185.167 245.863 185.559 245.863H215.676C215.938 245.863 216.069 245.863 216.331 245.994C213.843 191.522 201.141 160.882 188.178 143.859" stroke="#FBB03B" stroke-width="2" stroke-miterlimit="10"/>
<path d="M165.002 124.478C162.514 123.299 160.942 123.037 159.764 122.775C150.205 128.406 138.944 131.549 127.028 131.549C114.982 131.549 103.721 128.275 94.031 122.645C92.9835 122.906 91.2813 123.299 89.3171 124.216" stroke="#FBB03B" stroke-width="2" stroke-miterlimit="10"/>
<path d="M164.609 124.347C162.514 123.43 160.811 123.037 159.764 122.775C150.205 128.406 138.944 131.549 127.028 131.549C114.982 131.549 103.721 128.275 94.031 122.645C92.9835 122.906 91.2813 123.299 89.3171 124.216C90.8884 125.263 92.4597 126.442 94.031 127.358C103.721 133.12 114.982 136.262 127.028 136.262C138.944 136.262 150.074 133.12 159.764 127.489C161.335 126.442 163.037 125.394 164.609 124.347Z" stroke="#FBB03B" stroke-width="2" stroke-miterlimit="10"/>
<path d="M110.399 219.936C109.875 219.15 109.613 218.365 109.613 217.448C110.792 217.186 112.101 216.793 113.41 216.27C114.065 216.008 114.851 216.4 115.113 217.055C115.374 217.71 114.982 218.496 114.327 218.757C113.018 219.15 111.708 219.543 110.399 219.936Z" stroke="#FBB03B" stroke-width="2" stroke-miterlimit="10"/>
<path d="M110.399 219.934C105.292 221.244 100.578 221.767 96.257 221.767C86.0435 221.767 79.2345 219.28 78.4489 218.887C78.4489 221.767 78.4489 220.72 78.4489 224.124H78.5798H96.3879H114.851V222.422C113.018 222.422 111.315 221.506 110.399 219.934Z" stroke="#FBB03B" stroke-width="2" stroke-miterlimit="10"/>
<path d="M96.257 221.769C86.0435 221.769 79.2345 219.281 78.4489 218.889C78.4489 217.841 78.4489 216.924 78.4489 216.008C79.4964 216.401 93.5072 221.507 109.613 217.317C109.613 218.234 109.875 219.15 110.399 219.805C105.423 221.246 100.578 221.769 96.257 221.769Z" stroke="#FBB03B" stroke-width="2" stroke-miterlimit="10"/>
<path d="M117.339 23.9165C87.353 28.1067 65.2238 50.3668 64.4381 49.4502C64.5691 48.6646 64.8309 48.0099 65.0928 47.2242C65.7475 45.1291 66.4022 43.165 67.3188 41.2009C67.7117 40.2843 68.1045 39.2368 68.6283 38.3202C69.0211 37.5345 69.4139 36.7489 69.8067 35.9632C70.3305 34.9157 70.9852 33.7372 71.6399 32.6897C72.1637 31.7731 72.6875 30.9874 73.3422 30.0708C74.5206 28.1067 75.961 26.2735 77.5323 24.5713C78.0561 23.9165 78.5798 23.2618 79.1036 22.7381C79.6274 22.2143 80.0202 21.6905 80.544 21.1668C80.9368 20.7739 81.1987 20.3811 81.5915 20.1192C82.77 18.9408 84.0794 17.7623 85.3888 16.5838C85.9126 16.191 86.4364 15.6672 86.9601 15.2744C87.8767 14.4887 88.7933 13.834 89.7099 13.1793C90.3646 12.7865 91.0193 12.2627 91.674 11.8699C92.3287 11.3461 93.1144 10.9533 93.9 10.4295C96.257 8.98916 98.614 7.81069 101.102 6.63221C101.757 6.37033 102.542 5.9775 103.197 5.71562C103.983 5.45373 104.637 5.19185 105.423 4.92996C108.958 3.75149 112.494 2.70395 116.291 2.18018C116.946 2.04924 117.601 1.9183 118.255 1.9183C119.041 1.78736 119.957 1.65642 120.743 1.65642C121.398 1.52547 122.053 1.52547 122.838 1.52547C124.148 1.39453 125.588 1.39453 127.028 1.39453C128.469 1.39453 129.909 1.39453 131.219 1.52547C131.873 1.52547 132.528 1.65642 133.183 1.65642C133.575 1.65642 133.968 1.65642 134.361 1.78736C134.885 1.78736 135.409 1.9183 135.801 1.9183C136.325 2.04924 136.98 2.04924 137.504 2.18018C140.646 2.70395 143.658 3.35866 146.539 4.4062C147.193 4.66808 147.979 4.79902 148.634 5.06091C149.158 5.19185 149.681 5.45373 150.205 5.58467C150.598 5.71562 150.86 5.84656 151.253 5.9775C151.645 6.10844 152.169 6.37033 152.562 6.50127C153.348 6.89409 154.264 7.28692 155.05 7.67974C155.967 8.07257 157.014 8.59634 157.8 9.12011C158.585 9.51293 159.371 9.90576 160.026 10.4295C160.811 10.8224 161.466 11.3461 162.252 11.8699C162.776 12.2627 163.299 12.5246 163.823 12.9174C164.216 13.1793 164.609 13.4412 165.002 13.7031C165.656 14.0959 166.311 14.6197 166.835 15.1434C167.358 15.5363 167.882 15.9291 168.406 16.4529C173.906 21.0358 178.75 26.6663 182.417 32.9515C182.941 33.7372 183.333 34.5228 183.726 35.3085C184.25 36.2251 184.643 37.1417 185.167 38.0583C185.559 38.8439 185.952 39.6296 186.345 40.5462C186.476 40.8081 186.607 41.0699 186.738 41.4628C187.524 43.296 188.178 45.1291 188.702 46.9623C188.964 47.617 189.095 48.4027 189.357 49.0574C189.095 50.4978 170.37 31.6421 144.051 25.095C141.563 24.4403 138.944 23.9165 136.325 23.5237" stroke="#FBB03B" stroke-width="2" stroke-miterlimit="10"/>
<path d="M191.976 18.8093C189.619 18.2855 188.048 16.1904 188.048 13.7025C188.048 10.8218 190.405 8.46484 193.285 8.46484C196.166 8.46484 198.523 10.8218 198.523 13.7025C198.523 16.1904 196.821 18.2855 194.595 18.8093" stroke="#FBB03B" stroke-width="2" stroke-miterlimit="10"/>
<path d="M191.976 58.615V18.8086C192.369 18.9395 192.892 18.9395 193.285 18.9395C193.678 18.9395 194.202 18.9395 194.595 18.8086V58.615H191.976Z" stroke="#FBB03B" stroke-width="2" stroke-miterlimit="10"/>
<path d="M194.595 58.6172C197.082 58.7481 199.047 60.8432 199.047 63.3311V71.0567C199.047 73.6755 196.951 75.7706 194.333 75.7706H192.107C190.273 75.7706 188.702 74.723 187.917 73.1517C188.178 70.9257 188.309 68.8307 188.309 66.6046C188.309 64.7715 188.178 62.8073 188.047 60.9741C188.833 59.6647 190.273 58.6172 191.976 58.6172" stroke="#FBB03B" stroke-width="2" stroke-miterlimit="10"/>
<path d="M164.216 148.704C164.216 152.894 160.812 156.299 156.621 156.299C152.431 156.299 149.027 152.894 149.027 148.704C149.027 144.514 152.431 141.109 156.621 141.109C160.812 141.109 164.216 144.514 164.216 148.704Z" stroke="#FBB03B" stroke-width="2" stroke-miterlimit="10"/>
<path d="M161.073 148.702C161.073 151.19 159.109 153.154 156.621 153.154C154.133 153.154 152.169 151.19 152.169 148.702C152.169 146.214 154.133 144.25 156.621 144.25C159.109 144.25 161.073 146.214 161.073 148.702Z" stroke="#FBB03B" stroke-width="2" stroke-miterlimit="10"/>
<path d="M108.696 155.25H92.3287C91.4121 155.25 90.6265 154.465 90.6265 153.548V144.12C90.6265 143.204 91.4121 142.418 92.3287 142.418H108.566C109.482 142.418 110.268 143.204 110.268 144.12V153.548C110.399 154.465 109.613 155.25 108.696 155.25Z" stroke="#FBB03B" stroke-width="2" stroke-miterlimit="10"/>
<path d="M104.375 148.702C104.375 150.797 102.673 152.63 100.447 152.63C98.3521 152.63 96.5189 150.928 96.5189 148.702C96.5189 146.607 98.2212 144.773 100.447 144.773C102.673 144.773 104.375 146.607 104.375 148.702Z" stroke="#FBB03B" stroke-width="2" stroke-miterlimit="10"/>
<path d="M119.827 170.438C119.958 170.438 120.089 170.438 120.089 170.568C119.958 170.438 119.958 170.438 119.827 170.438Z" fill="#D9C925"/>
<path d="M121.005 170.699C121.136 170.83 121.398 170.83 121.529 170.961C121.267 170.83 121.136 170.83 121.005 170.699Z" fill="#D9C925"/>
<path d="M123.231 171.75C123.493 171.881 123.886 172.143 124.148 172.274C123.755 172.143 123.493 172.012 123.231 171.75Z" fill="#D9C925"/>
<path d="M122.053 171.223C122.314 171.354 122.576 171.485 122.838 171.615C122.576 171.485 122.314 171.354 122.053 171.223Z" fill="#D9C925"/>
<path d="M108.958 171.615C109.22 171.485 109.482 171.354 109.744 171.223C109.482 171.354 109.22 171.485 108.958 171.615Z" fill="#D9C925"/>
<path d="M110.268 170.961C110.399 170.83 110.661 170.83 110.792 170.699C110.661 170.83 110.53 170.83 110.268 170.961Z" fill="#D9C925"/>
<path d="M128.076 176.332C128.338 176.594 128.469 176.987 128.6 177.249C128.469 176.987 128.207 176.594 128.076 176.332Z" fill="#D9C925"/>
<path d="M111.708 170.44C111.839 170.44 111.97 170.44 112.101 170.309C111.839 170.44 111.839 170.44 111.708 170.44Z" fill="#D9C925"/>
<path d="M124.148 196.625C124.933 196.102 125.588 195.578 126.243 194.923C126.898 194.268 127.421 193.614 127.945 192.828C127.029 194.268 125.719 195.578 124.148 196.625Z" fill="#D9C925"/>
<path d="M103.852 192.699C104.376 193.485 104.899 194.14 105.554 194.794C106.209 195.449 106.863 195.973 107.649 196.497C106.078 195.58 104.768 194.271 103.852 192.699Z" fill="#D9C925"/>
<path d="M103.721 192.698C103.459 192.436 103.328 192.043 103.197 191.781C103.328 192.043 103.59 192.436 103.721 192.698Z" fill="#D9C925"/>
<path d="M107.78 172.403C108.042 172.141 108.435 172.01 108.697 171.879C108.304 172.01 108.042 172.141 107.78 172.403Z" fill="#D9C925"/>
<path d="M129.385 178.949C129.516 179.08 129.516 179.342 129.647 179.473C129.516 179.211 129.516 179.08 129.385 178.949Z" fill="#D9C925"/>
<path d="M128.862 177.512C128.993 177.774 129.123 178.035 129.254 178.297C128.993 178.035 128.993 177.774 128.862 177.512Z" fill="#D9C925"/>
<path d="M127.945 176.2C127.421 175.414 126.898 174.759 126.243 174.105C125.588 173.45 124.933 172.926 124.148 172.402C125.719 173.45 127.029 174.759 127.945 176.2Z" fill="#D9C925"/>
<path d="M107.649 172.402C106.863 172.926 106.209 173.45 105.554 174.105C104.899 174.759 104.376 175.414 103.852 176.2C104.768 174.759 106.078 173.45 107.649 172.402Z" fill="#D9C925"/>
<path d="M129.647 189.555C129.516 189.686 129.516 189.948 129.385 190.078C129.516 189.948 129.516 189.686 129.647 189.555Z" fill="#D9C925"/>
<path d="M128.6 191.781C128.469 192.043 128.207 192.436 128.076 192.698C128.207 192.436 128.469 192.043 128.6 191.781Z" fill="#D9C925"/>
<path d="M102.411 190.078C102.28 189.948 102.28 189.686 102.149 189.555C102.28 189.686 102.28 189.948 102.411 190.078Z" fill="#D9C925"/>
<path d="M109.744 197.807C109.482 197.676 109.22 197.545 108.958 197.414C109.22 197.545 109.482 197.676 109.744 197.807Z" fill="#D9C925"/>
<path d="M112.101 198.592C111.97 198.592 111.839 198.592 111.708 198.461C111.839 198.592 111.97 198.592 112.101 198.592Z" fill="#D9C925"/>
<path d="M110.923 198.199C110.661 198.068 110.53 198.068 110.268 197.938C110.53 198.068 110.661 198.199 110.923 198.199Z" fill="#D9C925"/>
<path d="M129.124 190.605C128.993 190.867 128.862 191.129 128.731 191.391C128.993 191.129 128.993 190.867 129.124 190.605Z" fill="#D9C925"/>
<path d="M102.935 191.391C102.804 191.129 102.673 190.867 102.542 190.605C102.804 190.867 102.804 191.129 102.935 191.391Z" fill="#D9C925"/>
<path d="M121.529 198.066C121.398 198.197 121.136 198.197 121.005 198.328C121.136 198.197 121.267 198.066 121.529 198.066Z" fill="#D9C925"/>
<path d="M102.149 179.473C102.28 179.342 102.28 179.08 102.411 178.949C102.28 179.08 102.28 179.211 102.149 179.473Z" fill="#D9C925"/>
<path d="M120.088 198.461C119.957 198.461 119.826 198.461 119.696 198.592C119.826 198.592 119.957 198.592 120.088 198.461Z" fill="#D9C925"/>
<path d="M108.697 197.153C108.435 197.022 108.042 196.76 107.78 196.629C108.042 196.891 108.304 197.022 108.697 197.153Z" fill="#D9C925"/>
<path d="M102.673 178.297C102.804 178.035 102.935 177.774 103.066 177.512C102.804 177.774 102.804 178.035 102.673 178.297Z" fill="#D9C925"/>
<path d="M122.838 197.414C122.576 197.545 122.314 197.676 122.053 197.807C122.314 197.676 122.576 197.545 122.838 197.414Z" fill="#D9C925"/>
<path d="M103.197 177.249C103.328 176.987 103.59 176.594 103.721 176.332C103.59 176.594 103.328 176.987 103.197 177.249Z" fill="#D9C925"/>
<path d="M124.017 196.629C123.755 196.891 123.362 197.022 123.1 197.153C123.493 197.022 123.755 196.891 124.017 196.629Z" fill="#D9C925"/>
<path d="M116.422 198.067C117.077 198.067 117.731 197.936 118.517 197.805C117.731 197.936 117.077 198.067 116.422 198.067Z" fill="#D9C925"/>
<path d="M113.41 197.805C114.065 197.936 114.72 197.936 115.374 198.067C114.72 198.067 114.065 197.936 113.41 197.805Z" fill="#D9C925"/>
<path d="M111.97 197.543C111.708 197.412 111.446 197.412 111.184 197.281C111.446 197.281 111.708 197.412 111.97 197.543Z" fill="#D9C925"/>
<path d="M113.28 197.805C112.887 197.805 112.625 197.674 112.363 197.543C112.625 197.674 113.018 197.805 113.28 197.805Z" fill="#D9C925"/>
<path d="M109.482 196.498C109.351 196.498 109.351 196.367 109.22 196.367C109.22 196.367 109.351 196.367 109.482 196.498Z" fill="#D9C925"/>
<path d="M110.66 197.02C110.53 196.889 110.268 196.889 110.137 196.758C110.399 196.889 110.53 197.02 110.66 197.02Z" fill="#D9C925"/>
<path d="M120.612 197.281C120.35 197.412 120.089 197.412 119.827 197.543C120.089 197.412 120.35 197.281 120.612 197.281Z" fill="#D9C925"/>
<path d="M119.565 197.543C119.172 197.674 118.91 197.674 118.517 197.805C118.779 197.805 119.172 197.674 119.565 197.543Z" fill="#D9C925"/>
<path d="M103.59 190.211C103.459 190.08 103.459 189.818 103.328 189.688C103.459 189.818 103.459 190.08 103.59 190.211Z" fill="#D9C925"/>
<path d="M103.066 188.77C103.066 188.9 103.197 189.031 103.197 189.162C103.066 189.031 103.066 188.9 103.066 188.77Z" fill="#D9C925"/>
<path d="M104.113 191.258C104.113 191.127 103.983 191.127 103.983 190.996C103.983 190.996 103.983 191.127 104.113 191.258Z" fill="#D9C925"/>
<path d="M128.731 188.77C128.731 188.9 128.6 189.031 128.6 189.162C128.731 189.031 128.731 188.9 128.731 188.77Z" fill="#D9C925"/>
<path d="M128.731 180.26C128.731 180.129 128.6 179.998 128.6 179.867C128.731 179.998 128.731 180.129 128.731 180.26Z" fill="#D9C925"/>
<path d="M127.683 177.773C127.683 177.904 127.814 177.904 127.814 178.035C127.814 177.904 127.683 177.904 127.683 177.773Z" fill="#D9C925"/>
<path d="M122.314 172.535C122.445 172.535 122.445 172.666 122.576 172.666C122.576 172.666 122.445 172.535 122.314 172.535Z" fill="#D9C925"/>
<path d="M121.136 171.879C121.267 172.01 121.529 172.01 121.66 172.141C121.398 172.141 121.267 172.01 121.136 171.879Z" fill="#D9C925"/>
<path d="M118.386 171.094C117.731 170.963 117.077 170.963 116.422 170.832C117.077 170.963 117.731 170.963 118.386 171.094Z" fill="#D9C925"/>
<path d="M103.066 180.26C103.066 180.129 103.197 179.998 103.197 179.867C103.066 179.998 103.066 180.129 103.066 180.26Z" fill="#D9C925"/>
<path d="M128.207 178.82C128.338 178.951 128.338 179.213 128.469 179.344C128.338 179.082 128.338 178.951 128.207 178.82Z" fill="#D9C925"/>
<path d="M115.374 170.961C114.72 170.961 114.065 171.092 113.41 171.223C114.065 170.961 114.72 170.961 115.374 170.961Z" fill="#D9C925"/>
<path d="M119.827 171.488C120.089 171.619 120.35 171.619 120.612 171.75C120.35 171.619 120.089 171.619 119.827 171.488Z" fill="#D9C925"/>
<path d="M103.983 178.035C103.983 177.904 104.113 177.904 104.113 177.773C103.983 177.904 103.983 177.904 103.983 178.035Z" fill="#D9C925"/>
<path d="M121.66 196.758C121.529 196.889 121.267 196.889 121.136 197.02C121.267 197.02 121.398 196.889 121.66 196.758Z" fill="#D9C925"/>
<path d="M118.517 171.223C118.779 171.223 119.172 171.354 119.434 171.485C119.172 171.354 118.779 171.223 118.517 171.223Z" fill="#D9C925"/>
<path d="M103.328 179.344C103.459 179.213 103.459 178.951 103.59 178.82C103.459 178.951 103.459 179.082 103.328 179.344Z" fill="#D9C925"/>
<path d="M109.22 172.666C109.351 172.666 109.351 172.535 109.482 172.535C109.351 172.535 109.22 172.666 109.22 172.666Z" fill="#D9C925"/>
<path d="M112.363 171.356C112.625 171.225 113.018 171.225 113.28 171.094C113.018 171.225 112.625 171.356 112.363 171.356Z" fill="#D9C925"/>
<path d="M111.184 171.75C111.446 171.619 111.708 171.619 111.97 171.488C111.708 171.619 111.446 171.619 111.184 171.75Z" fill="#D9C925"/>
<path d="M110.137 172.141C110.268 172.01 110.53 172.01 110.66 171.879C110.53 172.01 110.399 172.141 110.137 172.141Z" fill="#D9C925"/>
<path d="M122.707 196.234C122.576 196.234 122.445 196.365 122.445 196.365C122.445 196.365 122.576 196.365 122.707 196.234Z" fill="#D9C925"/>
<path d="M128.469 189.688C128.338 189.818 128.338 190.08 128.207 190.211C128.338 190.08 128.338 189.818 128.469 189.688Z" fill="#D9C925"/>
<path d="M127.814 190.867C127.814 190.998 127.683 190.998 127.683 191.129C127.683 191.129 127.814 190.998 127.814 190.867Z" fill="#D9C925"/>
<path d="M137.635 181.832H133.837V195.974H137.635V181.832Z" fill="#FBB03B"/>
<path d="M143.789 181.832H139.992V195.974H143.789V181.832Z" fill="#FBB03B"/>
<path d="M137.635 172.535H133.837V177.38H137.635V172.535Z" fill="#FBB03B"/>
<path d="M143.789 172.535H139.992V177.38H143.789V172.535Z" fill="#FBB03B"/>
<path d="M150.074 181.832H146.277V195.974H150.074V181.832Z" fill="#FBB03B"/>
<path d="M150.074 172.535H146.277V177.38H150.074V172.535Z" fill="#FBB03B"/>
<path d="M182.286 260.133L176.525 270.215C175.477 271.918 176.132 274.144 177.834 275.191C178.358 275.453 179.013 275.715 179.667 275.715C180.977 275.715 182.155 275.06 182.81 273.882L186.345 269.692L185.56 286.452C185.429 288.416 187 290.119 188.964 290.249H189.095C191.059 290.249 192.63 288.678 192.761 286.845L193.547 271.132C193.94 271.263 194.071 271.263 194.464 271.394L193.547 289.071C193.416 291.035 194.987 292.737 196.952 292.868H197.083C199.047 292.868 200.618 291.297 200.749 289.464L201.665 271.525H202.32L201.535 287.5C201.404 289.464 202.975 291.166 204.939 291.297H205.07C207.034 291.297 208.605 289.726 208.736 287.893L209.522 271.394C210.046 271.263 210.046 271.525 210.57 271.394L209.915 285.274C209.784 287.238 211.355 288.94 213.319 289.071H213.45C215.414 289.071 216.986 287.5 217.117 285.666L218.295 261.704" stroke="#FBB03B" stroke-width="2" stroke-miterlimit="10" stroke-linejoin="round"/>
<path d="M41.7851 103.788C41.5232 103.526 41.1304 103.395 40.7375 103.395L11.4065 96.8479C11.2756 96.8479 11.0137 96.8479 10.8828 96.717C9.18053 96.586 7.60923 97.7645 7.2164 99.4667L4.99039 109.156C4.59756 110.728 5.38321 112.299 6.69263 112.954C6.95452 113.085 7.34734 113.216 7.60923 113.347L36.9402 119.894C37.0712 119.894 37.3331 119.894 37.464 119.894C39.1662 120.025 40.7375 118.846 41.1304 117.144L43.3564 107.454C43.8802 106.014 43.0945 104.573 41.7851 103.788Z" stroke="#FBB03B" stroke-width="2" stroke-miterlimit="10"/>
<path d="M216.462 245.861C216.331 245.861 216.069 245.73 215.807 245.73H185.69C185.297 245.73 185.036 245.73 184.643 245.861C183.202 246.254 182.155 247.564 182.155 249.135V259.087C182.155 260.789 183.464 262.36 185.166 262.491C185.297 262.491 185.559 262.491 185.69 262.491H215.807C216.2 262.491 216.462 262.491 216.854 262.36C218.295 261.967 219.342 260.658 219.342 258.956V249.004C219.473 247.564 218.164 246.123 216.462 245.861Z" stroke="#FBB03B" stroke-width="2" stroke-miterlimit="10"/>
<path d="M178.75 236.826H74.9133C73.7348 236.826 72.8182 235.91 72.8182 234.731V226.22C72.8182 225.042 73.7348 224.125 74.9133 224.125H178.619C179.798 224.125 180.714 225.042 180.714 226.22V234.6C180.845 235.91 179.929 236.826 178.75 236.826Z" stroke="#FBB03B" stroke-width="2" stroke-miterlimit="10"/>
<path d="M126.766 236.433C123.493 236.433 120.743 233.684 120.743 230.41C120.743 227.136 123.493 224.387 126.766 224.387C130.04 224.387 132.79 227.136 132.79 230.41C132.79 233.815 130.04 236.433 126.766 236.433Z" stroke="#FBB03B" stroke-width="2" stroke-miterlimit="10"/>
<path d="M126.766 234.079C128.719 234.079 130.302 232.496 130.302 230.543C130.302 228.591 128.719 227.008 126.766 227.008C124.814 227.008 123.231 228.591 123.231 230.543C123.231 232.496 124.814 234.079 126.766 234.079Z" fill="#FBB03B"/>
<path d="M90.7575 126.049C93.7691 131.286 90.2337 138.881 83.0319 142.94C75.8301 147.13 67.4498 146.345 64.4381 141.107C61.4265 135.869 64.9619 128.275 72.1637 124.216C79.4964 120.156 87.8767 120.942 90.7575 126.049Z" stroke="#FBB03B" stroke-width="2" stroke-miterlimit="10"/>
<path d="M163.692 126.049C160.681 131.286 164.216 138.881 171.418 142.94C178.62 147.13 187 146.345 190.012 141.107C193.023 135.869 189.488 128.275 182.286 124.216C174.953 120.156 166.704 120.942 163.692 126.049Z" stroke="#FBB03B" stroke-width="2" stroke-miterlimit="10"/>
<path d="M170.632 53.3786C170.632 53.3786 170.501 53.2476 170.501 53.1167C170.37 52.9858 170.239 52.7239 170.108 52.5929C169.846 52.3311 169.584 52.0692 169.323 51.8073C168.93 51.4145 168.668 51.1526 168.275 50.7597C167.751 50.236 167.097 49.7122 166.573 49.1884C165.918 48.6647 165.263 48.01 164.609 47.4862C163.823 46.9624 163.168 46.3077 162.383 45.784C161.597 45.2602 160.811 44.7364 160.026 44.2126C159.895 44.2126 159.895 44.2126 159.895 44.0817C159.24 43.6889 158.585 43.2961 157.931 42.9032C155.574 41.4629 152.955 40.2844 150.205 39.3678C149.55 39.1059 148.896 38.844 148.11 38.7131C146.146 38.0584 144.182 37.5346 142.218 37.0108C141.563 36.8799 140.908 36.749 140.123 36.618C139.206 36.4871 138.289 36.2252 137.373 36.0942C136.456 35.9633 135.67 35.8324 134.754 35.7014C132.397 35.4395 130.171 35.3086 127.683 35.3086C125.326 35.3086 122.969 35.4395 120.612 35.7014C119.696 35.8324 118.779 35.8324 117.993 36.0942C117.077 36.2252 116.16 36.3561 115.244 36.618C112.494 37.1418 109.875 37.7965 107.256 38.7131C106.601 38.975 105.816 39.2369 105.161 39.3678C104.506 39.6297 103.721 39.8916 103.066 40.1534C101.364 40.9391 99.7924 41.5938 98.2211 42.5104C97.9592 42.6413 97.6973 42.7723 97.4354 43.0342C96.7807 43.427 96.126 43.8198 95.4713 44.2126C95.4713 44.2126 95.3404 44.2126 95.3404 44.3436C94.5547 44.8674 93.7691 45.3911 92.9834 45.9149C92.1978 46.4387 91.543 46.9624 90.7574 47.6171C89.317 48.7956 87.8767 49.9741 86.6982 51.2835C86.0435 51.9382 85.3888 52.5929 84.865 53.2476C78.7107 60.0566 75.1753 68.4369 75.1753 77.4719C75.1753 100.518 98.7448 119.373 127.683 119.373C151.253 119.373 171.156 106.934 177.834 89.9114C179.405 85.9831 180.191 81.793 180.191 77.4719C180.06 68.4369 176.655 60.0566 170.632 53.3786ZM79.8892 89.7805L96.7807 45.653H96.9117C97.5664 45.2602 98.2211 44.8674 98.8758 44.6055C99.1377 44.4745 99.3996 44.3436 99.6614 44.2126C101.102 43.427 102.673 42.6413 104.244 41.9866C104.899 41.7247 105.554 41.4629 106.209 41.201C106.863 40.9391 107.518 40.6772 108.173 40.5463C110.661 39.6297 113.148 38.975 115.767 38.5821C116.422 38.4512 116.946 38.3203 117.6 38.1893L91.8049 105.363C86.4363 101.041 82.3771 95.6728 79.8892 89.7805ZM102.149 111.779C100.054 110.731 98.0901 109.684 96.126 108.505L123.231 37.4037C124.671 37.2727 126.112 37.2727 127.552 37.2727C128.6 37.2727 129.647 37.2727 130.564 37.4037L102.149 111.779Z" fill="#FBB03B"/>
<path d="M130.302 181.832C130.302 181.701 130.302 181.701 130.302 181.832C130.171 181.439 130.171 181.046 130.04 180.653L129.909 180.261C129.778 179.999 129.778 179.737 129.647 179.475C129.516 179.344 129.516 179.082 129.385 178.951C129.254 178.82 129.254 178.558 129.124 178.427C128.993 178.165 128.862 177.904 128.731 177.642C128.731 177.511 128.6 177.38 128.6 177.38C128.469 177.118 128.207 176.725 128.076 176.463C128.076 176.463 128.076 176.463 128.076 176.332C127.028 174.892 125.719 173.582 124.279 172.535C124.279 172.535 124.148 172.535 124.148 172.404C123.886 172.273 123.493 172.011 123.231 171.88C123.1 171.749 122.969 171.749 122.838 171.618C122.576 171.487 122.315 171.356 122.053 171.226C121.791 171.095 121.66 171.095 121.398 170.964C121.267 170.833 121.005 170.833 120.874 170.702C120.612 170.571 120.35 170.44 120.089 170.44C119.958 170.44 119.827 170.44 119.827 170.309C119.434 170.178 119.041 170.178 118.779 170.047C117.862 169.916 116.946 169.785 116.029 169.785C115.113 169.785 114.196 169.916 113.28 170.047C112.887 170.178 112.494 170.178 112.232 170.309C112.101 170.309 111.97 170.309 111.839 170.44C111.577 170.571 111.315 170.571 111.054 170.702C110.923 170.833 110.661 170.833 110.53 170.964C110.268 171.095 110.137 171.095 110.006 171.226C109.744 171.356 109.482 171.487 109.22 171.618C109.089 171.618 108.958 171.749 108.827 171.88C108.566 172.011 108.173 172.273 107.911 172.404C107.911 172.404 107.911 172.404 107.78 172.404C106.209 173.452 105.03 174.761 103.983 176.201C103.983 176.201 103.983 176.201 103.983 176.332C103.721 176.594 103.59 176.987 103.459 177.249C103.459 177.38 103.328 177.511 103.328 177.511C103.197 177.773 103.066 178.034 102.935 178.296C102.804 178.427 102.804 178.689 102.673 178.82C102.542 178.951 102.542 179.213 102.411 179.344C102.28 179.606 102.28 179.868 102.149 180.13L102.019 180.522C101.888 180.915 101.888 181.177 101.757 181.57V181.701C101.626 182.617 101.495 183.534 101.495 184.451C101.495 185.367 101.626 186.284 101.757 187.2V187.331C101.888 187.724 101.888 187.986 102.019 188.379L102.149 188.772C102.28 189.034 102.28 189.296 102.411 189.557C102.542 189.688 102.542 189.95 102.673 190.081C102.804 190.212 102.804 190.474 102.935 190.605C103.066 190.867 103.197 191.129 103.328 191.391C103.328 191.522 103.459 191.652 103.459 191.652C103.59 191.914 103.852 192.307 103.983 192.569C103.983 192.569 103.983 192.569 103.983 192.7C105.03 194.271 106.34 195.581 107.78 196.497C107.78 196.497 107.78 196.497 107.911 196.497C108.173 196.759 108.566 196.89 108.827 197.021C108.958 197.021 109.089 197.152 109.089 197.152C109.351 197.283 109.613 197.414 109.875 197.545C110.006 197.676 110.268 197.676 110.399 197.807C110.53 197.938 110.792 197.938 111.054 198.069C111.315 198.2 111.577 198.2 111.839 198.331C111.97 198.331 112.101 198.331 112.232 198.461C112.625 198.592 112.887 198.592 113.28 198.723C113.28 198.723 113.28 198.723 113.41 198.723C114.327 198.854 115.244 198.985 116.16 198.985C117.077 198.985 117.993 198.854 118.91 198.723C118.91 198.723 118.91 198.723 119.041 198.723C119.434 198.592 119.696 198.592 120.089 198.461C120.219 198.461 120.35 198.461 120.481 198.331C120.743 198.2 121.005 198.2 121.267 198.069C121.398 197.938 121.66 197.938 121.791 197.807C121.922 197.676 122.184 197.676 122.315 197.545C122.576 197.414 122.838 197.283 123.1 197.152C123.231 197.152 123.362 197.021 123.493 196.89C123.755 196.759 124.148 196.497 124.41 196.366C124.41 196.366 124.41 196.366 124.541 196.366C125.981 195.319 127.29 194.009 128.338 192.569C128.338 192.569 128.338 192.569 128.338 192.438C128.6 192.176 128.731 191.783 128.862 191.522C128.862 191.391 128.993 191.26 128.993 191.26C129.124 190.998 129.254 190.736 129.385 190.474C129.516 190.343 129.516 190.081 129.647 189.95C129.778 189.819 129.778 189.557 129.909 189.426C130.04 189.165 130.04 188.903 130.171 188.641L130.302 188.248C130.433 187.855 130.433 187.593 130.564 187.2C130.564 187.2 130.564 187.2 130.564 187.07C130.695 186.153 130.826 185.236 130.826 184.32C130.564 183.534 130.433 182.617 130.302 181.832ZM103.197 179.868C103.328 179.737 103.328 179.475 103.459 179.344C103.59 179.213 103.59 178.951 103.721 178.82C103.852 178.558 103.983 178.296 104.114 178.165C104.114 178.035 104.245 178.035 104.245 177.904C104.375 177.642 104.637 177.38 104.768 176.987C105.161 176.463 105.554 175.939 106.078 175.416L111.054 180.391H103.197C103.066 180.13 103.066 179.999 103.197 179.868ZM112.363 182.617C113.41 182.617 114.196 183.403 114.196 184.451C114.196 185.498 113.41 186.284 112.363 186.284C111.315 186.284 110.53 185.498 110.53 184.451C110.53 183.403 111.315 182.617 112.363 182.617ZM107.387 184.451C107.387 185.498 106.601 186.284 105.554 186.284C104.506 186.284 103.721 185.498 103.721 184.451C103.721 183.403 104.506 182.617 105.554 182.617C106.601 182.617 107.387 183.403 107.387 184.451ZM104.637 192.176C104.637 192.176 104.637 192.045 104.637 192.176C104.375 191.914 104.245 191.522 104.114 191.26C104.114 191.129 103.983 191.129 103.983 190.998C103.852 190.736 103.721 190.474 103.59 190.343C103.459 190.212 103.459 189.95 103.328 189.819C103.197 189.688 103.197 189.426 103.066 189.296C103.066 189.165 102.935 189.034 102.935 188.903H110.792L105.816 193.878C105.423 193.224 105.03 192.7 104.637 192.176ZM115.375 198.069C114.72 198.069 114.065 197.938 113.41 197.807C113.41 197.807 113.41 197.807 113.28 197.807C112.887 197.807 112.625 197.676 112.363 197.545C112.232 197.545 112.101 197.545 111.97 197.414C111.708 197.283 111.446 197.283 111.184 197.152C111.054 197.021 110.792 197.021 110.661 196.89C110.53 196.759 110.268 196.759 110.137 196.628C109.875 196.497 109.613 196.366 109.351 196.235C109.22 196.235 109.22 196.104 109.089 196.104C108.827 195.974 108.435 195.712 108.173 195.581C107.649 195.188 107.125 194.795 106.601 194.271L112.363 188.51H115.375V198.069ZM115.375 170.964V180.261H112.363L106.601 174.499C107.125 174.106 107.649 173.582 108.173 173.19C108.435 173.059 108.697 172.797 109.089 172.666C109.22 172.666 109.22 172.535 109.351 172.535C109.613 172.404 109.875 172.273 110.137 172.142C110.268 172.011 110.53 172.011 110.661 171.88C110.792 171.749 111.054 171.749 111.184 171.618C111.446 171.487 111.708 171.487 111.97 171.356C112.101 171.356 112.232 171.356 112.363 171.226C112.625 171.095 113.018 171.095 113.28 170.964H113.41C114.065 170.964 114.72 170.964 115.375 170.964ZM127.159 176.856C127.421 177.249 127.552 177.511 127.683 177.773C127.683 177.904 127.814 177.904 127.814 178.035C127.945 178.296 128.076 178.558 128.207 178.689C128.338 178.82 128.338 179.082 128.469 179.213C128.6 179.344 128.6 179.606 128.731 179.737C128.731 179.868 128.862 179.999 128.862 180.13H121.005L125.981 175.154C126.374 175.808 126.767 176.332 127.159 176.856ZM128.207 184.451C128.207 185.498 127.421 186.284 126.374 186.284C125.326 186.284 124.541 185.498 124.541 184.451C124.541 183.403 125.326 182.617 126.374 182.617C127.421 182.617 128.207 183.403 128.207 184.451ZM121.267 184.451C121.267 185.498 120.481 186.284 119.434 186.284C118.386 186.284 117.601 185.498 117.601 184.451C117.601 183.403 118.386 182.617 119.434 182.617C120.481 182.617 121.267 183.403 121.267 184.451ZM116.422 170.964C117.077 170.964 117.732 171.095 118.386 171.226C118.386 171.226 118.386 171.226 118.517 171.226C118.779 171.226 119.172 171.356 119.434 171.487C119.565 171.487 119.696 171.487 119.827 171.618C120.089 171.749 120.35 171.749 120.612 171.88C120.743 172.011 121.005 172.011 121.136 172.142C121.267 172.273 121.529 172.273 121.66 172.404C121.922 172.535 122.184 172.666 122.315 172.797C122.445 172.797 122.445 172.928 122.576 172.928C122.838 173.059 123.1 173.321 123.493 173.452C124.017 173.844 124.541 174.237 125.064 174.761L119.303 180.522H116.291V170.964H116.422ZM123.624 195.712C123.493 195.712 123.493 195.712 123.624 195.712C123.231 195.974 122.969 196.105 122.707 196.235C122.576 196.235 122.445 196.366 122.445 196.366C122.184 196.497 122.053 196.628 121.791 196.759C121.66 196.89 121.398 196.89 121.267 197.021C121.136 197.152 120.874 197.152 120.743 197.152C120.481 197.283 120.219 197.283 119.958 197.414C119.827 197.414 119.696 197.414 119.696 197.545C119.303 197.676 119.041 197.676 118.648 197.807C117.993 197.938 117.339 198.069 116.553 198.069V188.772H119.565L125.326 194.533C124.671 194.926 124.148 195.319 123.624 195.712ZM128.6 189.165C128.469 189.296 128.469 189.557 128.338 189.688C128.207 189.819 128.207 190.081 128.076 190.212C127.945 190.474 127.814 190.736 127.683 190.867C127.683 190.998 127.552 190.998 127.552 191.129C127.421 191.391 127.159 191.652 127.028 192.045C126.636 192.569 126.243 193.093 125.719 193.617L120.743 188.641H128.6C128.731 188.903 128.731 189.034 128.6 189.165Z" fill="#FBB03B"/>
<path d="M130.875 30.6128C136.024 28.4918 138.478 22.5986 136.357 17.45C134.236 12.3015 128.343 9.84714 123.195 11.9682C118.046 14.0892 115.592 19.9823 117.713 25.1309C119.834 30.2795 125.727 32.7338 130.875 30.6128Z" stroke="#FBB03B" stroke-width="2" stroke-miterlimit="10"/>
<path d="M133.183 21.2949C133.183 24.6994 130.433 27.4492 127.029 27.4492C123.624 27.4492 120.874 24.6994 120.874 21.2949C120.874 17.8904 123.624 15.1406 127.029 15.1406C130.433 15.1406 133.183 17.8904 133.183 21.2949Z" stroke="#FBB03B" stroke-width="2" stroke-miterlimit="10"/>
<path d="M127.028 24.9617C129.053 24.9617 130.695 23.3202 130.695 21.2953C130.695 19.2704 129.053 17.6289 127.028 17.6289C125.004 17.6289 123.362 19.2704 123.362 21.2953C123.362 23.3202 125.004 24.9617 127.028 24.9617Z" fill="#FBB03B"/>
<path d="M183.202 233.161L215.283 228.316" stroke="#FBB03B" stroke-width="2" stroke-miterlimit="10"/>
<path d="M183.595 238.134L216.462 235.516" stroke="#FBB03B" stroke-width="2" stroke-miterlimit="10"/>
<path d="M183.857 242.327L216.855 241.672" stroke="#FBB03B" stroke-width="2" stroke-miterlimit="10"/>
<path d="M0.931274 135.347L37.726 133.906" stroke="#FBB03B" stroke-width="2" stroke-miterlimit="10"/>
<path d="M2.63354 126.18L37.8569 128.013" stroke="#FBB03B" stroke-width="2" stroke-miterlimit="10"/>
<path d="M3.41907 117.145L38.6425 124.084" stroke="#FBB03B" stroke-width="2" stroke-miterlimit="10"/>
<path d="M175.346 204.352L175.477 144.773" stroke="#FBB03B" stroke-width="2" stroke-miterlimit="10"/>
<path d="M78.4489 268.383H115.898" stroke="#FBB03B" stroke-width="2" stroke-miterlimit="10"/>
<path d="M78.4489 286.715H115.898" stroke="#FBB03B" stroke-width="2" stroke-miterlimit="10"/>
<path d="M78.4489 304.918H115.898" stroke="#FBB03B" stroke-width="2" stroke-miterlimit="10"/>
<path d="M78.4489 323.117H115.898" stroke="#FBB03B" stroke-width="2" stroke-miterlimit="10"/>
<path d="M137.897 268.383H175.346" stroke="#FBB03B" stroke-width="2" stroke-miterlimit="10"/>
<path d="M137.897 286.715H175.346" stroke="#FBB03B" stroke-width="2" stroke-miterlimit="10"/>
<path d="M137.897 304.918H175.346" stroke="#FBB03B" stroke-width="2" stroke-miterlimit="10"/>
<path d="M137.897 323.117H175.346" stroke="#FBB03B" stroke-width="2" stroke-miterlimit="10"/>
<path d="M41.5232 103.658C45.0586 101.956 47.6775 99.0752 48.856 98.1586L53.5699 97.242C55.2721 96.9801 56.3197 95.2779 55.9268 93.7066L55.6649 92.0043C55.4031 90.433 53.8318 89.5165 52.1295 89.7783L48.5941 90.433V90.1712L53.5699 89.2546C55.534 88.8617 56.5815 87.0286 56.3197 85.3263L55.9268 83.4931C55.6649 81.7909 53.9627 80.8743 51.9986 81.1362L47.6775 82.1837V81.7909L52.7842 80.8743C54.7483 80.4815 56.1887 78.7792 55.7959 77.077L55.4031 75.2438C55.1412 73.5415 53.177 72.494 51.082 72.8868L46.3681 73.8034V73.5415L50.6891 72.7559C52.5223 72.3631 53.7008 70.7917 53.308 69.0895L52.9152 67.2563C52.6533 65.5541 50.951 64.5065 49.1178 64.7684L35.3689 67.3873C32.6192 67.7801 32.2263 64.1137 32.2263 64.1137C31.3097 58.0904 30.5241 53.3765 29.6075 51.8052C29.6075 51.8052 29.6075 51.6742 29.4765 51.6742C27.3815 48.2697 22.1438 50.2339 22.6676 54.1621L23.3223 58.4832C23.3223 58.4832 20.1797 67.2563 17.5608 70.9227C13.7635 76.2913 14.942 90.0402 14.942 90.0402L13.2397 97.242" stroke="#FBB03B" stroke-width="2" stroke-miterlimit="10"/>
<path d="M64.7002 141.631C57.7602 146.869 51.606 148.833 43.6185 144.25C40.6068 142.547 36.6786 139.012 37.3333 132.989C38.1189 126.965 39.5593 119.895 39.5593 119.895" stroke="#FBB03B" stroke-width="2" stroke-miterlimit="10"/>
<path d="M78.449 175.282C62.0813 183.532 40.9996 184.187 24.37 175.282C7.6094 166.247 2.6336 153.153 1.84795 142.154C0.669474 126.703 5.38338 111.383 5.38338 111.383" stroke="#FBB03B" stroke-width="2" stroke-miterlimit="10"/>
</svg>
